<?xml version="1.0" encoding="UTF-8" standalone="no"?>
<!-- Created with Inkscape (http://www.inkscape.org/) -->

<svg
   width="55.560421"
   height="120.76377"
   viewBox="0 0 14.700362 31.952057"
   version="1.1"
   id="svg1"
   xml:space="preserve"
   xmlns="http://www.w3.org/2000/svg"
   xmlns:svg="http://www.w3.org/2000/svg"><defs
     id="defs1" /><g
     id="back"
     transform="translate(-15.508813,-0.26414253)"><path
       style="display:inline;fill:none;stroke:#000000;stroke-width:0.056742;stroke-linecap:round;stroke-linejoin:round;stroke-dasharray:none;paint-order:stroke fill markers"
       d="M 21.483688,5.0668392 C 21.301149,4.638894 21.162477,4.1812069 21.140332,3.7132335 c -0.03606,-0.551893 -0.0035,-1.1374684 0.302626,-1.6214442 0.126035,-0.2169417 0.332485,-0.3721145 0.537818,-0.5107874 0.21397,-0.013989 0.355513,-0.3183044 0.07569,-0.346812 -0.178326,-0.086709 -0.230706,-0.34004474 -0.147337,-0.50212658 0.0985,-0.19525962 0.265091,-0.38032859 0.50506,-0.39427677 0.264348,-0.0301511 0.527901,-0.0519296 0.792595,-0.0174754 0.238746,-1.5614e-4 0.495856,0.0813065 0.610265,0.30052187 0.137002,0.15050241 0.139431,0.38574518 0.01473,0.54410268 -0.104906,0.083273 -0.384119,0.1480261 -0.20517,0.3200465 0.203446,0.098519 0.39003,0.2240153 0.550122,0.38215 0.415321,0.4491384 0.513855,1.083646 0.48392,1.6664018 -0.0065,0.5008842 -0.115981,1.0009099 -0.32641,1.458788 l -0.235678,0.1539629 -0.400106,0.134823 -0.301529,0.1123526 -0.272536,0.089882 -0.301528,0.011236 -0.284134,-0.011236 -0.249341,-0.084264 -0.34212,-0.1235879 -0.284133,-0.1067348 z"
       id="hair_outline_back" /><path
       style="fill:none;stroke:#000000;stroke-width:0.056742;stroke-linecap:round;stroke-linejoin:round;stroke-dasharray:none;paint-order:stroke fill markers"
       d="m 22.833626,16.80286 c -0.420212,-0.08526 0.0015,0.45889 -0.118317,0.720307 -0.01707,1.557847 -0.0502,3.126228 -0.287038,4.667529 -0.07487,1.04006 -0.02841,2.0884 0.202396,3.111635 0.09985,0.899217 -0.04077,1.809872 -0.278335,2.668373 -6.8e-5,0.806992 -0.171576,1.635274 -0.029,2.426815 -0.128691,0.53845 0.282447,1.126317 0.04638,1.674052 -0.391849,0.160111 -0.918811,0.02404 -1.36195,0.07172 -0.45299,0.193951 -0.717671,-0.290008 -0.275841,-0.492823 0.311181,-0.188413 0.300067,-0.611936 0.553061,-0.872338 -0.02863,-0.303624 0.0098,-0.610671 0.12214,-0.914279 0.01058,-1.232643 -0.540337,-2.37722 -0.835354,-3.555498 -0.153977,-1.017631 0.229322,-2.023956 0.394386,-3.007396 -0.09165,-0.778389 -0.185059,-1.549517 -0.473416,-2.288342 -0.571717,-1.90982 -0.989359,-3.93156 -0.651869,-5.918439 0.103938,-0.822595 0.483756,-1.579954 0.986381,-2.234879 0.116627,-0.606254 -0.04235,-1.264249 0.0095,-1.891715 0.05196,-0.361027 0.01343,-0.659034 -0.271374,-0.904733 -0.156414,-0.6067455 -0.103907,0.125234 -0.213835,0.387602 -0.09035,0.46954 -0.279208,0.915866 -0.544778,1.313409 0.01863,0.858837 -0.687891,1.530912 -1.171324,2.190875 -0.492825,0.608282 -1.1318,1.181828 -1.19518,2.000106 -0.137966,0.51901 -0.323491,1.055945 -0.706772,1.454733 -0.232559,-0.04339 -0.432884,0.208379 -0.683487,0.138807 -0.397312,0.02533 0.02613,-0.567607 -0.328984,-0.504864 0.01158,-0.472391 0.219981,-0.965235 0.4906,-1.336087 -0.109296,0.04781 -0.830604,0.49445 -0.643642,-0.06742 0.329867,-0.228127 0.701111,-0.401188 0.979969,-0.707822 0.426834,-0.0421 0.564154,-0.548036 0.800211,-0.848264 0.383562,-0.841824 0.451729,-1.839227 1.15425,-2.53061 0.402392,-0.242058 0.167985,-0.687545 0.254699,-1.066913 C 18.786353,9.9596602 19.024637,9.4597709 19.1724,8.9750795 19.15424,8.1857978 19.10409,7.1097518 19.998129,6.7473035 20.655993,6.4604 21.700709,6.7295052 22.033403,5.9439879 22.059314,5.6396135 21.697881,5.3166912 21.496307,5.0681586 20.882629,4.1459593 20.98537,2.4933293 21.732493,1.76608 c 0.178935,-0.1591872 0.321716,-0.1885615 0.404253,-0.2586081 0.02054,-0.017429 0.01568,-8.407e-4 0.07929,-0.1346699 0.04242,-0.089254 -0.0024,-0.1464733 -0.224069,-0.1862111 -0.19861,-0.035598 -0.124844,-0.32733766 -0.100592,-0.45714134 0.02425,-0.12980379 0.166828,-0.23604911 0.405335,-0.33689867 0.741003,-0.32358983 2.305827,0.18266961 1.271709,0.98156321 1.287357,0.8345853 1.305492,2.1282205 0.904687,3.2675418 -0.205208,0.4001474 -0.515119,0.7584035 -0.821039,1.1113326 0.04492,0.760228 1.017752,0.8089179 1.617816,0.8707321 0.804587,0.047188 1.300138,0.8185707 1.26807,1.5494956 6.2e-4,0.4843657 -0.04855,0.9626125 0.216378,1.3941407 0.190843,0.5607821 0.259899,1.1537251 0.208752,1.7414631 0.748091,0.618825 1.016482,1.572249 1.258269,2.454331 0.194142,0.397612 0.415369,0.891162 0.785228,1.128749 0.400988,0.12257 0.632511,0.565392 1.070371,0.669468 0.373305,0.470949 -0.368564,0.42541 -0.549673,0.107893 0.08757,0.247695 0.346517,0.614024 0.404325,0.952716 0.258621,0.45049 -0.180016,0.396686 -0.08492,0.690171 0.04404,0.401428 -0.396795,0.151493 -0.581525,0.204159 -0.207124,-0.189002 -0.537457,-0.202526 -0.659588,-0.648455 -0.40816,-0.724855 -0.310173,-1.6544 -0.972639,-2.248984 -0.649219,-0.846376 -1.532045,-1.629637 -1.742579,-2.703331 0.03346,-0.373136 -0.37983,-0.642423 -0.41022,-1.027241 -0.100998,-0.36672 -0.228702,-0.740172 -0.20442,-1.1243102 -0.02824,0.3021082 -0.428794,0.4983232 -0.403714,0.8082202 0.0568,0.752495 -0.07613,1.531567 0.0051,2.266141 0.512177,0.675612 0.899218,1.452148 1.006844,2.297026 0.366129,2.320831 -0.243881,4.65331 -0.973564,6.852567 -0.01291,0.670457 -0.320261,1.344888 -0.01159,1.994258 0.22971,1.03481 0.477771,2.146129 0.0058,3.157106 -0.310803,0.92984 -0.652158,1.910848 -0.570483,2.890538 0.243561,0.311664 -0.07024,0.667272 0.216743,0.957537 0.207563,0.257878 0.197175,0.642668 0.574059,0.752761 0.355554,0.485741 -0.348171,0.430466 -0.672273,0.402309 -0.362557,-0.0887 -0.94397,0.18517 -1.154293,-0.166377 -0.115177,-0.588271 0.213015,-1.162755 0.110159,-1.730229 0.09039,-0.795466 -0.02458,-1.645415 -0.07645,-2.445389 -0.405615,-1.196217 -0.298537,-2.475706 -0.05081,-3.691266 0.09558,-0.985592 0.01189,-1.972335 -0.139475,-2.947046 -0.05752,-1.400107 -0.218407,-2.809146 -0.104388,-4.207603 0.15429,-0.223901 -0.02998,-0.131762 -0.203784,-0.151679 z"
       id="outline_back" /><g
       id="levator_scapulae"><path
         style="fill:none;stroke:#000000;stroke-width:0.056742;stroke-linecap:round;stroke-linejoin:round;stroke-dasharray:none;paint-order:stroke fill markers"
         d="m 23.420123,5.4384013 c -0.03922,0.4771247 0.194119,1.0182193 0.727718,1.1094758 0.08584,0.1220006 -0.493259,0.067176 -0.662104,0.176995 -0.41823,0.2980512 -0.361433,-0.1248888 -0.357912,-0.431842 0.06951,-0.2694782 -0.209604,-0.7887655 0.184544,-0.8256319 0.03592,-0.00967 0.07184,-0.019331 0.107754,-0.028997 z"
         id="right_levator_scapulae"><title
           id="title241">levator_scapulae</title></path><path
         style="fill:none;stroke:#000000;stroke-width:0.056742;stroke-linecap:round;stroke-linejoin:round;stroke-dasharray:none;paint-order:stroke fill markers"
         d="m 22.344008,5.4384013 c 0.03922,0.4771247 -0.194119,1.0182193 -0.727718,1.1094758 -0.08584,0.1220006 0.493259,0.067176 0.662104,0.176995 0.41823,0.2980512 0.361432,-0.1248888 0.357912,-0.431842 -0.06952,-0.2694782 0.209604,-0.7887655 -0.184544,-0.8256319 -0.03592,-0.00967 -0.07184,-0.019331 -0.107754,-0.028997 z"
         id="left_levator_scapulae"><title
           id="title248">levator_scapulae</title></path></g><g
       id="trapezius"><path
         style="fill:none;stroke:#000000;stroke-width:0.056742;stroke-linecap:round;stroke-linejoin:round;stroke-dasharray:none;paint-order:stroke fill markers"
         d="m 23.031614,7.2585123 c 0.549363,-0.4561241 1.338046,-0.4933244 2.030065,-0.5149893 0.532195,0.049025 -0.146416,0.1312525 -0.269023,0.3138635 -0.698539,0.6844546 -0.610293,1.9010837 -1.56021,2.3823734 -0.363094,0.307205 -0.21022,-0.3218312 -0.231089,-0.5188356 0.01008,-0.5541374 0.02017,-1.1082746 0.03026,-1.662412 z"
         id="right_trapezius"><title
           id="title237">trapezius</title></path><path
         style="fill:none;stroke:#000000;stroke-width:0.056742;stroke-linecap:round;stroke-linejoin:round;stroke-dasharray:none;paint-order:stroke fill markers"
         d="M 22.732517,7.2585123 C 22.183154,6.8023882 21.394471,6.7651879 20.702452,6.743523 c -0.532195,0.049025 0.146416,0.1312525 0.269023,0.3138635 0.698539,0.6844546 0.610293,1.9010837 1.56021,2.3823734 0.363094,0.307205 0.21022,-0.3218312 0.231089,-0.5188356 -0.01008,-0.5541374 -0.02017,-1.1082746 -0.03026,-1.662412 z"
         id="path249"><title
           id="title249">trapezius</title></path></g><g
       id="posterior_deltoid"><path
         style="fill:none;stroke:#000000;stroke-width:0.056742;stroke-linecap:round;stroke-linejoin:round;stroke-dasharray:none;paint-order:stroke fill markers"
         d="m 24.927767,7.2079536 c 0.306394,-0.2738128 0.802926,-0.389086 1.101741,-0.039323 0.40524,0.4504443 0.279947,1.0834739 0.266737,1.6291115 C 25.878892,8.3171687 25.494611,7.786166 25.001387,7.3614403 24.991587,7.2868393 24.747253,7.2545688 24.927767,7.2079536 Z"
         id="right_posterior_deltoid"><title
           id="title238">posterior_deltoid</title></path><path
         style="fill:none;stroke:#000000;stroke-width:0.056742;stroke-linecap:round;stroke-linejoin:round;stroke-dasharray:none;paint-order:stroke fill markers"
         d="m 20.836363,7.2079536 c -0.306393,-0.2738128 -0.802925,-0.389086 -1.10174,-0.039323 -0.40524,0.4504443 -0.279947,1.0834739 -0.266737,1.6291115 0.417353,-0.4805734 0.801633,-1.0115761 1.294858,-1.4363018 0.0098,-0.074601 0.254134,-0.1068715 0.07362,-0.1534871 z"
         id="left_posterior_deltoid"><title
           id="title250">posterior_deltoid</title></path></g><g
       id="latissimus_dorsi"><path
         id="right_latissimus_dorsi"
         style="fill:none;stroke:#000000;stroke-width:0.056742;stroke-linecap:round;stroke-linejoin:round;stroke-dasharray:none;paint-order:stroke fill markers"
         d="m 24.214775,8.9157382 c -0.360998,0.3969216 -0.704168,0.8168888 -1.160166,1.1180768 -0.16714,0.361763 -0.124253,0.796852 0.03935,1.155346 0.263993,0.540121 0.753237,1.001642 1.248176,1.322022 0.0662,-1.195423 0.406374,-2.362694 0.72478,-3.5167654 -0.285282,0.051425 -0.60353,0.1066691 -0.852135,-0.078679 z m -1.113574,2.8536838 c -0.0034,0.806469 -0.08556,1.614065 0.04038,2.41577 0.37448,-0.445475 0.837917,-0.82676 1.124962,-1.337033 -0.454149,-0.283482 -0.789469,-0.708938 -1.165344,-1.078737 z"><title
           id="title311">latissimus_dorsi</title></path><path
         id="left_latissimus_dorsi"
         style="fill:none;stroke:#000000;stroke-width:0.056742;stroke-linecap:round;stroke-linejoin:round;stroke-dasharray:none;paint-order:stroke fill markers"
         d="m 21.549654,8.9157382 c -0.248604,0.1853485 -0.567371,0.1301042 -0.852652,0.078679 0.318405,1.1540718 0.658585,2.3213428 0.724779,3.5167658 0.494939,-0.32038 0.984183,-0.781901 1.248177,-1.322022 0.163597,-0.358494 0.206484,-0.793583 0.03934,-1.155346 C 22.2533,9.7326266 21.910648,9.3126594 21.549649,8.9157378 Z m 1.113056,2.8536838 c -0.375875,0.369799 -0.711194,0.795255 -1.165344,1.078737 0.287046,0.510273 0.750482,0.891558 1.124962,1.337033 0.12594,-0.801705 0.04375,-1.609301 0.04038,-2.41577 z"><title
           id="title310">latissimus_dorsi</title></path></g><g
       id="gluteus_medius"><path
         style="fill:none;stroke:#000000;stroke-width:0.056742;stroke-linecap:round;stroke-linejoin:round;stroke-dasharray:none;paint-order:stroke fill markers"
         d="m 23.791235,14.364809 c 0.28735,-0.252848 0.566016,-0.540451 0.986009,-0.547763 0.301461,0.0042 0.485839,0.381074 0.632331,0.618003 0.179649,0.339799 0.262257,0.731963 0.277811,1.109462 -0.471074,-0.595899 -1.184439,-0.98097 -1.948341,-1.084202 0.0174,-0.03183 0.03479,-0.06367 0.05219,-0.0955 z"
         id="right_gluteus_medius"><title
           id="title234">gluteus_medius</title></path><path
         style="fill:none;stroke:#000000;stroke-width:0.056742;stroke-linecap:round;stroke-linejoin:round;stroke-dasharray:none;paint-order:stroke fill markers"
         d="m 21.972895,14.364809 c -0.287349,-0.252848 -0.566015,-0.540451 -0.986008,-0.547763 -0.301461,0.0042 -0.485839,0.381074 -0.632331,0.618003 -0.179649,0.339799 -0.262257,0.731963 -0.277811,1.109462 0.471074,-0.595899 1.184439,-0.98097 1.948341,-1.084202 -0.0174,-0.03183 -0.03479,-0.06367 -0.05219,-0.0955 z"
         id="left_gluteus_medius"><title
           id="title252">gluteus_medius</title></path></g><g
       id="gluteus_maximus"><path
         style="fill:none;stroke:#000000;stroke-width:0.056742;stroke-linecap:round;stroke-linejoin:round;stroke-dasharray:none;paint-order:stroke fill markers"
         d="m 23.101198,14.527721 c 0.955679,0.07339 2.033465,0.413431 2.515852,1.275468 0.416207,0.759132 0.0062,1.630332 -0.503726,2.241166 -0.275229,-0.793481 -1.406677,-0.583712 -1.825758,-1.257149 -0.390639,-0.294752 -0.160244,-0.802895 -0.207888,-1.211145 0.0072,-0.349447 0.01435,-0.698893 0.02152,-1.04834 z"
         id="right_gluteus_maximus"><title
           id="title233">gluteus_maximus</title></path><path
         style="fill:none;stroke:#000000;stroke-width:0.056742;stroke-linecap:round;stroke-linejoin:round;stroke-dasharray:none;paint-order:stroke fill markers"
         d="m 22.662933,14.527721 c -0.955679,0.07339 -2.033465,0.413431 -2.515852,1.275468 -0.416207,0.759132 -0.0062,1.630332 0.503726,2.241166 0.275228,-0.793481 1.406677,-0.583712 1.825758,-1.257149 0.390639,-0.294752 0.160244,-0.802895 0.207888,-1.211145 -0.0072,-0.349447 -0.01435,-0.698893 -0.02152,-1.04834 z"
         id="left_gluteus_maximus"><title
           id="title253">gluteus_maximus</title></path></g><g
       id="external_oblique"><path
         style="fill:none;stroke:#000000;stroke-width:0.056742;stroke-linecap:round;stroke-linejoin:round;stroke-dasharray:none;paint-order:stroke fill markers"
         d="m 24.690023,12.331229 c -0.01613,0.488743 0.219681,0.919075 0.307328,1.398789 -0.267977,-0.09368 -0.650181,-0.05726 -0.840802,-0.252789 -0.01608,-0.230525 0.29289,-0.458722 0.306782,-0.728708 0.07693,-0.132545 0.0537,-0.36559 0.226692,-0.417292 z"
         id="right_external_oblique"><title
           id="title236">external_oblique</title></path><path
         style="fill:none;stroke:#000000;stroke-width:0.056742;stroke-linecap:round;stroke-linejoin:round;stroke-dasharray:none;paint-order:stroke fill markers"
         d="m 21.074108,12.331229 c 0.01613,0.488743 -0.219681,0.919075 -0.307329,1.398789 0.267977,-0.09368 0.650182,-0.05726 0.840803,-0.252789 0.01609,-0.230525 -0.29289,-0.458722 -0.306783,-0.728708 -0.07693,-0.132545 -0.0537,-0.36559 -0.226691,-0.417292 z"
         id="left_external_oblique"><title
           id="title254">external_oblique</title></path></g><g
       id="infraspinatus"><path
         style="fill:none;stroke:#000000;stroke-width:0.056742;stroke-linecap:round;stroke-linejoin:round;stroke-dasharray:none;paint-order:stroke fill markers"
         d="m 24.765406,7.3034535 c -0.436079,0.4342019 -0.473307,1.0794901 -0.794414,1.5841703 0.240695,-0.021772 0.50924,-0.1997902 0.751083,-0.296802 C 24.98101,8.4034398 25.305818,8.2174726 25.345263,7.8764513 25.166278,7.6771836 24.977264,7.4499544 24.765406,7.3034535 Z"
         id="right_infraspinatus"><title
           id="title239">infraspinatus</title></path><path
         style="fill:none;stroke:#000000;stroke-width:0.056742;stroke-linecap:round;stroke-linejoin:round;stroke-dasharray:none;paint-order:stroke fill markers"
         d="m 20.998725,7.3034535 c 0.436079,0.4342019 0.473307,1.0794901 0.794414,1.5841703 -0.240695,-0.021772 -0.50924,-0.1997902 -0.751083,-0.296802 -0.258935,-0.187382 -0.583743,-0.3733492 -0.623189,-0.7143705 0.178986,-0.1992677 0.368,-0.4264969 0.579858,-0.5729978 z"
         id="left_infraspinatus"><title
           id="title255">infraspinatus</title></path></g><g
       id="teres_minor"><path
         style="fill:none;stroke:#000000;stroke-width:0.056742;stroke-linecap:round;stroke-linejoin:round;stroke-dasharray:none;paint-order:stroke fill markers"
         d="M 25.42645,7.9550979 C 25.21352,8.2481695 25.282405,8.4123015 25.624164,8.1761718 25.613242,8.1015609 25.529839,7.9318011 25.42645,7.9550979 Z"
         id="right_teres_minor"><title
           id="title247">teres_minor</title></path><path
         style="fill:none;stroke:#000000;stroke-width:0.056742;stroke-linecap:round;stroke-linejoin:round;stroke-dasharray:none;paint-order:stroke fill markers"
         d="m 20.33768,7.9550979 c 0.212931,0.2930716 0.144046,0.4572036 -0.197713,0.2210739 0.01092,-0.074611 0.09433,-0.2443707 0.197713,-0.2210739 z"
         id="left_teres_minor"><title
           id="title256">teres_minor</title></path></g><g
       id="teres_major"><path
         style="fill:none;stroke:#000000;stroke-width:0.056742;stroke-linecap:round;stroke-linejoin:round;stroke-dasharray:none;paint-order:stroke fill markers"
         d="m 25.548221,8.3595672 c -0.09927,0.2892099 -0.296924,0.6602155 -0.67844,0.5842321 -0.197707,0.1016789 -0.782622,-0.1102336 -0.31476,-0.1848536 0.347447,-0.092003 0.548714,-0.512319 0.947912,-0.3993787 z"
         id="right_teres_major"><title
           id="title240">teres_major</title></path><path
         style="fill:none;stroke:#000000;stroke-width:0.056742;stroke-linecap:round;stroke-linejoin:round;stroke-dasharray:none;paint-order:stroke fill markers"
         d="m 20.21591,8.3595672 c 0.09927,0.2892099 0.296924,0.6602155 0.67844,0.5842321 0.197707,0.1016789 0.782622,-0.1102336 0.31476,-0.1848536 -0.347447,-0.092003 -0.548715,-0.512319 -0.947912,-0.3993787 z"
         id="left_teres_major"><title
           id="title257">teres_major</title></path></g><g
       id="triceps"><path
         id="right_triceps"
         style="fill:none;stroke:#000000;stroke-width:0.056742;stroke-linecap:round;stroke-linejoin:round;stroke-dasharray:none;paint-order:stroke fill markers"
         d="m 25.675726,8.3991453 c -0.09157,0.1031007 9.6e-5,0.2586653 -0.07559,0.381492 -0.318218,0.8837779 -0.201951,1.9350097 0.441081,2.6575027 0.0027,-0.346098 0.02218,-0.706211 0.06368,-1.056479 0.02207,-0.6705703 0.211715,-1.5124304 -0.429173,-1.9825157 z m 0.533748,0.5171105 c -0.01394,-1.442e-4 -0.02219,0.011629 -0.0176,0.05021 0.172994,0.5196664 0.0594,1.0786942 -0.0176,1.6124112 -0.01933,0.188296 -0.01858,0.653413 0.221058,0.600449 0.16868,-0.155008 0.456192,0.161834 0.317868,-0.294531 0.02209,-0.673154 -0.02263,-1.3805041 -0.445739,-1.9467988 -0.0189,-0.00663 -0.04218,-0.021581 -0.05798,-0.02174 z"><title
           id="title309">triceps</title></path><path
         id="left_triceps"
         style="fill:none;stroke:#000000;stroke-width:0.056742;stroke-linecap:round;stroke-linejoin:round;stroke-dasharray:none;paint-order:stroke fill markers"
         d="m 20.088186,8.3991453 c -0.640889,0.4700853 -0.451245,1.3119454 -0.429174,1.9825157 0.0415,0.350268 0.06145,0.710381 0.06419,1.056479 0.643033,-0.722493 0.758782,-1.7737248 0.440563,-2.6575027 -0.07568,-0.1228267 0.01599,-0.2783913 -0.07558,-0.381492 z m -0.533749,0.5171105 c -0.0158,1.561e-4 -0.03856,0.015107 -0.05747,0.02174 -0.423109,0.5662947 -0.467833,1.2736452 -0.44574,1.9467992 -0.138324,0.456365 0.149189,0.139523 0.317868,0.294531 0.239635,0.05296 0.239873,-0.412153 0.22054,-0.600449 -0.07701,-0.533717 -0.190596,-1.0927452 -0.0176,-1.6124116 0.0046,-0.038581 -0.0037,-0.05035 -0.0176,-0.05021 z"><title
           id="title308">triceps</title></path></g><g
       id="anconeus"><path
         style="fill:none;stroke:#000000;stroke-width:0.056742;stroke-linecap:round;stroke-linejoin:round;stroke-dasharray:none;paint-order:stroke fill markers"
         d="m 26.180273,11.387467 c 0.255623,-0.223806 0.53448,0.0568 0.58119,0.319734 0.09837,0.250856 0.0637,0.67003 -0.183948,0.267343 -0.12717,-0.164743 -0.487435,-0.425455 -0.402971,-0.585966 z"
         id="right_anconeus"><title
           id="title246">anconeus</title></path><path
         style="fill:none;stroke:#000000;stroke-width:0.056742;stroke-linecap:round;stroke-linejoin:round;stroke-dasharray:none;paint-order:stroke fill markers"
         d="m 19.583858,11.387467 c -0.255623,-0.223806 -0.53448,0.0568 -0.58119,0.319734 -0.09837,0.250856 -0.0637,0.67003 0.183948,0.267343 0.12717,-0.164743 0.487435,-0.425455 0.402971,-0.585966 z"
         id="path261"><title
           id="title260">anconeus</title></path></g><g
       id="extensor_digitorum"><path
         style="fill:none;stroke:#000000;stroke-width:0.056742;stroke-linecap:round;stroke-linejoin:round;stroke-dasharray:none;paint-order:stroke fill markers"
         d="m 27.224027,11.775083 c 0.511559,0.788871 0.772804,1.701282 1.147231,2.554551 0.236166,0.208111 -0.06811,0.662597 -0.236854,0.38802 -0.149405,-0.952024 -0.509786,-1.865563 -0.863997,-2.762806 -4.96e-4,-0.03126 -0.209199,-0.263696 -0.04638,-0.179765 z"
         id="right_extensor_digitorum"><title
           id="title245">extensor_digitorum</title></path><path
         style="fill:none;stroke:#000000;stroke-width:0.056742;stroke-linecap:round;stroke-linejoin:round;stroke-dasharray:none;paint-order:stroke fill markers"
         d="m 18.540104,11.775083 c -0.51156,0.788871 -0.772805,1.701282 -1.147231,2.554551 -0.236166,0.208111 0.06811,0.662597 0.236854,0.38802 0.149405,-0.952024 0.509786,-1.865563 0.863997,-2.762806 4.96e-4,-0.03126 0.209199,-0.263696 0.04638,-0.179765 z"
         id="path262"><title
           id="title261">extensor_digitorum</title></path></g><g
       id="extensor_carpi_ulnaris"><path
         style="fill:none;stroke:#000000;stroke-width:0.056742;stroke-linecap:round;stroke-linejoin:round;stroke-dasharray:none;paint-order:stroke fill markers"
         d="m 27.055866,11.797554 c 0.386124,0.793649 0.79468,1.613328 0.898789,2.494226 -0.571477,-0.655345 -0.878353,-1.512889 -0.937248,-2.366045 0.01276,-0.04275 -0.02112,-0.103244 0.03846,-0.128181 z"
         id="right_extensor_carpi_ulnaris"><title
           id="title244">extensor_carpi_ulnaris</title></path><path
         style="fill:none;stroke:#000000;stroke-width:0.056742;stroke-linecap:round;stroke-linejoin:round;stroke-dasharray:none;paint-order:stroke fill markers"
         d="m 18.708265,11.797554 c -0.386124,0.793649 -0.79468,1.613328 -0.898789,2.494226 0.571477,-0.655345 0.878353,-1.512889 0.937248,-2.366045 -0.01276,-0.04275 0.02112,-0.103244 -0.03846,-0.128181 z"
         id="path263"><title
           id="title262">extensor_carpi_ulnaris</title></path></g><g
       id="flexor_carpi_ulnaris"><path
         style="fill:none;stroke:#000000;stroke-width:0.056742;stroke-linecap:round;stroke-linejoin:round;stroke-dasharray:none;paint-order:stroke fill markers"
         d="m 26.087494,11.999789 c 0.175592,0.29978 0.624997,0.04424 0.710379,0.378193 0.36707,0.600752 0.616739,1.266666 0.9404,1.881149 -0.03162,0.152255 -0.390995,-0.29595 -0.518289,-0.449448 -0.42212,-0.5349 -0.778837,-1.114411 -1.120892,-1.69754 -0.0039,-0.03745 -0.0077,-0.0749 -0.01159,-0.112354 z"
         id="right_flexor_carpi_ulnaris"><title
           id="title243">flexor_carpi_ulnaris</title></path><path
         style="fill:none;stroke:#000000;stroke-width:0.056742;stroke-linecap:round;stroke-linejoin:round;stroke-dasharray:none;paint-order:stroke fill markers"
         d="m 19.676637,11.999789 c -0.175593,0.29978 -0.624998,0.04424 -0.710379,0.378193 -0.36707,0.600752 -0.616739,1.266666 -0.9404,1.881149 0.03162,0.152255 0.390995,-0.29595 0.518289,-0.449448 0.42212,-0.5349 0.778837,-1.114411 1.120892,-1.69754 0.0039,-0.03745 0.0077,-0.0749 0.01159,-0.112354 z"
         id="path264"><title
           id="title263">flexor_carpi_ulnaris</title></path></g><g
       id="iliotibial_tact"><path
         style="fill:none;stroke:#000000;stroke-width:0.056742;stroke-linecap:round;stroke-linejoin:round;stroke-dasharray:none;paint-order:stroke fill markers"
         d="m 25.774369,17.347769 c 0.01307,0.660418 -0.150422,1.318314 -0.27254,1.954934 -0.128201,-0.162228 -0.148453,-0.524316 -0.249343,-0.763994 -0.08315,-0.396278 0.228695,-0.729274 0.39653,-1.065164 0.04178,-0.04193 0.08357,-0.08385 0.125353,-0.125776 z"
         id="right_iliotibial_tact"><title
           id="title232">iliotibial_tact</title></path><path
         style="fill:none;stroke:#000000;stroke-width:0.056742;stroke-linecap:round;stroke-linejoin:round;stroke-dasharray:none;paint-order:stroke fill markers"
         d="m 19.989762,17.347769 c -0.01307,0.660418 0.150422,1.318314 0.27254,1.954934 0.128201,-0.162228 0.148452,-0.524316 0.249343,-0.763994 0.08315,-0.396278 -0.228695,-0.729274 -0.39653,-1.065164 -0.04178,-0.04193 -0.08357,-0.08385 -0.125353,-0.125776 z"
         id="left_iliotibial_tact"><title
           id="title264">iliotibial_tact</title></path></g><g
       id="biceps_femoris"><path
         style="fill:none;stroke:#000000;stroke-width:0.056742;stroke-linecap:round;stroke-linejoin:round;stroke-dasharray:none;paint-order:stroke fill markers"
         d="m 24.446481,17.903914 c 0.523023,0.08082 0.755757,0.665235 0.871846,1.11132 0.253301,1.242037 -0.59502,2.368882 -0.558716,3.596251 -0.200657,0.03787 -0.106867,-0.528522 -0.148997,-0.730922 0.07171,-0.936042 0.377266,-1.872908 0.176319,-2.817477 -0.05951,-0.384965 -0.18553,-0.759864 -0.363648,-1.108609 l 0.02164,-0.04718 z"
         id="right_biceps_femoris"><title
           id="title230">biceps_femoris</title></path><path
         style="fill:none;stroke:#000000;stroke-width:0.056742;stroke-linecap:round;stroke-linejoin:round;stroke-dasharray:none;paint-order:stroke fill markers"
         d="m 21.31765,17.903914 c -0.523023,0.08082 -0.755757,0.665235 -0.871846,1.11132 -0.253301,1.242037 0.59502,2.368882 0.558716,3.596251 0.200656,0.03787 0.106867,-0.528522 0.148997,-0.730922 -0.07172,-0.936042 -0.377266,-1.872908 -0.176319,-2.817477 0.05951,-0.384965 0.18553,-0.759864 0.363648,-1.108609 l -0.02164,-0.04718 z"
         id="left_biceps_femoris"><title
           id="title265">biceps_femoris</title></path></g><g
       id="semitendinosus"><path
         style="fill:none;stroke:#000000;stroke-width:0.056742;stroke-linecap:round;stroke-linejoin:round;stroke-dasharray:none;paint-order:stroke fill markers"
         d="m 24.23773,17.673592 c 0.37379,1.250128 0.703835,2.598509 0.289159,3.879803 -0.09395,0.39485 -0.363745,0.718619 -0.56169,1.063708 -0.01382,-1.622714 -0.272932,-3.294147 0.22035,-4.876099 l 0.03197,-0.0413 z"
         id="right_semitendinosus"><title
           id="title229">semitendinosus</title></path><path
         style="fill:none;stroke:#000000;stroke-width:0.056742;stroke-linecap:round;stroke-linejoin:round;stroke-dasharray:none;paint-order:stroke fill markers"
         d="m 21.526401,17.673592 c -0.37379,1.250128 -0.703835,2.598509 -0.289159,3.879803 0.09395,0.39485 0.363745,0.718619 0.56169,1.063708 0.01382,-1.622714 0.272932,-3.294147 -0.22035,-4.876099 l -0.03197,-0.0413 z"
         id="left_semitendinosus"><title
           id="title266">semitendinosus</title></path></g><g
       id="adductor_magnus"><path
         style="fill:none;stroke:#000000;stroke-width:0.056742;stroke-linecap:round;stroke-linejoin:round;stroke-dasharray:none;paint-order:stroke fill markers"
         d="m 23.315747,17.066887 c 0.295432,0.202671 0.815725,0.38469 0.66297,0.820268 -0.08537,1.040613 -0.468771,2.046692 -0.448419,3.100836 -0.04983,0.385838 -0.03669,-0.419067 -0.09669,-0.56917 -0.105882,-0.816313 -0.420217,-1.604292 -0.290977,-2.434877 0.02517,-0.30991 0.07859,-0.61959 0.173118,-0.917057 z"
         id="right_adductor_magnus"><title
           id="title231">adductor_magnus</title></path><path
         style="fill:none;stroke:#000000;stroke-width:0.056742;stroke-linecap:round;stroke-linejoin:round;stroke-dasharray:none;paint-order:stroke fill markers"
         d="m 22.448384,17.066887 c -0.295432,0.202671 -0.815725,0.38469 -0.66297,0.820268 0.08537,1.040613 0.468771,2.046692 0.448419,3.100836 0.04983,0.385838 0.03669,-0.419067 0.09669,-0.56917 0.105882,-0.816313 0.420218,-1.604292 0.290978,-2.434877 -0.02517,-0.30991 -0.07859,-0.61959 -0.173118,-0.917057 z"
         id="left_adductor_magnus"><title
           id="title267">adductor_magnus</title></path></g><g
       id="semimebranosus"><path
         style="fill:none;stroke:#000000;stroke-width:0.056742;stroke-linecap:round;stroke-linejoin:round;stroke-dasharray:none;paint-order:stroke fill markers"
         d="m 23.773839,19.853231 c 0.04124,1.037211 0.120883,2.084468 0.01475,3.118071 -0.03344,0.490473 -0.163055,-0.146588 -0.219109,-0.309201 -0.112916,-0.606628 -0.05882,-1.232161 0.07406,-1.833179 0.0155,-0.328813 0.09261,-0.64927 0.130307,-0.975691 z"
         id="right_semimebranosus"><title
           id="title228">semimebranosus</title></path><path
         style="fill:none;stroke:#000000;stroke-width:0.056742;stroke-linecap:round;stroke-linejoin:round;stroke-dasharray:none;paint-order:stroke fill markers"
         d="m 21.990292,19.853231 c -0.04124,1.037211 -0.120883,2.084468 -0.01475,3.118071 0.03344,0.490473 0.163054,-0.146588 0.219109,-0.309201 0.112916,-0.606628 0.05882,-1.232161 -0.07406,-1.833179 -0.0155,-0.328813 -0.09261,-0.64927 -0.130307,-0.975691 z"
         id="left_semimebranosus"><title
           id="title268">semimebranosus</title></path></g><g
       id="gastrocnemius"><path
         id="right_gastrocnemius"
         style="fill:none;stroke:#000000;stroke-width:0.056742;stroke-linecap:round;stroke-linejoin:round;stroke-dasharray:none;paint-order:stroke fill markers"
         d="m 24.510382,22.336282 c -0.09879,0.04808 -0.202156,0.101389 -0.267133,0.191005 -0.03276,0.411756 0.01822,0.883998 0.01243,1.319434 0.06823,0.878672 -0.07902,1.750555 -0.07248,2.626963 0.05173,0.263654 -0.07051,0.672582 0.147544,0.845287 0.321235,-0.360104 0.648911,-0.801679 0.674563,-1.302352 -0.106284,-1.233117 -0.432595,-2.440646 -0.494921,-3.680337 z m -0.405877,0.269685 c -0.458886,0.90168 -0.637646,1.925202 -0.822107,2.910622 -0.03471,0.416428 -0.101843,0.866861 0.02744,1.274401 0.0267,0.449707 0.432694,0.125463 0.586036,-0.07299 0.180221,-0.340631 0.07483,-0.764268 0.1667,-1.136712 0.05297,-0.989133 0.0955,-1.98439 0.04193,-2.975325 z"><title
           id="title227">gastrocnemius</title></path><path
         id="left_gastrocnemius"
         style="fill:none;stroke:#000000;stroke-width:0.056742;stroke-linecap:round;stroke-linejoin:round;stroke-dasharray:none;paint-order:stroke fill markers"
         d="m 21.254047,22.336282 c -0.06233,1.239691 -0.388637,2.44722 -0.494922,3.680337 0.02565,0.500673 0.35333,0.942248 0.674564,1.302352 0.218056,-0.172705 0.09582,-0.581633 0.147544,-0.845287 0.0065,-0.876408 -0.14071,-1.748291 -0.07248,-2.626963 -0.0058,-0.435436 0.04518,-0.907678 0.01242,-1.319434 -0.06498,-0.08962 -0.168348,-0.14293 -0.267134,-0.191005 z m 0.405877,0.269685 c -0.05357,0.990935 -0.01103,1.986192 0.04193,2.975325 0.09187,0.372444 -0.01352,0.796081 0.1667,1.136712 0.153342,0.198449 0.558823,0.522693 0.58552,0.07299 0.12928,-0.40754 0.06215,-0.857973 0.02744,-1.274401 -0.184462,-0.98542 -0.362706,-2.008942 -0.821591,-2.910622 z"><title
           id="title269">gastrocnemius</title></path></g><g
       id="soleus"><path
         id="right_soleus"
         style="fill:none;stroke:#000000;stroke-width:0.056742;stroke-linecap:round;stroke-linejoin:round;stroke-dasharray:none;paint-order:stroke fill markers"
         d="m 23.52468,27.066368 c -0.102657,0.151431 -0.03412,0.374644 -0.06471,0.551791 0.02586,0.675411 0.148536,1.343708 0.147544,2.023408 0.05035,0.231305 -0.04677,0.769159 0.166181,0.800771 0.190906,-0.414913 -0.05647,-0.898334 -0.02174,-1.341692 -0.148677,-0.66549 0.145393,-1.423443 -0.227271,-2.034278 z m 1.118752,0.08955 c -0.111791,0.02536 -0.148131,0.170344 -0.208634,0.255191 -0.366683,0.777858 -0.425413,1.66319 -0.474732,2.507908 0.05024,0.186314 -0.190166,0.82819 0.144439,0.641342 -0.0234,-0.613486 0.100492,-1.224825 0.216917,-1.826193 0.04784,-0.541374 0.455733,-1.026871 0.32201,-1.578248 z"><title
           id="title225">soleus</title></path><path
         id="left_soleus"
         style="fill:none;stroke:#000000;stroke-width:0.056742;stroke-linecap:round;stroke-linejoin:round;stroke-dasharray:none;paint-order:stroke fill markers"
         d="m 22.239749,27.066368 c -0.372664,0.610835 -0.07911,1.368788 -0.227789,2.034278 0.03473,0.443358 -0.212649,0.926779 -0.02174,1.341692 0.21295,-0.03161 0.11583,-0.569466 0.166182,-0.800771 -9.92e-4,-0.6797 0.122202,-1.347997 0.148062,-2.023408 -0.03059,-0.177147 0.03795,-0.40036 -0.06471,-0.551791 z m -1.119268,0.08955 c -0.133723,0.551377 0.274684,1.036874 0.322526,1.578248 0.116425,0.601368 0.240318,1.212707 0.216917,1.826193 0.334604,0.186848 0.09368,-0.455028 0.143921,-0.641342 -0.04932,-0.844718 -0.108049,-1.73005 -0.474732,-2.507908 -0.0605,-0.08485 -0.09684,-0.229832 -0.208632,-0.255191 z"><title
           id="title271">soleus</title></path></g></g></svg>
