<?xml version="1.0" encoding="UTF-8" standalone="no"?>
<!-- Created with Inkscape (http://www.inkscape.org/) -->

<svg
   width="115.128"
   height="122.75999"
   viewBox="0 0 30.46095 32.480224"
   version="1.1"
   id="svg1"
   xml:space="preserve"
   xmlns="http://www.w3.org/2000/svg"
   xmlns:svg="http://www.w3.org/2000/svg"><defs
     id="defs1" /><g
     id="front"><path
       style="display:inline;fill:none;stroke:#000000;stroke-width:0.0568086;stroke-linecap:round;stroke-linejoin:round;stroke-dasharray:none;paint-order:stroke fill markers"
       d="m 7.6251877,16.811728 c 0.2700947,0.111416 0.039062,0.777468 0.084963,1.116243 0.01602,1.551409 0.1492922,3.097408 0.3060931,4.640516 0.093051,0.937425 -0.040928,1.862727 -0.2158172,2.782383 -0.2111511,1.132524 0.3332745,2.206383 0.3462056,3.327425 0.03909,0.634343 -0.027027,1.275038 0.01401,1.900097 -0.033059,0.478977 -0.3082529,1.054335 -0.063055,1.513249 0.5576183,0.156899 1.1887856,0.06327 1.7734248,0.05727 0.419508,-0.27643 -0.2943836,-0.525669 -0.3546046,-0.803477 -0.061172,-0.36052 -0.5652795,-0.550514 -0.362159,-0.951188 -0.2413181,-0.855072 0.02888,-1.751671 0.2719489,-2.58861 0.2665446,-0.80374 0.6402277,-1.610164 0.4736092,-2.475718 -0.039787,-0.965662 -0.6288849,-1.89024 -0.2961227,-2.863512 0.1551874,-1.102705 0.7022602,-2.124501 0.8339892,-3.238796 0.363452,-1.815819 0.595449,-3.809646 -0.233905,-5.54077 -0.2268994,-0.457629 -0.7258477,-0.818414 -0.5807111,-1.380561 -0.046583,-0.651651 0.073666,-1.303878 0.00416,-1.957929 0.3624931,-0.115592 0.3856401,-0.8580825 0.3989781,-0.175533 0.09144,0.579115 0.322563,1.137286 0.598004,1.645798 0.06015,1.045673 0.954044,1.777215 1.556081,2.572758 0.365285,0.42194 0.734314,0.851795 0.791991,1.420745 0.181552,0.533911 0.301556,1.174177 0.762443,1.54711 0.170111,-0.190958 0.434296,0.431309 0.576232,0.10666 0.393098,0.309411 0.153079,-0.329104 0.443255,-0.398185 -0.01413,-0.479843 -0.163504,-0.982518 -0.502355,-1.329649 0.219996,0.172952 0.949669,0.370973 0.583616,-0.16354 C 14.451721,15.429397 14.182125,15.128989 13.84553,14.906137 13.486765,14.888554 13.322401,14.347601 13.119676,14.068338 12.717572,13.169764 12.579974,12.112356 11.806252,11.404232 11.622254,11.024137 11.80365,10.512786 11.64179,10.093654 11.544653,9.5687434 11.227935,9.11422 11.29267,8.5733327 11.366177,7.7977537 11.039173,6.7413235 10.082228,6.6862542 9.4252033,6.6049814 8.5163864,6.5893394 8.3222196,5.8252735 8.5857406,5.7265101 8.6877418,5.1118849 8.9697258,5.1150827 9.4603378,4.2095718 9.5758471,3.0220478 9.0805389,2.0931528 8.9552377,1.7199057 8.3484007,1.6408049 8.3016407,1.3281985 8.7036165,1.2137914 8.7439,0.67964155 8.3858552,0.44001685 7.9174413,0.25334902 7.2709042,0.22527974 6.8240499,0.46840818 6.4309065,0.73688757 6.6160146,1.2076867 6.9358081,1.3592931 6.8301236,1.6288813 6.2915024,1.7405167 6.1543296,2.0931528 5.6587617,3.0221011 5.774792,4.2095611 6.265146,5.1150827 6.5095791,5.1502868 6.7183557,5.7090995 6.9030755,5.8483081 6.6636214,6.6831271 5.6365137,6.5782418 4.9390024,6.7252695 4.0475524,6.9347355 3.8915102,7.9662007 3.9380671,8.7129574 3.9520333,9.3177306 3.5515244,9.8581256 3.5266616,10.477281 c -0.079826,0.39214 0.1420577,0.884883 -0.2978005,1.129619 -0.6483249,0.747141 -0.7476406,1.739617 -1.1746254,2.588194 -0.2306,0.305972 -0.3844769,0.752414 -0.7873208,0.786035 -0.2641108,0.313348 -0.68754445,0.423144 -0.94388617,0.712154 -0.20495608,0.62378 0.73241747,-0.123977 0.60990099,0.123735 -0.34948835,0.359159 -0.48499955,0.906811 -0.42270189,1.385786 0.22394015,0.06747 0.19995198,0.527281 0.4315498,0.280692 0.36938677,0.254687 0.32229967,-0.322669 0.65442457,-0.174038 0.5536713,-0.652675 0.5786334,-1.543714 0.9394502,-2.272818 0.656581,-0.899345 1.5556143,-1.674426 1.9820726,-2.705409 0.051937,-0.403316 0.1707548,-0.757916 0.3890212,-1.107079 0.1649037,-0.455714 0.3318747,-0.927899 0.3241434,-1.4161917 0.00992,0.3920057 0.5193599,0.4871217 0.3566843,0.8920607 -0.00755,0.730337 0.092698,1.46477 -0.01686,2.186753 -1.2737134,1.503014 -1.2077402,3.583231 -0.9477863,5.399856 0.1826379,1.263599 0.5221189,2.500229 0.9417059,3.70683 0.117388,0.723725 0.2880328,1.465952 -0.010932,2.17434 -0.3009592,1.032491 -0.3812352,2.169382 0.1009258,3.164419 0.2844766,0.912234 0.6438859,1.878054 0.4701558,2.832885 -0.038816,0.362847 0.027748,0.706531 -0.3141349,0.971994 -0.020549,0.393014 -0.5097839,0.49012 -0.56498,0.825682 0.091127,0.404458 0.7869157,0.122356 1.1232483,0.207465 0.3675314,0.02932 0.9608359,0.05254 0.8787781,-0.462179 C 7.2205706,31.20638 7.0134364,30.730583 7.114719,30.236209 7.030164,29.38519 7.074253,28.505014 7.198885,27.656794 c 0.3905033,-1.142398 0.3017664,-2.356511 0.03087,-3.512212 -0.146479,-1.679704 0.2450612,-3.345271 0.2617012,-5.023663 0.020289,-0.770959 0.00254,-1.51075 -0.048533,-2.279461 l 0.081866,-0.03369 0.085985,-0.002 z"
       id="outline_front" /><path
       style="fill:none;stroke:#000000;stroke-width:0.0568086;stroke-linecap:round;stroke-linejoin:round;stroke-dasharray:none;paint-order:stroke fill markers"
       d="m 7.6008516,2.5837718 c -0.352546,0.00314 -0.7057582,0.052009 -1.04165,0.1564297 C 6.4317131,3.1069519 6.4309164,3.5046407 6.2905705,3.866977 6.1522666,3.9614608 5.8869014,4.0045687 6.0197314,4.2342501 6.0465927,4.4572943 6.0888075,4.6896267 6.2866363,4.8038251 6.348963,4.9214182 6.4392059,5.2137121 6.1933671,5.0562613 6.0100166,4.6292098 5.8707287,4.1724787 5.8484849,3.7054827 5.8122664,3.1547425 5.844982,2.5703902 6.1524566,2.0874252 6.2790513,1.8709366 6.4864199,1.7160879 6.6926657,1.5777046 6.9075849,1.5637451 7.0497586,1.260065 6.7686913,1.231617 6.5895723,1.1450896 6.5369598,0.89228251 6.6206993,0.7305392 6.7196354,0.53568741 6.8869691,0.35100498 7.1280034,0.33708594 7.3935263,0.30699782 7.6582517,0.28526482 7.9241228,0.31964699 8.1639289,0.31949118 8.4221808,0.40078365 8.5370981,0.61954118 8.6747094,0.76972925 8.67715,1.0044808 8.5518953,1.1625075 8.4465228,1.2456065 8.1660689,1.3102244 8.345812,1.4818855 8.5501634,1.5801985 8.7375768,1.7054329 8.8983797,1.8632373 9.3155469,2.3114376 9.4145185,2.9446199 9.38445,3.5261585 9.3779509,4.0259966 9.2679544,4.5249779 9.0565902,4.9818997 9.0163459,5.2045777 8.7408672,5.059181 8.911178,4.8922322 8.9462146,4.7040967 9.1813225,4.6818568 9.1656813,4.460139 9.1881722,4.2737845 9.344979,3.9619805 9.0358316,3.9336229 8.8315169,3.8360102 8.8723459,3.557244 8.8089753,3.373581 8.7701672,3.1608919 8.737272,2.9459368 8.6668356,2.7402015 8.3232266,2.6334748 7.9614849,2.5845055 7.6008516,2.5837718 Z"
       id="hair_outline_front" /><g
       id="unkown_front"><path
         style="fill:none;stroke:#000000;stroke-width:0.0568086;stroke-linecap:round;stroke-linejoin:round;stroke-dasharray:none;paint-order:stroke fill markers"
         d="m 10.922475,11.739283 c 0.327422,0.265576 0.635065,0.60481 0.803383,0.983328 -0.104431,0.19288 -0.469564,-0.174171 -0.655382,-0.225223 -0.316608,-0.06912 -0.216897,-0.458714 -0.189206,-0.682399 l 0.02287,-0.04202 z"
         id="path22" /><path
         style="fill:none;stroke:#000000;stroke-width:0.0568086;stroke-linecap:round;stroke-linejoin:round;stroke-dasharray:none;paint-order:stroke fill markers"
         d="m 9.430241,22.299782 c 0.067719,0.360582 -0.058698,0.760727 -0.041185,1.137657 -0.018166,0.201934 -0.4227432,0.423944 -0.5518759,0.348827 0.041864,-0.424982 0.3829742,-0.76255 0.4785179,-1.181441 0.051567,-0.09738 0.037311,-0.221572 0.114543,-0.305043 z"
         id="path33" /><path
         style="fill:none;stroke:#000000;stroke-width:0.0568086;stroke-linecap:round;stroke-linejoin:round;stroke-dasharray:none;paint-order:stroke fill markers"
         d="m 8.5818345,22.184826 c 0.2216449,-0.16899 0.7561951,-0.08027 0.6095347,0.265592 -0.077342,0.249152 -0.121221,0.587805 -0.3583075,0.729364 C 8.6297311,22.889231 8.5383131,22.533163 8.5818345,22.184826 Z"
         id="path34" /><path
         style="fill:none;stroke:#000000;stroke-width:0.0568086;stroke-linecap:round;stroke-linejoin:round;stroke-dasharray:none;paint-order:stroke fill markers"
         d="m 5.8327889,22.299782 c -0.067719,0.360582 0.058698,0.760727 0.041185,1.137657 0.018166,0.201934 0.4227422,0.423944 0.5518737,0.348827 -0.041863,-0.424982 -0.382972,-0.76255 -0.4785157,-1.181441 -0.051567,-0.09738 -0.037311,-0.221572 -0.114543,-0.305043 z"
         id="path163" /><path
         style="fill:none;stroke:#000000;stroke-width:0.0568086;stroke-linecap:round;stroke-linejoin:round;stroke-dasharray:none;paint-order:stroke fill markers"
         d="m 6.6811917,22.184826 c -0.2216433,-0.16899 -0.7561914,-0.08027 -0.609531,0.265592 0.077341,0.249152 0.1212204,0.587805 0.358305,0.729364 0.2033307,-0.290551 0.2947482,-0.646619 0.251226,-0.994956 z"
         id="path164" /><path
         style="fill:none;stroke:#000000;stroke-width:0.0568086;stroke-linecap:round;stroke-linejoin:round;stroke-dasharray:none;paint-order:stroke fill markers"
         d="m 4.3405547,11.739283 c -0.3274217,0.265576 -0.6350649,0.60481 -0.8033825,0.983328 0.1044307,0.19288 0.4695636,-0.174171 0.6553813,-0.225223 0.3166088,-0.06912 0.216897,-0.458714 0.1892067,-0.682399 l -0.02287,-0.04202 z"
         id="path152" /></g><g
       id="digastric"><path
         style="fill:none;stroke:#000000;stroke-width:0.0568086;stroke-linecap:round;stroke-linejoin:round;stroke-dasharray:none;paint-order:stroke fill markers"
         d="m 7.6258607,6.3295962 c 0.4452862,-0.099351 0.1334279,0.3721784 0.042469,0.5537019 -0.079085,0.20887 -0.020884,-0.5094913 -0.042469,-0.5537019 z"
         id="left_digastric"><title
           id="title135">digastric</title></path><path
         style="fill:none;stroke:#000000;stroke-width:0.0568086;stroke-linecap:round;stroke-linejoin:round;stroke-dasharray:none;paint-order:stroke fill markers"
         d="M 7.6371606,6.3295962 C 7.1918764,6.2302451 7.503733,6.7017746 7.5946923,6.8832981 c 0.079084,0.20887 0.020884,-0.5094913 0.042468,-0.5537019 z"
         id="right_digastric"><title
           id="title136">digastric</title></path></g><g
       id="sternocleidomastoid"><path
         style="fill:none;stroke:#000000;stroke-width:0.0568086;stroke-linecap:round;stroke-linejoin:round;stroke-dasharray:none;paint-order:stroke fill markers"
         d="M 8.2607211,6.1277841 C 8.0707797,6.5234595 7.761228,6.8898461 7.6491581,7.3045897 7.5886897,7.8057209 7.7196302,7.6355612 7.9007155,7.2895388 8.0619037,6.9741561 8.3911348,6.6976053 8.2734567,6.3177814 8.2692116,6.254449 8.2649664,6.1911165 8.2607211,6.1277841 Z"
         id="left_sternocleidomastoid"><title
           id="title134">sternocleidomastoid</title></path><path
         style="fill:none;stroke:#000000;stroke-width:0.0568086;stroke-linecap:round;stroke-linejoin:round;stroke-dasharray:none;paint-order:stroke fill markers"
         d="M 7.0023035,6.1277841 C 7.1922437,6.5234595 7.5017941,6.8898461 7.6138629,7.3045897 7.6743316,7.8057209 7.543392,7.6355612 7.3623069,7.2895388 7.20112,6.9741561 6.8718906,6.6976053 6.9895681,6.3177814 c 0.00425,-0.063332 0.00849,-0.1266649 0.012735,-0.1899973 z"
         id="right_sternocleidomastoid"><title
           id="title137">sternocleidomastoid</title></path></g><g
       id="upper_trapezius"><path
         style="fill:none;stroke:#000000;stroke-width:0.0568086;stroke-linecap:round;stroke-linejoin:round;stroke-dasharray:none;paint-order:stroke fill markers"
         d="M 8.4995217,6.6211026 C 8.8043323,6.7780677 9.109143,6.9350326 9.4139536,7.0919977 9.3445352,7.2887543 8.8101733,7.3378183 8.6923147,7.064534 8.5984406,6.9469287 8.2545684,6.757757 8.4995217,6.6211026 Z"
         id="left_upper_trapezius"><title
           id="title133">upper_trapezius</title></path><path
         style="fill:none;stroke:#000000;stroke-width:0.0568086;stroke-linecap:round;stroke-linejoin:round;stroke-dasharray:none;paint-order:stroke fill markers"
         d="M 6.763505,6.6211026 C 6.4586954,6.7780677 6.1538867,6.9350326 5.8490763,7.0919977 5.9184947,7.2887543 6.4528551,7.3378183 6.5707131,7.064534 6.6645863,6.9469287 7.008456,6.757757 6.763505,6.6211026 Z"
         id="right_upper_trapezius"><title
           id="title138">upper_trapezius</title></path></g><g
       id="anterior_deltoid"><path
         id="left_anterior_deltoid"
         style="fill:none;stroke:#000000;stroke-width:0.0568086;stroke-linecap:round;stroke-linejoin:round;stroke-dasharray:none;paint-order:stroke fill markers"
         d="m 10.200604,6.897618 c -0.0583,0.00248 -0.116851,0.020848 -0.174986,0.060045 l -0.0062,0.00569 -0.034686,0.033128 c 0.317366,0.1897809 0.537287,0.501338 0.727902,0.8054306 0.181629,0.1477345 0.201418,0.6742117 0.419346,0.6076962 C 11.057051,8.048515 11.125271,7.6489357 10.870005,7.3386383 10.699359,7.1725893 10.453232,6.8868549 10.200604,6.897618 Z M 9.5187787,7.0637769 C 9.5123183,7.225035 9.5061747,7.3902945 9.5389695,7.5493127 9.5541005,8.22464 10.185068,8.8618565 10.910904,8.751247 10.838865,8.2854577 10.561393,7.8858078 10.235291,7.546207 9.9928327,7.3994276 9.8144129,7.07766 9.5187787,7.0637769 Z"><title
           id="title319">anterior_deltoid</title></path><path
         id="right_anterior_deltoid"
         style="fill:none;stroke:#000000;stroke-width:0.0568086;stroke-linecap:round;stroke-linejoin:round;stroke-dasharray:none;paint-order:stroke fill markers"
         d="M 5.0333286,6.897618 C 4.7909921,6.9086171 4.5570022,7.1789753 4.3929199,7.3386379 4.137654,7.6489352 4.2058736,8.0485145 4.130958,8.4096119 4.3488854,8.4761274 4.3686747,7.9496502 4.5503041,7.8019157 4.7409185,7.4978231 4.9608398,7.186266 5.2782061,6.9964851 l -0.034687,-0.033128 -0.00621,-0.00569 C 5.169483,6.911933 5.1011828,6.8945383 5.0333286,6.897618 Z M 5.7441462,7.0637769 C 5.448512,7.07766 5.2700923,7.3994276 5.0276338,7.546207 4.701532,7.8858078 4.4240603,8.2854577 4.3520207,8.751247 5.0778571,8.8618565 5.7088243,8.22464 5.7239554,7.5493127 5.7567501,7.3902945 5.7506072,7.225035 5.7441462,7.0637769 Z"><title
           id="title318">anterior_deltoid</title></path></g><g
       id="scalene"><path
         style="fill:none;stroke:#000000;stroke-width:0.0568086;stroke-linecap:round;stroke-linejoin:round;stroke-dasharray:none;paint-order:stroke fill markers"
         d="M 8.3364381,7.0303329 C 8.6250944,7.2435695 8.4796348,7.5934517 8.1538232,7.4157057 8.0819519,7.2939032 8.2477126,7.1111093 8.3364381,7.0303329 Z"
         id="left_scalene"><title
           id="title132">scalene</title></path><path
         style="fill:none;stroke:#000000;stroke-width:0.0568086;stroke-linecap:round;stroke-linejoin:round;stroke-dasharray:none;paint-order:stroke fill markers"
         d="M 6.9265876,7.0303329 C 6.6379325,7.2435695 6.7833908,7.5934517 7.1092006,7.4157057 7.1810724,7.2939032 7.0153125,7.1111093 6.9265876,7.0303329 Z"
         id="right_scalene"><title
           id="title140">scalene</title></path></g><g
       id="pectolaris_major"><path
         style="fill:none;stroke:#000000;stroke-width:0.0568086;stroke-linecap:round;stroke-linejoin:round;stroke-dasharray:none;paint-order:stroke fill markers"
         d="M 7.7831196,7.7198577 C 8.30391,7.584284 8.9294321,7.5877935 9.320371,7.9941691 9.7444519,8.3868545 9.957082,8.9680386 10.002219,9.5193493 9.3827488,9.7895181 8.7608771,10.200399 8.0510429,10.135998 7.7558081,9.9819344 7.6121323,9.6824183 7.6939454,9.3670411 7.7212836,8.8178704 7.7537443,8.2689329 7.7831196,7.7198577 Z"
         id="left_pectolaris_major"><title
           id="title131">pectolaris_major</title></path><path
         style="fill:none;stroke:#000000;stroke-width:0.0568086;stroke-linecap:round;stroke-linejoin:round;stroke-dasharray:none;paint-order:stroke fill markers"
         d="M 7.4799022,7.7198577 C 6.959115,7.584284 6.3335961,7.5877935 5.9426589,7.9941691 5.518578,8.3868545 5.3059479,8.9680386 5.2608106,9.5193493 5.8802811,9.7895181 6.50215,10.200399 7.2119809,10.135998 7.5072135,9.9819344 7.6508885,9.6824183 7.5690758,9.3670411 7.5417383,8.8178704 7.5092782,8.2689329 7.4799022,7.7198577 Z"
         id="right_pectolaris_major"><title
           id="title141">pectolaris_major</title></path></g><g
       id="biceps"><path
         style="fill:none;stroke:#000000;stroke-width:0.0568086;stroke-linecap:round;stroke-linejoin:round;stroke-dasharray:none;paint-order:stroke fill markers"
         d="m 10.211897,9.1493605 c 0.167418,-0.220183 0.555937,-0.068429 0.751547,0.06707 0.522277,0.479432 0.440184,1.2373465 0.407511,1.8725685 -0.390443,0.06778 -0.594838,-0.380308 -0.815417,-0.622254 -0.293569,-0.347932 -0.423451,-0.8791495 -0.343641,-1.3173845 z"
         id="left_biceps"><title
           id="title130">biceps</title></path><path
         style="fill:none;stroke:#000000;stroke-width:0.0568086;stroke-linecap:round;stroke-linejoin:round;stroke-dasharray:none;paint-order:stroke fill markers"
         d="M 5.0511325,9.1493605 C 4.8837145,8.9291775 4.4951963,9.0809314 4.2995855,9.2164304 3.777309,9.6958624 3.8594015,10.453777 3.892075,11.088999 4.282518,11.156776 4.4869133,10.708691 4.7074922,10.466745 5.0010605,10.118813 5.1309431,9.5875954 5.0511325,9.1493605 Z"
         id="right_biceps"><title
           id="title142">biceps</title></path></g><g
       id="latissimus_dorsi_f"><path
         style="fill:none;stroke:#000000;stroke-width:0.0568086;stroke-linecap:round;stroke-linejoin:round;stroke-dasharray:none;paint-order:stroke fill markers"
         d="M 9.8333108,9.7267674 C 9.6651213,9.9744247 9.3159102,10.168234 9.4432256,10.503795 c 0.018108,0.528286 0.1369808,-0.04858 0.1556975,-0.245592 0.1182683,-0.150564 0.149812,-0.3601731 0.2343877,-0.5314356 z"
         id="left_latissimus_dorsi_f"><title
           id="title129">latissimus_dorsi</title></path><path
         style="fill:none;stroke:#000000;stroke-width:0.0568086;stroke-linecap:round;stroke-linejoin:round;stroke-dasharray:none;paint-order:stroke fill markers"
         d="M 5.4297191,9.7267674 C 5.5979087,9.9744247 5.9471197,10.168234 5.8198043,10.503795 5.8016962,11.032081 5.6828235,10.455213 5.6641068,10.258203 5.5458385,10.107639 5.5142949,9.8980299 5.4297191,9.7267674 Z"
         id="path144"><title
           id="title143">latissimus_dorsi</title></path></g><g
       id="brachialis"><path
         style="fill:none;stroke:#000000;stroke-width:0.0568086;stroke-linecap:round;stroke-linejoin:round;stroke-dasharray:none;paint-order:stroke fill markers"
         d="m 10.194424,10.164027 c 0.233727,0.12121 0.22028,0.508387 0.435755,0.692959 0.163252,0.201704 0.340952,0.396256 0.54857,0.557156 -0.253349,0.140679 -0.462371,-0.251103 -0.622447,-0.4063 -0.166418,-0.246339 -0.438798,-0.529539 -0.361878,-0.843815 z"
         id="left_brachialis"><title
           id="title128">brachialis</title></path><path
         style="fill:none;stroke:#000000;stroke-width:0.0568086;stroke-linecap:round;stroke-linejoin:round;stroke-dasharray:none;paint-order:stroke fill markers"
         d="m 5.0686056,10.164027 c -0.2337271,0.12121 -0.2202798,0.508387 -0.435755,0.692959 -0.1632516,0.201704 -0.3409517,0.396256 -0.5485697,0.557156 0.2533486,0.140679 0.4623705,-0.251103 0.6224472,-0.4063 0.1664174,-0.246339 0.438798,-0.529539 0.3618775,-0.843815 z"
         id="right_brachialis"><title
           id="title144">brachialis</title></path></g><g
       id="external_abdominal_oblique"><path
         id="left_external_abdominal_oblique"
         style="fill:none;stroke:#000000;stroke-width:0.0568086;stroke-linecap:round;stroke-linejoin:round;stroke-dasharray:none;paint-order:stroke fill markers"
         d="m 9.2832201,10.006497 c -0.1034382,0.0044 -0.2533129,0.05098 -0.3525613,0.123713 -0.060261,0.287046 0.1575986,0.213901 0.3142507,0.106632 0.2272302,-0.171287 0.1713025,-0.235938 0.038311,-0.230345 z m 0.031063,0.366999 -0.267139,0.07661 c -0.1756625,0.497979 0.4854519,0.03612 0.267139,-0.07661 z m 0.00569,0.323518 c -0.041531,-0.0016 -0.1076655,0.03135 -0.2029429,0.117502 0.00564,0.09139 -0.00427,0.214675 0.012943,0.288319 0.215308,-0.08937 0.3145921,-0.40111 0.1899999,-0.405821 z m 0.1289101,0.246391 c -0.1929517,0.192518 -0.4521348,0.26495 -0.331853,0.588545 0.2424235,-0.05825 0.4164471,-0.353203 0.331853,-0.588545 z m -0.089564,0.627367 c -0.1517174,-0.0017 -0.2784944,0.166121 -0.306485,0.302812 0.038587,0.344033 -0.058209,0.667353 -0.032098,1.015588 0.056151,0.365847 -0.1208044,0.708995 -0.063161,1.070975 -0.040714,0.351667 0.3279547,0.204037 0.4680108,0.03261 0.071371,-0.799203 0.074659,-1.610241 0,-2.410597 -0.022479,-0.0078 -0.044593,-0.01115 -0.066267,-0.01139 z"><title
           id="title317">external_abdominal_oblique</title></path><path
         id="right_external_abdominal_oblique"
         style="fill:none;stroke:#000000;stroke-width:0.0568086;stroke-linecap:round;stroke-linejoin:round;stroke-dasharray:none;paint-order:stroke fill markers"
         d="m 5.9797047,10.006497 c -0.1329919,-0.0056 -0.1889195,0.05906 0.038311,0.230345 0.1566521,0.107269 0.3745117,0.180414 0.3142508,-0.106632 -0.099248,-0.07274 -0.2491233,-0.119363 -0.3525618,-0.123713 z m -0.031063,0.366999 c -0.2183128,0.112733 0.4428015,0.574588 0.267139,0.07661 z m -0.00569,0.323518 c -0.1245921,0.0047 -0.025308,0.316455 0.19,0.405821 0.017208,-0.07364 0.0073,-0.196927 0.012943,-0.288319 -0.095277,-0.08615 -0.1614121,-0.119072 -0.202943,-0.117502 z m -0.1289101,0.246391 c -0.084594,0.235342 0.089429,0.530293 0.3318529,0.588545 C 6.266172,11.208355 6.006989,11.135923 5.8140373,10.943405 Z m 0.089564,0.627367 c -0.021674,2.4e-4 -0.043788,0.0036 -0.066267,0.01139 -0.074659,0.800357 -0.071371,1.611395 0,2.410598 0.1400561,0.171426 0.5087244,0.319057 0.468011,-0.03261 0.057644,-0.361979 -0.1193121,-0.705128 -0.063161,-1.070974 0.026111,-0.348235 -0.070685,-0.671555 -0.032098,-1.015588 -0.027991,-0.136691 -0.1547678,-0.304531 -0.3064851,-0.302812 z"><title
           id="title316">external_abdominal_oblique</title></path></g><g
       id="brachioradialis"><path
         style="fill:none;stroke:#000000;stroke-width:0.0568086;stroke-linecap:round;stroke-linejoin:round;stroke-dasharray:none;paint-order:stroke fill markers"
         d="m 11.301062,11.234753 c 0.655932,0.341547 0.925039,1.076174 1.207061,1.698636 0.160906,0.552466 0.374829,1.081699 0.633854,1.598867 0.231533,0.431357 -0.0054,0.177067 -0.150795,-0.07015 -0.217117,-0.339571 -0.346555,-0.724166 -0.634332,-1.024723 -0.519931,-0.561742 -0.880513,-1.26823 -1.055788,-1.997804 0,-0.06828 0,-0.136553 0,-0.20483 z"
         id="left_brachioradialis"><title
           id="title126">brachioradialis</title></path><path
         style="fill:none;stroke:#000000;stroke-width:0.0568086;stroke-linecap:round;stroke-linejoin:round;stroke-dasharray:none;paint-order:stroke fill markers"
         d="M 3.9619683,11.234753 C 3.306036,11.5763 3.036929,12.310927 2.7549073,12.933389 c -0.1609066,0.552466 -0.3748294,1.081699 -0.6338548,1.598867 -0.2315321,0.431357 0.00542,0.177067 0.150795,-0.07015 0.217117,-0.339571 0.3465555,-0.724166 0.6343329,-1.024723 0.519931,-0.561742 0.8805126,-1.26823 1.0557879,-1.997804 0,-0.06828 0,-0.136553 0,-0.20483 z"
         id="right_brachioradialis"><title
           id="title150">brachioradialis</title></path></g><g
       id="flexor_fasciae_latae"><path
         style="fill:none;stroke:#000000;stroke-width:0.0568086;stroke-linecap:round;stroke-linejoin:round;stroke-dasharray:none;paint-order:stroke fill markers"
         d="m 11.149627,12.669861 c 0.556349,0.759651 1.059213,1.575433 1.817215,2.169481 0.06417,0.187123 -0.392066,-0.240525 -0.50222,-0.329227 -0.521473,-0.518407 -1.089652,-1.048015 -1.365055,-1.731145 -0.0052,-0.04438 -0.0423,-0.137678 0.05006,-0.109109 z"
         id="left_flexor_fasciae_latae"><title
           id="title125">flexor_fasciae_latae</title></path><path
         style="fill:none;stroke:#000000;stroke-width:0.0568086;stroke-linecap:round;stroke-linejoin:round;stroke-dasharray:none;paint-order:stroke fill markers"
         d="M 4.1134029,12.669861 C 3.5570543,13.429512 3.0541897,14.245294 2.2961876,14.839342 2.23202,15.026465 2.6882541,14.598817 2.7984083,14.510115 3.319881,13.991708 3.8880599,13.4621 4.1634634,12.77897 c 0.00518,-0.04438 0.0423,-0.137678 -0.050061,-0.109109 z"
         id="right_flexor_fasciae_latae"><title
           id="title152">flexor_fasciae_latae</title></path></g><g
       id="pronator_teres"><path
         style="fill:none;stroke:#000000;stroke-width:0.0568086;stroke-linecap:round;stroke-linejoin:round;stroke-dasharray:none;paint-order:stroke fill markers"
         d="m 11.370955,12.826826 c 0.486934,0.129158 0.732138,0.618483 1.036586,0.969978 0.268043,0.346927 0.466073,0.739022 0.728209,1.087385 -0.372904,-0.253851 -0.652124,-0.654671 -0.975612,-0.97693 -0.278941,-0.348435 -0.577765,-0.68822 -0.789183,-1.080433 z"
         id="left_pronator_teres"><title
           id="title124">pronator_teres</title></path><path
         style="fill:none;stroke:#000000;stroke-width:0.0568086;stroke-linecap:round;stroke-linejoin:round;stroke-dasharray:none;paint-order:stroke fill markers"
         d="m 3.8920754,12.826826 c -0.4869344,0.129158 -0.7321384,0.618483 -1.0365863,0.969978 -0.2680435,0.346927 -0.4660729,0.739022 -0.7282089,1.087385 0.3729042,-0.253851 0.652124,-0.654671 0.9756121,-0.97693 0.278941,-0.348435 0.5777651,-0.68822 0.7891831,-1.080433 z"
         id="right_pronator_teres"><title
           id="title153">pronator_teres</title></path></g><g
       id="rectus_abdominis"><path
         id="left_rectus_abdominis"
         style="fill:none;stroke:#000000;stroke-width:0.0568086;stroke-linecap:round;stroke-linejoin:round;stroke-dasharray:none;paint-order:stroke fill markers"
         d="m 8.0365715,10.304134 c -0.060914,0.0028 -0.1204816,0.0099 -0.177575,0.02226 v 0.429631 c -0.019547,0.28649 0.4716817,0.102878 0.6745778,0.230345 0.2452105,0.08906 0.52595,0.468593 0.4172752,-0.0295 -0.0057,-0.456803 -0.4878782,-0.67211 -0.914278,-0.65273 z m 0.00103,0.715362 c -0.061322,-0.0035 -0.1214201,-0.0028 -0.1786103,0.0021 -0.1209688,0.06681 0.00378,0.48497 -0.025368,0.673952 -0.1043215,0.39464 0.3342693,0.147432 0.5611989,0.200841 0.2101085,-0.04275 0.5851778,0.200361 0.5529156,-0.16823 0.00911,-0.450872 -0.4808811,-0.683761 -0.9101364,-0.708634 z m 0.2277929,0.965379 c -0.1471976,0.0072 -0.2931962,0.04521 -0.4240054,0.11336 l -5.23e-4,0.04245 c 0.057802,0.254255 -0.1305012,0.658021 0.099401,0.809572 0.1964246,-0.206807 0.4873634,-0.165909 0.7527522,-0.179618 0.3963839,0.131521 0.2524674,-0.348183 0.2547139,-0.566286 -0.18849,-0.15876 -0.4370139,-0.231487 -0.6823435,-0.219474 z m 0.3484197,0.949848 c -0.2859775,0.01075 -0.5587689,0.106389 -0.7434333,0.3406 l -0.083352,1.770291 c -0.1084234,0.263164 0.079028,0.590642 0.3919074,0.444126 0.3597689,-0.440888 0.4941785,-1.010866 0.6233243,-1.547193 0.030433,-0.323752 0.1843542,-0.687518 0.098883,-0.992294 -0.095536,-0.01335 -0.1920038,-0.01911 -0.2873294,-0.01553 z"><title
           id="title315">rectus_abdominis</title></path><path
         id="right_rectus_abdominis"
         style="fill:none;stroke:#000000;stroke-width:0.0568086;stroke-linecap:round;stroke-linejoin:round;stroke-dasharray:none;paint-order:stroke fill markers"
         d="m 7.2263534,10.304134 c -0.4263999,-0.01938 -0.9085821,0.195927 -0.9142781,0.65273 -0.1086747,0.498097 0.1720648,0.118563 0.4172753,0.0295 0.202896,-0.127467 0.6941248,0.05614 0.6745778,-0.230345 v -0.429631 c -0.057093,-0.01234 -0.1166607,-0.01949 -0.177575,-0.02226 z m -0.00103,0.715362 c -0.4292553,0.02487 -0.9192496,0.257762 -0.9101364,0.708634 -0.032262,0.368591 0.3428071,0.125485 0.5529156,0.16823 0.2269296,-0.05341 0.6655204,0.193799 0.561199,-0.20084 -0.029143,-0.188982 0.095601,-0.607139 -0.025368,-0.673953 -0.05719,-0.0049 -0.1172882,-0.0056 -0.1786104,-0.0021 z m -0.227793,0.965379 c -0.2453296,-0.01201 -0.4938534,0.06071 -0.6823434,0.219474 0.00225,0.218103 -0.14167,0.697807 0.2547139,0.566286 0.2653888,0.01371 0.5563275,-0.02719 0.7527521,0.179618 0.2299017,-0.151551 0.041598,-0.555317 0.099401,-0.809572 l -5.23e-4,-0.04245 C 7.2907176,12.03009 7.1447192,11.992083 6.9975214,11.984875 Z m -0.3484197,0.949848 c -0.095326,-0.0036 -0.1917938,0.0022 -0.2873297,0.01553 -0.085471,0.304776 0.06845,0.668542 0.098883,0.992294 0.1291458,0.536327 0.2635554,1.106305 0.6233243,1.547193 0.3128792,0.146516 0.5003308,-0.180962 0.3919074,-0.444126 L 7.3925387,13.275323 C 7.2078743,13.041112 6.935083,12.945472 6.6491054,12.934723 Z"><title
           id="title314">rectus_abdominis</title></path></g><g
       id="rectus_femoris"><path
         style="fill:none;stroke:#000000;stroke-width:0.0568086;stroke-linecap:round;stroke-linejoin:round;stroke-dasharray:none;paint-order:stroke fill markers"
         d="m 10.064487,14.264825 c 0.495847,1.544985 0.08041,3.186569 -0.3934375,4.687811 -0.1132345,0.490031 -0.4277744,0.931178 -0.4813234,1.428177 -0.016098,0.454101 0.010895,0.912541 -0.031305,1.364013 -0.3945197,0.111333 -0.3000169,-0.381588 -0.3350487,-0.607965 -0.1002777,-1.100223 -0.066706,-2.21364 0.056976,-3.309612 0.40104,-1.081457 0.7789099,-2.171672 1.1017688,-3.277025 0.033402,-0.0937 0.064588,-0.187621 0.08237,-0.285399 z"
         id="left_rectus_femoris"><title
           id="title122">rectus_femoris</title></path><path
         style="fill:none;stroke:#000000;stroke-width:0.0568086;stroke-linecap:round;stroke-linejoin:round;stroke-dasharray:none;paint-order:stroke fill markers"
         d="m 5.1985433,14.264825 c -0.4958476,1.544985 -0.080407,3.186569 0.3934371,4.687811 0.1132345,0.490031 0.4277744,0.931178 0.4813235,1.428177 0.016098,0.454101 -0.010895,0.912541 0.031305,1.364013 0.3945174,0.111333 0.3000157,-0.381588 0.3350461,-0.607965 0.1002776,-1.100223 0.066706,-2.21364 -0.056975,-3.309612 -0.4010384,-1.081457 -0.7789083,-2.171672 -1.1017672,-3.277025 -0.033402,-0.0937 -0.064589,-0.187621 -0.08237,-0.285399 z"
         id="right_rectus_femoris"><title
           id="title158">rectus_femoris</title></path></g><g
       id="gracilis"><path
         style="fill:none;stroke:#000000;stroke-width:0.0568086;stroke-linecap:round;stroke-linejoin:round;stroke-dasharray:none;paint-order:stroke fill markers"
         d="M 7.9805367,15.89005 C 8.155045,16.212654 8.3652025,16.556074 8.4376874,16.916717 8.2880746,17.152745 8.2592893,17.398451 8.2692311,17.672285 8.054021,17.63464 8.0435115,17.267461 8.0381941,17.071311 8.0095586,16.685712 7.8733854,16.259352 7.9805367,15.89005 Z"
         id="left_gracilis"><title
           id="title121">gracilis</title></path><path
         style="fill:none;stroke:#000000;stroke-width:0.0568086;stroke-linecap:round;stroke-linejoin:round;stroke-dasharray:none;paint-order:stroke fill markers"
         d="m 7.2824866,15.89005 c -0.1745076,0.322604 -0.3846635,0.666024 -0.457148,1.026667 0.1496113,0.236028 0.178397,0.481734 0.1684547,0.755568 0.2152089,-0.03764 0.225719,-0.404824 0.2310363,-0.600974 0.028635,-0.385599 0.1648073,-0.811959 0.057657,-1.181261 z"
         id="right_gracilis"><title
           id="title159">gracilis</title></path></g><g
       id="vastus_lateralis"><path
         style="fill:none;stroke:#000000;stroke-width:0.0568086;stroke-linecap:round;stroke-linejoin:round;stroke-dasharray:none;paint-order:stroke fill markers"
         d="m 10.369254,16.456897 c 0.334426,1.674573 -0.166489,3.374014 -0.753681,4.943064 -0.1186376,0.510016 -0.3092033,0.03393 -0.2289469,-0.248526 0.010901,-0.511811 -0.081276,-1.039226 0.1634161,-1.51565 0.3412834,-1.040683 0.6643158,-2.097108 0.8192118,-3.178888 z"
         id="left_vastus_lateralis"><title
           id="title120">vastus_lateralis</title></path><path
         style="fill:none;stroke:#000000;stroke-width:0.0568086;stroke-linecap:round;stroke-linejoin:round;stroke-dasharray:none;paint-order:stroke fill markers"
         d="m 4.8937759,16.456897 c -0.3344262,1.674573 0.1664885,3.374014 0.753681,4.943064 0.1186376,0.510016 0.3092033,0.03393 0.2289469,-0.248526 C 5.8655027,20.639624 5.95768,20.112209 5.7129877,19.635785 5.3717044,18.595102 5.0486716,17.538677 4.8937759,16.456897 Z"
         id="right_vastus_lateralis"><title
           id="title160">vastus_lateralis</title></path></g><g
       id="vastus_medialis"><path
         style="fill:none;stroke:#000000;stroke-width:0.0568086;stroke-linecap:round;stroke-linejoin:round;stroke-dasharray:none;paint-order:stroke fill markers"
         d="m 8.577716,18.58951 c 0.088054,0.742799 -0.195313,1.486716 0.020896,2.221168 0.052808,0.359007 0.070423,0.733191 -0.00854,1.088743 C 8.2645665,22.111412 8.1481993,21.643088 8.0752624,21.415824 8.001205,20.779905 8.0176478,20.1342 8.243181,19.527408 8.340305,19.215804 8.3898558,18.848488 8.577716,18.58951 Z"
         id="left_vastus_medialis"><title
           id="title119">vastus_medialis</title></path><path
         style="fill:none;stroke:#000000;stroke-width:0.0568086;stroke-linecap:round;stroke-linejoin:round;stroke-dasharray:none;paint-order:stroke fill markers"
         d="m 6.685311,18.58951 c -0.088054,0.742799 0.1953111,1.486716 -0.020896,2.221168 -0.052808,0.359007 -0.070424,0.733191 0.00854,1.088743 0.3255036,0.211991 0.441871,-0.256333 0.5148075,-0.483597 C 7.2618204,20.779905 7.2453779,20.1342 7.0198465,19.527408 6.9227223,19.215804 6.873172,18.848488 6.6853123,18.58951 Z"
         id="right_vastus_medialis"><title
           id="title161">vastus_medialis</title></path></g><g
       id="sartorius"><path
         id="left_sartorius"
         style="fill:none;stroke:#000000;stroke-width:0.0568086;stroke-linecap:round;stroke-linejoin:round;stroke-dasharray:none;paint-order:stroke fill markers"
         d="m 9.8568442,13.981887 -0.023815,0.03675 -0.026403,0.04038 C 9.6052964,14.804859 9.2238557,15.49731 8.9151276,16.208211 8.5365517,17.13267 8.0857301,18.054017 8.0510675,19.06604 c 0.033428,0.258984 -0.1034785,0.633836 0.011389,0.818372 0.1831783,-0.993243 0.6608047,-1.904144 0.9541418,-2.867146 0.3828036,-0.97908 0.8075394,-1.97354 0.8402453,-3.035376 z m -1.4972209,8.17543 -0.021226,0.02329 -0.032616,0.03572 c 0.020051,0.435041 -0.1139052,0.908903 0.1133786,1.308048 0.1495221,0.196113 0.1383776,0.580091 0.3271935,0.678093 C 8.8242879,23.743021 8.5983214,23.317484 8.507171,22.876822 8.3997531,22.654015 8.4719498,22.334871 8.3596233,22.157317 Z"><title
           id="title313">sartorius</title></path><path
         id="right_sartorius"
         style="fill:none;stroke:#000000;stroke-width:0.0568086;stroke-linecap:round;stroke-linejoin:round;stroke-dasharray:none;paint-order:stroke fill markers"
         d="m 5.4065984,13.981887 c 0.032706,1.061836 0.4569241,2.056296 0.8397277,3.035376 0.293337,0.963002 0.7709635,1.873903 0.9541418,2.867146 C 7.315336,19.699873 7.1784299,19.325021 7.2118571,19.066037 7.1771946,18.054014 6.726373,17.132667 6.3477971,16.208208 6.039069,15.497307 5.6576282,14.804856 5.4562983,14.059014 l -0.025886,-0.04038 z m 1.4972209,8.17543 c -0.1123265,0.177554 -0.04013,0.496698 -0.1475477,0.719505 -0.09115,0.440662 -0.3176347,0.866199 -0.2397003,1.325647 0.1888159,-0.098 0.1776714,-0.48198 0.3271935,-0.678093 0.2272838,-0.399145 0.093328,-0.873007 0.1133788,-1.308048 l -0.032098,-0.03572 z"><title
           id="title312">sartorius</title></path></g><g
       id="extensor_digitorum_longus"><path
         style="fill:none;stroke:#000000;stroke-width:0.0568086;stroke-linecap:round;stroke-linejoin:round;stroke-dasharray:none;paint-order:stroke fill markers"
         d="m 9.5043736,23.833835 c 0.026381,0.499616 0.076146,1.006259 -0.1235543,1.482524 -0.3111822,1.097525 -0.4553696,2.226768 -0.6594134,3.343821 -0.020184,0.19483 -0.1653187,0.752724 -0.2299216,0.267956 0.2174382,-0.617739 0.2706924,-1.267655 0.3180126,-1.912463 0.1205945,-0.998945 0.1779582,-2.017566 0.5659873,-2.964273 0.045562,-0.07052 0.01356,-0.218523 0.1288894,-0.217565 z"
         id="left_extensor_digitorum_longus"><title
           id="title75">extensor_digitorum_longus</title></path><path
         style="fill:none;stroke:#000000;stroke-width:0.0568086;stroke-linecap:round;stroke-linejoin:round;stroke-dasharray:none;paint-order:stroke fill markers"
         d="m 5.7586564,23.833835 c -0.026381,0.499616 -0.076146,1.006259 0.1235542,1.482524 0.3111823,1.097525 0.4553679,2.226768 0.6594108,3.343821 0.020184,0.19483 0.1653175,0.752724 0.2299206,0.267956 C 6.5541049,28.310397 6.5008512,27.660481 6.4535313,27.015673 6.3329374,26.016728 6.2755743,24.998107 5.8875458,24.0514 5.8419839,23.980875 5.8739852,23.832877 5.7586564,23.833835 Z"
         id="right_extensor_digitorum_longus"><title
           id="title166">extensor_digitorum_longus</title></path></g><g
       id="tibialis_anterior"><path
         style="fill:none;stroke:#000000;stroke-width:0.0568086;stroke-linecap:round;stroke-linejoin:round;stroke-dasharray:none;paint-order:stroke fill markers"
         d="m 8.3759106,23.817979 c 0.1413254,0.390221 0.2640834,0.802398 0.350872,1.204777 -0.00928,0.971792 0.045362,1.953434 -0.1053593,2.916509 -0.0625,0.181196 -0.026424,0.707217 -0.1641526,0.668164 -0.1461206,-0.782647 -0.435571,-1.545613 -0.500505,-2.339156 0.042896,-0.801587 0.1427524,-1.617286 0.3699713,-2.385525 l 0.029077,-0.0383 z"
         id="left_tibialis_anterior"><title
           id="title76">tibialis_anterior</title></path><path
         style="fill:none;stroke:#000000;stroke-width:0.0568086;stroke-linecap:round;stroke-linejoin:round;stroke-dasharray:none;paint-order:stroke fill markers"
         d="m 6.887115,23.817979 c -0.1413252,0.390221 -0.2640822,0.802398 -0.3508694,1.204777 0.00928,0.971792 -0.045363,1.953434 0.105358,2.916509 0.0625,0.181196 0.026423,0.707217 0.1641523,0.668164 C 6.951875,27.824782 7.2413233,27.061816 7.3062576,26.268273 7.2633621,25.466686 7.1635053,24.650987 6.9362883,23.882748 l -0.029077,-0.0383 z"
         id="right_tibialis_anterior"><title
           id="title167">tibialis_anterior</title></path></g><g
       id="peroneus_longus"><path
         style="fill:none;stroke:#000000;stroke-width:0.0568086;stroke-linecap:round;stroke-linejoin:round;stroke-dasharray:none;paint-order:stroke fill markers"
         d="m 9.6567573,24.646448 c 0.08831,0.636207 0.1771119,1.302831 0.00572,1.930331 -0.1740856,0.402658 -0.3330966,0.799046 -0.4150254,1.230217 -0.1236166,0.416505 -0.2604687,0.855098 -0.525594,1.207742 0.0809,-0.476656 0.2657894,-0.936999 0.288573,-1.42461 0.056573,-0.55211 0.1386534,-1.10283 0.2895414,-1.640841 0.077798,-0.435254 0.2685999,-0.852677 0.3114773,-1.290947 z"
         id="left_peroneus_longus"><title
           id="title74">peroneus_longus</title></path><path
         style="fill:none;stroke:#000000;stroke-width:0.0568086;stroke-linecap:round;stroke-linejoin:round;stroke-dasharray:none;paint-order:stroke fill markers"
         d="m 5.6062727,24.646448 c -0.08831,0.636207 -0.177112,1.302831 -0.00572,1.930331 0.1740856,0.402658 0.3330966,0.799046 0.4150254,1.230217 0.1236168,0.416505 0.2604678,0.855098 0.5255922,1.207742 C 6.4602657,28.538082 6.2753775,28.077739 6.252594,27.590128 6.1960217,27.038018 6.1139412,26.487298 5.9630531,25.949287 5.8852556,25.514033 5.6944532,25.09661 5.6515758,24.65834 Z"
         id="right_peroneus_longus"><title
           id="title168">peroneus_longus</title></path></g><g
       id="tensor_fasciae_latae"><path
         style="fill:none;stroke:#000000;stroke-width:0.0568086;stroke-linecap:round;stroke-linejoin:round;stroke-dasharray:none;paint-order:stroke fill markers"
         d="m 10.019183,13.59095 c 0.06929,0.09879 0.13453,0.199727 0.180436,0.310871 0.0835,0.160934 0.14321,0.331829 0.200658,0.502573 0.05689,0.210321 0.130606,0.417001 0.160922,0.633075 0.04357,0.228217 0.07886,0.458205 0.105929,0.688609 0.0137,0.262993 0.02364,0.526062 0.01925,0.789426 0.0022,0.227714 -0.01382,0.455101 -0.02059,0.682654 -0.02161,0.04961 -0.08312,0.05577 -0.100957,0.0048 -0.0381,-0.219588 -0.04589,-0.442708 -0.07954,-0.662668 -0.0142,-0.076 -0.01663,-0.155938 -0.06713,-0.219816 -0.02681,-0.04612 -0.06094,-0.09046 -0.0484,-0.14615 0.0045,-0.273846 0.0042,-0.547635 -0.0091,-0.821269 -0.0039,-0.125305 -0.0027,-0.251149 -0.03468,-0.373564 -0.04249,-0.226585 -0.08486,-0.454295 -0.144414,-0.67693 -0.06208,-0.125463 -0.11033,-0.258335 -0.1997006,-0.36918 -0.00642,-0.06971 0.014466,-0.144657 -0.00887,-0.214917 -0.00175,-0.03721 -0.032412,-0.109326 0.00428,-0.124642 0.013988,-9.59e-4 0.027975,-0.0019 0.041963,-0.0029 z"
         id="left_tensor_fasciae_latae"><title
           id="title77">tensor_fasciae_latae</title></path><path
         style="fill:none;stroke:#000000;stroke-width:0.0568086;stroke-linecap:round;stroke-linejoin:round;stroke-dasharray:none;paint-order:stroke fill markers"
         d="m 5.2438465,13.59095 c -0.069291,0.09879 -0.1345292,0.199727 -0.1804354,0.310871 -0.083499,0.160934 -0.1432103,0.331829 -0.2006583,0.502573 -0.056893,0.210321 -0.1306056,0.417001 -0.1609216,0.633075 -0.043568,0.228217 -0.078864,0.458205 -0.1059294,0.688609 -0.013702,0.262993 -0.023643,0.526062 -0.019249,0.789426 -0.00219,0.227714 0.013818,0.455101 0.020592,0.682654 0.021608,0.04961 0.083117,0.05577 0.1009577,0.0048 0.038101,-0.219588 0.045885,-0.442708 0.079541,-0.662668 0.014203,-0.076 0.016629,-0.155938 0.067132,-0.219816 0.026812,-0.04612 0.060936,-0.09046 0.048404,-0.14615 -0.0045,-0.273846 -0.0042,-0.547635 0.00914,-0.821269 0.00395,-0.125305 0.00266,-0.251149 0.03468,-0.373564 0.042491,-0.226585 0.08486,-0.454295 0.1444131,-0.67693 0.062081,-0.125463 0.1103308,-0.258335 0.199701,-0.36918 0.00642,-0.06971 -0.014466,-0.144657 0.00887,-0.214917 0.00175,-0.03721 0.032413,-0.109326 -0.00428,-0.124642 -0.013988,-9.59e-4 -0.027975,-0.0019 -0.041963,-0.0029 z"
         id="right_tensor_fasciae_latae"><title
           id="title169">tensor_fasciae_latae</title></path></g><g
       id="iliopsoas"><path
         style="fill:none;stroke:#000000;stroke-width:0.0568086;stroke-linecap:round;stroke-linejoin:round;stroke-dasharray:none;paint-order:stroke fill markers"
         d="m 9.3231606,14.32032 c 0.051135,-0.08402 0.1083907,-0.163889 0.1740178,-0.238068 0.026246,-0.01587 0.058279,-0.04469 0.085757,-0.04789 0.036078,0.01598 0.043494,0.04722 0.043258,0.08254 0.00915,0.08782 0.016836,0.177595 -0.00402,0.264381 -0.013824,0.116853 -0.068303,0.223807 -0.1027933,0.335699 -0.0163,0.02034 -0.010066,0.08745 -0.043166,0.07293 -0.038964,-0.0063 -0.059078,-0.03231 -0.071345,-0.06654 -0.025207,-0.07342 -0.023064,-0.154551 -0.049197,-0.228685 -0.017456,-0.0573 -0.029951,-0.114546 -0.032514,-0.174373 z"
         id="left_iliopsoas"><title
           id="title81">iliopsoas</title></path><path
         style="fill:none;stroke:#000000;stroke-width:0.0568086;stroke-linecap:round;stroke-linejoin:round;stroke-dasharray:none;paint-order:stroke fill markers"
         d="M 5.9398693,14.32032 C 5.8887343,14.2363 5.8314786,14.156431 5.7658515,14.082252 c -0.026246,-0.01587 -0.058279,-0.04469 -0.085757,-0.04789 -0.036078,0.01598 -0.043494,0.04722 -0.043258,0.08254 -0.00915,0.08782 -0.016836,0.177595 0.00402,0.264381 0.013824,0.116853 0.068303,0.223807 0.1027932,0.335699 0.0163,0.02034 0.010066,0.08745 0.043166,0.07293 0.038964,-0.0063 0.059079,-0.03231 0.071345,-0.06654 0.025207,-0.07342 0.023064,-0.154551 0.049198,-0.228685 0.017456,-0.0573 0.029951,-0.114546 0.032514,-0.174373 z"
         id="path171"><title
           id="title170">iliopsoas</title></path></g><g
       id="pectineus"><path
         style="fill:none;stroke:#000000;stroke-width:0.0568086;stroke-linecap:round;stroke-linejoin:round;stroke-dasharray:none;paint-order:stroke fill markers"
         d="m 9.0966442,14.593834 c 0.010366,-0.04777 0.020296,-0.09571 0.054599,-0.133598 0.00748,-0.03971 0.060274,-0.02924 0.077394,-0.0069 0.046141,0.101095 0.057288,0.212869 0.083163,0.319733 0.00377,0.03575 0.014869,0.0683 0.042489,0.09362 0.021435,0.0269 0.056565,0.04845 0.035217,0.08573 -0.016105,0.0899 -0.055026,0.174542 -0.090745,0.258459 -0.036119,0.05424 -0.052169,0.119943 -0.083373,0.174706 -0.029489,0.01326 -0.062057,0.05632 -0.08583,0.01425 -0.028382,-0.02441 -0.05883,-0.0476 -0.062428,-0.08673 -0.037899,-0.102112 -0.053868,-0.209462 -0.078123,-0.314813 -0.019948,-0.06993 -0.044118,-0.140608 -0.055778,-0.211544 0.013505,-0.04634 0.014162,-0.09899 0.056612,-0.131098 0.026245,-0.01789 0.027488,-0.06397 0.050507,-0.07624 0.018765,0.0048 0.037531,0.0096 0.056296,0.01445 z"
         id="left_pectineus"><title
           id="title80">pectineus</title></path><path
         style="fill:none;stroke:#000000;stroke-width:0.0568086;stroke-linecap:round;stroke-linejoin:round;stroke-dasharray:none;paint-order:stroke fill markers"
         d="m 6.1663855,14.593834 c -0.010361,-0.04777 -0.020296,-0.09571 -0.054599,-0.133598 -0.00748,-0.03971 -0.060274,-0.02924 -0.077394,-0.0069 -0.046141,0.101095 -0.057288,0.212869 -0.083163,0.319733 -0.00377,0.03575 -0.014869,0.0683 -0.042489,0.09362 -0.021435,0.0269 -0.056565,0.04845 -0.035218,0.08573 0.016105,0.0899 0.055026,0.174542 0.090745,0.258459 0.036119,0.05424 0.052169,0.119943 0.083372,0.174706 0.029489,0.01326 0.062057,0.05632 0.085829,0.01425 0.028382,-0.02441 0.05883,-0.0476 0.062429,-0.08673 0.037898,-0.102112 0.053866,-0.209462 0.078122,-0.314813 0.019948,-0.06993 0.044117,-0.140608 0.055778,-0.211544 -0.013505,-0.04634 -0.014163,-0.09899 -0.056611,-0.131098 -0.026245,-0.01789 -0.027489,-0.06397 -0.050507,-0.07624 -0.018766,0.0048 -0.037531,0.0096 -0.056296,0.01445 z"
         id="path172"><title
           id="title171">pectineus</title></path></g><g
       id="adductor_longus"><path
         style="fill:none;stroke:#000000;stroke-width:0.0568086;stroke-linecap:round;stroke-linejoin:round;stroke-dasharray:none;paint-order:stroke fill markers"
         d="m 8.4418063,15.362842 c 0.056277,-0.08291 0.1045355,-0.170264 0.1515797,-0.258124 0.055841,-0.07767 0.1169265,-0.151532 0.1778985,-0.225479 0.038159,-0.02228 0.061871,-0.01375 0.069361,0.02938 0.073452,0.139257 0.073757,0.299966 0.1266344,0.44556 0.034559,0.08023 0.069466,0.160369 0.1087722,0.238573 -0.00878,0.05729 -0.012226,0.116134 -0.045514,0.166284 -0.044631,0.09536 -0.096032,0.188351 -0.1383265,0.28434 -0.015028,0.06901 -0.038737,0.137047 -0.06981,0.200459 -0.033907,0.04051 -0.058605,0.0862 -0.079945,0.133783 -0.040547,-0.01609 -0.090835,-0.02296 -0.1252578,-0.04485 -0.03735,-0.11371 -0.069713,-0.229402 -0.127706,-0.33549 -0.027539,-0.0614 -0.068077,-0.119016 -0.087001,-0.182925 -0.01311,-0.07878 -0.013032,-0.160787 -0.050733,-0.233571 -0.010704,-0.03932 -0.00172,-0.08212 -0.00468,-0.122807 0.031575,-0.03171 0.06315,-0.06342 0.094725,-0.09513 z"
         id="left_adductor_longus"><title
           id="title79">adductor_longus</title></path><path
         style="fill:none;stroke:#000000;stroke-width:0.0568086;stroke-linecap:round;stroke-linejoin:round;stroke-dasharray:none;paint-order:stroke fill markers"
         d="m 6.8212193,15.362842 c -0.056276,-0.08291 -0.1045349,-0.170264 -0.1515784,-0.258124 -0.055842,-0.07767 -0.1169257,-0.151532 -0.1778976,-0.225479 -0.03816,-0.02228 -0.061871,-0.01375 -0.06936,0.02938 -0.073452,0.139257 -0.073757,0.299966 -0.1266347,0.44556 -0.034558,0.08023 -0.069465,0.160369 -0.1087713,0.238573 0.00878,0.05729 0.012229,0.116134 0.045514,0.166284 0.044631,0.09536 0.096031,0.188351 0.1383253,0.28434 0.015028,0.06901 0.038737,0.137047 0.069811,0.200459 0.033906,0.04051 0.058605,0.0862 0.079945,0.133783 0.040546,-0.01609 0.090835,-0.02296 0.1252574,-0.04485 0.037349,-0.11371 0.069711,-0.229402 0.1277044,-0.33549 0.027539,-0.0614 0.068077,-0.119016 0.087001,-0.182925 0.01311,-0.07878 0.013032,-0.160787 0.050733,-0.233571 0.010709,-0.03932 0.00172,-0.08212 0.00467,-0.122807 -0.031575,-0.03171 -0.06315,-0.06342 -0.094725,-0.09513 z"
         id="path173"><title
           id="title172">adductor_longus</title></path></g></g><g
     id="back"><path
       style="display:inline;fill:none;stroke:#000000;stroke-width:0.056742;stroke-linecap:round;stroke-linejoin:round;stroke-dasharray:none;paint-order:stroke fill markers"
       d="M 21.483688,5.0668392 C 21.301149,4.638894 21.162477,4.1812069 21.140332,3.7132335 c -0.03606,-0.551893 -0.0035,-1.1374684 0.302626,-1.6214442 0.126035,-0.2169417 0.332485,-0.3721145 0.537818,-0.5107874 0.21397,-0.013989 0.355513,-0.3183044 0.07569,-0.346812 -0.178326,-0.086709 -0.230706,-0.34004474 -0.147337,-0.50212658 0.0985,-0.19525962 0.265091,-0.38032859 0.50506,-0.39427677 0.264348,-0.0301511 0.527901,-0.0519296 0.792595,-0.0174754 0.238746,-1.5614e-4 0.495856,0.0813065 0.610265,0.30052187 0.137002,0.15050241 0.139431,0.38574518 0.01473,0.54410268 -0.104906,0.083273 -0.384119,0.1480261 -0.20517,0.3200465 0.203446,0.098519 0.39003,0.2240153 0.550122,0.38215 0.415321,0.4491384 0.513855,1.083646 0.48392,1.6664018 -0.0065,0.5008842 -0.115981,1.0009099 -0.32641,1.458788 l -0.235678,0.1539629 -0.400106,0.134823 -0.301529,0.1123526 -0.272536,0.089882 -0.301528,0.011236 -0.284134,-0.011236 -0.249341,-0.084264 -0.34212,-0.1235879 -0.284133,-0.1067348 z"
       id="hair_outline_back" /><path
       style="fill:none;stroke:#000000;stroke-width:0.056742;stroke-linecap:round;stroke-linejoin:round;stroke-dasharray:none;paint-order:stroke fill markers"
       d="m 22.833626,16.80286 c -0.420212,-0.08526 0.0015,0.45889 -0.118317,0.720307 -0.01707,1.557847 -0.0502,3.126228 -0.287038,4.667529 -0.07487,1.04006 -0.02841,2.0884 0.202396,3.111635 0.09985,0.899217 -0.04077,1.809872 -0.278335,2.668373 -6.8e-5,0.806992 -0.171576,1.635274 -0.029,2.426815 -0.128691,0.53845 0.282447,1.126317 0.04638,1.674052 -0.391849,0.160111 -0.918811,0.02404 -1.36195,0.07172 -0.45299,0.193951 -0.717671,-0.290008 -0.275841,-0.492823 0.311181,-0.188413 0.300067,-0.611936 0.553061,-0.872338 -0.02863,-0.303624 0.0098,-0.610671 0.12214,-0.914279 0.01058,-1.232643 -0.540337,-2.37722 -0.835354,-3.555498 -0.153977,-1.017631 0.229322,-2.023956 0.394386,-3.007396 -0.09165,-0.778389 -0.185059,-1.549517 -0.473416,-2.288342 -0.571717,-1.90982 -0.989359,-3.93156 -0.651869,-5.918439 0.103938,-0.822595 0.483756,-1.579954 0.986381,-2.234879 0.116627,-0.606254 -0.04235,-1.264249 0.0095,-1.891715 0.05196,-0.361027 0.01343,-0.659034 -0.271374,-0.904733 -0.156414,-0.6067455 -0.103907,0.125234 -0.213835,0.387602 -0.09035,0.46954 -0.279208,0.915866 -0.544778,1.313409 0.01863,0.858837 -0.687891,1.530912 -1.171324,2.190875 -0.492825,0.608282 -1.1318,1.181828 -1.19518,2.000106 -0.137966,0.51901 -0.323491,1.055945 -0.706772,1.454733 -0.232559,-0.04339 -0.432884,0.208379 -0.683487,0.138807 -0.397312,0.02533 0.02613,-0.567607 -0.328984,-0.504864 0.01158,-0.472391 0.219981,-0.965235 0.4906,-1.336087 -0.109296,0.04781 -0.830604,0.49445 -0.643642,-0.06742 0.329867,-0.228127 0.701111,-0.401188 0.979969,-0.707822 0.426834,-0.0421 0.564154,-0.548036 0.800211,-0.848264 0.383562,-0.841824 0.451729,-1.839227 1.15425,-2.53061 0.402392,-0.242058 0.167985,-0.687545 0.254699,-1.066913 C 18.786353,9.9596602 19.024637,9.4597709 19.1724,8.9750795 19.15424,8.1857978 19.10409,7.1097518 19.998129,6.7473035 20.655993,6.4604 21.700709,6.7295052 22.033403,5.9439879 22.059314,5.6396135 21.697881,5.3166912 21.496307,5.0681586 20.882629,4.1459593 20.98537,2.4933293 21.732493,1.76608 c 0.178935,-0.1591872 0.321716,-0.1885615 0.404253,-0.2586081 0.02054,-0.017429 0.01568,-8.407e-4 0.07929,-0.1346699 0.04242,-0.089254 -0.0024,-0.1464733 -0.224069,-0.1862111 -0.19861,-0.035598 -0.124844,-0.32733766 -0.100592,-0.45714134 0.02425,-0.12980379 0.166828,-0.23604911 0.405335,-0.33689867 0.741003,-0.32358983 2.305827,0.18266961 1.271709,0.98156321 1.287357,0.8345853 1.305492,2.1282205 0.904687,3.2675418 -0.205208,0.4001474 -0.515119,0.7584035 -0.821039,1.1113326 0.04492,0.760228 1.017752,0.8089179 1.617816,0.8707321 0.804587,0.047188 1.300138,0.8185707 1.26807,1.5494956 6.2e-4,0.4843657 -0.04855,0.9626125 0.216378,1.3941407 0.190843,0.5607821 0.259899,1.1537251 0.208752,1.7414631 0.748091,0.618825 1.016482,1.572249 1.258269,2.454331 0.194142,0.397612 0.415369,0.891162 0.785228,1.128749 0.400988,0.12257 0.632511,0.565392 1.070371,0.669468 0.373305,0.470949 -0.368564,0.42541 -0.549673,0.107893 0.08757,0.247695 0.346517,0.614024 0.404325,0.952716 0.258621,0.45049 -0.180016,0.396686 -0.08492,0.690171 0.04404,0.401428 -0.396795,0.151493 -0.581525,0.204159 -0.207124,-0.189002 -0.537457,-0.202526 -0.659588,-0.648455 -0.40816,-0.724855 -0.310173,-1.6544 -0.972639,-2.248984 -0.649219,-0.846376 -1.532045,-1.629637 -1.742579,-2.703331 0.03346,-0.373136 -0.37983,-0.642423 -0.41022,-1.027241 -0.100998,-0.36672 -0.228702,-0.740172 -0.20442,-1.1243102 -0.02824,0.3021082 -0.428794,0.4983232 -0.403714,0.8082202 0.0568,0.752495 -0.07613,1.531567 0.0051,2.266141 0.512177,0.675612 0.899218,1.452148 1.006844,2.297026 0.366129,2.320831 -0.243881,4.65331 -0.973564,6.852567 -0.01291,0.670457 -0.320261,1.344888 -0.01159,1.994258 0.22971,1.03481 0.477771,2.146129 0.0058,3.157106 -0.310803,0.92984 -0.652158,1.910848 -0.570483,2.890538 0.243561,0.311664 -0.07024,0.667272 0.216743,0.957537 0.207563,0.257878 0.197175,0.642668 0.574059,0.752761 0.355554,0.485741 -0.348171,0.430466 -0.672273,0.402309 -0.362557,-0.0887 -0.94397,0.18517 -1.154293,-0.166377 -0.115177,-0.588271 0.213015,-1.162755 0.110159,-1.730229 0.09039,-0.795466 -0.02458,-1.645415 -0.07645,-2.445389 -0.405615,-1.196217 -0.298537,-2.475706 -0.05081,-3.691266 0.09558,-0.985592 0.01189,-1.972335 -0.139475,-2.947046 -0.05752,-1.400107 -0.218407,-2.809146 -0.104388,-4.207603 0.15429,-0.223901 -0.02998,-0.131762 -0.203784,-0.151679 z"
       id="outline_back" /><g
       id="levator_scapulae"><path
         style="fill:none;stroke:#000000;stroke-width:0.056742;stroke-linecap:round;stroke-linejoin:round;stroke-dasharray:none;paint-order:stroke fill markers"
         d="m 23.420123,5.4384013 c -0.03922,0.4771247 0.194119,1.0182193 0.727718,1.1094758 0.08584,0.1220006 -0.493259,0.067176 -0.662104,0.176995 -0.41823,0.2980512 -0.361433,-0.1248888 -0.357912,-0.431842 0.06951,-0.2694782 -0.209604,-0.7887655 0.184544,-0.8256319 0.03592,-0.00967 0.07184,-0.019331 0.107754,-0.028997 z"
         id="right_levator_scapulae"><title
           id="title241">levator_scapulae</title></path><path
         style="fill:none;stroke:#000000;stroke-width:0.056742;stroke-linecap:round;stroke-linejoin:round;stroke-dasharray:none;paint-order:stroke fill markers"
         d="m 22.344008,5.4384013 c 0.03922,0.4771247 -0.194119,1.0182193 -0.727718,1.1094758 -0.08584,0.1220006 0.493259,0.067176 0.662104,0.176995 0.41823,0.2980512 0.361432,-0.1248888 0.357912,-0.431842 -0.06952,-0.2694782 0.209604,-0.7887655 -0.184544,-0.8256319 -0.03592,-0.00967 -0.07184,-0.019331 -0.107754,-0.028997 z"
         id="left_levator_scapulae"><title
           id="title248">levator_scapulae</title></path></g><g
       id="trapezius"><path
         style="fill:none;stroke:#000000;stroke-width:0.056742;stroke-linecap:round;stroke-linejoin:round;stroke-dasharray:none;paint-order:stroke fill markers"
         d="m 23.031614,7.2585123 c 0.549363,-0.4561241 1.338046,-0.4933244 2.030065,-0.5149893 0.532195,0.049025 -0.146416,0.1312525 -0.269023,0.3138635 -0.698539,0.6844546 -0.610293,1.9010837 -1.56021,2.3823734 -0.363094,0.307205 -0.21022,-0.3218312 -0.231089,-0.5188356 0.01008,-0.5541374 0.02017,-1.1082746 0.03026,-1.662412 z"
         id="right_trapezius"><title
           id="title237">trapezius</title></path><path
         style="fill:none;stroke:#000000;stroke-width:0.056742;stroke-linecap:round;stroke-linejoin:round;stroke-dasharray:none;paint-order:stroke fill markers"
         d="M 22.732517,7.2585123 C 22.183154,6.8023882 21.394471,6.7651879 20.702452,6.743523 c -0.532195,0.049025 0.146416,0.1312525 0.269023,0.3138635 0.698539,0.6844546 0.610293,1.9010837 1.56021,2.3823734 0.363094,0.307205 0.21022,-0.3218312 0.231089,-0.5188356 -0.01008,-0.5541374 -0.02017,-1.1082746 -0.03026,-1.662412 z"
         id="path249"><title
           id="title249">trapezius</title></path></g><g
       id="posterior_deltoid"><path
         style="fill:none;stroke:#000000;stroke-width:0.056742;stroke-linecap:round;stroke-linejoin:round;stroke-dasharray:none;paint-order:stroke fill markers"
         d="m 24.927767,7.2079536 c 0.306394,-0.2738128 0.802926,-0.389086 1.101741,-0.039323 0.40524,0.4504443 0.279947,1.0834739 0.266737,1.6291115 C 25.878892,8.3171687 25.494611,7.786166 25.001387,7.3614403 24.991587,7.2868393 24.747253,7.2545688 24.927767,7.2079536 Z"
         id="right_posterior_deltoid"><title
           id="title238">posterior_deltoid</title></path><path
         style="fill:none;stroke:#000000;stroke-width:0.056742;stroke-linecap:round;stroke-linejoin:round;stroke-dasharray:none;paint-order:stroke fill markers"
         d="m 20.836363,7.2079536 c -0.306393,-0.2738128 -0.802925,-0.389086 -1.10174,-0.039323 -0.40524,0.4504443 -0.279947,1.0834739 -0.266737,1.6291115 0.417353,-0.4805734 0.801633,-1.0115761 1.294858,-1.4363018 0.0098,-0.074601 0.254134,-0.1068715 0.07362,-0.1534871 z"
         id="left_posterior_deltoid"><title
           id="title250">posterior_deltoid</title></path></g><g
       id="latissimus_dorsi"><path
         id="right_latissimus_dorsi"
         style="fill:none;stroke:#000000;stroke-width:0.056742;stroke-linecap:round;stroke-linejoin:round;stroke-dasharray:none;paint-order:stroke fill markers"
         d="m 24.214775,8.9157382 c -0.360998,0.3969216 -0.704168,0.8168888 -1.160166,1.1180768 -0.16714,0.361763 -0.124253,0.796852 0.03935,1.155346 0.263993,0.540121 0.753237,1.001642 1.248176,1.322022 0.0662,-1.195423 0.406374,-2.362694 0.72478,-3.5167654 -0.285282,0.051425 -0.60353,0.1066691 -0.852135,-0.078679 z m -1.113574,2.8536838 c -0.0034,0.806469 -0.08556,1.614065 0.04038,2.41577 0.37448,-0.445475 0.837917,-0.82676 1.124962,-1.337033 -0.454149,-0.283482 -0.789469,-0.708938 -1.165344,-1.078737 z"><title
           id="title311">latissimus_dorsi</title></path><path
         id="left_latissimus_dorsi"
         style="fill:none;stroke:#000000;stroke-width:0.056742;stroke-linecap:round;stroke-linejoin:round;stroke-dasharray:none;paint-order:stroke fill markers"
         d="m 21.549654,8.9157382 c -0.248604,0.1853485 -0.567371,0.1301042 -0.852652,0.078679 0.318405,1.1540718 0.658585,2.3213428 0.724779,3.5167658 0.494939,-0.32038 0.984183,-0.781901 1.248177,-1.322022 0.163597,-0.358494 0.206484,-0.793583 0.03934,-1.155346 C 22.2533,9.7326266 21.910648,9.3126594 21.549649,8.9157378 Z m 1.113056,2.8536838 c -0.375875,0.369799 -0.711194,0.795255 -1.165344,1.078737 0.287046,0.510273 0.750482,0.891558 1.124962,1.337033 0.12594,-0.801705 0.04375,-1.609301 0.04038,-2.41577 z"><title
           id="title310">latissimus_dorsi</title></path></g><g
       id="gluteus_medius"><path
         style="fill:none;stroke:#000000;stroke-width:0.056742;stroke-linecap:round;stroke-linejoin:round;stroke-dasharray:none;paint-order:stroke fill markers"
         d="m 23.791235,14.364809 c 0.28735,-0.252848 0.566016,-0.540451 0.986009,-0.547763 0.301461,0.0042 0.485839,0.381074 0.632331,0.618003 0.179649,0.339799 0.262257,0.731963 0.277811,1.109462 -0.471074,-0.595899 -1.184439,-0.98097 -1.948341,-1.084202 0.0174,-0.03183 0.03479,-0.06367 0.05219,-0.0955 z"
         id="right_gluteus_medius"><title
           id="title234">gluteus_medius</title></path><path
         style="fill:none;stroke:#000000;stroke-width:0.056742;stroke-linecap:round;stroke-linejoin:round;stroke-dasharray:none;paint-order:stroke fill markers"
         d="m 21.972895,14.364809 c -0.287349,-0.252848 -0.566015,-0.540451 -0.986008,-0.547763 -0.301461,0.0042 -0.485839,0.381074 -0.632331,0.618003 -0.179649,0.339799 -0.262257,0.731963 -0.277811,1.109462 0.471074,-0.595899 1.184439,-0.98097 1.948341,-1.084202 -0.0174,-0.03183 -0.03479,-0.06367 -0.05219,-0.0955 z"
         id="left_gluteus_medius"><title
           id="title252">gluteus_medius</title></path></g><g
       id="gluteus_maximus"><path
         style="fill:none;stroke:#000000;stroke-width:0.056742;stroke-linecap:round;stroke-linejoin:round;stroke-dasharray:none;paint-order:stroke fill markers"
         d="m 23.101198,14.527721 c 0.955679,0.07339 2.033465,0.413431 2.515852,1.275468 0.416207,0.759132 0.0062,1.630332 -0.503726,2.241166 -0.275229,-0.793481 -1.406677,-0.583712 -1.825758,-1.257149 -0.390639,-0.294752 -0.160244,-0.802895 -0.207888,-1.211145 0.0072,-0.349447 0.01435,-0.698893 0.02152,-1.04834 z"
         id="right_gluteus_maximus"><title
           id="title233">gluteus_maximus</title></path><path
         style="fill:none;stroke:#000000;stroke-width:0.056742;stroke-linecap:round;stroke-linejoin:round;stroke-dasharray:none;paint-order:stroke fill markers"
         d="m 22.662933,14.527721 c -0.955679,0.07339 -2.033465,0.413431 -2.515852,1.275468 -0.416207,0.759132 -0.0062,1.630332 0.503726,2.241166 0.275228,-0.793481 1.406677,-0.583712 1.825758,-1.257149 0.390639,-0.294752 0.160244,-0.802895 0.207888,-1.211145 -0.0072,-0.349447 -0.01435,-0.698893 -0.02152,-1.04834 z"
         id="left_gluteus_maximus"><title
           id="title253">gluteus_maximus</title></path></g><g
       id="external_oblique"><path
         style="fill:none;stroke:#000000;stroke-width:0.056742;stroke-linecap:round;stroke-linejoin:round;stroke-dasharray:none;paint-order:stroke fill markers"
         d="m 24.690023,12.331229 c -0.01613,0.488743 0.219681,0.919075 0.307328,1.398789 -0.267977,-0.09368 -0.650181,-0.05726 -0.840802,-0.252789 -0.01608,-0.230525 0.29289,-0.458722 0.306782,-0.728708 0.07693,-0.132545 0.0537,-0.36559 0.226692,-0.417292 z"
         id="right_external_oblique"><title
           id="title236">external_oblique</title></path><path
         style="fill:none;stroke:#000000;stroke-width:0.056742;stroke-linecap:round;stroke-linejoin:round;stroke-dasharray:none;paint-order:stroke fill markers"
         d="m 21.074108,12.331229 c 0.01613,0.488743 -0.219681,0.919075 -0.307329,1.398789 0.267977,-0.09368 0.650182,-0.05726 0.840803,-0.252789 0.01609,-0.230525 -0.29289,-0.458722 -0.306783,-0.728708 -0.07693,-0.132545 -0.0537,-0.36559 -0.226691,-0.417292 z"
         id="left_external_oblique"><title
           id="title254">external_oblique</title></path></g><g
       id="infraspinatus"><path
         style="fill:none;stroke:#000000;stroke-width:0.056742;stroke-linecap:round;stroke-linejoin:round;stroke-dasharray:none;paint-order:stroke fill markers"
         d="m 24.765406,7.3034535 c -0.436079,0.4342019 -0.473307,1.0794901 -0.794414,1.5841703 0.240695,-0.021772 0.50924,-0.1997902 0.751083,-0.296802 C 24.98101,8.4034398 25.305818,8.2174726 25.345263,7.8764513 25.166278,7.6771836 24.977264,7.4499544 24.765406,7.3034535 Z"
         id="right_infraspinatus"><title
           id="title239">infraspinatus</title></path><path
         style="fill:none;stroke:#000000;stroke-width:0.056742;stroke-linecap:round;stroke-linejoin:round;stroke-dasharray:none;paint-order:stroke fill markers"
         d="m 20.998725,7.3034535 c 0.436079,0.4342019 0.473307,1.0794901 0.794414,1.5841703 -0.240695,-0.021772 -0.50924,-0.1997902 -0.751083,-0.296802 -0.258935,-0.187382 -0.583743,-0.3733492 -0.623189,-0.7143705 0.178986,-0.1992677 0.368,-0.4264969 0.579858,-0.5729978 z"
         id="left_infraspinatus"><title
           id="title255">infraspinatus</title></path></g><g
       id="teres_minor"><path
         style="fill:none;stroke:#000000;stroke-width:0.056742;stroke-linecap:round;stroke-linejoin:round;stroke-dasharray:none;paint-order:stroke fill markers"
         d="M 25.42645,7.9550979 C 25.21352,8.2481695 25.282405,8.4123015 25.624164,8.1761718 25.613242,8.1015609 25.529839,7.9318011 25.42645,7.9550979 Z"
         id="right_teres_minor"><title
           id="title247">teres_minor</title></path><path
         style="fill:none;stroke:#000000;stroke-width:0.056742;stroke-linecap:round;stroke-linejoin:round;stroke-dasharray:none;paint-order:stroke fill markers"
         d="m 20.33768,7.9550979 c 0.212931,0.2930716 0.144046,0.4572036 -0.197713,0.2210739 0.01092,-0.074611 0.09433,-0.2443707 0.197713,-0.2210739 z"
         id="left_teres_minor"><title
           id="title256">teres_minor</title></path></g><g
       id="teres_major"><path
         style="fill:none;stroke:#000000;stroke-width:0.056742;stroke-linecap:round;stroke-linejoin:round;stroke-dasharray:none;paint-order:stroke fill markers"
         d="m 25.548221,8.3595672 c -0.09927,0.2892099 -0.296924,0.6602155 -0.67844,0.5842321 -0.197707,0.1016789 -0.782622,-0.1102336 -0.31476,-0.1848536 0.347447,-0.092003 0.548714,-0.512319 0.947912,-0.3993787 z"
         id="right_teres_major"><title
           id="title240">teres_major</title></path><path
         style="fill:none;stroke:#000000;stroke-width:0.056742;stroke-linecap:round;stroke-linejoin:round;stroke-dasharray:none;paint-order:stroke fill markers"
         d="m 20.21591,8.3595672 c 0.09927,0.2892099 0.296924,0.6602155 0.67844,0.5842321 0.197707,0.1016789 0.782622,-0.1102336 0.31476,-0.1848536 -0.347447,-0.092003 -0.548715,-0.512319 -0.947912,-0.3993787 z"
         id="left_teres_major"><title
           id="title257">teres_major</title></path></g><g
       id="triceps"><path
         id="right_triceps"
         style="fill:none;stroke:#000000;stroke-width:0.056742;stroke-linecap:round;stroke-linejoin:round;stroke-dasharray:none;paint-order:stroke fill markers"
         d="m 25.675726,8.3991453 c -0.09157,0.1031007 9.6e-5,0.2586653 -0.07559,0.381492 -0.318218,0.8837779 -0.201951,1.9350097 0.441081,2.6575027 0.0027,-0.346098 0.02218,-0.706211 0.06368,-1.056479 0.02207,-0.6705703 0.211715,-1.5124304 -0.429173,-1.9825157 z m 0.533748,0.5171105 c -0.01394,-1.442e-4 -0.02219,0.011629 -0.0176,0.05021 0.172994,0.5196664 0.0594,1.0786942 -0.0176,1.6124112 -0.01933,0.188296 -0.01858,0.653413 0.221058,0.600449 0.16868,-0.155008 0.456192,0.161834 0.317868,-0.294531 0.02209,-0.673154 -0.02263,-1.3805041 -0.445739,-1.9467988 -0.0189,-0.00663 -0.04218,-0.021581 -0.05798,-0.02174 z"><title
           id="title309">triceps</title></path><path
         id="left_triceps"
         style="fill:none;stroke:#000000;stroke-width:0.056742;stroke-linecap:round;stroke-linejoin:round;stroke-dasharray:none;paint-order:stroke fill markers"
         d="m 20.088186,8.3991453 c -0.640889,0.4700853 -0.451245,1.3119454 -0.429174,1.9825157 0.0415,0.350268 0.06145,0.710381 0.06419,1.056479 0.643033,-0.722493 0.758782,-1.7737248 0.440563,-2.6575027 -0.07568,-0.1228267 0.01599,-0.2783913 -0.07558,-0.381492 z m -0.533749,0.5171105 c -0.0158,1.561e-4 -0.03856,0.015107 -0.05747,0.02174 -0.423109,0.5662947 -0.467833,1.2736452 -0.44574,1.9467992 -0.138324,0.456365 0.149189,0.139523 0.317868,0.294531 0.239635,0.05296 0.239873,-0.412153 0.22054,-0.600449 -0.07701,-0.533717 -0.190596,-1.0927452 -0.0176,-1.6124116 0.0046,-0.038581 -0.0037,-0.05035 -0.0176,-0.05021 z"><title
           id="title308">triceps</title></path></g><g
       id="anconeus"><path
         style="fill:none;stroke:#000000;stroke-width:0.056742;stroke-linecap:round;stroke-linejoin:round;stroke-dasharray:none;paint-order:stroke fill markers"
         d="m 26.180273,11.387467 c 0.255623,-0.223806 0.53448,0.0568 0.58119,0.319734 0.09837,0.250856 0.0637,0.67003 -0.183948,0.267343 -0.12717,-0.164743 -0.487435,-0.425455 -0.402971,-0.585966 z"
         id="right_anconeus"><title
           id="title246">anconeus</title></path><path
         style="fill:none;stroke:#000000;stroke-width:0.056742;stroke-linecap:round;stroke-linejoin:round;stroke-dasharray:none;paint-order:stroke fill markers"
         d="m 19.583858,11.387467 c -0.255623,-0.223806 -0.53448,0.0568 -0.58119,0.319734 -0.09837,0.250856 -0.0637,0.67003 0.183948,0.267343 0.12717,-0.164743 0.487435,-0.425455 0.402971,-0.585966 z"
         id="path261"><title
           id="title260">anconeus</title></path></g><g
       id="extensor_digitorum"><path
         style="fill:none;stroke:#000000;stroke-width:0.056742;stroke-linecap:round;stroke-linejoin:round;stroke-dasharray:none;paint-order:stroke fill markers"
         d="m 27.224027,11.775083 c 0.511559,0.788871 0.772804,1.701282 1.147231,2.554551 0.236166,0.208111 -0.06811,0.662597 -0.236854,0.38802 -0.149405,-0.952024 -0.509786,-1.865563 -0.863997,-2.762806 -4.96e-4,-0.03126 -0.209199,-0.263696 -0.04638,-0.179765 z"
         id="right_extensor_digitorum"><title
           id="title245">extensor_digitorum</title></path><path
         style="fill:none;stroke:#000000;stroke-width:0.056742;stroke-linecap:round;stroke-linejoin:round;stroke-dasharray:none;paint-order:stroke fill markers"
         d="m 18.540104,11.775083 c -0.51156,0.788871 -0.772805,1.701282 -1.147231,2.554551 -0.236166,0.208111 0.06811,0.662597 0.236854,0.38802 0.149405,-0.952024 0.509786,-1.865563 0.863997,-2.762806 4.96e-4,-0.03126 0.209199,-0.263696 0.04638,-0.179765 z"
         id="path262"><title
           id="title261">extensor_digitorum</title></path></g><g
       id="extensor_carpi_ulnaris"><path
         style="fill:none;stroke:#000000;stroke-width:0.056742;stroke-linecap:round;stroke-linejoin:round;stroke-dasharray:none;paint-order:stroke fill markers"
         d="m 27.055866,11.797554 c 0.386124,0.793649 0.79468,1.613328 0.898789,2.494226 -0.571477,-0.655345 -0.878353,-1.512889 -0.937248,-2.366045 0.01276,-0.04275 -0.02112,-0.103244 0.03846,-0.128181 z"
         id="right_extensor_carpi_ulnaris"><title
           id="title244">extensor_carpi_ulnaris</title></path><path
         style="fill:none;stroke:#000000;stroke-width:0.056742;stroke-linecap:round;stroke-linejoin:round;stroke-dasharray:none;paint-order:stroke fill markers"
         d="m 18.708265,11.797554 c -0.386124,0.793649 -0.79468,1.613328 -0.898789,2.494226 0.571477,-0.655345 0.878353,-1.512889 0.937248,-2.366045 -0.01276,-0.04275 0.02112,-0.103244 -0.03846,-0.128181 z"
         id="path263"><title
           id="title262">extensor_carpi_ulnaris</title></path></g><g
       id="flexor_carpi_ulnaris"><path
         style="fill:none;stroke:#000000;stroke-width:0.056742;stroke-linecap:round;stroke-linejoin:round;stroke-dasharray:none;paint-order:stroke fill markers"
         d="m 26.087494,11.999789 c 0.175592,0.29978 0.624997,0.04424 0.710379,0.378193 0.36707,0.600752 0.616739,1.266666 0.9404,1.881149 -0.03162,0.152255 -0.390995,-0.29595 -0.518289,-0.449448 -0.42212,-0.5349 -0.778837,-1.114411 -1.120892,-1.69754 -0.0039,-0.03745 -0.0077,-0.0749 -0.01159,-0.112354 z"
         id="right_flexor_carpi_ulnaris"><title
           id="title243">flexor_carpi_ulnaris</title></path><path
         style="fill:none;stroke:#000000;stroke-width:0.056742;stroke-linecap:round;stroke-linejoin:round;stroke-dasharray:none;paint-order:stroke fill markers"
         d="m 19.676637,11.999789 c -0.175593,0.29978 -0.624998,0.04424 -0.710379,0.378193 -0.36707,0.600752 -0.616739,1.266666 -0.9404,1.881149 0.03162,0.152255 0.390995,-0.29595 0.518289,-0.449448 0.42212,-0.5349 0.778837,-1.114411 1.120892,-1.69754 0.0039,-0.03745 0.0077,-0.0749 0.01159,-0.112354 z"
         id="path264"><title
           id="title263">flexor_carpi_ulnaris</title></path></g><g
       id="iliotibial_tact"><path
         style="fill:none;stroke:#000000;stroke-width:0.056742;stroke-linecap:round;stroke-linejoin:round;stroke-dasharray:none;paint-order:stroke fill markers"
         d="m 25.774369,17.347769 c 0.01307,0.660418 -0.150422,1.318314 -0.27254,1.954934 -0.128201,-0.162228 -0.148453,-0.524316 -0.249343,-0.763994 -0.08315,-0.396278 0.228695,-0.729274 0.39653,-1.065164 0.04178,-0.04193 0.08357,-0.08385 0.125353,-0.125776 z"
         id="right_iliotibial_tact"><title
           id="title232">iliotibial_tact</title></path><path
         style="fill:none;stroke:#000000;stroke-width:0.056742;stroke-linecap:round;stroke-linejoin:round;stroke-dasharray:none;paint-order:stroke fill markers"
         d="m 19.989762,17.347769 c -0.01307,0.660418 0.150422,1.318314 0.27254,1.954934 0.128201,-0.162228 0.148452,-0.524316 0.249343,-0.763994 0.08315,-0.396278 -0.228695,-0.729274 -0.39653,-1.065164 -0.04178,-0.04193 -0.08357,-0.08385 -0.125353,-0.125776 z"
         id="left_iliotibial_tact"><title
           id="title264">iliotibial_tact</title></path></g><g
       id="biceps_femoris"><path
         style="fill:none;stroke:#000000;stroke-width:0.056742;stroke-linecap:round;stroke-linejoin:round;stroke-dasharray:none;paint-order:stroke fill markers"
         d="m 24.446481,17.903914 c 0.523023,0.08082 0.755757,0.665235 0.871846,1.11132 0.253301,1.242037 -0.59502,2.368882 -0.558716,3.596251 -0.200657,0.03787 -0.106867,-0.528522 -0.148997,-0.730922 0.07171,-0.936042 0.377266,-1.872908 0.176319,-2.817477 -0.05951,-0.384965 -0.18553,-0.759864 -0.363648,-1.108609 l 0.02164,-0.04718 z"
         id="right_biceps_femoris"><title
           id="title230">biceps_femoris</title></path><path
         style="fill:none;stroke:#000000;stroke-width:0.056742;stroke-linecap:round;stroke-linejoin:round;stroke-dasharray:none;paint-order:stroke fill markers"
         d="m 21.31765,17.903914 c -0.523023,0.08082 -0.755757,0.665235 -0.871846,1.11132 -0.253301,1.242037 0.59502,2.368882 0.558716,3.596251 0.200656,0.03787 0.106867,-0.528522 0.148997,-0.730922 -0.07172,-0.936042 -0.377266,-1.872908 -0.176319,-2.817477 0.05951,-0.384965 0.18553,-0.759864 0.363648,-1.108609 l -0.02164,-0.04718 z"
         id="left_biceps_femoris"><title
           id="title265">biceps_femoris</title></path></g><g
       id="semitendinosus"><path
         style="fill:none;stroke:#000000;stroke-width:0.056742;stroke-linecap:round;stroke-linejoin:round;stroke-dasharray:none;paint-order:stroke fill markers"
         d="m 24.23773,17.673592 c 0.37379,1.250128 0.703835,2.598509 0.289159,3.879803 -0.09395,0.39485 -0.363745,0.718619 -0.56169,1.063708 -0.01382,-1.622714 -0.272932,-3.294147 0.22035,-4.876099 l 0.03197,-0.0413 z"
         id="right_semitendinosus"><title
           id="title229">semitendinosus</title></path><path
         style="fill:none;stroke:#000000;stroke-width:0.056742;stroke-linecap:round;stroke-linejoin:round;stroke-dasharray:none;paint-order:stroke fill markers"
         d="m 21.526401,17.673592 c -0.37379,1.250128 -0.703835,2.598509 -0.289159,3.879803 0.09395,0.39485 0.363745,0.718619 0.56169,1.063708 0.01382,-1.622714 0.272932,-3.294147 -0.22035,-4.876099 l -0.03197,-0.0413 z"
         id="left_semitendinosus"><title
           id="title266">semitendinosus</title></path></g><g
       id="adductor_magnus"><path
         style="fill:none;stroke:#000000;stroke-width:0.056742;stroke-linecap:round;stroke-linejoin:round;stroke-dasharray:none;paint-order:stroke fill markers"
         d="m 23.315747,17.066887 c 0.295432,0.202671 0.815725,0.38469 0.66297,0.820268 -0.08537,1.040613 -0.468771,2.046692 -0.448419,3.100836 -0.04983,0.385838 -0.03669,-0.419067 -0.09669,-0.56917 -0.105882,-0.816313 -0.420217,-1.604292 -0.290977,-2.434877 0.02517,-0.30991 0.07859,-0.61959 0.173118,-0.917057 z"
         id="right_adductor_magnus"><title
           id="title231">adductor_magnus</title></path><path
         style="fill:none;stroke:#000000;stroke-width:0.056742;stroke-linecap:round;stroke-linejoin:round;stroke-dasharray:none;paint-order:stroke fill markers"
         d="m 22.448384,17.066887 c -0.295432,0.202671 -0.815725,0.38469 -0.66297,0.820268 0.08537,1.040613 0.468771,2.046692 0.448419,3.100836 0.04983,0.385838 0.03669,-0.419067 0.09669,-0.56917 0.105882,-0.816313 0.420218,-1.604292 0.290978,-2.434877 -0.02517,-0.30991 -0.07859,-0.61959 -0.173118,-0.917057 z"
         id="left_adductor_magnus"><title
           id="title267">adductor_magnus</title></path></g><g
       id="semimebranosus"><path
         style="fill:none;stroke:#000000;stroke-width:0.056742;stroke-linecap:round;stroke-linejoin:round;stroke-dasharray:none;paint-order:stroke fill markers"
         d="m 23.773839,19.853231 c 0.04124,1.037211 0.120883,2.084468 0.01475,3.118071 -0.03344,0.490473 -0.163055,-0.146588 -0.219109,-0.309201 -0.112916,-0.606628 -0.05882,-1.232161 0.07406,-1.833179 0.0155,-0.328813 0.09261,-0.64927 0.130307,-0.975691 z"
         id="right_semimebranosus"><title
           id="title228">semimebranosus</title></path><path
         style="fill:none;stroke:#000000;stroke-width:0.056742;stroke-linecap:round;stroke-linejoin:round;stroke-dasharray:none;paint-order:stroke fill markers"
         d="m 21.990292,19.853231 c -0.04124,1.037211 -0.120883,2.084468 -0.01475,3.118071 0.03344,0.490473 0.163054,-0.146588 0.219109,-0.309201 0.112916,-0.606628 0.05882,-1.232161 -0.07406,-1.833179 -0.0155,-0.328813 -0.09261,-0.64927 -0.130307,-0.975691 z"
         id="left_semimebranosus"><title
           id="title268">semimebranosus</title></path></g><g
       id="gastrocnemius"><path
         id="right_gastrocnemius"
         style="fill:none;stroke:#000000;stroke-width:0.056742;stroke-linecap:round;stroke-linejoin:round;stroke-dasharray:none;paint-order:stroke fill markers"
         d="m 24.510382,22.336282 c -0.09879,0.04808 -0.202156,0.101389 -0.267133,0.191005 -0.03276,0.411756 0.01822,0.883998 0.01243,1.319434 0.06823,0.878672 -0.07902,1.750555 -0.07248,2.626963 0.05173,0.263654 -0.07051,0.672582 0.147544,0.845287 0.321235,-0.360104 0.648911,-0.801679 0.674563,-1.302352 -0.106284,-1.233117 -0.432595,-2.440646 -0.494921,-3.680337 z m -0.405877,0.269685 c -0.458886,0.90168 -0.637646,1.925202 -0.822107,2.910622 -0.03471,0.416428 -0.101843,0.866861 0.02744,1.274401 0.0267,0.449707 0.432694,0.125463 0.586036,-0.07299 0.180221,-0.340631 0.07483,-0.764268 0.1667,-1.136712 0.05297,-0.989133 0.0955,-1.98439 0.04193,-2.975325 z"><title
           id="title227">gastrocnemius</title></path><path
         id="left_gastrocnemius"
         style="fill:none;stroke:#000000;stroke-width:0.056742;stroke-linecap:round;stroke-linejoin:round;stroke-dasharray:none;paint-order:stroke fill markers"
         d="m 21.254047,22.336282 c -0.06233,1.239691 -0.388637,2.44722 -0.494922,3.680337 0.02565,0.500673 0.35333,0.942248 0.674564,1.302352 0.218056,-0.172705 0.09582,-0.581633 0.147544,-0.845287 0.0065,-0.876408 -0.14071,-1.748291 -0.07248,-2.626963 -0.0058,-0.435436 0.04518,-0.907678 0.01242,-1.319434 -0.06498,-0.08962 -0.168348,-0.14293 -0.267134,-0.191005 z m 0.405877,0.269685 c -0.05357,0.990935 -0.01103,1.986192 0.04193,2.975325 0.09187,0.372444 -0.01352,0.796081 0.1667,1.136712 0.153342,0.198449 0.558823,0.522693 0.58552,0.07299 0.12928,-0.40754 0.06215,-0.857973 0.02744,-1.274401 -0.184462,-0.98542 -0.362706,-2.008942 -0.821591,-2.910622 z"><title
           id="title269">gastrocnemius</title></path></g><g
       id="soleus"><path
         id="right_soleus"
         style="fill:none;stroke:#000000;stroke-width:0.056742;stroke-linecap:round;stroke-linejoin:round;stroke-dasharray:none;paint-order:stroke fill markers"
         d="m 23.52468,27.066368 c -0.102657,0.151431 -0.03412,0.374644 -0.06471,0.551791 0.02586,0.675411 0.148536,1.343708 0.147544,2.023408 0.05035,0.231305 -0.04677,0.769159 0.166181,0.800771 0.190906,-0.414913 -0.05647,-0.898334 -0.02174,-1.341692 -0.148677,-0.66549 0.145393,-1.423443 -0.227271,-2.034278 z m 1.118752,0.08955 c -0.111791,0.02536 -0.148131,0.170344 -0.208634,0.255191 -0.366683,0.777858 -0.425413,1.66319 -0.474732,2.507908 0.05024,0.186314 -0.190166,0.82819 0.144439,0.641342 -0.0234,-0.613486 0.100492,-1.224825 0.216917,-1.826193 0.04784,-0.541374 0.455733,-1.026871 0.32201,-1.578248 z"><title
           id="title225">soleus</title></path><path
         id="left_soleus"
         style="fill:none;stroke:#000000;stroke-width:0.056742;stroke-linecap:round;stroke-linejoin:round;stroke-dasharray:none;paint-order:stroke fill markers"
         d="m 22.239749,27.066368 c -0.372664,0.610835 -0.07911,1.368788 -0.227789,2.034278 0.03473,0.443358 -0.212649,0.926779 -0.02174,1.341692 0.21295,-0.03161 0.11583,-0.569466 0.166182,-0.800771 -9.92e-4,-0.6797 0.122202,-1.347997 0.148062,-2.023408 -0.03059,-0.177147 0.03795,-0.40036 -0.06471,-0.551791 z m -1.119268,0.08955 c -0.133723,0.551377 0.274684,1.036874 0.322526,1.578248 0.116425,0.601368 0.240318,1.212707 0.216917,1.826193 0.334604,0.186848 0.09368,-0.455028 0.143921,-0.641342 -0.04932,-0.844718 -0.108049,-1.73005 -0.474732,-2.507908 -0.0605,-0.08485 -0.09684,-0.229832 -0.208632,-0.255191 z"><title
           id="title271">soleus</title></path></g></g></svg>
