<?xml version="1.0" encoding="UTF-8" standalone="no"?><!-- Created with Inkscape (http://www.inkscape.org/) -->

<svg width="57.563999" height="122.76001" viewBox="0 0 15.230475 32.480252" version="1.1" id="svg1"
    xmlns="http://www.w3.org/2000/svg" xmlns:svg="http://www.w3.org/2000/svg"
    xmlns:rdf="http://www.w3.org/1999/02/22-rdf-syntax-ns#"
    xmlns:cc="http://creativecommons.org/ns#" xmlns:dc="http://purl.org/dc/elements/1.1/">
    <title id="title1">Source Male Back</title>
    <defs id="defs1" />
    <path
        style="fill:none;stroke:#000000;stroke-width:0.0527444;stroke-linecap:round;stroke-linejoin:round;stroke-dasharray:none;stroke-dashoffset:0;stroke-opacity:1;paint-order:stroke fill markers"
        d="m 7.6924014,17.501844 c 0.2281446,0.209062 0.035675,0.68423 0.1728427,0.991 0.1966664,0.659862 0.038307,1.39539 0.3771043,2.027479 -0.014399,0.744025 0.2894103,1.452256 0.2352487,2.199136 0.053887,0.676476 0.4756068,1.291587 0.3193336,1.992056 -0.1333508,0.869881 -0.3723899,1.795009 0.021614,2.630227 0.2192165,0.737478 0.2636816,1.577089 0.062223,2.318292 -0.1427061,0.308528 -0.1812083,0.653648 0.00671,0.937895 -0.07285,0.440129 0.1029478,0.842201 -0.00494,1.268482 -0.011226,0.411609 0.4690369,0.287054 0.7061801,0.272526 0.2261354,0.09042 0.5418642,-0.02969 0.7308832,0.04458 0.190969,-0.204194 0.574787,0.18646 0.521357,-0.3488 0.02964,-0.498274 -0.784023,-0.759825 -0.570751,-1.316088 0.157785,-0.399706 -0.160021,-0.80655 -0.126034,-1.242176 0.142204,-0.958069 0.290338,-1.93711 0.544023,-2.880237 0.220401,-0.82981 0.100549,-1.682791 -0.104277,-2.498507 0.0086,-0.728545 -2.21e-4,-1.455061 -0.116177,-2.171408 0.09749,-0.90644 0.453664,-1.774699 0.46906,-2.695153 0.214496,-1.072441 0.03369,-2.15236 -0.234621,-3.196536 -0.0445,-0.66977 -0.127221,-1.333067 -0.13577,-2.005164 -0.128098,-0.659092 -0.09365,-1.344024 -0.345569,-1.981256 -0.03528,-0.909464 0.357072,-1.766466 0.50371,-2.6558799 0.03275,0.7238294 0.335657,1.4219099 0.339269,2.1502659 0.09156,0.650366 0.231334,1.286627 0.55802,1.860665 0.281715,0.81019 0.646404,1.627594 0.702728,2.490029 -0.05841,0.399253 -0.308647,0.788175 -0.06967,1.184059 0.221056,0.529032 0.384894,1.084151 0.603006,1.61056 0.398685,-0.173764 0.166725,0.785595 0.582724,0.396401 0.135424,0.623112 0.432078,0.112209 0.474072,-0.05946 0.398156,-0.199422 0.253905,-0.806803 0.276416,-1.191003 -0.118944,-0.329485 -0.202822,-0.836537 0.148828,-0.337855 0.247187,0.283482 0.914916,-0.09841 0.423627,-0.334754 -0.402167,-0.351746 -0.526336,-0.911106 -0.88837,-1.277859 -0.437118,0.0013 -0.468691,-0.433166 -0.484249,-0.793138 -0.18321,-1.481394 -0.384635,-2.995356 -0.928258,-4.388475 C 12.244953,10.059504 12.383391,9.4989484 12.265313,9.0139301 12.05961,8.3210559 12.439938,7.6243644 12.242268,6.9230844 12.188841,6.1108467 11.54767,5.4724354 10.767043,5.3192668 10.055487,5.0383071 9.1411591,5.0587001 8.6405431,4.4057807 8.435753,3.9421865 8.8592869,3.5821513 8.8380779,3.1273907 9.1154157,3.0785828 9.1481571,2.6683723 9.196819,2.3434932 9.1732113,1.9449374 8.8620544,2.150167 8.9763576,1.5814308 9.0431043,0.67577186 8.0255488,0.1038891 7.2248115,0.34728438 6.5838546,0.50589566 6.1988414,1.1542107 6.2712349,1.8003519 6.3746515,2.2199341 5.869622,2.0490856 6.1049064,2.6220958 6.0938495,3.0817789 6.4942225,2.9628588 6.4614888,3.406719 6.5878625,3.7700533 6.8508359,4.2484819 6.4817929,4.5728841 5.6375094,5.2510747 4.3762015,5.0859281 3.5440729,5.7971201 2.8541224,6.5051017 2.9177298,7.5996687 3.0761732,8.5007702 2.9291498,9.1315636 2.9752854,9.8111699 2.8488728,10.429742 2.4533879,11.19605 2.3449424,12.08993 2.1528048,12.927858 1.9516882,13.787596 1.9737015,14.703 1.7428266,15.54462 1.3745494,15.6138 1.1191863,15.923219 0.987732,16.299905 0.81546206,16.645791 0.50779265,16.908891 0.29095524,17.2095 c 0.2518402,0.327719 0.73305456,0.159715 0.85927116,-0.18829 0.1003541,0.342274 -0.19811975,0.719669 -0.080716,1.105316 -0.10201195,0.403274 0.2562453,0.664616 0.3671477,0.809475 0.059544,0.699973 0.3409879,-0.207111 0.562963,0.04739 0.1391737,-0.334814 0.2554354,-0.438736 0.5037076,-0.683791 0.1183738,-0.701878 0.6422822,-1.324102 0.5925984,-2.04146 -0.4173376,-0.845024 0.1508702,-1.733897 0.3565295,-2.557881 0.2419808,-0.709451 0.6619378,-1.349851 0.700277,-2.119638 0.051659,-0.570265 0.1520317,-1.124916 0.2864212,-1.6847 0.079568,-0.3223154 0.062525,-1.04136 0.1882389,-0.3182601 0.1525786,0.9167921 0.6567598,1.8562191 0.2759646,2.7814991 -0.1453282,0.571937 -0.1237895,1.171869 -0.2305807,1.750629 0.00156,0.693544 -0.073018,1.387273 -0.1885743,2.06869 -0.2846824,0.999677 -0.3161274,2.041312 -0.1339236,3.062571 0.00822,0.895302 0.4259326,1.734431 0.4444489,2.62615 -0.2336705,0.927628 0.03012,1.905058 -0.2777561,2.822605 -0.2661156,1.307507 0.3903863,2.554499 0.4786807,3.846637 0.1971537,0.552442 0.1077687,1.152564 -0.052772,1.676058 0.04863,0.342659 0.1721885,0.716698 -0.1652233,0.992127 -0.2577885,0.210809 -0.5274072,0.68621 -0.2589424,0.900776 0.1801987,0.04921 0.3712541,0.02074 0.5920666,0.03848 0.1908596,0.130768 0.5824376,-0.07898 0.8247025,0.02974 C 6.296874,32.266793 6.4924328,31.888982 6.34362,31.571407 6.390095,31.244917 6.33752,30.823031 6.4441127,30.518646 6.5488632,30.169363 6.4945559,29.834868 6.3107536,29.502874 6.1883086,28.57157 6.2712002,27.612151 6.6366768,26.747898 6.8200537,25.61 6.1133233,24.431148 6.6658276,23.339234 6.865752,22.688531 6.7157402,21.990918 6.9544705,21.342323 6.952592,20.831273 7.0576527,20.347368 7.228146,19.869798 7.295089,19.314581 7.2920574,18.763478 7.4387591,18.223621 7.5439447,18.000295 7.28487,17.43134 7.6923897,17.501844 Z"
        id="outline" />
    <g id="triceps">
        <path id="right_triceps"
            style="fill:none;stroke:#000000;stroke-width:0.0527444;stroke-linecap:round;stroke-linejoin:round;stroke-dasharray:none;stroke-dashoffset:0;stroke-opacity:1;paint-order:stroke fill markers"
            d="m 11.139536,7.5173042 -0.0987,0.010335 -0.05943,0.1188556 -0.08889,0.1881023 -0.03979,0.2082559 -0.02946,0.2180749 v 0.1881018 l 0.0098,0.366903 -0.03927,0.2775022 0.02946,0.2573488 0.04961,0.2873208 0.03927,0.2082562 v 0.1782833 l 0.08888,0.129191 0.08888,0.217558 0.118341,0.297656 0.138491,0.218075 0.0987,0.237711 0.138493,0.07907 0.0987,0.02997 0.137978,-0.0894 0.03979,-0.168465 0.02946,-0.158647 -0.01963,-0.435632 -0.0098,-0.376721 -0.03979,-0.4857581 -0.05891,-0.3467491 -0.0098,-0.4159949 L 11.69249,8.5880393 11.633062,8.4195741 11.534359,8.2113179 11.396384,7.9436342 11.26771,7.7059224 Z m 0.444417,0.4563025 -0.07907,0.039275 0.08889,0.1984372 0.0987,0.1188559 0.07907,0.1782839 0.05943,0.1586465 v 0.1881021 l 0.03928,0.079582 0.01963,0.287321 0.0098,0.1782834 0.03979,0.2082562 0.01963,0.099219 v 0.1979205 l 0.01963,0.2377116 0.05943,0.148828 -0.0098,0.356568 0.06925,0.09922 0.0987,0.05943 0.05891,-0.08888 -0.02946,-0.13901 v -0.118856 l 0.108521,0.0098 -0.0098,-0.148311 -0.07906,-0.148828 0.0098,-0.109038 V 9.9057881 9.7078676 9.4897927 L 12.215939,9.2815368 12.206123,9.1130716 12.186491,8.9642437 12.1467,8.5384297 12.077454,8.4686667 11.968932,8.3002015 11.791167,8.0723084 Z m -0.563272,2.4375773 -0.01964,0.0894 0.01964,0.0987 0.07906,0.218075 0.05943,0.277502 -0.01964,0.13901 v 0.158647 0.188102 l 0.04909,0.128674 0.05943,0.208256 0.05943,0.109037 v 0.188102 l 0.01963,0.158647 0.03927,-0.01963 0.02998,-0.237712 0.02946,-0.129191 0.11834,-0.138493 0.128675,-0.188619 0.0098,-0.118856 -0.07907,-0.02946 -0.05943,-0.04961 -0.08888,-0.118856 -0.128159,-0.148828 -0.07907,-0.128674 -0.03979,-0.118856 -0.03928,-0.168465 -0.07906,-0.198438 z" />
        <path id="left_triceps"
            style="fill:none;stroke:#000000;stroke-width:0.0527444;stroke-linecap:round;stroke-linejoin:round;stroke-dasharray:none;stroke-dashoffset:0;stroke-opacity:1;paint-order:stroke fill markers"
            d="M 4.1776875,7.5173042 4.04953,7.705923 3.9208557,7.9436347 3.7828795,8.2113184 l -0.099219,0.2082562 -0.058911,0.1684652 -0.059428,0.1684653 -0.00982,0.4159948 -0.059428,0.3467492 -0.039274,0.4857579 -0.00982,0.376722 -0.019637,0.435632 0.029455,0.158647 0.039274,0.168465 0.1384927,0.0894 0.098702,-0.02997 0.1384927,-0.07906 0.098702,-0.237712 0.137976,-0.218074 0.1188559,-0.297657 0.088883,-0.217557 0.088884,-0.129192 V 9.8463608 L 4.4443373,9.6381047 4.4939466,9.3507838 4.5234022,9.093435 4.4841279,8.8159329 4.4939466,8.4490299 V 8.260928 L 4.4639744,8.0428532 4.4247001,7.8345973 4.3358168,7.6464949 4.276389,7.5276393 Z M 3.7332701,7.9736067 3.5260476,8.072309 3.3482807,8.300202 3.2392433,8.4686672 l -0.068729,0.069763 -0.039791,0.4258141 -0.019637,0.1488278 -0.00982,0.1684652 -0.039791,0.208256 v 0.2180748 0.1979205 0.1586464 l 0.010337,0.109038 -0.079065,0.148828 -0.00982,0.148311 0.1085207,-0.0098 v 0.118856 l -0.029973,0.13901 0.059428,0.08888 0.098702,-0.05943 0.069246,-0.09922 L 3.279031,10.29234 3.338459,10.143512 3.358096,9.9058006 V 9.7078687 L 3.3777381,9.6086497 3.417012,9.4003935 3.4273493,9.2221101 3.4469867,8.934789 3.4862606,8.8552073 V 8.6671053 L 3.5456887,8.5084587 3.6247536,8.3301748 3.7234554,8.2113189 3.812339,8.0128817 Z m 0.5627563,2.4375773 -0.068729,0.168465 -0.079065,0.198438 -0.039791,0.168465 -0.039274,0.118856 -0.079065,0.128674 -0.1286743,0.148828 -0.088884,0.118856 -0.058911,0.04961 -0.079065,0.02946 0.00982,0.118856 0.1281575,0.188619 0.1188559,0.138492 0.029456,0.129192 0.029455,0.237711 0.039791,0.01964 0.019637,-0.158647 v -0.188102 l 0.059428,-0.109037 0.059428,-0.208256 0.049093,-0.128674 v -0.188102 -0.158646 l -0.019637,-0.13901 0.059428,-0.277502 0.078548,-0.218075 0.020153,-0.0987 z" />
    </g>
    <g id="levator_scapulae">
        <path
            style="fill:none;stroke:#000000;stroke-width:0.0527444;stroke-linecap:round;stroke-linejoin:round;stroke-dasharray:none;stroke-dashoffset:0;stroke-opacity:1;paint-order:stroke fill markers"
            d="m 8.33819,3.5146264 0.045395,0.087593 0.010475,0.070074 0.031427,0.077082 0.027935,0.1156226 0.00699,0.1261338 0.031427,0.1121188 0.027935,0.091096 0.03492,0.1156227 0.038411,0.1086149 0.066346,0.080585 0.041903,0.063067 0.07333,0.070074 0.031428,0.035037 L 8.78167,4.7023842 8.701355,4.6743542 8.607073,4.6077842 8.5232642,4.5026737 8.4499333,4.4115771 8.380095,4.2959548 8.3032724,4.1803321 8.2404177,4.0261687 8.2159755,3.8614941 8.1915333,3.7423679 l 0.013967,-0.1016077 0.048887,-0.0946 0.038411,-0.042044 z"
            id="right_levator_scapulae" />
        <path
            style="fill:none;stroke:#000000;stroke-width:0.0527444;stroke-linecap:round;stroke-linejoin:round;stroke-dasharray:none;stroke-dashoffset:0;stroke-opacity:1;paint-order:stroke fill markers"
            d="m 6.9789048,3.5146264 -0.045397,0.087593 -0.010478,0.070074 -0.031425,0.077082 -0.027937,0.1156226 -0.00698,0.1261338 -0.031427,0.1121188 -0.027937,0.091096 -0.034919,0.1156227 -0.03841,0.1086149 -0.066349,0.080585 -0.041901,0.063067 -0.073331,0.070074 -0.031427,0.035037 0.024432,0.035037 0.080313,-0.02803 0.094283,-0.06657 0.083807,-0.1051116 0.073331,-0.091097 0.069837,-0.1156223 0.076822,-0.1156227 0.062855,-0.1541634 0.024432,-0.1646746 0.024432,-0.1191262 -0.013954,-0.1016077 -0.048888,-0.0946 -0.03841,-0.042044 z"
            id="left_levator_scapulae" />
    </g>
    <g id="trapezius">
        <path
            style="fill:none;stroke:#000000;stroke-width:0.0527444;stroke-linecap:round;stroke-linejoin:round;stroke-dasharray:none;stroke-dashoffset:0;stroke-opacity:1;paint-order:stroke fill markers"
            d="m 7.8701818,3.3057707 0.1580269,0.01982 0.05926,0.1387401 0.00988,0.1882897 0.00987,0.2279301 0.05926,0.2180201 0.08889,0.1387401 0.098767,0.2081098 0.1382736,0.1981999 0.2074098,0.1486501 0.2469168,0.06937 0.2172862,0.05946 0.2370404,0.07928 0.3061774,0.0991 0.2765454,0.1189199 0.1975357,0.03964 0.167903,0.07928 -0.227165,0.1585598 -0.2567938,0.2180201 -0.1777791,0.1783799 -0.1580276,0.2081099 -0.098767,0.2180201 -0.019746,0.2180199 -0.039508,0.22793 -0.079012,0.35676 -0.049383,0.2477497 -0.079015,0.2873902 -0.1185201,0.24775 -0.069136,0.15856 L 8.8479746,8.3202298 8.7492076,8.49861 8.610934,8.74636 8.4134006,9.02384 8.2850039,9.3211398 l -0.1382737,0.25766 -0.05926,0.15856 -0.069136,0.1783802 -0.02963,0.18829 -0.049383,0.0991 -0.05926,0.14865 -0.069137,0.02973 -0.019754,-0.03964 -0.019754,-0.28739 V 9.71754 L 7.8010451,9.4697894 V 3.4940606 Z"
            id="right_trapezius" />
        <path
            style="fill:none;stroke:#000000;stroke-width:0.0527444;stroke-linecap:round;stroke-linejoin:round;stroke-dasharray:none;stroke-dashoffset:0;stroke-opacity:1;paint-order:stroke fill markers"
            d="M 7.446912,3.3057707 7.288884,3.3255907 7.229625,3.4643308 7.219755,3.6526205 7.209885,3.8805506 7.150626,4.0985707 7.061735,4.2373108 6.962969,4.4454206 6.8246949,4.6436205 6.6172838,4.7922706 l -0.2469158,0.06937 -0.2172867,0.05946 -0.2370404,0.07928 -0.3061775,0.0991 -0.2765454,0.1189199 -0.1975355,0.03964 -0.1679035,0.07928 0.2271649,0.1585598 0.2567942,0.2180201 0.1777791,0.1783799 0.1580277,0.2081099 0.098767,0.2180201 0.019746,0.2180199 0.039508,0.22793 0.079012,0.35676 0.049384,0.2477497 0.079015,0.2873902 0.1185201,0.24775 0.069137,0.15856 0.1283959,0.2576597 0.098766,0.1783802 0.1382742,0.24775 0.1975329,0.27748 0.1283983,0.2972998 0.1382715,0.25766 0.059261,0.15856 0.069137,0.1783802 0.029629,0.18829 0.049383,0.0991 0.059261,0.14865 0.069134,0.02973 0.019746,-0.03964 0.019746,-0.28739 V 9.71754 L 7.5160463,9.4697894 V 3.4940606 Z"
            id="left_trapezius" />
    </g>
    <g id="posterior_deltoid">
        <path
            style="fill:none;stroke:#000000;stroke-width:0.0527444;stroke-linecap:round;stroke-linejoin:round;stroke-dasharray:none;stroke-dashoffset:0;stroke-opacity:1;paint-order:stroke fill markers"
            d="m 10.161571,5.8427303 0.197532,-0.05946 0.237041,-0.05946 0.148149,-0.06937 0.118521,-0.07928 0.11852,-0.04955 h 0.138274 l 0.148149,0.02973 0.138274,0.07928 0.148151,0.0991 0.128394,0.1288299 0.158028,0.15856 0.128397,0.2180201 0.09877,0.2081099 0.06914,0.15856 0.04938,0.1981999 0.02963,0.2774802 0.01974,0.23784 0.0099,0.3072098 -0.01974,0.1387399 -0.03951,0.1684702 -0.0099,0.16847 -0.01974,0.1387399 -0.0099,0.04955 h -0.04938 l -0.02963,-0.02973 -0.06914,-0.07928 -0.138274,-0.14865 L 11.702319,7.8941 11.52454,7.73554 11.396143,7.5967999 l -0.14815,-0.18829 -0.08889,-0.08919 -0.06914,-0.1090102 -0.0099,-0.1486498 -0.03951,-0.08919 -0.0099,-0.16847 L 11.020753,6.68508 10.961493,6.5760698 10.813343,6.4670599 10.684948,6.3481403 10.546674,6.2292201 10.388646,6.10039 10.270125,6.02111 10.14173,5.94183 Z"
            id="right_posterior_deltoid" />
        <path
            style="fill:none;stroke:#000000;stroke-width:0.0527444;stroke-linecap:round;stroke-linejoin:round;stroke-dasharray:none;stroke-dashoffset:0;stroke-opacity:1;paint-order:stroke fill markers"
            d="M 5.1555227,5.8427303 4.9579898,5.7832703 4.7209493,5.7238105 4.5727999,5.6544404 4.4542795,5.5751604 4.3357594,5.5256103 H 4.1974852 l -0.1481494,0.02973 -0.1382742,0.07928 -0.1481494,0.0991 -0.128396,0.1288299 -0.1580277,0.15856 -0.1283959,0.2180201 -0.098766,0.2081099 -0.069136,0.15856 -0.049383,0.1981999 -0.029632,0.2774802 -0.019746,0.23784 -0.00987,0.3072098 0.019746,0.1387399 0.039508,0.1684702 0.00987,0.16847 0.019746,0.1387399 0.00987,0.04955 h 0.049382 l 0.029632,-0.02973 0.069134,-0.07928 0.1382742,-0.14865 L 3.6147495,7.8941 3.7925286,7.73554 3.9209269,7.5967999 l 0.1481497,-0.18829 0.088888,-0.08919 0.069137,-0.1090102 0.00987,-0.1486498 0.039505,-0.08919 0.00987,-0.16847 L 4.2962166,6.68508 4.3554776,6.5760698 4.5036273,6.4670599 4.632023,6.3481403 4.7702972,6.2292201 4.9283251,6.10039 5.0468452,6.02111 5.1752412,5.94183 Z"
            id="left_posterior_deltoid" />
    </g>
    <g id="infraspinatus">
        <path
            style="fill:none;stroke:#000000;stroke-width:0.0527444;stroke-linecap:round;stroke-linejoin:round;stroke-dasharray:none;stroke-dashoffset:0;stroke-opacity:1;paint-order:stroke fill markers"
            d="m 9.7665024,5.9616505 0.2271646,0.01982 0.158025,0.06937 0.207411,0.1387401 0.246916,0.1981996 0.177782,0.1387401 0.05926,0.08919 -0.07901,0.03964 -0.09877,0.02973 -0.01975,0.08919 -0.06914,0.08919 -0.02963,0.1189201 -0.03951,0.10901 -0.03951,0.1288301 -0.09877,0.0991 -0.138275,0.1387401 -0.08889,0.0991 -0.1580283,0.1090099 -0.1975329,0.08919 -0.088891,0.06937 -0.1679035,0.04955 -0.1086419,0.06937 -0.088891,0.00991 -0.088888,0.05946 -0.088891,0.00991 -0.039508,-0.07928 0.049383,-0.1090102 0.079015,-0.1189199 0.079013,-0.1882902 0.019746,-0.15856 0.029629,-0.1783797 0.029629,-0.16847 0.039507,-0.1585601 0.059259,-0.14865 0.00987,-0.18829 0.00987,-0.1189201 0.029629,-0.1486498 0.079015,-0.1090099 0.039505,-0.08919 z"
            id="right_infraspinatus" />
        <path
            style="fill:none;stroke:#000000;stroke-width:0.0527444;stroke-linecap:round;stroke-linejoin:round;stroke-dasharray:none;stroke-dashoffset:0;stroke-opacity:1;paint-order:stroke fill markers"
            d="m 5.5505909,5.9616505 -0.2271647,0.01982 -0.1580253,0.06937 -0.2074111,0.1387401 -0.246916,0.1981996 -0.1777815,0.1387401 -0.059259,0.08919 0.079013,0.03964 0.098766,0.02973 0.019746,0.08919 0.069137,0.08919 0.029629,0.1189201 0.039508,0.10901 0.039505,0.1288301 0.098766,0.0991 0.1382741,0.1387401 0.088891,0.0991 0.158028,0.1090099 0.1975329,0.08919 0.088891,0.06937 0.1679035,0.04955 0.1086419,0.06937 0.088891,0.00991 0.088888,0.05946 0.088891,0.00991 0.039508,-0.07928 -0.049384,-0.109013 -0.079015,-0.1189199 -0.079013,-0.1882902 -0.019746,-0.15856 -0.029629,-0.1783797 -0.029629,-0.16847 -0.039508,-0.1585601 -0.059259,-0.14865 -0.00987,-0.18829 -0.00987,-0.1189201 -0.029629,-0.1486498 -0.079015,-0.1090099 -0.039505,-0.08919 z"
            id="left_infraspinatus" />
    </g>
    <g id="teres_minor">
        <path
            style="fill:none;stroke:#000000;stroke-width:0.0527444;stroke-linecap:round;stroke-linejoin:round;stroke-dasharray:none;stroke-dashoffset:0;stroke-opacity:1;paint-order:stroke fill markers"
            d="m 10.84306,6.6751704 0.108644,0.1189198 0.01975,0.1090102 -0.06914,0.0991 -0.09877,0.05946 -0.07902,0.07928 -0.05926,0.01982 h -0.06914 l -0.02963,-0.02973 0.02963,-0.08919 0.03951,-0.0991 0.02963,-0.05946 0.03951,-0.08919 0.04938,-0.07928 z"
            id="right_teres_minor" />
        <path
            style="fill:none;stroke:#000000;stroke-width:0.0527444;stroke-linecap:round;stroke-linejoin:round;stroke-dasharray:none;stroke-dashoffset:0;stroke-opacity:1;paint-order:stroke fill markers"
            d="m 4.4740333,6.6751704 -0.1086445,0.1189198 -0.019746,0.1090102 0.069137,0.0991 0.098766,0.05946 0.079015,0.07928 0.059259,0.01982 h 0.069137 l 0.029629,-0.02973 -0.029629,-0.08919 -0.039508,-0.0991 -0.029629,-0.05946 -0.039508,-0.08919 -0.049383,-0.07928 z"
            id="left_teres_minor" />
    </g>
    <g id="teres_major">
        <path
            style="fill:none;stroke:#000000;stroke-width:0.0527444;stroke-linecap:round;stroke-linejoin:round;stroke-dasharray:none;stroke-dashoffset:0;stroke-opacity:1;paint-order:stroke fill markers"
            d="m 9.331929,8.0724802 0.2370405,-0.07928 0.2567943,-0.0991 0.1679032,-0.1189199 0.167904,-0.1090102 0.167903,-0.1090099 0.138274,-0.16847 0.05926,-0.1090099 0.138274,-0.02973 0.11852,-0.06937 0.07901,-0.06937 0.06914,-0.02973 0.02963,0.03964 0.0099,0.15856 0.0099,0.1486498 -0.04938,0.1090102 -0.06914,0.1486498 -0.04938,0.08919 -0.01975,0.1189199 -0.01975,0.0991 -0.09877,0.08919 -0.04938,0.1090102 -0.06914,0.03964 -0.276545,0.04955 -0.128398,0.01982 -0.128396,0.04955 -0.197533,-0.02973 -0.1876574,-0.059459 -0.1777791,-0.05946 -0.1481521,-0.05946 z"
            id="right_teres_major" />
        <path
            style="fill:none;stroke:#000000;stroke-width:0.0527444;stroke-linecap:round;stroke-linejoin:round;stroke-dasharray:none;stroke-dashoffset:0;stroke-opacity:1;paint-order:stroke fill markers"
            d="M 5.9851642,8.0724802 5.7481237,7.9932001 5.4913295,7.8941002 5.3234262,7.7751803 5.1555227,7.6661701 4.9876192,7.5571602 4.8493453,7.3886902 4.7900865,7.2796803 l -0.1382741,-0.02973 -0.1185201,-0.06937 -0.079013,-0.06937 -0.069137,-0.02973 -0.029629,0.03964 -0.00987,0.15856 -0.00987,0.1486498 0.049383,0.1090102 0.069137,0.1486498 0.049383,0.08919 0.019746,0.1189199 0.019746,0.0991 0.098766,0.08919 0.049383,0.1090102 0.069137,0.03964 0.2765454,0.04955 0.1283984,0.01982 0.1283959,0.04955 0.1975326,-0.02973 0.1876573,-0.059459 0.1777791,-0.05946 0.1481522,-0.05946 z"
            id="left_teres_major" />
    </g>
    <g id="anconeus">
        <path
            style="fill:none;stroke:#000000;stroke-width:0.0527444;stroke-linecap:round;stroke-linejoin:round;stroke-dasharray:none;stroke-dashoffset:0;stroke-opacity:1;paint-order:stroke fill markers"
            d="m 12.304807,12.30405 c 0.04254,-0.05422 0.08902,-0.106563 0.129104,-0.161956 0.01593,-0.08285 0.03682,-0.165009 0.04963,-0.248288 0.0063,-0.09118 0.01254,-0.182364 0.01878,-0.273546 0.03144,-0.05965 0.06932,-0.116245 0.09641,-0.177961 0.02053,-0.05299 0.04108,-0.105986 0.06162,-0.158979 -0.03974,-0.121106 -0.08321,-0.241076 -0.113583,-0.365028 -0.0096,-0.03076 -0.01492,-0.06403 -0.02713,-0.09329 -0.02881,-0.02891 -0.05763,-0.05782 -0.08644,-0.08674 0.0026,0.06383 0.0083,0.12802 0.0089,0.191618 -0.02701,0.09404 -0.05397,0.188106 -0.08976,0.279257 -0.01969,0.05032 -0.03167,0.104502 -0.06592,0.147537 -0.03564,0.05818 -0.07739,0.112948 -0.108963,0.173402 -0.02299,0.05114 -0.04954,0.101411 -0.07033,0.153102 -0.0024,0.07586 -0.0082,0.152187 -0.0086,0.227755 0.01754,0.04882 0.0308,0.100553 0.05095,0.14758 0.01886,0.01578 0.03774,0.03155 0.0566,0.04733 -0.0033,0.04955 -0.0066,0.0991 -0.0099,0.14865 0.03622,0.01652 0.07243,0.03303 0.108648,0.04955 z"
            id="right_anconeus" />
        <path
            style="fill:none;stroke:#000000;stroke-width:0.0527444;stroke-linecap:round;stroke-linejoin:round;stroke-dasharray:none;stroke-dashoffset:0;stroke-opacity:1;paint-order:stroke fill markers"
            d="m 3.0122866,12.30405 c -0.042542,-0.05422 -0.089021,-0.106563 -0.129104,-0.161956 -0.015925,-0.08285 -0.036819,-0.165009 -0.049629,-0.248288 -0.00627,-0.09118 -0.012531,-0.182364 -0.018796,-0.273546 -0.031438,-0.05965 -0.069322,-0.116245 -0.096408,-0.177961 -0.020537,-0.05299 -0.041078,-0.105986 -0.061618,-0.158979 0.039737,-0.121106 0.083214,-0.241076 0.1135843,-0.365028 0.00962,-0.03076 0.014936,-0.06403 0.027135,-0.09329 0.028814,-0.02891 0.057629,-0.05782 0.086443,-0.08674 -0.00259,0.06383 -0.00826,0.12802 -0.0089,0.191618 0.027017,0.09404 0.053973,0.188106 0.089764,0.279257 0.019688,0.05032 0.031667,0.104502 0.065922,0.147537 0.035644,0.05818 0.077393,0.112948 0.108966,0.173402 0.022995,0.05114 0.049541,0.101411 0.070328,0.153102 0.00246,0.07586 0.00824,0.152187 0.00863,0.227755 -0.017531,0.04882 -0.030799,0.100553 -0.050945,0.14758 -0.018867,0.01578 -0.037735,0.03155 -0.056603,0.04733 0.00329,0.04955 0.00658,0.0991 0.00987,0.14865 -0.036216,0.01652 -0.072431,0.03303 -0.1086471,0.04955 z"
            id="left_anconeus" />
    </g>
    <g id="flexor_carpi_ulnaris">
        <path
            style="fill:none;stroke:#000000;stroke-width:0.0527444;stroke-linecap:round;stroke-linejoin:round;stroke-dasharray:none;stroke-dashoffset:0;stroke-opacity:1;paint-order:stroke fill markers"
            d="m 11.475169,12.2545 0.108641,-0.14865 0.148151,-0.06937 0.14815,-0.03964 0.07901,0.06937 0.02963,0.18829 0.05926,0.31712 0.11852,0.23784 0.108643,0.34685 0.02963,0.23784 0.04938,0.34685 0.07902,0.277479 0.07901,0.346851 0.09877,0.41622 0.0099,0.287389 0.05926,0.23784 0.04938,0.16847 0.05926,0.20811 0.06913,0.11892 -0.04938,0.0991 -0.108644,-0.04955 -0.108643,-0.158559 -0.08889,-0.22793 -0.05926,-0.247751 -0.03951,-0.15856 -0.07902,-0.198199 -0.08889,-0.1982 -0.08889,-0.247751 -0.05926,-0.16847 -0.07901,-0.15856 -0.138274,-0.356759 -0.108644,-0.32703 -0.06913,-0.24775 -0.11852,-0.22793 -0.09877,-0.23784 -0.08889,-0.16847 0.01974,-0.12883 z"
            id="right_flexor_carpi_ulnaris" />
        <path
            style="fill:none;stroke:#000000;stroke-width:0.0527444;stroke-linecap:round;stroke-linejoin:round;stroke-dasharray:none;stroke-dashoffset:0;stroke-opacity:1;paint-order:stroke fill markers"
            d="M 3.8419247,12.2545 3.7332825,12.10585 3.5851331,12.03648 3.4369807,11.99684 l -0.079012,0.06937 -0.029629,0.18829 -0.059261,0.31712 -0.1185196,0.23784 -0.1086418,0.34685 -0.029629,0.23784 -0.049383,0.34685 -0.079015,0.277479 -0.079012,0.346851 -0.098766,0.41622 -0.00987,0.287389 -0.059259,0.23784 -0.049383,0.16847 -0.059261,0.20811 -0.069135,0.11892 0.049383,0.0991 0.1086419,-0.04955 0.1086445,-0.158559 0.088888,-0.22793 0.059261,-0.247751 0.039505,-0.15856 0.079015,-0.198199 0.088891,-0.1982 0.088888,-0.247751 0.059261,-0.16847 0.079013,-0.15856 0.1382739,-0.356759 0.1086422,-0.32703 0.069137,-0.24775 0.1185201,-0.22793 0.098767,-0.23784 0.088891,-0.16847 -0.019746,-0.12883 z"
            id="left_flexor_carpi_ulnaris" />
    </g>
    <g id="extensor_carpi_ulnaris">
        <path
            style="fill:none;stroke:#000000;stroke-width:0.0527444;stroke-linecap:round;stroke-linejoin:round;stroke-dasharray:none;stroke-dashoffset:0;stroke-opacity:1;paint-order:stroke fill markers"
            d="m 12.699875,11.42206 0.05926,0.28739 0.07902,0.14865 0.01974,0.27748 0.0099,0.1982 -0.04938,0.33694 0.01974,0.396399 -0.01974,0.426131 0.03951,0.25766 0.05926,0.27748 0.0099,0.208109 0.01974,0.23784 0.03951,0.15856 0.0099,0.247751 0.03951,0.227929 v 0.1982 l 0.06914,0.10901 -0.0099,0.22793 0.05926,0.06937 -0.0099,0.138739 -0.09877,-0.07928 -0.05926,-0.109011 -0.01974,-0.23784 -0.05926,-0.10901 -0.05926,-0.27748 -0.03951,-0.10901 -0.01974,-0.188289 -0.04938,-0.11892 -0.02963,-0.17838 -0.06914,-0.198201 -0.03951,-0.24775 -0.06914,-0.208109 -0.03951,-0.23784 -0.03951,-0.10901 -0.04939,-0.11892 -0.04938,-0.45586 0.02963,-0.4955 0.04938,-0.0991 0.06914,-0.11892 0.07901,-0.11892 -0.02963,-0.20811 0.02963,-0.14865 0.04938,-0.13874 z"
            id="right_extensor_carpi_ulnaris" />
        <path
            style="fill:none;stroke:#000000;stroke-width:0.0527444;stroke-linecap:round;stroke-linejoin:round;stroke-dasharray:none;stroke-dashoffset:0;stroke-opacity:1;paint-order:stroke fill markers"
            d="m 2.6172182,11.42206 -0.059259,0.28739 -0.079015,0.14865 -0.019746,0.27748 -0.00987,0.1982 0.049383,0.33694 -0.019746,0.396399 0.019746,0.426131 -0.039505,0.25766 -0.059261,0.27748 -0.00987,0.208109 -0.019746,0.23784 -0.039508,0.15856 -0.00987,0.247751 -0.039508,0.227929 v 0.1982 l -0.069137,0.10901 0.00987,0.22793 -0.059261,0.06937 0.00987,0.138739 0.098767,-0.07928 0.059259,-0.109011 0.019746,-0.23784 0.059259,-0.10901 0.059262,-0.27748 0.039508,-0.10901 0.019746,-0.188289 0.049383,-0.11892 0.029632,-0.17838 0.069137,-0.198201 0.039505,-0.24775 0.069137,-0.208109 0.039508,-0.23784 0.039505,-0.10901 0.049383,-0.11892 0.049386,-0.45586 -0.029626,-0.4955 -0.049383,-0.0991 -0.069137,-0.11892 -0.079013,-0.11892 0.029629,-0.20811 -0.029629,-0.14865 -0.049383,-0.13874 z"
            id="left_extensor_carpi_ulnaris" />
    </g>
    <g id="extensor_digitorum">
        <path
            style="fill:none;stroke:#000000;stroke-width:0.0527444;stroke-linecap:round;stroke-linejoin:round;stroke-dasharray:none;stroke-dashoffset:0;stroke-opacity:1;paint-order:stroke fill markers"
            d="m 12.966546,12.47252 0.02963,0.18829 0.04939,0.32703 0.07902,0.41622 0.04938,0.26757 0.01974,0.23784 0.02963,0.267569 0.03951,0.267571 0.02963,0.198199 0.01974,0.198201 0.02963,0.109009 0.0099,0.27748 -0.02963,0.17838 0.02963,0.227931 -0.03951,0.06937 -0.05926,-0.06937 -0.07901,-0.07928 -0.02963,-0.15856 -0.01974,-0.21802 -0.02963,-0.27748 -0.01974,-0.148649 -0.02963,-0.24775 v -0.20811 l -0.03951,-0.158561 -0.02963,-0.198199 -0.01974,-0.27748 -0.01974,-0.23784 -0.03951,-0.30721 -0.0099,-0.26757 0.0099,-0.23784 v -0.08919 z"
            id="right_extensor_digitorum" />
        <path
            style="fill:none;stroke:#000000;stroke-width:0.0527444;stroke-linecap:round;stroke-linejoin:round;stroke-dasharray:none;stroke-dashoffset:0;stroke-opacity:1;paint-order:stroke fill markers"
            d="m 2.3505483,12.47252 -0.029629,0.18829 -0.049383,0.32703 -0.079015,0.41622 -0.049384,0.26757 -0.019746,0.23784 -0.029629,0.267569 -0.039505,0.267571 -0.029632,0.198199 -0.019746,0.198201 -0.029632,0.109009 -0.00987,0.27748 0.029629,0.17838 -0.029629,0.227931 0.039508,0.06937 0.059259,-0.06937 0.079012,-0.07928 0.029632,-0.15856 0.019746,-0.21802 0.029632,-0.27748 0.019746,-0.148649 0.029632,-0.24775 v -0.20811 l 0.039505,-0.158561 0.029632,-0.198199 0.019746,-0.27748 0.019746,-0.23784 0.039508,-0.30721 0.00987,-0.26757 -0.00987,-0.23784 v -0.08919 z"
            id="left_extensor_digitorum" />
    </g>
    <g id="external_oblique">
        <path id="right_external_oblique"
            style="fill:none;stroke:#000000;stroke-width:0.0527444;stroke-linecap:round;stroke-linejoin:round;stroke-dasharray:none;stroke-dashoffset:0;stroke-opacity:1;paint-order:stroke fill markers"
            d="m 10.102391,11.501557 -0.03979,0.138493 -0.03927,0.158646 -0.049609,0.09922 -0.01964,0.128674 0.049609,0.03979 0.06873,0.04961 0.04961,0.109037 0.08889,0.04909 0.03979,-0.05943 -0.01035,-0.158646 -0.08889,-0.15813 -0.01964,-0.168465 z m -0.1581307,0.614433 -0.088883,0.148311 -0.01964,0.168465 0.01964,0.02015 0.079065,0.07906 0.059427,0.128674 0.1183377,0.158647 0.07907,0.128674 0.05891,0.129191 0.07906,0.118856 0.06925,0.06925 -0.01964,-0.0894 v -0.168465 l -0.0098,-0.128674 -0.02946,-0.158647 -0.02014,-0.168465 -0.03928,-0.168465 h -0.05943 l -0.08888,-0.04961 -0.08888,-0.0987 z m -0.1581306,0.386023 -0.079065,0.07958 -0.079063,0.109037 -0.078549,0.138494 -0.1188545,0.148827 v 0.09922 0.158647 l 0.039789,0.0098 0.049094,0.04961 0.079065,0.05943 0.069245,0.07906 0.1183386,-0.0098 0.1777685,-0.0098 0.098701,0.05943 0.167948,0.04961 0.06925,0.06925 0.05943,-0.04961 0.02945,-0.158647 -0.0987,-0.128674 -0.07906,-0.05943 -0.07907,-0.188619 -0.08888,-0.148311 -0.1085188,-0.168466 z" />
        <path id="left_external_oblique"
            style="fill:none;stroke:#000000;stroke-width:0.0527444;stroke-linecap:round;stroke-linejoin:round;stroke-dasharray:none;stroke-dashoffset:0;stroke-opacity:1;paint-order:stroke fill markers"
            d="m 5.2148333,11.501557 -0.029456,0.227893 -0.020153,0.168465 -0.088883,0.15813 -0.00982,0.158646 0.039791,0.05943 0.088883,-0.04909 0.049093,-0.109037 0.069247,-0.04961 0.049609,-0.03979 -0.020153,-0.128674 -0.049092,-0.09922 -0.039791,-0.158646 z m 0.1581301,0.614433 -0.098702,0.118855 -0.088884,0.0987 -0.088883,0.04961 h -0.059428 l -0.039791,0.168465 -0.019637,0.168465 -0.029456,0.158647 -0.00982,0.128674 v 0.168465 l -0.019637,0.0894 0.068729,-0.06925 0.079065,-0.118856 0.059428,-0.129191 0.079065,-0.128674 0.1183391,-0.158647 0.059428,-0.128674 0.079065,-0.07906 0.019637,-0.02015 -0.019637,-0.168466 z m 0.1581298,0.386023 -0.1483114,0.188618 -0.1085205,0.168466 -0.088884,0.148311 -0.079065,0.188619 -0.079065,0.05943 -0.098702,0.128674 0.029455,0.158647 0.059428,0.04961 0.068729,-0.06925 0.1679485,-0.04961 0.098702,-0.05943 0.1782839,0.0098 0.1183388,0.0098 0.069247,-0.07906 0.079065,-0.05943 0.049093,-0.04961 0.039791,-0.0098 v -0.158647 -0.09922 L 5.7677712,12.829124 5.6887063,12.690631 5.6096414,12.581594 Z" />
    </g>
    <g id="latissimus_dorsi">
        <path id="right_latissimus_dorsi"
            style="fill:none;stroke:#000000;stroke-width:0.0527444;stroke-linecap:round;stroke-linejoin:round;stroke-dasharray:none;stroke-dashoffset:0;stroke-opacity:1;paint-order:stroke fill markers"
            d="M 9.1148529,8.0526719 9.0554257,8.1317368 8.9665424,8.3203558 8.8280494,8.567886 8.6900734,8.795779 8.541762,9.0438259 8.4332416,9.2221095 8.3247211,9.4897933 8.1960469,9.7771144 8.1169817,9.8763331 v 0.1384929 l 0.049609,0.178284 0.079065,0.158646 0.1183389,0.158647 0.1183391,0.237712 0.1581298,0.307474 0.1679485,0.396358 0.1483112,0.327112 0.019637,0.217558 0.039272,0.287838 -0.00982,0.435632 0.039792,0.158647 0.0987,0.0894 0.1384927,0.03927 0.1183412,-0.07906 0.088883,-0.158647 0.1281563,-0.19792 0.059427,-0.148828 0.088886,-0.158647 0.088883,-0.158646 0.069245,-0.257349 0.058911,-0.248047 0.04961,-0.257349 0.0987,-0.248047 0.08888,-0.207739 0.05943,-0.267684 0.06925,-0.297139 0.0987,-0.307475 0.04909,-0.287321 0.03979,-0.3074747 0.08888,-0.2475304 0.06925,-0.1488279 0.03928,-0.2180746 V 8.4092392 l -0.06925,-0.098702 -0.118338,0.00982 -0.217558,0.079065 -0.276469,0.039791 L 9.6874245,8.3994208 9.509656,8.3203558 9.3613459,8.260928 9.2233694,8.1317368 Z m -1.1854566,2.3884851 -0.1483111,0.128674 -0.019637,0.158646 0.00982,0.168466 0.029972,0.822171 -0.029972,0.91209 0.00982,0.604614 -0.00982,0.525033 v 0.495577 l 0.020153,0.07906 0.1085205,0.03979 0.1581301,-0.0894 0.1281575,-0.168465 0.1777667,-0.257349 0.1281575,-0.129191 0.1483114,-0.128674 0.1483114,-0.07906 0.2268572,-0.06976 0.1384953,-0.06925 0.059427,-0.07906 0.01964,-0.109038 L 9.05543,13.027566 8.8973012,12.878738 8.8280542,12.720091 v -0.475423 l 0.029972,-0.257866 -0.029972,-0.168465 -0.068729,-0.188102 -0.079065,-0.13901 -0.069247,-0.148311 -0.098702,-0.218074 -0.079065,-0.218075 -0.1679485,-0.242879 -0.059428,-0.0646 -0.069246,-0.07906 z" />
        <path id="left_latissimus_dorsi"
            style="fill:none;stroke:#000000;stroke-width:0.0527444;stroke-linecap:round;stroke-linejoin:round;stroke-dasharray:none;stroke-dashoffset:0;stroke-opacity:1;paint-order:stroke fill markers"
            d="M 6.2023702,8.0526719 6.0938495,8.1317368 5.9553565,8.260928 5.8075621,8.3203558 5.6297952,8.3994208 5.2639259,8.4392114 4.987457,8.3994208 4.7704161,8.3203558 4.6515602,8.3105372 4.5828308,8.4092392 v 0.3963582 l 0.039274,0.2180746 0.069246,0.1488279 0.088883,0.2475304 0.039274,0.3074747 0.049609,0.287321 0.098702,0.307475 0.069246,0.297139 0.059428,0.267684 0.088883,0.207739 0.098702,0.248047 0.049093,0.257349 0.059428,0.248047 0.069246,0.257349 0.088884,0.158646 0.088883,0.158647 0.058911,0.148828 0.1286743,0.19792 0.088884,0.158647 0.1183391,0.07906 0.1384927,-0.03927 0.098702,-0.0894 0.039274,-0.158647 -0.00982,-0.435632 0.039791,-0.287838 0.01964,-0.217557 0.1483117,-0.327112 0.1679485,-0.396358 0.1576128,-0.307474 0.1188558,-0.237712 0.1183392,-0.158647 0.079065,-0.158646 0.04961,-0.178284 V 9.8763336 L 7.1211755,9.7771149 6.9925012,9.4897938 6.8839805,9.2221101 6.7754601,9.0438264 6.6271489,8.7957795 6.4886557,8.5678865 6.3506797,8.3203564 6.2617964,8.1317373 Z m 1.1854571,2.3884851 -0.2077392,0.07906 -0.06873,0.07906 -0.059428,0.0646 -0.1679485,0.242879 -0.079065,0.218075 -0.098702,0.218074 -0.069246,0.148311 -0.079065,0.13901 -0.069247,0.188102 -0.029455,0.168465 0.029455,0.257866 v 0.475423 l -0.068729,0.158647 -0.1581298,0.148828 -0.1777669,0.168465 0.019637,0.109038 0.059428,0.07906 0.137976,0.06925 0.2273763,0.06976 0.1483117,0.07906 0.1477944,0.128674 0.1286742,0.129191 0.177767,0.257349 0.1281575,0.168465 0.1581301,0.0894 0.1085202,-0.03979 0.019637,-0.07906 v -0.495577 l -0.00982,-0.525033 0.00982,-0.604614 -0.029456,-0.91209 0.029456,-0.822171 0.010337,-0.168466 -0.020153,-0.158646 z" />
    </g>
    <g id="gluteus_medius">
        <path
            style="fill:none;stroke:#000000;stroke-width:0.0527444;stroke-linecap:round;stroke-linejoin:round;stroke-dasharray:none;stroke-dashoffset:0;stroke-opacity:1;paint-order:stroke fill markers"
            d="m 8.9911804,13.731456 0.307291,-0.02452 0.2933216,-0.02102 0.2758636,0.007 0.1152318,0.119127 0.090792,0.143652 0.07333,0.154163 0.02793,0.112119 0.06635,0.12263 0.05238,0.12263 0.03492,0.101608 0.01395,0.175185 -0.03841,0.04905 -0.118726,-0.03854 -0.07682,-0.08409 L 9.9270052,14.512788 9.7279663,14.404173 9.5498766,14.313076 9.3438533,14.207965 9.1902089,14.123876 9.033071,14.022268 8.9283132,13.945187 8.9178384,13.864601 v -0.115622 z"
            id="right_gluteus_medius" />
        <path
            style="fill:none;stroke:#000000;stroke-width:0.0527444;stroke-linecap:round;stroke-linejoin:round;stroke-dasharray:none;stroke-dashoffset:0;stroke-opacity:1;paint-order:stroke fill markers"
            d="m 6.3259129,13.731456 -0.3072911,-0.02452 -0.2933215,-0.02102 -0.2758636,0.007 -0.1152319,0.119127 -0.090792,0.143652 -0.073331,0.154163 -0.027934,0.112119 -0.066346,0.12263 -0.052379,0.12263 -0.034921,0.101608 -0.013954,0.175185 0.038412,0.04905 0.1187255,-0.03854 0.076822,-0.08409 0.1815806,-0.157668 0.1990389,-0.108615 0.1780897,-0.0911 0.2060234,-0.105111 0.1536443,-0.08409 0.1571379,-0.101608 0.1047589,-0.07708 0.010477,-0.08059 v -0.115622 z"
            id="left_gluteus_medius" />
    </g>
    <g id="gluteus_maximus">
        <path
            style="fill:none;stroke:#000000;stroke-width:0.0527444;stroke-linecap:round;stroke-linejoin:round;stroke-dasharray:none;stroke-dashoffset:0;stroke-opacity:1;paint-order:stroke fill markers"
            d="m 8.7223023,13.871604 0.1326933,0.136645 0.1257096,0.101608 0.2269747,0.154163 0.1920565,0.08409 0.2199931,0.0981 0.1780871,0.0946 0.153647,0.122631 0.1466594,0.136644 0.09079,0.06657 0.115232,0.06657 0.02096,0.07358 0.06286,0.08059 0.02443,0.224238 0.02443,0.178689 -0.01048,0.262778 -0.007,0.15066 v 0.227741 l -0.02794,0.15066 -0.03492,0.0946 -0.03841,0.164675 -0.03143,0.129637 -0.01398,0.133141 -0.07682,0.112119 -0.08031,0.112119 -0.07682,0.108615 -0.06984,0.05956 -0.080313,0.105111 -0.1012674,0.08409 -0.062855,0.06657 -0.080313,0.05956 -0.059364,0.04555 -0.1082498,0.04555 -0.090789,0.03854 -0.1117407,0.02102 H 9.0400449 l -0.1571373,-0.007 -0.1326933,-0.01402 -0.1501532,-0.02452 -0.1815806,-0.05606 -0.09079,-0.02452 -0.1501532,-0.06657 -0.1292013,-0.03854 -0.059363,-0.08058 -0.10825,-0.0981 L 7.8039,17.147597 7.765489,17.02847 7.751522,16.870803 7.755012,16.748173 7.744537,16.520432 7.758504,16.166557 7.744537,15.85823 l 0.00698,-0.185697 0.062855,-0.115623 0.00699,-0.129637 0.00349,-0.119126 -0.01746,-0.119127 0.00349,-0.0981 -0.034919,-0.08058 -0.010475,-0.115623 0.024442,-0.08409 0.073331,-0.101607 0.087298,-0.12263 0.083806,-0.143653 0.1257096,-0.136644 0.097774,-0.101608 0.1536451,-0.143652 0.1047578,-0.108616 0.1222177,-0.05606 z"
            id="right_gluteus_maximus" />
        <path
            style="fill:none;stroke:#000000;stroke-width:0.0527444;stroke-linecap:round;stroke-linejoin:round;stroke-dasharray:none;stroke-dashoffset:0;stroke-opacity:1;paint-order:stroke fill markers"
            d="m 6.5947917,13.871604 -0.1326925,0.136645 -0.1257104,0.101608 -0.2269755,0.154163 -0.1920565,0.08409 -0.2199931,0.0981 -0.1780871,0.0946 -0.153647,0.122631 -0.1466593,0.136644 -0.090792,0.06657 -0.1152318,0.06657 -0.020958,0.07358 -0.062855,0.08059 -0.024432,0.224238 -0.024432,0.178689 0.010478,0.262778 0.00698,0.15066 v 0.227741 l 0.027937,0.15066 0.034919,0.0946 0.03841,0.164675 0.031428,0.129637 0.013981,0.133141 0.076822,0.112119 0.080313,0.112119 0.076822,0.108615 0.06984,0.05956 0.080313,0.105111 0.1012674,0.08409 0.062855,0.06657 0.080313,0.05956 0.059364,0.04555 0.1082497,0.04555 0.090789,0.03854 0.1117406,0.02102 h 0.2339602 l 0.1571379,-0.007 0.1326925,-0.01402 0.1501532,-0.02452 0.1815809,-0.05606 0.090792,-0.02452 0.1501531,-0.06657 0.1292013,-0.03854 0.059361,-0.08058 0.1082498,-0.0981 0.076822,-0.105111 0.038412,-0.119127 0.013981,-0.157667 -0.0035,-0.12263 0.010478,-0.227741 -0.013954,-0.353875 0.013954,-0.308327 -0.00698,-0.185697 -0.062855,-0.115623 -0.00698,-0.129637 -0.0035,-0.119126 0.017455,-0.119127 -0.0035,-0.0981 0.034919,-0.08058 0.010478,-0.115623 L 7.5271723,14.8106 7.4538411,14.708993 7.3665432,14.586363 7.2827388,14.44271 7.1570286,14.306066 7.0592548,14.204458 6.9056078,14.060806 6.8008519,13.95219 6.6786326,13.896131 Z"
            id="left_gluteus_maximus" />
    </g>
    <g id="iliotibial_tact">
        <path
            style="fill:none;stroke:#000000;stroke-width:0.0527444;stroke-linecap:round;stroke-linejoin:round;stroke-dasharray:none;stroke-dashoffset:0;stroke-opacity:1;paint-order:stroke fill markers"
            d="m 10.759108,16.406789 0.04938,0.27748 0.03457,0.25766 0.0642,0.25766 0.04938,0.371625 0.0099,0.341895 0.0049,0.262615 -0.05432,0.24775 -0.0247,0.2973 -0.02963,0.272525 -0.0247,0.252705 -0.02963,0.232885 -0.02963,0.26757 -0.06914,0.27748 -0.02963,0.20811 -0.05926,0.2973 -0.05432,0.24775 -0.04445,0.16847 -0.03457,0.17838 -0.03951,0.123875 -0.04938,0.03468 -0.04445,-0.09415 0.0049,-0.32703 -0.0049,-0.47568 0.01482,-0.32703 -0.0247,-0.33694 0.01975,-0.27748 -0.03951,-0.16847 -0.01482,-0.28739 -0.02963,-0.20811 v -0.203155 l 0.03951,-0.203155 0.103705,-0.361715 0.03951,-0.24775 0.0247,-0.24775 0.0642,-0.282435 0.01975,-0.203155 0.05432,-0.292345 0.02963,-0.113965 0.04939,-0.07928 -0.01482,-0.09414 0.03457,-0.08423 z"
            id="right_iliotibial_tact" />
        <path
            style="fill:none;stroke:#000000;stroke-width:0.0527444;stroke-linecap:round;stroke-linejoin:round;stroke-dasharray:none;stroke-dashoffset:0;stroke-opacity:1;paint-order:stroke fill markers"
            d="m 4.5579851,16.406789 -0.049383,0.27748 -0.034569,0.25766 -0.0642,0.25766 -0.049383,0.371625 -0.00987,0.341895 -0.00495,0.262615 0.054322,0.24775 0.024696,0.2973 0.029629,0.272525 0.024696,0.252705 0.029632,0.232885 0.029629,0.26757 0.069137,0.27748 0.029629,0.20811 0.059259,0.2973 0.054322,0.24775 0.044447,0.16847 0.034569,0.17838 0.039505,0.123875 0.049383,0.03468 0.044447,-0.09415 -0.00495,-0.32703 0.00495,-0.47568 -0.014822,-0.32703 0.024696,-0.33694 -0.019746,-0.27748 0.039508,-0.16847 0.014822,-0.28739 0.029629,-0.20811 v -0.203155 l -0.039505,-0.203155 -0.1037056,-0.361715 -0.039508,-0.24775 -0.024696,-0.24775 -0.064201,-0.282435 -0.019746,-0.203155 -0.054322,-0.292345 -0.029629,-0.113965 -0.049386,-0.07928 0.014822,-0.09414 -0.034569,-0.08423 z"
            id="left_iliotibial_tact" />
    </g>
    <g id="biceps_femoris">
        <path
            style="fill:none;stroke:#000000;stroke-width:0.0527444;stroke-linecap:round;stroke-linejoin:round;stroke-dasharray:none;stroke-dashoffset:0;stroke-opacity:1;paint-order:stroke fill markers"
            d="m 9.425759,17.759504 0.1530887,0.03964 0.158025,0.0446 0.128396,0.113965 0.1481523,0.15856 0.04938,0.07928 0.08889,0.14865 0.005,0.213065 0.03951,0.08919 0.01975,0.15856 0.01482,0.173425 v 0.203155 l 0.0099,0.18829 0.02963,0.143695 -0.0099,0.163515 0.01975,0.13874 v 0.14865 l 0.01975,0.183335 -0.0247,0.27748 0.005,0.21802 -0.005,0.282435 -0.0247,0.203155 0.01482,0.133785 0.05926,0.06937 0.03951,0.08919 -0.0247,0.183335 0.0247,0.07928 0.01975,0.08919 0.0247,0.237839 0.04445,0.163516 0.0049,0.222975 0.02963,0.193245 -0.01482,0.22793 0.01975,0.1982 0.0099,0.183334 v 0.128831 l 0.0049,0.113965 -0.06914,-0.0446 -0.103703,-0.143695 -0.143213,-0.21802 -0.128395,-0.232885 -0.1432136,-0.252705 -0.1382742,-0.331985 -0.1037029,-0.21802 -0.059261,-0.22793 -0.029629,-0.20811 -0.019746,-0.391445 -0.024696,-0.16847 -0.00987,-0.73334 0.00495,-0.262615 -0.014822,-0.22793 -0.034569,-0.222975 -0.024696,-0.232885 -0.05432,-0.619375 -0.039508,-0.133785 -0.034569,-0.193245 -0.00987,-0.10901 -0.039508,-0.07928 -0.024696,-0.183335 0.00987,-0.11892 0.044444,-0.07433 z"
            id="right_biceps_femoris" />
        <path
            style="fill:none;stroke:#000000;stroke-width:0.0527444;stroke-linecap:round;stroke-linejoin:round;stroke-dasharray:none;stroke-dashoffset:0;stroke-opacity:1;paint-order:stroke fill markers"
            d="m 5.8913342,17.759504 -0.1530887,0.03964 -0.158025,0.0446 -0.128396,0.113965 -0.1481521,0.15856 -0.049383,0.07928 -0.088888,0.14865 -0.00495,0.213065 -0.039508,0.08919 -0.019746,0.15856 -0.014822,0.173425 v 0.203155 l -0.00987,0.18829 -0.029629,0.143695 0.00987,0.163515 -0.019746,0.13874 v 0.14865 l -0.019746,0.183335 0.024696,0.27748 -0.00495,0.21802 0.00495,0.282435 0.024696,0.203155 -0.014822,0.133785 -0.059259,0.06937 -0.039508,0.08919 0.024696,0.183335 -0.024696,0.07928 -0.019746,0.08919 -0.024696,0.237839 -0.044447,0.163516 -0.00492,0.222975 -0.029629,0.193245 0.014822,0.22793 -0.019746,0.1982 -0.00987,0.183334 v 0.128831 l -0.00492,0.113965 0.069137,-0.0446 0.1037029,-0.143695 0.1432131,-0.21802 0.1283957,-0.232885 0.1432132,-0.252705 0.1382741,-0.331985 0.1037029,-0.21802 0.059261,-0.22793 0.029629,-0.20811 0.019746,-0.391445 0.024696,-0.16847 0.00987,-0.73334 -0.00495,-0.262615 0.014822,-0.22793 0.034569,-0.222975 0.024696,-0.232885 0.05432,-0.619375 0.039508,-0.133785 0.034569,-0.193245 0.00987,-0.10901 0.039508,-0.07928 0.024696,-0.183335 -0.00987,-0.11892 -0.044444,-0.07433 z"
            id="left_biceps_femoris" />
    </g>
    <g id="semitendinosus">
        <path
            style="fill:none;stroke:#000000;stroke-width:0.0527444;stroke-linecap:round;stroke-linejoin:round;stroke-dasharray:none;stroke-dashoffset:0;stroke-opacity:1;paint-order:stroke fill markers"
            d="m 9.0257516,17.789234 0.09383,-0.02973 0.054322,0.0446 0.039505,0.04955 0.00495,0.09414 0.00495,0.163515 0.00492,0.113965 0.034568,0.08423 0.019746,0.16847 0.024696,0.14865 0.044444,0.123875 v 0.143695 l 0.014822,0.14865 0.00495,0.163515 -0.024696,0.193245 0.024696,0.13874 0.044444,0.09415 0.044447,0.14865 0.019746,0.113965 -0.014822,0.282435 -0.00492,0.222975 v 0.22793 l -0.00495,0.222975 0.034568,0.123875 v 0.15856 l 0.029629,0.13874 v 0.133785 l 0.00495,0.143695 0.00987,0.13874 0.024696,0.13874 0.049383,0.113965 0.019746,0.153605 -0.00495,0.173425 -0.074076,0.23784 -0.029629,0.20811 -0.054322,0.193245 -0.044444,0.11892 -0.064198,0.11892 -0.09383,0.15856 -0.034569,0.133784 -0.039505,0.06442 h -0.044447 l -0.019746,-0.0991 v -0.18829 l 0.014822,-0.17838 0.019746,-0.18829 0.034566,-0.173425 v -0.14865 l -0.029629,-0.13874 -0.044444,-0.20811 -0.069137,-0.24775 -0.019746,-0.25766 -0.039508,-0.213065 -0.044444,-0.14865 -0.049383,-0.193245 -0.049383,-0.1982 -0.069137,-0.21802 -0.034568,-0.18829 -0.024693,-0.143695 -0.039507,-0.193245 -0.039507,-0.13874 -0.069136,-0.1982 -0.014814,-0.173425 -0.00494,-0.30721 0.02963,-0.232885 0.014814,-0.20811 0.039506,-0.104055 0.083952,-0.183335 0.098767,-0.262615 0.064198,-0.143695 0.044445,-0.14865 0.039507,-0.143695 0.014814,-0.104055 z"
            id="right_semitendinosus" />
        <path
            style="fill:none;stroke:#000000;stroke-width:0.0527444;stroke-linecap:round;stroke-linejoin:round;stroke-dasharray:none;stroke-dashoffset:0;stroke-opacity:1;paint-order:stroke fill markers"
            d="m 6.2913416,17.789234 -0.09383,-0.02973 -0.054322,0.0446 -0.039505,0.04955 -0.00495,0.09414 -0.00495,0.163515 -0.00492,0.113965 -0.034568,0.08423 -0.019746,0.16847 -0.024696,0.14865 -0.044444,0.123875 v 0.143695 l -0.014822,0.14865 -0.00495,0.163515 0.024696,0.193245 -0.024696,0.13874 -0.044444,0.09415 -0.044447,0.14865 -0.019746,0.113965 0.014822,0.282435 0.00492,0.222975 v 0.22793 l 0.00495,0.222975 -0.034568,0.123875 v 0.15856 l -0.029629,0.13874 v 0.133785 l -0.00495,0.143695 -0.00987,0.13874 -0.024696,0.13874 -0.049383,0.113965 -0.019746,0.153605 0.00495,0.173425 0.074076,0.23784 0.02963,0.20811 0.054322,0.193245 0.044444,0.11892 0.064198,0.11892 0.09383,0.15856 0.034569,0.133784 0.039505,0.06442 h 0.044447 l 0.019746,-0.0991 v -0.18829 l -0.014822,-0.17838 -0.019746,-0.18829 -0.034566,-0.173425 v -0.14865 l 0.029629,-0.13874 0.044444,-0.20811 0.069137,-0.24775 0.019746,-0.25766 0.039508,-0.213065 0.044444,-0.14865 0.049383,-0.193245 0.049383,-0.1982 0.069137,-0.21802 0.034568,-0.18829 0.024696,-0.143695 0.039508,-0.193245 0.039505,-0.13874 0.069137,-0.1982 0.014822,-0.173425 0.00495,-0.30721 -0.029629,-0.232885 -0.014822,-0.20811 -0.039508,-0.104055 -0.083951,-0.183335 -0.098767,-0.262615 -0.064198,-0.143695 -0.044444,-0.14865 -0.039508,-0.143695 -0.014822,-0.104055 z"
            id="left_semitendinosus" />
    </g>
    <g id="adductor_magnus">
        <path
            style="fill:none;stroke:#000000;stroke-width:0.0527444;stroke-linecap:round;stroke-linejoin:round;stroke-dasharray:none;stroke-dashoffset:0;stroke-opacity:1;paint-order:stroke fill markers"
            d="m 7.8998117,17.536529 0.128397,0.04459 0.20741,0.08919 0.1234586,-0.0099 0.1728417,0.05946 0.1679032,0.02478 0.128397,0.0099 0.069137,0.08919 -0.02963,0.193245 -0.02963,0.153605 -0.054322,0.09415 -0.05926,0.173425 -0.054322,0.133785 -0.069137,0.15856 -0.083952,0.193245 -0.014814,0.11892 -0.054322,0.18829 v 0.133785 l -0.00987,0.203155 -0.02963,0.242795 -0.034568,0.213065 0.014814,0.18829 -0.014814,0.173425 -0.05926,0.09415 -0.05926,-0.104055 L 8.1961151,20.22214 8.1220403,19.949615 8.077595,19.73655 8.062781,19.503665 8.047967,19.22123 8.033153,19.05276 7.993646,18.76537 7.959078,18.61672 7.899818,18.38879 7.880064,18.31942 7.870194,18.05185 7.860324,17.818965 7.870194,17.68518 7.85044,17.63563 Z"
            id="right_adductor_magnus" />
        <path
            style="fill:none;stroke:#000000;stroke-width:0.0527444;stroke-linecap:round;stroke-linejoin:round;stroke-dasharray:none;stroke-dashoffset:0;stroke-opacity:1;paint-order:stroke fill markers"
            d="m 7.4172826,17.536529 -0.1283986,0.04459 -0.2074084,0.08919 -0.1234594,-0.0099 -0.1728425,0.05946 -0.1679032,0.02478 -0.128396,0.0099 -0.069137,0.08919 0.029629,0.193245 0.029632,0.153605 0.05432,0.09415 0.059261,0.173425 0.054322,0.133785 0.069137,0.15856 0.083952,0.193245 0.014822,0.11892 0.05432,0.18829 v 0.133785 l 0.00987,0.203155 0.029632,0.242795 0.034569,0.213065 -0.014822,0.18829 0.014822,0.173425 0.059259,0.09415 0.059259,-0.104055 0.059261,-0.173425 0.074076,-0.272525 0.044444,-0.213065 0.014822,-0.232885 0.014822,-0.282435 0.014822,-0.16847 0.039508,-0.28739 0.034569,-0.14865 0.059259,-0.22793 0.019746,-0.06937 0.00987,-0.26757 0.00987,-0.232885 -0.00987,-0.133785 0.019746,-0.04955 z"
            id="left_adductor_magnus" />
    </g>
    <g id="semimebranosus">
        <path
            style="fill:none;stroke:#000000;stroke-width:0.0527444;stroke-linecap:round;stroke-linejoin:round;stroke-dasharray:none;stroke-dashoffset:0;stroke-opacity:1;paint-order:stroke fill markers"
            d="m 8.487474,19.751414 0.024691,0.10901 0.044445,0.183335 0.064198,0.21802 0.024694,0.213065 0.05926,0.193245 0.079013,0.24775 0.069137,0.25766 0.034569,0.222975 0.079013,0.292345 v 0.22793 l 0.039508,0.15856 0.064198,0.20811 0.054322,0.222975 0.00987,0.123875 -0.034569,0.2973 -0.039508,0.173424 -0.034568,0.183336 0.014822,0.138739 -0.00987,0.133786 -0.054322,0.07432 v 0.133785 l -0.00988,0.11892 -0.08889,0.01486 L 8.813409,23.844229 8.734396,23.537019 8.675136,23.363594 8.620814,23.175304 8.556616,22.932509 8.536862,22.739264 V 22.486559 L 8.522048,22.228899 8.477603,21.896914 8.42822,21.569884 8.378836,21.332044 8.344268,21.069429 8.329454,20.91087 8.294886,20.767174 l 0.039507,-0.16847 0.049383,-0.07433 0.064198,-0.123875 0.00987,-0.123875 -0.019754,-0.173425 0.019754,-0.10901 0.00494,-0.12883 v -0.07432 z"
            id="right_semimebranosus" />
        <path
            style="fill:none;stroke:#000000;stroke-width:0.0527444;stroke-linecap:round;stroke-linejoin:round;stroke-dasharray:none;stroke-dashoffset:0;stroke-opacity:1;paint-order:stroke fill markers"
            d="m 6.8296205,19.751414 -0.024696,0.10901 -0.044446,0.183335 -0.064198,0.21802 -0.024696,0.213065 -0.059259,0.193245 -0.079013,0.24775 -0.069137,0.25766 -0.034569,0.222975 -0.079015,0.292345 v 0.22793 l -0.039508,0.15856 -0.064198,0.20811 -0.054322,0.222975 -0.00987,0.123875 0.034569,0.2973 0.039508,0.173424 0.034568,0.183336 -0.014822,0.138739 0.00987,0.133786 0.054322,0.07432 v 0.133785 l 0.00987,0.11892 0.088891,0.01486 0.064198,-0.05451 0.079013,-0.30721 0.059262,-0.173425 0.05432,-0.18829 0.064201,-0.242795 0.019746,-0.193245 v -0.252705 l 0.014822,-0.25766 0.044444,-0.331985 0.049383,-0.32703 0.049383,-0.23784 0.034568,-0.262615 0.014822,-0.158559 0.034568,-0.143696 -0.039508,-0.16847 -0.049383,-0.07433 -0.064198,-0.123875 -0.00987,-0.123875 0.019746,-0.173425 -0.019746,-0.10901 -0.00495,-0.12883 v -0.07432 z"
            id="left_semimebranosus" />
    </g>
    <g id="gastrocnemius">
        <path id="right_gastrocnemius"
            style="fill:none;stroke:#000000;stroke-width:0.0527444;stroke-linecap:round;stroke-linejoin:round;stroke-dasharray:none;stroke-dashoffset:0;stroke-opacity:1;paint-order:stroke fill markers"
            d="m 10.033143,22.977342 -0.079065,0.02429 -0.098701,0.07441 -0.064079,0.07958 -0.044442,0.113688 -0.054259,0.148828 0.00466,0.07441 -0.00466,0.133842 -0.044442,0.173116 -0.039792,0.14366 0.00982,0.227893 0.014981,0.257866 0.00982,0.28267 0.024799,0.153479 0.01964,0.257348 -0.024802,0.381891 -0.00982,0.465602 0.039792,0.490412 0.044441,0.223242 0.068729,0.158647 0.1534784,0.173116 0.1974046,0.183449 0.0987,0.03463 0.09405,0.01498 0.03927,-0.0646 0.03462,-0.05943 0.04961,-0.06925 0.0098,-0.15348 0.03927,-0.168463 0.03979,-0.109037 0.0243,-0.173637 0.02997,-0.153479 0.05426,-0.233061 0.02946,-0.173114 0.03462,-0.143662 -0.0098,-0.188618 0.0248,-0.277502 -0.0248,-0.188104 -0.0052,-0.208256 -0.02946,-0.168465 -0.04909,-0.227893 -0.04961,-0.183451 -0.04444,-0.182935 -0.01498,-0.183451 -0.0248,-0.153996 0.02017,-0.148311 -0.03979,-0.06925 -0.0739,-0.03979 -0.06925,-0.07958 -0.108521,-0.168465 -0.123507,-0.15813 z m -0.5679238,0.396358 -0.059427,0.02946 -0.088883,0.109037 -0.079065,0.0894 -0.064079,0.08888 -0.054259,0.07441 -0.054262,0.10387 -0.069245,0.0894 -0.079065,0.0646 -0.029456,0.04444 -0.00517,0.07441 v 0.118856 l 0.010337,0.178283 -0.00517,0.168466 -0.034623,0.163814 -0.029456,0.212907 -0.039791,0.118856 -0.039274,0.188103 -0.024805,0.233059 -0.014986,0.223242 -0.029455,0.197922 -0.00982,0.233059 v 0.203089 l 0.00982,0.183451 0.00982,0.188103 0.039791,0.173635 0.05426,0.133324 0.049093,0.129191 0.069247,0.153479 0.049609,0.118854 0.024289,0.06925 0.1829358,-0.01963 0.2273753,-0.178284 0.058911,-0.10387 0.079065,-0.08423 0.01964,-0.119372 0.069247,-0.10387 0.029972,-0.158647 V 26.599348 L 9.6280226,26.410731 9.613542,26.227795 9.57375,26.069149 9.56393,25.969929 9.56909,25.82627 9.598546,25.623181 9.603706,25.543601 9.618187,25.380304 V 25.276433 25.122438 L 9.603706,25.053188 9.583566,24.934332 9.559267,24.820643 9.544286,24.612388 v -0.19327 L 9.539126,24.230499 9.534466,24.032578 9.56909,23.873931 9.618181,23.715285 v -0.05426 l -0.054259,-0.0894 -0.034624,-0.07906 -0.029456,-0.07441 z" />
        <path id="left_gastrocnemius"
            style="fill:none;stroke:#000000;stroke-width:0.0527444;stroke-linecap:round;stroke-linejoin:round;stroke-dasharray:none;stroke-dashoffset:0;stroke-opacity:1;paint-order:stroke fill markers"
            d="m 5.2840798,22.977342 -0.079065,0.143661 -0.1235067,0.158129 -0.1085205,0.168465 -0.069247,0.07958 -0.073897,0.03979 -0.039791,0.06925 0.019637,0.148312 -0.024802,0.153996 -0.01447,0.183451 -0.044442,0.182935 -0.049609,0.183451 -0.049092,0.227893 -0.029972,0.168465 -0.00465,0.208256 -0.024807,0.188103 0.024807,0.277502 -0.00982,0.188618 0.034623,0.143662 0.029456,0.173114 0.05426,0.233062 0.029455,0.153478 0.024805,0.173636 0.039791,0.109037 0.039274,0.168463 0.00982,0.153479 0.049609,0.06925 0.034623,0.05943 0.039274,0.0646 0.094051,-0.01498 0.098702,-0.03463 0.1974043,-0.183449 0.1529619,-0.173117 0.069247,-0.158646 0.044442,-0.223243 0.039791,-0.490409 -0.010337,-0.465603 -0.024286,-0.38189 0.019637,-0.257348 0.024807,-0.153479 0.00982,-0.28267 0.01447,-0.257866 0.010337,-0.227893 -0.03979,-0.14366 -0.044442,-0.173116 -0.00465,-0.133842 0.00465,-0.07441 -0.05426,-0.148828 -0.044442,-0.113689 -0.064079,-0.07958 -0.098702,-0.07441 z m 0.5679241,0.396358 -0.034623,0.04444 -0.029972,0.07441 -0.034107,0.07906 -0.054777,0.0894 v 0.05426 l 0.049609,0.158647 0.034623,0.158647 -0.00517,0.197921 -0.00465,0.188618 v 0.19327 l -0.014986,0.208256 -0.024802,0.113688 -0.019637,0.118856 -0.014986,0.06925 v 0.153996 0.103871 l 0.014986,0.163297 0.00517,0.07958 0.029455,0.203088 0.00517,0.14366 -0.010337,0.09922 -0.039274,0.158646 -0.014986,0.182935 -0.00982,0.188617 v 0.163299 l 0.029972,0.158646 0.068729,0.10387 0.020153,0.119373 0.078548,0.08423 0.059428,0.10387 0.2273763,0.178285 0.1824178,0.01963 0.024807,-0.06925 0.049609,-0.118853 0.06873,-0.15348 0.049609,-0.12919 0.054261,-0.133324 0.039791,-0.173635 0.00982,-0.188103 0.00982,-0.183451 V 26.178161 L 6.642141,25.945102 6.612168,25.74718 6.597698,25.523938 6.572896,25.290879 6.533105,25.102775 6.493831,24.98392 6.464376,24.771013 6.429753,24.607198 6.424583,24.438733 6.434403,24.260449 v -0.118845 l -0.00465,-0.07441 -0.029972,-0.04444 -0.078548,-0.0646 -0.069247,-0.0894 -0.05426,-0.10387 -0.054777,-0.07441 -0.064079,-0.08888 -0.079065,-0.0894 -0.088883,-0.109038 z" />
    </g>
    <g id="soleus">
        <path id="right_soleus"
            style="fill:none;stroke:#000000;stroke-width:0.0527444;stroke-linecap:round;stroke-linejoin:round;stroke-dasharray:none;stroke-dashoffset:0;stroke-opacity:1;paint-order:stroke fill markers"
            d="m 10.280157,27.337284 -0.05943,0.223242 -0.03927,0.158647 -0.0098,0.143658 -0.07906,0.143661 -0.0098,0.158647 -0.04444,0.19327 -0.0098,0.168465 -0.02014,0.128675 -0.044442,0.124023 -0.00982,0.13384 -0.024802,0.123507 -0.044441,0.0894 -0.039273,0.138491 v 0.114205 l -0.014981,0.06925 -0.044441,0.08423 0.029974,0.114205 0.049091,-0.02479 0.04961,-0.09922 0.054262,-0.158647 -0.00516,-0.124023 0.079065,-0.118854 0.01964,-0.113691 0.03979,-0.08423 0.03462,-0.208256 0.04444,-0.197922 0.05891,-0.208256 0.01035,-0.173633 0.02428,-0.153479 0.0248,-0.124024 0.01498,-0.109037 -0.01964,-0.128672 0.01964,-0.09922 0.03462,-0.10387 -0.02014,-0.04444 z m -1.303796,0.267684 -0.00982,0.05478 0.029455,0.113686 0.014981,0.139009 0.024802,0.207741 0.039276,0.218074 0.00516,0.238229 v 0.262517 l 0.01964,0.247528 0.073897,0.114205 v 0.158646 l 0.00982,0.232545 v 0.05943 l 0.059427,0.0646 0.059427,-0.03979 0.024299,-0.113689 -0.01964,-0.148825 0.014981,-0.09922 -0.00982,-0.168468 -0.039789,-0.109038 -0.049094,-0.0987 0.00466,-0.14883 0.00516,-0.163812 -0.054259,-0.182936 -0.044441,-0.139009 0.00466,-0.19327 -0.014481,-0.15348 -0.039792,-0.128672 -0.029455,-0.09922 -0.00982,-0.09405 z" />
        <path id="left_soleus"
            style="fill:none;stroke:#000000;stroke-width:0.0527444;stroke-linecap:round;stroke-linejoin:round;stroke-dasharray:none;stroke-dashoffset:0;stroke-opacity:1;paint-order:stroke fill markers"
            d="m 5.0370664,27.337284 -0.049609,0.03514 -0.019637,0.04444 0.034623,0.10387 0.019637,0.09922 -0.019637,0.128672 0.014986,0.109038 0.024289,0.124023 0.024807,0.15348 0.00982,0.173632 0.059428,0.208257 0.044442,0.197921 0.034623,0.208256 0.039274,0.08423 0.020153,0.113692 0.078548,0.118853 -0.00465,0.124024 0.05426,0.158647 0.049609,0.09922 0.049093,0.02479 0.029456,-0.114204 -0.044442,-0.08423 -0.01447,-0.06925 V 29.2648 l -0.039791,-0.13849 -0.044442,-0.0894 -0.024289,-0.123508 -0.010337,-0.133839 -0.044442,-0.124024 -0.019637,-0.128674 -0.00982,-0.168466 -0.044442,-0.19327 -0.00982,-0.158647 -0.079065,-0.143661 -0.00982,-0.143658 -0.039274,-0.158647 z m 1.3037965,0.267684 -0.069247,0.02997 -0.00982,0.09405 -0.029456,0.09922 -0.039791,0.128672 -0.014986,0.15348 0.00517,0.19327 -0.044442,0.139009 -0.05426,0.182936 0.00465,0.163812 0.00517,0.14883 -0.049609,0.0987 -0.039274,0.109038 -0.00982,0.168468 0.01447,0.09922 -0.019637,0.148825 0.024807,0.113689 0.059428,0.03979 0.058911,-0.0646 v -0.05943 l 0.010337,-0.232545 v -0.158646 l 0.073897,-0.114205 0.019637,-0.247528 v -0.262517 l 0.00517,-0.238229 0.039274,-0.218074 0.024805,-0.207741 0.014986,-0.139009 0.029456,-0.113686 z" />
    </g>
    <metadata id="metadata1">
        <rdf:RDF>
            <cc:Work rdf:about="">
                <dc:title>Source Male Back</dc:title>
            </cc:Work>
        </rdf:RDF>
    </metadata>
</svg>
