<?xml version="1.0" encoding="UTF-8" standalone="no"?>
<!-- Created with Inkscape (http://www.inkscape.org/) -->

<svg
   version="1.1"
   id="svg1"
   width="55.838974"
   height="120.95009"
   viewBox="0 0 55.838973 120.95009"
   xmlns="http://www.w3.org/2000/svg"
   xmlns:svg="http://www.w3.org/2000/svg">
  <defs
     id="defs1" />
  <g
     id="g151"
     style="display:inline"
     transform="translate(-66.885736,-5.894021)">
    <path
       style="fill:none;stroke:#000000;stroke-width:0.2;stroke-linecap:round;stroke-linejoin:round;stroke-dasharray:none;stroke-dashoffset:0;stroke-opacity:1;paint-order:stroke fill markers"
       d="m 95.098306,71.145538 c 0.866552,0.791402 0.135503,2.59014 0.656501,3.751413 0.746989,2.497894 0.145499,5.282224 1.432338,7.674987 -0.05469,2.816491 1.099254,5.497486 0.893535,8.324787 0.204675,2.56079 1.806476,4.889283 1.21291,7.540894 -0.5065,3.292921 -1.414432,6.794971 0.08209,9.956681 0.83264,2.79171 1.00153,5.97004 0.236338,8.77585 -0.542034,1.16793 -0.688275,2.47437 0.02548,3.55039 -0.276704,1.6661 0.391022,3.18813 -0.01875,4.80181 -0.04264,1.55814 1.781522,1.08664 2.682252,1.03164 0.85892,0.34229 2.05814,-0.1124 2.77608,0.16876 0.72535,-0.77298 2.18319,0.70584 1.98025,-1.32038 0.11258,-1.88621 -2.97792,-2.8763 -2.16786,-4.98203 0.59931,-1.51308 -0.6078,-3.05318 -0.47871,-4.70223 0.54013,-3.62676 1.10278,-7.3329 2.06634,-10.90309 0.83714,-3.14123 0.38191,-6.370176 -0.39607,-9.458051 0.0325,-2.757897 -8.4e-4,-5.508109 -0.44127,-8.219829 0.37029,-3.431313 1.72313,-6.71809 1.78161,-10.202452 0.81471,-4.059707 0.12795,-8.14772 -0.89115,-12.100432 -0.16903,-2.535403 -0.48322,-5.0463 -0.51569,-7.590513 -0.48655,-2.494979 -0.35572,-5.087777 -1.31256,-7.500009 -0.13401,-3.442759 1.35625,-6.686924 1.91322,-10.053786 0.12438,2.740044 1.27491,5.382616 1.28863,8.139796 0.34776,2.461945 0.87866,4.870502 2.1195,7.043512 1.07003,3.066961 2.4552,6.16123 2.66914,9.425959 -0.22184,1.511366 -1.17232,2.983625 -0.26461,4.482235 0.83962,2.002642 1.46192,4.104037 2.29037,6.096748 1.5143,-0.657782 0.63326,2.973855 2.21333,1.500569 0.51438,2.35878 1.64114,0.424764 1.80065,-0.225087 1.51229,-0.754907 0.96439,-3.054139 1.04989,-4.50852 -0.45177,-1.247257 -0.77036,-3.166695 0.56529,-1.278943 0.93888,1.073115 3.47509,-0.372546 1.60905,-1.267206 -1.52754,-1.331529 -1.99916,-3.448974 -3.37426,-4.837311 -1.66029,0.005 -1.78021,-1.639744 -1.8393,-3.002412 -0.69588,-5.60779 -1.46094,-11.338868 -3.52576,-16.612492 -0.82705,-1.674103 -0.30123,-3.796078 -0.74972,-5.632106 -0.78131,-2.622863 0.66327,-5.260176 -0.0875,-7.914859 -0.20293,-3.074712 -2.63826,-5.491406 -5.60328,-6.071223 -2.70267,-1.063568 -6.17552,-0.986371 -8.076987,-3.457986 -0.777845,-1.754927 0.830844,-3.117834 0.750287,-4.839322 1.0534,-0.184762 1.17776,-1.737606 1.36259,-2.96743 -0.0897,-1.508726 -1.271553,-0.731833 -0.837401,-2.884774 0.253521,-3.4283556 -3.611414,-5.5932077 -6.652818,-4.6718392 -2.434517,0.6004202 -3.896896,3.0546052 -3.621927,5.5005612 0.392803,1.588321 -1.525428,0.941577 -0.631758,3.110697 -0.042,1.740122 1.478722,1.289952 1.354391,2.970177 0.48,1.375396 1.478839,3.186479 0.07712,4.414497 -3.206804,2.567279 -7.997572,1.942119 -11.158209,4.634324 -2.620608,2.680052 -2.37901,6.823516 -1.777202,10.23462 -0.558433,2.387857 -0.383198,4.960495 -0.863345,7.30209 -1.502152,2.900842 -1.914056,6.284609 -2.643843,9.456573 -0.763893,3.254522 -0.68028,6.719769 -1.557202,9.905703 -1.398811,0.261883 -2.368745,1.433184 -2.868042,2.859119 -0.654325,1.309346 -1.822932,2.305306 -2.646535,3.443258 0.956553,1.240571 2.784328,0.604597 3.26373,-0.712769 0.381171,1.295673 -0.752509,2.724292 -0.30658,4.184152 -0.387468,1.526589 0.973284,2.515893 1.39452,3.064254 0.226164,2.649738 1.295159,-0.784013 2.138277,0.179395 0.528617,-1.267433 0.970209,-1.660828 1.91321,-2.588478 0.449614,-2.656949 2.439551,-5.012364 2.25084,-7.72791 -1.585155,-3.198826 0.573043,-6.56364 1.354189,-9.682813 0.919105,-2.685615 2.514209,-5.109837 2.659831,-8.023854 0.196212,-2.158727 0.577455,-4.258348 1.0879,-6.377402 0.302219,-1.220119 0.237487,-3.94205 0.71498,-1.204768 0.579532,3.470502 2.494541,7.026684 1.048184,10.529317 -0.551994,2.165056 -0.470185,4.436087 -0.875804,6.626974 0.0059,2.6254 -0.27734,5.251496 -0.716254,7.83099 -1.081296,3.784258 -1.200732,7.727351 -0.508676,11.593307 0.0312,3.389148 1.617801,6.565657 1.68813,9.941244 -0.88754,3.511521 0.114403,7.211564 -1.054988,10.68492 -1.010775,4.949545 1.482787,9.670015 1.818151,14.561375 0.74884,2.09126 0.409333,4.36301 -0.200443,6.34469 0.184709,1.29713 0.654015,2.71305 -0.62756,3.75568 -0.979147,0.79801 -2.003227,2.59764 -0.98353,3.40987 0.684441,0.18629 1.410118,0.0785 2.24882,0.14567 0.724933,0.49502 2.212247,-0.29899 3.13243,0.1126 1.372649,0.35269 2.115431,-1.07751 1.550203,-2.27968 0.176523,-1.23592 -0.02318,-2.83296 0.381697,-3.98521 0.397871,-1.32223 0.191598,-2.58845 -0.50653,-3.8452 -0.465077,-3.52544 -0.150234,-7.1573 1.23794,-10.42892 0.696512,-4.30749 -1.98783,-8.770015 0.110722,-12.903435 0.759364,-2.463226 0.18958,-5.104026 1.096339,-7.559273 -0.0071,-1.934571 0.391912,-3.766384 1.039489,-5.574217 0.254267,-2.101765 0.242752,-4.187955 0.799963,-6.231574 0.399521,-0.845396 -0.58451,-2.999163 0.963353,-2.732273 z"
       id="path89" />
    <path
       style="fill:none;stroke:#000000;stroke-width:0.2;stroke-linecap:round;stroke-linejoin:round;stroke-dasharray:none;stroke-dashoffset:0;stroke-opacity:1;paint-order:stroke fill markers"
       d="m 97.551176,18.197174 0.172422,0.331581 0.03979,0.265265 0.119369,0.291791 0.106106,0.437687 0.02653,0.477477 0.119369,0.424424 0.106106,0.344844 0.132633,0.437688 0.145896,0.41116 0.252001,0.305055 0.159159,0.238738 0.278528,0.265265 0.11937,0.132633 -0.09284,0.132632 -0.305055,-0.106106 -0.358107,-0.252001 -0.318318,-0.397898 -0.278529,-0.344844 -0.265264,-0.437687 -0.291792,-0.437687 -0.238738,-0.583583 -0.09284,-0.623373 -0.09284,-0.45095 0.05305,-0.384634 0.185686,-0.358108 0.145895,-0.159159 z"
       id="right_levator_scapulae" />
    <path
       style="fill:none;stroke:#000000;stroke-width:0.2;stroke-linecap:round;stroke-linejoin:round;stroke-dasharray:none;stroke-dashoffset:0;stroke-opacity:1;paint-order:stroke fill markers"
       d="m 95.773562,17.406554 0.600226,0.07503 0.225084,0.525198 0.03751,0.712768 0.03751,0.862825 0.225084,0.825311 0.337628,0.525198 0.375141,0.787796 0.525198,0.750283 0.787796,0.562712 0.937853,0.262599 0.825308,0.225084 0.90034,0.300113 1.16294,0.375142 1.05039,0.450169 0.75029,0.150057 0.63774,0.300113 -0.86283,0.600226 -0.97537,0.825311 -0.67525,0.675254 -0.60023,0.787796 -0.37514,0.825311 -0.075,0.825311 -0.15006,0.862825 -0.30011,1.350508 -0.18757,0.937853 -0.30012,1.08791 -0.45017,0.937853 -0.262595,0.600226 -0.487684,0.975367 -0.375141,0.675255 -0.525198,0.937853 -0.750282,1.050395 -0.487684,1.125424 -0.525198,0.975367 -0.225085,0.600226 -0.262598,0.675255 -0.112543,0.712768 -0.18757,0.375141 -0.225085,0.562712 -0.262599,0.112542 -0.07503,-0.150056 -0.07503,-1.08791 v -1.27548 L 95.510963,40.74034 V 18.119322 Z"
       id="path91" />
    <path
       style="fill:none;stroke:#000000;stroke-width:0.2;stroke-linecap:round;stroke-linejoin:round;stroke-dasharray:none;stroke-dashoffset:0;stroke-opacity:1;paint-order:stroke fill markers"
       d="m 104.47684,27.01017 0.75028,-0.225085 0.90034,-0.225084 0.56271,-0.262599 0.45017,-0.300113 0.45017,-0.187571 h 0.5252 l 0.56271,0.112543 0.5252,0.300113 0.56271,0.375141 0.48768,0.487683 0.60023,0.600226 0.48768,0.825311 0.37514,0.787797 0.2626,0.600226 0.18757,0.750282 0.11255,1.050396 0.075,0.900339 0.0375,1.162938 -0.075,0.525197 -0.15006,0.637741 -0.0375,0.63774 -0.075,0.525197 -0.0375,0.187571 h -0.18757 l -0.11255,-0.112542 -0.26259,-0.300113 -0.5252,-0.562712 -0.60023,-0.525198 -0.67525,-0.600226 -0.48769,-0.525198 -0.56271,-0.712768 -0.33762,-0.337627 -0.2626,-0.412656 -0.0375,-0.562711 -0.15005,-0.337628 -0.0375,-0.63774 -0.0375,-0.450169 -0.22509,-0.412656 -0.56271,-0.412655 -0.48768,-0.450169 -0.5252,-0.45017 -0.60023,-0.487684 -0.45017,-0.300113 -0.48768,-0.300113 z"
       id="path92" />
    <path
       style="fill:none;stroke:#000000;stroke-width:0.2;stroke-linecap:round;stroke-linejoin:round;stroke-dasharray:none;stroke-dashoffset:0;stroke-opacity:1;paint-order:stroke fill markers"
       d="m 102.97627,27.46034 0.86283,0.07503 0.60022,0.262599 0.7878,0.525198 0.93785,0.750282 0.67526,0.525198 0.22508,0.337627 -0.30011,0.150056 -0.37514,0.112543 -0.075,0.337627 -0.2626,0.337627 -0.11254,0.45017 -0.15006,0.412655 -0.15005,0.487684 -0.37514,0.375141 -0.5252,0.525198 -0.33763,0.375141 -0.60023,0.412655 -0.75028,0.337627 -0.33763,0.262599 -0.63774,0.187571 -0.41265,0.262599 -0.33763,0.03751 -0.33762,0.225085 -0.33763,0.03751 -0.15006,-0.300113 0.18757,-0.412656 0.30012,-0.450169 0.30011,-0.712769 0.075,-0.600226 0.11254,-0.675254 0.11254,-0.63774 0.15006,-0.600226 0.22508,-0.562712 0.0375,-0.712768 0.0375,-0.45017 0.11254,-0.562712 0.30012,-0.412655 0.15005,-0.337627 z"
       id="right_infraspinatus" />
    <path
       style="fill:none;stroke:#000000;stroke-width:0.2;stroke-linecap:round;stroke-linejoin:round;stroke-dasharray:none;stroke-dashoffset:0;stroke-opacity:1;paint-order:stroke fill markers"
       d="m 107.06531,30.161357 0.41266,0.450169 0.075,0.412656 -0.2626,0.375141 -0.37514,0.225085 -0.30012,0.300113 -0.22508,0.07503 h -0.2626 l -0.11254,-0.112543 0.11254,-0.337627 0.15006,-0.375141 0.11254,-0.225085 0.15006,-0.337627 0.18757,-0.300113 z"
       id="right_teres_minor" />
    <path
       style="fill:none;stroke:#000000;stroke-width:0.2;stroke-linecap:round;stroke-linejoin:round;stroke-dasharray:none;stroke-dashoffset:0;stroke-opacity:1;paint-order:stroke fill markers"
       d="m 101.32565,35.450848 0.90034,-0.300113 0.97537,-0.375141 0.63774,-0.450169 0.63774,-0.412656 0.63774,-0.412655 0.5252,-0.63774 0.22508,-0.412656 0.5252,-0.112542 0.45017,-0.262599 0.30011,-0.262599 0.2626,-0.112542 0.11254,0.150056 0.0375,0.600226 0.0375,0.562712 -0.18757,0.412656 -0.2626,0.562711 -0.18757,0.337628 -0.075,0.450169 -0.075,0.375141 -0.37514,0.337627 -0.18757,0.412656 -0.2626,0.150056 -1.05039,0.187571 -0.48769,0.07503 -0.48768,0.187571 -0.75028,-0.112543 -0.71277,-0.225084 -0.67525,-0.225085 -0.56272,-0.225085 z"
       id="right_teres_major" />
    <g
       id="right_triceps">
      <path
         style="fill:none;stroke:#000000;stroke-width:0.2;stroke-linecap:round;stroke-linejoin:round;stroke-dasharray:none;stroke-dashoffset:0;stroke-opacity:1;paint-order:stroke fill markers"
         d="m 108.19074,33.350057 0.48768,0.712769 0.48768,0.900339 0.5252,1.012881 0.37514,0.787797 0.22509,0.63774 0.22508,0.63774 0.0375,1.575593 0.22508,1.312995 0.15006,1.838192 0.0375,1.425536 0.075,1.650622 -0.11254,0.600226 -0.15006,0.63774 -0.5252,0.337627 -0.37514,-0.112542 -0.5252,-0.300113 -0.37514,-0.900339 -0.52519,-0.825311 -0.45017,-1.125424 -0.33763,-0.82531 -0.33763,-0.487684 v -0.675254 l -0.15005,-0.787797 -0.18757,-1.08791 -0.11255,-0.975367 0.15006,-1.050395 -0.0375,-1.388023 v -0.712768 l 0.11254,-0.825311 0.15005,-0.787797 0.33763,-0.712768 0.22509,-0.45017 z"
         id="right_triceps2" />
      <path
         style="fill:none;stroke:#000000;stroke-width:0.2;stroke-linecap:round;stroke-linejoin:round;stroke-dasharray:none;stroke-dashoffset:0;stroke-opacity:1;paint-order:stroke fill markers"
         d="m 109.87887,35.075707 0.7878,0.375141 0.67525,0.862825 0.41266,0.63774 0.2626,0.262599 0.15005,1.613108 0.075,0.562711 0.0375,0.637741 0.15005,0.787796 v 0.825311 0.750282 0.600226 l -0.0375,0.412656 0.30011,0.562712 0.0375,0.562712 -0.41266,-0.03751 v 0.45017 l 0.11254,0.525198 -0.22508,0.337627 -0.37514,-0.225085 -0.2626,-0.375141 0.0375,-1.350509 -0.22508,-0.562712 -0.075,-0.900339 v -0.750282 l -0.075,-0.375141 -0.15006,-0.787797 -0.0375,-0.675254 -0.075,-1.08791 -0.15005,-0.300113 v -0.712768 l -0.22509,-0.600226 -0.30011,-0.675254 -0.37514,-0.45017 -0.33763,-0.750282 z"
         id="right_triceps1" />
      <path
         style="fill:none;stroke:#000000;stroke-width:0.2;stroke-linecap:round;stroke-linejoin:round;stroke-dasharray:none;stroke-dashoffset:0;stroke-opacity:1;paint-order:stroke fill markers"
         d="m 110.2165,49.030962 -0.48768,0.712768 -0.45017,0.525198 -0.11255,0.487683 -0.11254,0.900339 -0.15005,0.07503 -0.075,-0.600226 v -0.712769 l -0.22509,-0.412655 -0.22508,-0.787797 -0.18757,-0.487683 v -0.71277 -0.600226 l 0.075,-0.525198 -0.22509,-1.050395 -0.30011,-0.825311 -0.075,-0.375141 0.075,-0.337627 0.2626,0.63774 0.30011,0.750282 0.15006,0.637741 0.15005,0.450169 0.30012,0.487684 0.48768,0.562712 0.33763,0.450169 0.22508,0.187571 0.30011,0.112542 z"
         id="right_triceps3" />
    </g>
    <g
       id="left_triceps"
       style="display:inline">
      <path
         style="fill:none;stroke:#000000;stroke-width:0.2;stroke-linecap:round;stroke-linejoin:round;stroke-dasharray:none;stroke-dashoffset:0;stroke-opacity:1;paint-order:stroke fill markers"
         d="m 81.748695,33.350057 -0.48768,0.712769 -0.48768,0.900339 -0.5252,1.012881 -0.37514,0.787797 -0.22509,0.63774 -0.22508,0.63774 -0.0375,1.575593 -0.22508,1.312995 -0.15006,1.838192 -0.0375,1.425536 -0.075,1.650622 0.11254,0.600226 0.15006,0.63774 0.5252,0.337627 0.37514,-0.112542 0.5252,-0.300113 0.37514,-0.900339 0.52519,-0.825311 0.45017,-1.125424 0.33763,-0.82531 0.33763,-0.487684 v -0.675254 l 0.15005,-0.787797 0.18757,-1.08791 0.11255,-0.975367 -0.15006,-1.050395 0.0375,-1.388023 v -0.712768 l -0.11254,-0.825311 -0.15005,-0.787797 -0.33763,-0.712768 -0.22509,-0.45017 z"
         id="left_triceps2" />
      <path
         style="fill:none;stroke:#000000;stroke-width:0.2;stroke-linecap:round;stroke-linejoin:round;stroke-dasharray:none;stroke-dashoffset:0;stroke-opacity:1;paint-order:stroke fill markers"
         d="m 80.060565,35.075707 -0.7878,0.375141 -0.67525,0.862825 -0.41266,0.63774 -0.262597,0.262599 -0.15005,1.613108 -0.075,0.562711 -0.0375,0.637741 -0.15005,0.787796 v 0.825311 0.750282 0.600226 l 0.0375,0.412656 -0.30011,0.562712 -0.0375,0.562712 0.41266,-0.03751 v 0.45017 l -0.11254,0.525198 0.22508,0.337627 0.375137,-0.225085 0.2626,-0.375141 -0.0375,-1.350509 0.22508,-0.562712 0.075,-0.900339 v -0.750282 l 0.075,-0.375141 0.15006,-0.787797 0.0375,-0.675254 0.075,-1.08791 0.15005,-0.300113 v -0.712768 l 0.22509,-0.600226 0.30011,-0.675254 0.37514,-0.45017 0.33763,-0.750282 z"
         id="left_triceps1" />
      <path
         style="fill:none;stroke:#000000;stroke-width:0.2;stroke-linecap:round;stroke-linejoin:round;stroke-dasharray:none;stroke-dashoffset:0;stroke-opacity:1;paint-order:stroke fill markers"
         d="m 79.722935,49.030962 0.48768,0.712768 0.45017,0.525198 0.11255,0.487683 0.11254,0.900339 0.15005,0.07503 0.075,-0.600226 v -0.712769 l 0.22509,-0.412655 0.22508,-0.787797 0.18757,-0.487683 v -0.71277 -0.600226 l -0.075,-0.525198 0.22509,-1.050395 0.30011,-0.825311 0.075,-0.375141 -0.075,-0.337627 -0.2626,0.63774 -0.30011,0.750282 -0.15006,0.637741 -0.15005,0.450169 -0.30012,0.487684 -0.48768,0.562712 -0.33763,0.450169 -0.22508,0.187571 -0.30011,0.112542 z"
         id="left_triceps3" />
    </g>
    <path
       style="fill:none;stroke:#000000;stroke-width:0.2;stroke-linecap:round;stroke-linejoin:round;stroke-dasharray:none;stroke-dashoffset:0;stroke-opacity:1;paint-order:stroke fill markers"
       d="m 112.6174,51.46938 0.48769,-0.600226 0.18757,-0.900339 0.075,-1.08791 0.33762,-0.600226 0.2626,-0.675254 -0.30011,-0.900339 -0.22509,-0.825311 -0.33762,-0.337627 0.0375,0.712768 -0.18757,0.63774 -0.30011,0.825311 -0.48769,0.750283 -0.30011,0.63774 -0.0375,0.862825 0.18757,0.562712 0.22508,0.18757 -0.0375,0.562712 z"
       id="right_anconeus" />
    <path
       style="fill:none;stroke:#000000;stroke-width:0.2;stroke-linecap:round;stroke-linejoin:round;stroke-dasharray:none;stroke-dashoffset:0;stroke-opacity:1;paint-order:stroke fill markers"
       d="m 109.46622,51.281809 0.41265,-0.562712 0.56271,-0.262599 0.56272,-0.150056 0.30011,0.262599 0.11254,0.712768 0.22509,1.200452 0.45017,0.900339 0.41265,1.312995 0.11254,0.900339 0.18757,1.312994 0.30012,1.050395 0.30011,1.312995 0.37514,1.575593 0.0375,1.08791 0.22508,0.900339 0.18757,0.63774 0.22509,0.787796 0.26259,0.45017 -0.18757,0.375141 -0.41265,-0.18757 -0.41266,-0.600226 -0.33762,-0.862825 -0.22509,-0.937853 -0.15005,-0.600226 -0.30012,-0.750283 -0.33763,-0.750282 -0.33762,-0.937854 -0.22509,-0.63774 -0.30011,-0.600226 -0.5252,-1.350508 -0.41265,-1.237966 -0.2626,-0.937853 -0.45017,-0.862825 -0.37514,-0.900339 -0.33763,-0.63774 0.075,-0.487684 z"
       id="right_flexor_carpi_ulnaris" />
    <path
       style="fill:none;stroke:#000000;stroke-width:0.2;stroke-linecap:round;stroke-linejoin:round;stroke-dasharray:none;stroke-dashoffset:0;stroke-opacity:1;paint-order:stroke fill markers"
       d="m 114.11797,48.130623 0.22508,1.087909 0.30012,0.562712 0.075,1.050396 0.0375,0.750282 -0.18757,1.27548 0.075,1.500565 -0.075,1.613108 0.15005,0.975367 0.22509,1.050396 0.0375,0.787796 0.075,0.900339 0.15006,0.600226 0.0375,0.937853 0.15006,0.862825 v 0.750283 l 0.2626,0.412655 -0.0375,0.862825 0.22509,0.262599 -0.0375,0.525198 -0.37514,-0.300113 -0.22508,-0.412656 -0.075,-0.900339 -0.22508,-0.412655 -0.22509,-1.050396 -0.15006,-0.412655 -0.075,-0.712768 -0.18757,-0.45017 -0.11255,-0.675254 -0.2626,-0.750283 -0.15005,-0.937853 -0.2626,-0.787796 -0.15006,-0.900339 -0.15005,-0.412656 -0.18757,-0.450169 -0.18758,-1.72565 0.11255,-1.875706 0.18757,-0.375142 0.2626,-0.450169 0.30011,-0.45017 -0.11254,-0.787796 0.11254,-0.562712 0.18757,-0.525198 z"
       id="right_extensor_carpi_ulnaris" />
    <path
       style="fill:none;stroke:#000000;stroke-width:0.2;stroke-linecap:round;stroke-linejoin:round;stroke-dasharray:none;stroke-dashoffset:0;stroke-opacity:1;paint-order:stroke fill markers"
       d="m 115.13085,52.10712 0.11254,0.712768 0.18757,1.237966 0.30012,1.575594 0.18757,1.012881 0.075,0.900339 0.11254,1.012881 0.15005,1.012882 0.11255,0.750282 0.075,0.750283 0.11255,0.412655 0.0375,1.050396 -0.11254,0.675254 0.11254,0.862825 -0.15006,0.262599 -0.22508,-0.262599 -0.30011,-0.300113 -0.11255,-0.600226 -0.075,-0.825311 -0.11255,-1.050395 -0.075,-0.562712 -0.11255,-0.937853 v -0.787797 l -0.15005,-0.600226 -0.11255,-0.750283 -0.075,-1.050395 -0.075,-0.900339 -0.15006,-1.162938 -0.0375,-1.012881 0.0375,-0.900339 v -0.337627 z"
       id="right_extensor_digitorum" />
    <g
       id="right_external_oblique">
      <path
         style="fill:none;stroke:#000000;stroke-width:0.2;stroke-linecap:round;stroke-linejoin:round;stroke-dasharray:none;stroke-dashoffset:0;stroke-opacity:1;paint-order:stroke fill markers"
         d="m 104.25175,48.430736 0.11255,0.862825 0.075,0.63774 0.33763,0.600226 0.0375,0.600226 -0.15006,0.225084 -0.33763,-0.18757 -0.18757,-0.412656 -0.2626,-0.18757 -0.18757,-0.150057 0.075,-0.487683 0.18757,-0.375142 0.15006,-0.600226 z"
         id="right_external_oblique4" />
      <path
         style="fill:none;stroke:#000000;stroke-width:0.2;stroke-linecap:round;stroke-linejoin:round;stroke-dasharray:none;stroke-dashoffset:0;stroke-opacity:1;paint-order:stroke fill markers"
         d="m 103.0513,52.219662 0.56271,0.712769 0.41266,0.63774 0.33763,0.562712 0.30011,0.712768 0.30011,0.225085 0.37514,0.487683 -0.11254,0.600226 -0.22508,0.187571 -0.2626,-0.262599 -0.63774,-0.18757 -0.37514,-0.225085 -0.67526,0.03751 -0.45017,0.03751 -0.2626,-0.300113 -0.30011,-0.225085 -0.18757,-0.18757 -0.15006,-0.03751 V 54.395482 54.02034 l 0.45017,-0.562712 0.30012,-0.525197 0.30011,-0.412656 z"
         id="right_external_oblique2" />
      <path
         style="fill:none;stroke:#000000;stroke-width:0.2;stroke-linecap:round;stroke-linejoin:round;stroke-dasharray:none;stroke-dashoffset:0;stroke-opacity:1;paint-order:stroke fill markers"
         d="m 103.65153,50.756611 0.37514,0.45017 0.33763,0.375141 0.33762,0.187571 h 0.22509 l 0.15005,0.63774 0.075,0.63774 0.11255,0.600226 0.0375,0.487684 v 0.63774 l 0.075,0.337627 -0.2626,-0.262599 -0.30011,-0.450169 -0.22509,-0.487684 -0.30011,-0.487684 -0.45017,-0.600226 -0.22509,-0.487683 -0.30011,-0.300113 -0.075,-0.07503 0.075,-0.63774 z"
         id="right_external_oblique1" />
    </g>
    <g
       id="g122">
      <path
         style="fill:none;stroke:#000000;stroke-width:0.2;stroke-linecap:round;stroke-linejoin:round;stroke-dasharray:none;stroke-dashoffset:0;stroke-opacity:1;paint-order:stroke fill markers"
         d="m 97.011528,41.903278 0.487683,-1.08791 0.412656,-1.012881 0.412655,-0.675254 0.562712,-0.937854 0.525198,-0.862824 0.525198,-0.937854 0.33763,-0.712768 0.22508,-0.300113 0.41266,0.300113 0.52519,0.487684 0.56272,0.225084 0.67525,0.300113 1.38802,0.150057 1.0504,-0.150057 0.82531,-0.300113 0.45017,-0.03751 0.2626,0.375142 v 1.500565 l -0.15006,0.82531 -0.2626,0.562712 -0.33762,0.937853 -0.15006,1.162938 -0.18757,1.08791 -0.37514,1.162938 -0.2626,1.125423 -0.22509,1.012882 -0.33762,0.787796 -0.37514,0.937854 -0.18758,0.975367 -0.22508,0.937853 -0.2626,0.975367 -0.33763,0.600226 -0.33762,0.600226 -0.22509,0.562712 -0.48768,0.750283 -0.33763,0.600226 -0.45017,0.300113 -0.5252,-0.150057 -0.37514,-0.337627 -0.15005,-0.600226 0.0375,-1.650621 -0.150056,-1.08791 -0.07503,-0.825311 -0.562711,-1.237966 -0.637741,-1.500565 -0.600226,-1.162938 -0.450169,-0.900339 -0.45017,-0.600226 -0.300113,-0.600226 -0.18757,-0.675254 v -0.525198 z"
         id="right_latissimus_dorsi2" />
      <path
         style="fill:none;stroke:#000000;stroke-width:0.2;stroke-linecap:round;stroke-linejoin:round;stroke-dasharray:none;stroke-dashoffset:0;stroke-opacity:1;paint-order:stroke fill markers"
         d="m 95.435934,44.904408 -0.07503,0.600226 0.03751,0.63774 0.112543,3.113672 -0.112543,3.4513 0.03751,2.288362 -0.03751,1.988248 v 1.875706 l 0.07503,0.300113 0.412655,0.150057 0.600226,-0.337627 0.487684,-0.63774 0.675254,-0.975368 0.487684,-0.487683 0.562711,-0.487684 0.562712,-0.300113 0.86283,-0.262599 0.5252,-0.262599 0.22508,-0.300113 0.075,-0.412655 -0.67525,-0.63774 -0.600234,-0.562712 -0.262599,-0.600226 V 51.244295 L 99.524974,50.268928 99.412432,49.631188 99.149833,48.918419 98.84972,48.393222 98.587121,47.83051 98.21198,47.005199 97.911867,46.179888 97.274127,45.260792 97.049042,45.01695 96.786443,44.716837 95.998647,44.416724 Z"
         id="right_latissimus_dorsi1" />
    </g>
    <path
       style="fill:none;stroke:#000000;stroke-width:0.2;stroke-linecap:round;stroke-linejoin:round;stroke-dasharray:none;stroke-dashoffset:0;stroke-opacity:1;paint-order:stroke fill markers"
       d="m 100.0314,56.8728 1.16717,-0.09284 1.11411,-0.07958 1.0478,0.02653 0.43768,0.45095 0.34485,0.543793 0.27853,0.583583 0.1061,0.424424 0.252,0.464214 0.19895,0.464213 0.13264,0.384634 0.053,0.663163 -0.1459,0.185685 -0.45095,-0.145896 -0.29179,-0.318317 -0.68969,-0.596847 -0.756,-0.41116 -0.67643,-0.344845 -0.78253,-0.397897 -0.58358,-0.318318 -0.59685,-0.384634 -0.397896,-0.291791 -0.03979,-0.305055 v -0.437687 z"
       id="right_gluteus_medius" />
    <path
       style="fill:none;stroke:#000000;stroke-width:0.2;stroke-linecap:round;stroke-linejoin:round;stroke-dasharray:none;stroke-dashoffset:0;stroke-opacity:1;paint-order:stroke fill markers"
       d="m 99.010133,57.403329 0.504003,0.517267 0.477477,0.384634 0.862107,0.583583 0.72948,0.318318 0.83559,0.371371 0.67642,0.358107 0.58359,0.464214 0.55705,0.517267 0.34485,0.252001 0.43768,0.252002 0.0796,0.278528 0.23874,0.305055 0.0928,0.848848 0.0928,0.676425 -0.0398,0.994744 -0.0265,0.570319 v 0.862111 l -0.10611,0.57032 -0.13263,0.358107 -0.14589,0.623373 -0.11937,0.49074 -0.0531,0.504003 -0.29179,0.424424 -0.30505,0.424424 -0.29179,0.411161 -0.26527,0.225475 -0.30505,0.397897 -0.38464,0.318318 -0.23874,0.252002 -0.30505,0.225475 -0.22548,0.172422 -0.41116,0.172423 -0.34484,0.145895 -0.42442,0.07958 H 100.217 l -0.596848,-0.02653 -0.504003,-0.05305 -0.57032,-0.09284 -0.689689,-0.212212 -0.344844,-0.09284 -0.57032,-0.252002 -0.49074,-0.145895 -0.225475,-0.305055 -0.411161,-0.371371 -0.291791,-0.397897 -0.145896,-0.450951 -0.05305,-0.596846 0.01326,-0.464213 -0.03979,-0.862111 0.05305,-1.339588 -0.05305,-1.167166 0.02653,-0.702952 0.238739,-0.437687 0.02653,-0.49074 0.01326,-0.450951 -0.06632,-0.45095 0.01326,-0.371371 -0.132632,-0.305055 -0.03979,-0.437687 0.09284,-0.318318 0.278528,-0.384634 0.331581,-0.464213 0.318318,-0.543793 0.477477,-0.517267 0.371371,-0.384634 0.583583,-0.543793 0.397897,-0.411161 0.464214,-0.212212 z"
       id="right_gluteus_maximus" />
    <path
       style="fill:none;stroke:#000000;stroke-width:0.2;stroke-linecap:round;stroke-linejoin:round;stroke-dasharray:none;stroke-dashoffset:0;stroke-opacity:1;paint-order:stroke fill markers"
       d="m 106.74644,67.000228 0.18757,1.050395 0.1313,0.975367 0.24385,0.975368 0.18757,1.406779 0.0375,1.294238 0.0188,0.994124 -0.20633,0.937853 -0.0938,1.125424 -0.11254,1.031638 -0.0938,0.956611 -0.11255,0.881581 -0.11254,1.012882 -0.2626,1.050395 -0.11254,0.787797 -0.22508,1.125424 -0.20633,0.937853 -0.16882,0.63774 -0.1313,0.675254 -0.15005,0.468927 -0.18757,0.131299 -0.16882,-0.356384 0.0188,-1.237966 -0.0188,-1.800678 0.0563,-1.237966 -0.0938,-1.27548 0.075,-1.050396 -0.15006,-0.63774 -0.0563,-1.08791 -0.11254,-0.787796 v -0.76904 l 0.15005,-0.76904 0.3939,-1.369265 0.15006,-0.937853 0.0938,-0.937853 0.24385,-1.069153 0.075,-0.769039 0.20633,-1.106667 0.11254,-0.431413 0.18758,-0.300113 -0.0563,-0.356384 0.1313,-0.31887 z"
       id="right_iliotibial_tact" />
    <path
       style="fill:none;stroke:#000000;stroke-width:0.2;stroke-linecap:round;stroke-linejoin:round;stroke-dasharray:none;stroke-dashoffset:0;stroke-opacity:1;paint-order:stroke fill markers"
       d="m 101.68204,72.120906 0.58147,0.150056 0.60022,0.168814 0.48768,0.431412 0.56272,0.600226 0.18757,0.300113 0.33762,0.562712 0.0188,0.806554 0.15006,0.337627 0.075,0.600226 0.0563,0.656497 v 0.76904 l 0.0375,0.712768 0.11254,0.543955 -0.0375,0.618983 0.075,0.525198 v 0.562712 l 0.075,0.694011 -0.0938,1.050395 0.0188,0.825311 -0.0188,1.069153 -0.0938,0.769039 0.0563,0.506441 0.22508,0.262599 0.15006,0.337627 -0.0938,0.694011 0.0938,0.300113 0.075,0.337627 0.0938,0.900339 0.16882,0.618984 0.0187,0.844067 0.11254,0.731526 -0.0563,0.862825 0.075,0.750282 0.0375,0.694011 v 0.487684 l 0.0187,0.431413 -0.2626,-0.168814 -0.39389,-0.543955 -0.54396,-0.825311 -0.48768,-0.881582 -0.54396,-0.95661 -0.5252,-1.256723 -0.39389,-0.825311 -0.22509,-0.862825 -0.11254,-0.787796 -0.075,-1.481808 -0.0938,-0.63774 -0.0375,-2.776046 0.0188,-0.994124 -0.0563,-0.862825 -0.1313,-0.844068 -0.0938,-0.881581 -0.20632,-2.344633 -0.15006,-0.506441 -0.1313,-0.731525 -0.0375,-0.412656 -0.15006,-0.300113 -0.0938,-0.694011 0.0375,-0.45017 0.16881,-0.281356 z"
       id="right_biceps_femoris" />
    <path
       style="fill:none;stroke:#000000;stroke-width:0.2;stroke-linecap:round;stroke-linejoin:round;stroke-dasharray:none;stroke-dashoffset:0;stroke-opacity:1;paint-order:stroke fill markers"
       d="m 100.16271,72.233448 0.35639,-0.112542 0.20633,0.168813 0.15005,0.187571 0.0188,0.356384 0.0188,0.618983 0.0187,0.431413 0.1313,0.31887 0.075,0.63774 0.0938,0.562712 0.16881,0.468926 v 0.543955 l 0.0563,0.562712 0.0188,0.618983 -0.0938,0.731525 0.0938,0.525198 0.16881,0.356384 0.16882,0.562712 0.075,0.431413 -0.0563,1.069152 -0.0187,0.844068 v 0.862825 l -0.0188,0.844068 0.1313,0.468926 v 0.600226 l 0.11254,0.525198 v 0.506441 l 0.0188,0.543955 0.0375,0.525197 0.0938,0.525198 0.18757,0.431413 0.075,0.581469 -0.0188,0.656497 -0.28136,0.900339 -0.11254,0.787796 -0.20633,0.731526 -0.16881,0.450169 -0.24384,0.45017 -0.35639,0.600226 -0.1313,0.50644 -0.15005,0.243842 h -0.16882 l -0.075,-0.375141 v -0.712768 l 0.0563,-0.675255 0.075,-0.712768 0.13129,-0.656497 V 90.1652 l -0.11254,-0.525198 -0.16881,-0.787796 -0.2626,-0.937854 -0.075,-0.975367 -0.15006,-0.806554 -0.168809,-0.562711 -0.18757,-0.731526 -0.187571,-0.750282 -0.262599,-0.825311 -0.131299,-0.712768 -0.09379,-0.543955 -0.150056,-0.731526 -0.150057,-0.525197 -0.262598,-0.750283 -0.05627,-0.656497 -0.01876,-1.162938 0.112543,-0.881582 0.05627,-0.787797 0.150056,-0.393898 0.31887,-0.694011 0.375142,-0.994125 0.243842,-0.543954 0.168813,-0.562712 0.150057,-0.543955 0.05627,-0.393898 z"
       id="right_semitendinosus" />
    <path
       style="fill:none;stroke:#000000;stroke-width:0.2;stroke-linecap:round;stroke-linejoin:round;stroke-dasharray:none;stroke-dashoffset:0;stroke-opacity:1;paint-order:stroke fill markers"
       d="m 95.886104,71.276838 0.487684,0.168813 0.787796,0.337628 0.468927,-0.03751 0.656497,0.225085 0.63774,0.09379 0.487684,0.03751 0.262599,0.337627 -0.112543,0.731525 -0.112542,0.581469 -0.206328,0.356384 -0.225084,0.656498 -0.206328,0.50644 -0.262599,0.600226 -0.31887,0.731526 -0.05627,0.450169 -0.206328,0.712769 v 0.50644 l -0.03751,0.76904 -0.112543,0.919096 -0.131299,0.806554 0.05627,0.712768 -0.05627,0.656497 -0.225085,0.356384 -0.225084,-0.393898 -0.225085,-0.656497 -0.281356,-1.031639 -0.168814,-0.806553 -0.05627,-0.881582 -0.05627,-1.069153 -0.05627,-0.63774 -0.150057,-1.08791 -0.131299,-0.562711 -0.225085,-0.862825 -0.07503,-0.262599 -0.03751,-1.012882 -0.03751,-0.881582 0.03751,-0.50644 -0.07503,-0.187571 z"
       id="right_adductor_magnus" />
    <path
       style="fill:none;stroke:#000000;stroke-width:0.2;stroke-linecap:round;stroke-linejoin:round;stroke-dasharray:none;stroke-dashoffset:0;stroke-opacity:1;paint-order:stroke fill markers"
       d="m 98.118195,79.661245 0.09378,0.412655 0.168813,0.694012 0.243842,0.82531 0.09379,0.806554 0.225084,0.731525 0.300113,0.937854 0.262599,0.975367 0.1313,0.844068 0.300113,1.106666 v 0.862825 l 0.150061,0.600226 0.24384,0.787797 0.20633,0.844068 0.0375,0.468926 -0.1313,1.125424 -0.15006,0.656497 -0.1313,0.694012 0.0563,0.525197 -0.0375,0.506441 -0.206327,0.281356 v 0.506441 l -0.03751,0.450169 -0.337628,0.05627 -0.243841,-0.206327 -0.300113,-1.162938 -0.225085,-0.656497 -0.206328,-0.712769 -0.243842,-0.919096 -0.07503,-0.731525 v -0.956611 l -0.05627,-0.975367 -0.168814,-1.256723 -0.18757,-1.237966 -0.187571,-0.900339 -0.131299,-0.994124 -0.05627,-0.600226 -0.131299,-0.543955 0.150057,-0.63774 0.18757,-0.281356 0.243842,-0.468927 0.03751,-0.468926 -0.07503,-0.656498 0.07503,-0.412655 0.01876,-0.487684 V 79.8113 Z"
       id="right_semimebranosus" />
    <g
       id="g120">
      <path
         style="fill:none;stroke:#000000;stroke-width:0.2;stroke-linecap:round;stroke-linejoin:round;stroke-dasharray:none;stroke-dashoffset:0;stroke-opacity:1;paint-order:stroke fill markers"
         d="m 103.98916,91.872093 0.30011,0.543954 0.46892,0.600226 0.41266,0.637741 0.2626,0.300113 0.28135,0.150056 0.15006,0.262599 -0.075,0.562712 0.0938,0.581469 0.0563,0.694011 0.16881,0.694011 0.18757,0.694012 0.18757,0.862825 0.11255,0.63774 0.0187,0.787796 0.0938,0.712772 -0.0938,1.05039 0.0375,0.71277 -0.1313,0.54396 -0.11254,0.65649 -0.20633,0.88158 -0.11254,0.58147 -0.0938,0.6565 -0.15006,0.41266 -0.15005,0.63774 -0.0375,0.58147 -0.18757,0.26259 -0.1313,0.22509 -0.15005,0.24384 -0.35639,-0.0563 -0.37514,-0.1313 -0.75028,-0.69401 -0.58147,-0.6565 -0.2626,-0.60022 -0.16881,-0.84407 -0.15006,-1.85695 0.0375,-1.76317 0.0938,-1.444289 -0.075,-0.975367 -0.0938,-0.581469 -0.0375,-1.069153 -0.0563,-0.975367 -0.0375,-0.862825 0.15005,-0.543955 0.16882,-0.656497 0.0187,-0.506441 -0.0187,-0.281356 0.20633,-0.562712 0.16881,-0.431412 0.24384,-0.300113 0.37514,-0.281356 z"
         id="right_gastrocnemius2" />
      <path
         style="fill:none;stroke:#000000;stroke-width:0.2;stroke-linecap:round;stroke-linejoin:round;stroke-dasharray:none;stroke-dashoffset:0;stroke-opacity:1;paint-order:stroke fill markers"
         d="m 101.60701,93.4852 -0.33763,0.412655 -0.30011,0.337628 -0.24384,0.337627 -0.20633,0.281356 -0.20633,0.393898 -0.2626,0.337627 -0.300111,0.243842 -0.112542,0.168813 -0.01876,0.281356 v 0.45017 l 0.03751,0.675254 -0.01876,0.63774 -0.1313,0.618983 -0.112542,0.806554 -0.150057,0.45017 -0.150056,0.712767 -0.09379,0.88158 -0.05627,0.84407 -0.112542,0.75028 -0.03751,0.88159 v 0.76903 l 0.03751,0.69402 0.03751,0.71276 0.150057,0.6565 0.206327,0.50644 0.187571,0.48769 0.262599,0.58146 0.18757,0.45017 0.09379,0.2626 0.694016,-0.075 0.86282,-0.67525 0.22509,-0.3939 0.30011,-0.31887 0.075,-0.45017 0.2626,-0.3939 0.11254,-0.60022 v -0.61898 l -0.0375,-0.71277 -0.0563,-0.69401 -0.15005,-0.60023 -0.0375,-0.37514 0.0188,-0.54396 0.11254,-0.76904 0.0188,-0.30011 0.0563,-0.61898 v -0.3939 -0.581469 l -0.0563,-0.262599 -0.075,-0.45017 -0.0938,-0.431412 -0.0563,-0.787797 v -0.731525 l -0.0188,-0.712769 -0.0188,-0.750282 0.1313,-0.600226 0.18757,-0.600226 v -0.206328 l -0.20633,-0.337627 -0.1313,-0.300113 -0.11254,-0.281356 -0.1313,-0.168813 z"
         id="right_gastrocnemius1" />
    </g>
    <g
       id="g121">
      <path
         style="fill:none;stroke:#000000;stroke-width:0.2;stroke-linecap:round;stroke-linejoin:round;stroke-dasharray:none;stroke-dashoffset:0;stroke-opacity:1;paint-order:stroke fill markers"
         d="m 104.92701,108.37831 -0.22509,0.84407 -0.15005,0.60022 -0.0375,0.54396 -0.30011,0.54395 -0.0375,0.60023 -0.16882,0.73152 -0.0375,0.63774 -0.075,0.48769 -0.16881,0.46892 -0.0375,0.50644 -0.0938,0.46893 -0.16882,0.33763 -0.15005,0.5252 v 0.43141 l -0.0563,0.2626 -0.16882,0.31887 0.11254,0.43141 0.18757,-0.0938 0.18758,-0.37514 0.20632,-0.60022 -0.0187,-0.46893 0.30011,-0.45017 0.075,-0.43141 0.15005,-0.31887 0.1313,-0.7878 0.16882,-0.75028 0.22508,-0.7878 0.0375,-0.6565 0.0938,-0.58146 0.0938,-0.46893 0.0563,-0.41266 -0.075,-0.48768 0.075,-0.37514 0.1313,-0.3939 -0.075,-0.16881 z"
         id="right_soleus2" />
      <path
         style="fill:none;stroke:#000000;stroke-width:0.2;stroke-linecap:round;stroke-linejoin:round;stroke-dasharray:none;stroke-dashoffset:0;stroke-opacity:1;paint-order:stroke fill markers"
         d="m 99.975144,109.39119 0.262596,0.11254 0.0375,0.35639 0.11254,0.37514 0.15006,0.48768 0.0563,0.58147 -0.0188,0.73152 0.16881,0.5252 0.20633,0.69401 -0.0188,0.61899 -0.0187,0.56271 0.18757,0.37514 0.15005,0.41266 0.0375,0.63774 -0.0563,0.37514 0.075,0.56271 -0.0938,0.43141 -0.22508,0.15006 -0.22509,-0.24384 v -0.22509 l -0.0375,-0.88158 v -0.60023 l -0.28136,-0.43141 -0.075,-0.93785 v -0.99413 l -0.0188,-0.90034 -0.15005,-0.82531 -0.0938,-0.78779 -0.0563,-0.5252 -0.11254,-0.43141 z"
         id="right_soleus1" />
    </g>
    <path
       style="fill:none;stroke:#000000;stroke-width:0.2;stroke-linecap:round;stroke-linejoin:round;stroke-dasharray:none;stroke-dashoffset:0;stroke-opacity:1;paint-order:stroke fill markers"
       d="m 92.388265,18.197174 -0.17243,0.331581 -0.0398,0.265265 -0.11936,0.291791 -0.10611,0.437687 -0.0265,0.477477 -0.11937,0.424424 -0.10611,0.344844 -0.13263,0.437688 -0.14589,0.41116 -0.25201,0.305055 -0.15915,0.238738 -0.27853,0.265265 -0.11937,0.132633 0.0928,0.132632 0.30505,-0.106106 0.35811,-0.252001 0.31832,-0.397898 0.27853,-0.344844 0.26526,-0.437687 0.29179,-0.437687 0.23874,-0.583583 0.0928,-0.623373 0.0928,-0.45095 -0.053,-0.384634 -0.18569,-0.358108 -0.14589,-0.159159 z"
       id="left_levator_scapulae" />
    <path
       style="fill:none;stroke:#000000;stroke-width:0.2;stroke-linecap:round;stroke-linejoin:round;stroke-dasharray:none;stroke-dashoffset:0;stroke-opacity:1;paint-order:stroke fill markers"
       d="m 94.165875,17.406554 -0.60023,0.07503 -0.22508,0.525198 -0.0375,0.712768 -0.0375,0.862825 -0.22508,0.825311 -0.33763,0.525198 -0.37514,0.787796 -0.5252,0.750283 -0.7878,0.562712 -0.93785,0.262599 -0.82531,0.225084 -0.90034,0.300113 -1.16294,0.375142 -1.05039,0.450169 -0.75029,0.150057 -0.63774,0.300113 0.86283,0.600226 0.97537,0.825311 0.67525,0.675254 0.60023,0.787796 0.37514,0.825311 0.075,0.825311 0.15006,0.862825 0.30011,1.350508 0.18757,0.937853 0.30012,1.08791 0.45017,0.937853 0.2626,0.600226 0.48768,0.975367 0.37514,0.675255 0.5252,0.937853 0.75028,1.050395 0.48769,1.125424 0.52519,0.975367 0.22509,0.600226 0.2626,0.675255 0.11254,0.712768 0.18757,0.375141 0.22509,0.562712 0.26259,0.112542 0.075,-0.150056 0.075,-1.08791 v -1.27548 L 94.428475,40.74034 V 18.119322 Z"
       id="path123" />
    <path
       style="fill:none;stroke:#000000;stroke-width:0.2;stroke-linecap:round;stroke-linejoin:round;stroke-dasharray:none;stroke-dashoffset:0;stroke-opacity:1;paint-order:stroke fill markers"
       d="m 85.462595,27.01017 -0.75028,-0.225085 -0.90034,-0.225084 -0.56271,-0.262599 -0.45017,-0.300113 -0.45017,-0.187571 h -0.5252 l -0.56271,0.112543 -0.5252,0.300113 -0.56271,0.375141 -0.48768,0.487683 -0.60023,0.600226 -0.48768,0.825311 -0.37514,0.787797 -0.262597,0.600226 -0.18757,0.750282 -0.11255,1.050396 -0.075,0.900339 -0.0375,1.162938 0.075,0.525197 0.15006,0.637741 0.0375,0.63774 0.075,0.525197 0.0375,0.187571 h 0.187567 l 0.11255,-0.112542 0.26259,-0.300113 0.5252,-0.562712 0.60023,-0.525198 0.67525,-0.600226 0.48769,-0.525198 0.56271,-0.712768 0.33762,-0.337627 0.2626,-0.412656 0.0375,-0.562711 0.15005,-0.337628 0.0375,-0.63774 0.0375,-0.450169 0.22509,-0.412656 0.56271,-0.412655 0.48768,-0.450169 0.5252,-0.45017 0.60023,-0.487684 0.45017,-0.300113 0.48768,-0.300113 z"
       id="path124" />
    <path
       style="fill:none;stroke:#000000;stroke-width:0.2;stroke-linecap:round;stroke-linejoin:round;stroke-dasharray:none;stroke-dashoffset:0;stroke-opacity:1;paint-order:stroke fill markers"
       d="m 86.963165,27.46034 -0.86283,0.07503 -0.60022,0.262599 -0.7878,0.525198 -0.93785,0.750282 -0.67526,0.525198 -0.22508,0.337627 0.30011,0.150056 0.37514,0.112543 0.075,0.337627 0.2626,0.337627 0.11254,0.45017 0.15006,0.412655 0.15005,0.487684 0.37514,0.375141 0.5252,0.525198 0.33763,0.375141 0.60023,0.412655 0.75028,0.337627 0.33763,0.262599 0.63774,0.187571 0.41265,0.262599 0.33763,0.03751 0.33762,0.225085 0.33763,0.03751 0.15006,-0.300113 -0.18757,-0.412656 -0.30012,-0.450169 -0.30011,-0.712769 -0.075,-0.600226 -0.11254,-0.675254 -0.11254,-0.63774 -0.15006,-0.600226 -0.22508,-0.562712 -0.0375,-0.712768 -0.0375,-0.45017 -0.11254,-0.562712 -0.30012,-0.412655 -0.15005,-0.337627 z"
       id="left_infraspinatus" />
    <path
       style="fill:none;stroke:#000000;stroke-width:0.2;stroke-linecap:round;stroke-linejoin:round;stroke-dasharray:none;stroke-dashoffset:0;stroke-opacity:1;paint-order:stroke fill markers"
       d="m 82.874125,30.161357 -0.41266,0.450169 -0.075,0.412656 0.2626,0.375141 0.37514,0.225085 0.30012,0.300113 0.22508,0.07503 h 0.2626 l 0.11254,-0.112543 -0.11254,-0.337627 -0.15006,-0.375141 -0.11254,-0.225085 -0.15006,-0.337627 -0.18757,-0.300113 z"
       id="left_teres_minor" />
    <path
       style="fill:none;stroke:#000000;stroke-width:0.2;stroke-linecap:round;stroke-linejoin:round;stroke-dasharray:none;stroke-dashoffset:0;stroke-opacity:1;paint-order:stroke fill markers"
       d="m 88.613785,35.450848 -0.90034,-0.300113 -0.97537,-0.375141 -0.63774,-0.450169 -0.63774,-0.412656 -0.63774,-0.412655 -0.5252,-0.63774 -0.22508,-0.412656 -0.5252,-0.112542 -0.45017,-0.262599 -0.30011,-0.262599 -0.2626,-0.112542 -0.11254,0.150056 -0.0375,0.600226 -0.0375,0.562712 0.18757,0.412656 0.2626,0.562711 0.18757,0.337628 0.075,0.450169 0.075,0.375141 0.37514,0.337627 0.18757,0.412656 0.2626,0.150056 1.05039,0.187571 0.48769,0.07503 0.48768,0.187571 0.75028,-0.112543 0.71277,-0.225084 0.67525,-0.225085 0.56272,-0.225085 z"
       id="left_teres_major" />
    <path
       style="fill:none;stroke:#000000;stroke-width:0.2;stroke-linecap:round;stroke-linejoin:round;stroke-dasharray:none;stroke-dashoffset:0;stroke-opacity:1;paint-order:stroke fill markers"
       d="m 77.322038,51.46938 -0.48769,-0.600226 -0.18757,-0.900339 -0.075,-1.08791 -0.33762,-0.600226 -0.2626,-0.675254 0.30011,-0.900339 0.22509,-0.825311 0.33762,-0.337627 -0.0375,0.712768 0.18757,0.63774 0.30011,0.825311 0.48769,0.750283 0.300107,0.63774 0.0375,0.862825 -0.187567,0.562712 -0.22508,0.18757 0.0375,0.562712 z"
       id="left_anconeus" />
    <path
       style="fill:none;stroke:#000000;stroke-width:0.2;stroke-linecap:round;stroke-linejoin:round;stroke-dasharray:none;stroke-dashoffset:0;stroke-opacity:1;paint-order:stroke fill markers"
       d="m 80.473215,51.281809 -0.41265,-0.562712 -0.56271,-0.262599 -0.56272,-0.150056 -0.30011,0.262599 -0.11254,0.712768 -0.22509,1.200452 -0.450167,0.900339 -0.41265,1.312995 -0.11254,0.900339 -0.18757,1.312994 -0.30012,1.050395 -0.30011,1.312995 -0.37514,1.575593 -0.0375,1.08791 -0.22508,0.900339 -0.18757,0.63774 -0.22509,0.787796 -0.26259,0.45017 0.18757,0.375141 0.41265,-0.18757 0.41266,-0.600226 0.33762,-0.862825 0.22509,-0.937853 0.15005,-0.600226 0.30012,-0.750283 0.33763,-0.750282 0.33762,-0.937854 0.225087,-0.63774 0.30011,-0.600226 0.5252,-1.350508 0.41265,-1.237966 0.2626,-0.937853 0.45017,-0.862825 0.37514,-0.900339 0.33763,-0.63774 -0.075,-0.487684 z"
       id="left_flexor_carpi_ulnaris" />
    <path
       style="fill:none;stroke:#000000;stroke-width:0.2;stroke-linecap:round;stroke-linejoin:round;stroke-dasharray:none;stroke-dashoffset:0;stroke-opacity:1;paint-order:stroke fill markers"
       d="m 75.821468,48.130623 -0.22508,1.087909 -0.30012,0.562712 -0.075,1.050396 -0.0375,0.750282 0.18757,1.27548 -0.075,1.500565 0.075,1.613108 -0.15005,0.975367 -0.22509,1.050396 -0.0375,0.787796 -0.075,0.900339 -0.15006,0.600226 -0.0375,0.937853 -0.15006,0.862825 v 0.750283 l -0.2626,0.412655 0.0375,0.862825 -0.22509,0.262599 0.0375,0.525198 0.37514,-0.300113 0.22508,-0.412656 0.075,-0.900339 0.22508,-0.412655 0.22509,-1.050396 0.15006,-0.412655 0.075,-0.712768 0.18757,-0.45017 0.11255,-0.675254 0.2626,-0.750283 0.15005,-0.937853 0.2626,-0.787796 0.15006,-0.900339 0.15005,-0.412656 0.18757,-0.450169 0.18758,-1.72565 -0.11255,-1.875706 -0.18757,-0.375142 -0.2626,-0.450169 -0.30011,-0.45017 0.11254,-0.787796 -0.11254,-0.562712 -0.18757,-0.525198 z"
       id="left_extensor_carpi_ulnaris" />
    <path
       style="fill:none;stroke:#000000;stroke-width:0.2;stroke-linecap:round;stroke-linejoin:round;stroke-dasharray:none;stroke-dashoffset:0;stroke-opacity:1;paint-order:stroke fill markers"
       d="m 74.808588,52.10712 -0.11254,0.712768 -0.18757,1.237966 -0.30012,1.575594 -0.18757,1.012881 -0.075,0.900339 -0.11254,1.012881 -0.15005,1.012882 -0.11255,0.750282 -0.075,0.750283 -0.11255,0.412655 -0.0375,1.050396 0.11254,0.675254 -0.11254,0.862825 0.15006,0.262599 0.22508,-0.262599 0.30011,-0.300113 0.11255,-0.600226 0.075,-0.825311 0.11255,-1.050395 0.075,-0.562712 0.11255,-0.937853 v -0.787797 l 0.15005,-0.600226 0.11255,-0.750283 0.075,-1.050395 0.075,-0.900339 0.15006,-1.162938 0.0375,-1.012881 -0.0375,-0.900339 v -0.337627 z"
       id="left_extensor_digitorum" />
    <g
       id="left_external_oblique"
       transform="matrix(-1,0,0,1,189.93944,0)">
      <path
         style="fill:none;stroke:#000000;stroke-width:0.2;stroke-linecap:round;stroke-linejoin:round;stroke-dasharray:none;stroke-dashoffset:0;stroke-opacity:1;paint-order:stroke fill markers"
         d="m 104.25175,48.430736 0.11255,0.862825 0.075,0.63774 0.33763,0.600226 0.0375,0.600226 -0.15006,0.225084 -0.33763,-0.18757 -0.18757,-0.412656 -0.2626,-0.18757 -0.18757,-0.150057 0.075,-0.487683 0.18757,-0.375142 0.15006,-0.600226 z"
         id="left_external_oblique3" />
      <path
         style="fill:none;stroke:#000000;stroke-width:0.2;stroke-linecap:round;stroke-linejoin:round;stroke-dasharray:none;stroke-dashoffset:0;stroke-opacity:1;paint-order:stroke fill markers"
         d="m 103.0513,52.219662 0.56271,0.712769 0.41266,0.63774 0.33763,0.562712 0.30011,0.712768 0.30011,0.225085 0.37514,0.487683 -0.11254,0.600226 -0.22508,0.187571 -0.2626,-0.262599 -0.63774,-0.18757 -0.37514,-0.225085 -0.67526,0.03751 -0.45017,0.03751 -0.2626,-0.300113 -0.30011,-0.225085 -0.18757,-0.18757 -0.15006,-0.03751 V 54.395482 54.02034 l 0.45017,-0.562712 0.30012,-0.525197 0.30011,-0.412656 z"
         id="left_external_oblique2" />
      <path
         style="fill:none;stroke:#000000;stroke-width:0.2;stroke-linecap:round;stroke-linejoin:round;stroke-dasharray:none;stroke-dashoffset:0;stroke-opacity:1;paint-order:stroke fill markers"
         d="m 103.65153,50.756611 0.37514,0.45017 0.33763,0.375141 0.33762,0.187571 h 0.22509 l 0.15005,0.63774 0.075,0.63774 0.11255,0.600226 0.0375,0.487684 v 0.63774 l 0.075,0.337627 -0.2626,-0.262599 -0.30011,-0.450169 -0.22509,-0.487684 -0.30011,-0.487684 -0.45017,-0.600226 -0.22509,-0.487683 -0.30011,-0.300113 -0.075,-0.07503 0.075,-0.63774 z"
         id="left_external_oblique1" />
    </g>
    <g
       id="g139"
       transform="matrix(-1,0,0,1,189.93944,0)">
      <path
         style="fill:none;stroke:#000000;stroke-width:0.2;stroke-linecap:round;stroke-linejoin:round;stroke-dasharray:none;stroke-dashoffset:0;stroke-opacity:1;paint-order:stroke fill markers"
         d="m 97.011528,41.903278 0.487683,-1.08791 0.412656,-1.012881 0.412655,-0.675254 0.562712,-0.937854 0.525198,-0.862824 0.525198,-0.937854 0.33763,-0.712768 0.22508,-0.300113 0.41266,0.300113 0.52519,0.487684 0.56272,0.225084 0.67525,0.300113 1.38802,0.150057 1.0504,-0.150057 0.82531,-0.300113 0.45017,-0.03751 0.2626,0.375142 v 1.500565 l -0.15006,0.82531 -0.2626,0.562712 -0.33762,0.937853 -0.15006,1.162938 -0.18757,1.08791 -0.37514,1.162938 -0.2626,1.125423 -0.22509,1.012882 -0.33762,0.787796 -0.37514,0.937854 -0.18758,0.975367 -0.22508,0.937853 -0.2626,0.975367 -0.33763,0.600226 -0.33762,0.600226 -0.22509,0.562712 -0.48768,0.750283 -0.33763,0.600226 -0.45017,0.300113 -0.5252,-0.150057 -0.37514,-0.337627 -0.15005,-0.600226 0.0375,-1.650621 -0.150056,-1.08791 -0.07503,-0.825311 -0.562711,-1.237966 -0.637741,-1.500565 -0.600226,-1.162938 -0.450169,-0.900339 -0.45017,-0.600226 -0.300113,-0.600226 -0.18757,-0.675254 v -0.525198 z"
         id="left_latissimus_dorsi2" />
      <path
         style="fill:none;stroke:#000000;stroke-width:0.2;stroke-linecap:round;stroke-linejoin:round;stroke-dasharray:none;stroke-dashoffset:0;stroke-opacity:1;paint-order:stroke fill markers"
         d="m 95.435934,44.904408 -0.07503,0.600226 0.03751,0.63774 0.112543,3.113672 -0.112543,3.4513 0.03751,2.288362 -0.03751,1.988248 v 1.875706 l 0.07503,0.300113 0.412655,0.150057 0.600226,-0.337627 0.487684,-0.63774 0.675254,-0.975368 0.487684,-0.487683 0.562711,-0.487684 0.562712,-0.300113 0.86283,-0.262599 0.5252,-0.262599 0.22508,-0.300113 0.075,-0.412655 -0.67525,-0.63774 -0.600234,-0.562712 -0.262599,-0.600226 V 51.244295 L 99.524974,50.268928 99.412432,49.631188 99.149833,48.918419 98.84972,48.393222 98.587121,47.83051 98.21198,47.005199 97.911867,46.179888 97.274127,45.260792 97.049042,45.01695 96.786443,44.716837 95.998647,44.416724 Z"
         id="left_latissimus_dorsi1" />
    </g>
    <path
       style="fill:none;stroke:#000000;stroke-width:0.2;stroke-linecap:round;stroke-linejoin:round;stroke-dasharray:none;stroke-dashoffset:0;stroke-opacity:1;paint-order:stroke fill markers"
       d="m 89.908035,56.8728 -1.16717,-0.09284 -1.11411,-0.07958 -1.0478,0.02653 -0.43768,0.45095 -0.34485,0.543793 -0.27853,0.583583 -0.1061,0.424424 -0.252,0.464214 -0.19895,0.464213 -0.13264,0.384634 -0.053,0.663163 0.1459,0.185685 0.45095,-0.145896 0.29179,-0.318317 0.68969,-0.596847 0.756,-0.41116 0.67643,-0.344845 0.78253,-0.397897 0.58358,-0.318318 0.59685,-0.384634 0.3979,-0.291791 0.0398,-0.305055 v -0.437687 z"
       id="left_gluteus_medius" />
    <path
       style="fill:none;stroke:#000000;stroke-width:0.2;stroke-linecap:round;stroke-linejoin:round;stroke-dasharray:none;stroke-dashoffset:0;stroke-opacity:1;paint-order:stroke fill markers"
       d="m 90.929305,57.403329 -0.504,0.517267 -0.47748,0.384634 -0.86211,0.583583 -0.72948,0.318318 -0.83559,0.371371 -0.67642,0.358107 -0.58359,0.464214 -0.55705,0.517267 -0.34485,0.252001 -0.43768,0.252002 -0.0796,0.278528 -0.23874,0.305055 -0.0928,0.848848 -0.0928,0.676425 0.0398,0.994744 0.0265,0.570319 v 0.862111 l 0.10611,0.57032 0.13263,0.358107 0.14589,0.623373 0.11937,0.49074 0.0531,0.504003 0.29179,0.424424 0.30505,0.424424 0.29179,0.411161 0.26527,0.225475 0.30505,0.397897 0.38464,0.318318 0.23874,0.252002 0.30505,0.225475 0.22548,0.172422 0.41116,0.172423 0.34484,0.145895 0.42442,0.07958 h 0.88864 l 0.59685,-0.02653 0.504,-0.05305 0.57032,-0.09284 0.68969,-0.212212 0.34485,-0.09284 0.57032,-0.252002 0.49074,-0.145895 0.22547,-0.305055 0.41116,-0.371371 0.29179,-0.397897 0.1459,-0.450951 0.0531,-0.596846 -0.0133,-0.464213 0.0398,-0.862111 -0.053,-1.339588 0.053,-1.167166 -0.0265,-0.702952 -0.23874,-0.437687 -0.0265,-0.49074 -0.0133,-0.450951 0.0663,-0.45095 -0.0133,-0.371371 0.13263,-0.305055 0.0398,-0.437687 -0.0928,-0.318318 -0.27853,-0.384634 -0.33158,-0.464213 -0.31831,-0.543793 -0.47748,-0.517267 -0.37137,-0.384634 -0.58359,-0.543793 -0.39789,-0.411161 -0.46422,-0.212212 z"
       id="left_gluteus_maximus" />
    <path
       style="fill:none;stroke:#000000;stroke-width:0.2;stroke-linecap:round;stroke-linejoin:round;stroke-dasharray:none;stroke-dashoffset:0;stroke-opacity:1;paint-order:stroke fill markers"
       d="m 83.192995,67.000228 -0.18757,1.050395 -0.1313,0.975367 -0.24385,0.975368 -0.18757,1.406779 -0.0375,1.294238 -0.0188,0.994124 0.20633,0.937853 0.0938,1.125424 0.11254,1.031638 0.0938,0.956611 0.11255,0.881581 0.11254,1.012882 0.2626,1.050395 0.11254,0.787797 0.22508,1.125424 0.20633,0.937853 0.16882,0.63774 0.1313,0.675254 0.15005,0.468927 0.18757,0.131299 0.16882,-0.356384 -0.0188,-1.237966 0.0188,-1.800678 -0.0563,-1.237966 0.0938,-1.27548 -0.075,-1.050396 0.15006,-0.63774 0.0563,-1.08791 0.11254,-0.787796 v -0.76904 l -0.15005,-0.76904 -0.3939,-1.369265 -0.15006,-0.937853 -0.0938,-0.937853 -0.24385,-1.069153 -0.075,-0.769039 -0.20633,-1.106667 -0.11254,-0.431413 -0.18758,-0.300113 0.0563,-0.356384 -0.1313,-0.31887 z"
       id="left_iliotibial_tact" />
    <path
       style="fill:none;stroke:#000000;stroke-width:0.2;stroke-linecap:round;stroke-linejoin:round;stroke-dasharray:none;stroke-dashoffset:0;stroke-opacity:1;paint-order:stroke fill markers"
       d="m 88.257395,72.120906 -0.58147,0.150056 -0.60022,0.168814 -0.48768,0.431412 -0.56272,0.600226 -0.18757,0.300113 -0.33762,0.562712 -0.0188,0.806554 -0.15006,0.337627 -0.075,0.600226 -0.0563,0.656497 v 0.76904 l -0.0375,0.712768 -0.11254,0.543955 0.0375,0.618983 -0.075,0.525198 v 0.562712 l -0.075,0.694011 0.0938,1.050395 -0.0188,0.825311 0.0188,1.069153 0.0938,0.769039 -0.0563,0.506441 -0.22508,0.262599 -0.15006,0.337627 0.0938,0.694011 -0.0938,0.300113 -0.075,0.337627 -0.0938,0.900339 -0.16882,0.618984 -0.0187,0.844067 -0.11254,0.731526 0.0563,0.862825 -0.075,0.750282 -0.0375,0.694011 v 0.487684 l -0.0187,0.431413 0.2626,-0.168814 0.39389,-0.543955 0.54396,-0.825311 0.48768,-0.881582 0.54396,-0.95661 0.5252,-1.256723 0.39389,-0.825311 0.22509,-0.862825 0.11254,-0.787796 0.075,-1.481808 0.0938,-0.63774 0.0375,-2.776046 -0.0188,-0.994124 0.0563,-0.862825 0.1313,-0.844068 0.0938,-0.881581 0.20632,-2.344633 0.15006,-0.506441 0.1313,-0.731525 0.0375,-0.412656 0.15006,-0.300113 0.0938,-0.694011 -0.0375,-0.45017 -0.16881,-0.281356 z"
       id="left_biceps_femoris" />
    <path
       style="fill:none;stroke:#000000;stroke-width:0.2;stroke-linecap:round;stroke-linejoin:round;stroke-dasharray:none;stroke-dashoffset:0;stroke-opacity:1;paint-order:stroke fill markers"
       d="m 89.776725,72.233448 -0.35639,-0.112542 -0.20633,0.168813 -0.15005,0.187571 -0.0188,0.356384 -0.0188,0.618983 -0.0187,0.431413 -0.1313,0.31887 -0.075,0.63774 -0.0938,0.562712 -0.16881,0.468926 v 0.543955 l -0.0563,0.562712 -0.0188,0.618983 0.0938,0.731525 -0.0938,0.525198 -0.16881,0.356384 -0.16882,0.562712 -0.075,0.431413 0.0563,1.069152 0.0187,0.844068 v 0.862825 l 0.0188,0.844068 -0.1313,0.468926 v 0.600226 l -0.11254,0.525198 v 0.506441 l -0.0188,0.543955 -0.0375,0.525197 -0.0938,0.525198 -0.18757,0.431413 -0.075,0.581469 0.0188,0.656497 0.28136,0.900339 0.11254,0.787796 0.20633,0.731526 0.16881,0.450169 0.24384,0.45017 0.35639,0.600226 0.1313,0.50644 0.15005,0.243842 h 0.16882 l 0.075,-0.375141 v -0.712768 l -0.0563,-0.675255 -0.075,-0.712768 -0.13129,-0.656497 V 90.1652 l 0.11254,-0.525198 0.16881,-0.787796 0.2626,-0.937854 0.075,-0.975367 0.15006,-0.806554 0.16881,-0.562711 0.18757,-0.731526 0.18757,-0.750282 0.2626,-0.825311 0.1313,-0.712768 0.0938,-0.543955 0.15006,-0.731526 0.15005,-0.525197 0.2626,-0.750283 0.0563,-0.656497 0.0188,-1.162938 -0.11254,-0.881582 -0.0563,-0.787797 -0.15006,-0.393898 -0.31887,-0.694011 -0.37514,-0.994125 -0.24384,-0.543954 -0.16881,-0.562712 -0.15006,-0.543955 -0.0563,-0.393898 z"
       id="left_semitendinosus" />
    <path
       style="fill:none;stroke:#000000;stroke-width:0.2;stroke-linecap:round;stroke-linejoin:round;stroke-dasharray:none;stroke-dashoffset:0;stroke-opacity:1;paint-order:stroke fill markers"
       d="m 94.053335,71.276838 -0.48769,0.168813 -0.78779,0.337628 -0.46893,-0.03751 -0.6565,0.225085 -0.63774,0.09379 -0.48768,0.03751 -0.2626,0.337627 0.11254,0.731525 0.11255,0.581469 0.20632,0.356384 0.22509,0.656498 0.20633,0.50644 0.2626,0.600226 0.31887,0.731526 0.0563,0.450169 0.20632,0.712769 v 0.50644 l 0.0375,0.76904 0.11255,0.919096 0.1313,0.806554 -0.0563,0.712768 0.0563,0.656497 0.22508,0.356384 0.22508,-0.393898 0.22509,-0.656497 0.28136,-1.031639 0.16881,-0.806553 0.0563,-0.881582 0.0563,-1.069153 0.0563,-0.63774 0.15006,-1.08791 0.1313,-0.562711 0.22508,-0.862825 0.075,-0.262599 0.0375,-1.012882 0.0375,-0.881582 -0.0375,-0.50644 0.075,-0.187571 z"
       id="left_adductor_magnus" />
    <path
       style="fill:none;stroke:#000000;stroke-width:0.2;stroke-linecap:round;stroke-linejoin:round;stroke-dasharray:none;stroke-dashoffset:0;stroke-opacity:1;paint-order:stroke fill markers"
       d="m 91.821245,79.661245 -0.0938,0.412655 -0.16882,0.694012 -0.24384,0.82531 -0.0938,0.806554 -0.22508,0.731525 -0.30011,0.937854 -0.2626,0.975367 -0.1313,0.844068 -0.30012,1.106666 v 0.862825 l -0.15006,0.600226 -0.24384,0.787797 -0.20633,0.844068 -0.0375,0.468926 0.1313,1.125424 0.15006,0.656497 0.1313,0.694012 -0.0563,0.525197 0.0375,0.506441 0.20633,0.281356 v 0.506441 l 0.0375,0.450169 0.33763,0.05627 0.24384,-0.206327 0.30011,-1.162938 0.22509,-0.656497 0.20632,-0.712769 0.24385,-0.919096 0.075,-0.731525 v -0.956611 l 0.0563,-0.975367 0.16881,-1.256723 0.18757,-1.237966 0.18757,-0.900339 0.1313,-0.994124 0.0563,-0.600226 0.1313,-0.543955 -0.15006,-0.63774 -0.18757,-0.281356 -0.24384,-0.468927 -0.0375,-0.468926 0.075,-0.656498 -0.075,-0.412655 -0.0188,-0.487684 V 79.8113 Z"
       id="left_semimebranosus" />
    <g
       id="g148"
       transform="matrix(-1,0,0,1,189.93944,0)">
      <path
         style="fill:none;stroke:#000000;stroke-width:0.2;stroke-linecap:round;stroke-linejoin:round;stroke-dasharray:none;stroke-dashoffset:0;stroke-opacity:1;paint-order:stroke fill markers"
         d="m 103.98916,91.872093 0.30011,0.543954 0.46892,0.600226 0.41266,0.637741 0.2626,0.300113 0.28135,0.150056 0.15006,0.262599 -0.075,0.562712 0.0938,0.581469 0.0563,0.694011 0.16881,0.694011 0.18757,0.694012 0.18757,0.862825 0.11255,0.63774 0.0187,0.787796 0.0938,0.712772 -0.0938,1.05039 0.0375,0.71277 -0.1313,0.54396 -0.11254,0.65649 -0.20633,0.88158 -0.11254,0.58147 -0.0938,0.6565 -0.15006,0.41266 -0.15005,0.63774 -0.0375,0.58147 -0.18757,0.26259 -0.1313,0.22509 -0.15005,0.24384 -0.35639,-0.0563 -0.37514,-0.1313 -0.75028,-0.69401 -0.58147,-0.6565 -0.2626,-0.60022 -0.16881,-0.84407 -0.15006,-1.85695 0.0375,-1.76317 0.0938,-1.444289 -0.075,-0.975367 -0.0938,-0.581469 -0.0375,-1.069153 -0.0563,-0.975367 -0.0375,-0.862825 0.15005,-0.543955 0.16882,-0.656497 0.0187,-0.506441 -0.0187,-0.281356 0.20633,-0.562712 0.16881,-0.431412 0.24384,-0.300113 0.37514,-0.281356 z"
         id="left_gastrocnemius2" />
      <path
         style="fill:none;stroke:#000000;stroke-width:0.2;stroke-linecap:round;stroke-linejoin:round;stroke-dasharray:none;stroke-dashoffset:0;stroke-opacity:1;paint-order:stroke fill markers"
         d="m 101.60701,93.4852 -0.33763,0.412655 -0.30011,0.337628 -0.24384,0.337627 -0.20633,0.281356 -0.20633,0.393898 -0.2626,0.337627 -0.300111,0.243842 -0.112542,0.168813 -0.01876,0.281356 v 0.45017 l 0.03751,0.675254 -0.01876,0.63774 -0.1313,0.618983 -0.112542,0.806554 -0.150057,0.45017 -0.150056,0.712767 -0.09379,0.88158 -0.05627,0.84407 -0.112542,0.75028 -0.03751,0.88159 v 0.76903 l 0.03751,0.69402 0.03751,0.71276 0.150057,0.6565 0.206327,0.50644 0.187571,0.48769 0.262599,0.58146 0.18757,0.45017 0.09379,0.2626 0.694016,-0.075 0.86282,-0.67525 0.22509,-0.3939 0.30011,-0.31887 0.075,-0.45017 0.2626,-0.3939 0.11254,-0.60022 v -0.61898 l -0.0375,-0.71277 -0.0563,-0.69401 -0.15005,-0.60023 -0.0375,-0.37514 0.0188,-0.54396 0.11254,-0.76904 0.0188,-0.30011 0.0563,-0.61898 v -0.3939 -0.581469 l -0.0563,-0.262599 -0.075,-0.45017 -0.0938,-0.431412 -0.0563,-0.787797 v -0.731525 l -0.0188,-0.712769 -0.0188,-0.750282 0.1313,-0.600226 0.18757,-0.600226 v -0.206328 l -0.20633,-0.337627 -0.1313,-0.300113 -0.11254,-0.281356 -0.1313,-0.168813 z"
         id="left_gastrocnemius1" />
    </g>
    <g
       id="g150"
       transform="matrix(-1,0,0,1,189.93944,0)">
      <path
         style="fill:none;stroke:#000000;stroke-width:0.2;stroke-linecap:round;stroke-linejoin:round;stroke-dasharray:none;stroke-dashoffset:0;stroke-opacity:1;paint-order:stroke fill markers"
         d="m 104.92701,108.37831 -0.22509,0.84407 -0.15005,0.60022 -0.0375,0.54396 -0.30011,0.54395 -0.0375,0.60023 -0.16882,0.73152 -0.0375,0.63774 -0.075,0.48769 -0.16881,0.46892 -0.0375,0.50644 -0.0938,0.46893 -0.16882,0.33763 -0.15005,0.5252 v 0.43141 l -0.0563,0.2626 -0.16882,0.31887 0.11254,0.43141 0.18757,-0.0938 0.18758,-0.37514 0.20632,-0.60022 -0.0187,-0.46893 0.30011,-0.45017 0.075,-0.43141 0.15005,-0.31887 0.1313,-0.7878 0.16882,-0.75028 0.22508,-0.7878 0.0375,-0.6565 0.0938,-0.58146 0.0938,-0.46893 0.0563,-0.41266 -0.075,-0.48768 0.075,-0.37514 0.1313,-0.3939 -0.075,-0.16881 z"
         id="left_soleus2" />
      <path
         style="fill:none;stroke:#000000;stroke-width:0.2;stroke-linecap:round;stroke-linejoin:round;stroke-dasharray:none;stroke-dashoffset:0;stroke-opacity:1;paint-order:stroke fill markers"
         d="m 99.975144,109.39119 0.262596,0.11254 0.0375,0.35639 0.11254,0.37514 0.15006,0.48768 0.0563,0.58147 -0.0188,0.73152 0.16881,0.5252 0.20633,0.69401 -0.0188,0.61899 -0.0187,0.56271 0.18757,0.37514 0.15005,0.41266 0.0375,0.63774 -0.0563,0.37514 0.075,0.56271 -0.0938,0.43141 -0.22508,0.15006 -0.22509,-0.24384 v -0.22509 l -0.0375,-0.88158 v -0.60023 l -0.28136,-0.43141 -0.075,-0.93785 v -0.99413 l -0.0188,-0.90034 -0.15005,-0.82531 -0.0938,-0.78779 -0.0563,-0.5252 -0.11254,-0.43141 z"
         id="left_soleus1" />
    </g>
  </g>
</svg>
