<?xml version="1.0" encoding="UTF-8" standalone="no"?>
<!-- Created with Inkscape (http://www.inkscape.org/) -->

<svg
   version="1.1"
   id="svg1"
   width="55.564434"
   height="120.7597"
   viewBox="0 0 55.564433 120.7597"
   xmlns="http://www.w3.org/2000/svg"
   xmlns:svg="http://www.w3.org/2000/svg">
  <defs
     id="defs1" />
  <g
     id="front"
     style="display:inline"
     transform="translate(-10.159436,-6.2156523)">
    <path
       style="display:inline;fill:none;stroke:#000000;stroke-width:0.2;stroke-linecap:round;stroke-linejoin:round;stroke-dasharray:none;stroke-dashoffset:0;stroke-opacity:1;paint-order:stroke fill markers"
       d="m 38.407694,69.870781 c 0.0033,4.405561 0.379021,8.913266 1.823233,13.077906 -0.05261,2.77565 1.107945,5.370877 0.751531,8.154789 -0.217997,2.526239 2.269195,4.749176 0.864866,7.22493 -0.743834,2.549744 -0.512247,5.303584 -0.129613,7.886234 1.111133,3.30153 1.42662,6.86431 1.219279,10.29222 -1.401852,1.93211 0.0037,4.10424 -0.245247,6.21276 0.977868,1.33766 -0.574975,2.14865 0.343689,3.67082 1.080252,0.54866 2.236167,0.24397 3.27715,0.0348 0.971947,0.5865 1.782633,0.004 2.601154,0.0709 1.66285,0.88837 1.438388,-2.25194 0.390546,-2.83817 -1.083436,-0.99195 -2.061847,-2.54403 -1.081789,-3.94384 -0.350474,-1.76166 -1.064619,-3.46243 -0.418775,-5.26244 0.213325,-4.66005 1.725304,-9.13506 2.124583,-13.75747 0.06741,-2.524442 -1.160044,-4.831735 -0.822045,-7.378137 0.431925,-2.952067 -1.660548,-6.036531 0.08859,-8.801593 1.872383,-3.36529 0.626547,-7.314342 1.627245,-10.903404 -0.03594,-5.184595 -1.413954,-10.237951 -2.095593,-15.358839 -1.233956,-2.287394 -0.04123,-4.866861 -0.844698,-7.275984 -0.411448,-2.361878 -0.50055,-4.74336 0.309454,-7.022284 0.341498,-1.000075 0.724433,-4.489024 1.09714,-3.775845 0.730762,3.404112 1.639776,6.813551 1.821824,10.282421 1.683025,4.536612 3.885125,8.97661 4.72539,13.760154 -0.668728,2.148593 -1.106232,4.551981 0.291792,6.525517 0.565449,1.443958 0.950169,3.213205 1.706229,4.422727 1.398717,-1.703025 0.219036,1.414263 1.774101,1.524784 0.336301,-2.230403 1.076993,2.527211 1.69398,0.104482 -1.109636,-2.412958 1.286927,0.484085 1.348033,-1.99448 0.05933,-1.779713 -0.1228,-3.613669 -0.18597,-5.316996 0.666231,0.584034 2.252783,2.126927 3.160101,0.437158 -1.632673,-1.508371 -2.773004,-3.417295 -3.713709,-5.411405 -1.728398,-0.297774 -2.305891,-1.572111 -2.347037,-3.207855 -1.102774,-4.581285 -0.113405,-9.512913 -1.818717,-13.938565 -0.665457,-1.636197 -2.526635,-2.728905 -2.041449,-4.684883 0.145333,-2.023765 -0.788446,-3.823136 -1.306975,-5.67702 0.326446,-3.288041 0.684001,-7.38341 -2.274102,-9.628766 -1.507818,-1.473848 -3.514651,-2.400007 -5.650142,-2.148643 -2.341331,-0.847218 -5.381013,-2.346771 -5.084148,-5.27776 0.973853,-0.76857 0.607838,-3.352474 1.442339,-3.480423 1.160027,-0.09315 1.268728,-3.264038 0.626747,-3.689828 -1.106169,0.204662 0.0062,-2.766251 -0.905719,-3.7079426 -1.64587,-4.0888338 -9.211717,-3.5296247 -9.797267,1.0330846 -0.05435,1.941875 -0.223246,2.614553 -0.917788,3.38463 -0.55385,1.774563 0.783448,3.072263 1.425775,3.422045 -0.404205,1.724363 1.543513,2.590772 0.831424,4.268525 -0.455019,2.245694 -3.019511,3.28574 -4.968114,4.05942 -3.032851,-0.35525 -5.822451,1.727184 -7.339348,4.186766 -1.231027,2.533637 -0.604615,5.438467 -0.662851,8.104165 -1.129764,2.1224 -1.289379,4.499685 -1.255521,6.861194 -1.937486,2.067531 -2.894473,4.744124 -3.004883,7.550974 -0.131335,3.939733 -0.381272,7.882261 -1.292407,11.733786 -1.649024,0.360409 -2.441109,1.582951 -3.045223,3.055816 -0.277159,1.365252 -2.8090077,2.494815 -2.162478,3.567865 1.001877,1.854815 2.68856,-1.866648 2.899891,-0.28385 -0.443418,1.691469 -0.366257,3.605428 -0.188924,5.299366 1.086833,1.463492 1.737873,-0.608093 1.298808,1.990039 1.422061,0.307038 0.814309,-2.141822 2.018285,-0.638418 0.942348,-2.113721 0.228286,-1.673712 1.684774,-1.842791 0.587561,-2.609965 2.257033,-4.903752 2.402367,-7.593473 -0.717815,-2.077452 -0.929976,-4.276361 0.07824,-6.307016 1.120253,-3.8167 2.978744,-7.442339 4.052063,-11.228778 0.08486,-3.417778 1.195945,-6.685692 1.811686,-10.025233 0.530675,2.481187 1.270101,4.978256 1.63742,7.454985 0.004,3.095831 -1.063562,6.105872 -0.5233,9.203652 -1.462962,4.461893 -1.689239,9.235196 -2.6114,13.832377 -0.506169,3.447137 0.635775,6.811672 0.375905,10.26817 -0.140753,2.763041 2.254459,4.909888 1.781199,7.686507 -0.543645,2.142982 -0.723244,4.323801 -0.591035,6.544564 -0.0079,2.565724 -1.315977,5.027254 -0.66585,7.632888 0.759884,4.29531 1.740207,8.55581 2.085344,12.91614 0.777887,1.84103 -1.096374,3.65585 -0.199078,5.39362 0.59658,2.31081 -2.986906,3.20559 -2.124111,5.59447 0.573488,0.95454 2.024051,-0.0674 2.610894,0.54834 1.058724,-0.12396 2.089436,-0.20498 3.101809,-0.10557 1.231637,1.11528 2.262578,-1.98254 1.143693,-2.5639 0.913282,-0.95783 0.08541,-2.73854 0.76921,-3.95139 0.552963,-1.69946 -0.571206,-3.06301 -0.635386,-4.64482 -0.02279,-3.35029 0.374781,-6.65601 1.460267,-9.83551 0.204381,-2.87099 0.468656,-5.844124 -0.692251,-8.571194 -0.156618,-2.255187 1.657926,-4.213364 1.266566,-6.55518 -0.259543,-2.659713 0.880444,-5.152781 0.776054,-7.822178 1.527921,-4.060502 1.755318,-8.504853 1.80385,-12.812296 0.408799,-0.06525 0.808277,-0.06533 1.21842,-0.01175 z"
       id="outline_front" />
    <g
       id="digastric">
      <path
         style="display:inline;fill:none;stroke:#000000;stroke-width:0.2;stroke-linecap:round;stroke-linejoin:round;stroke-dasharray:none;stroke-dashoffset:0;stroke-opacity:1;paint-order:stroke fill markers"
         d="m 39.277289,20.145085 c -0.994583,-0.141328 -1.396102,1.866773 -0.63774,2.288362 0.115549,-0.823037 0.663802,-1.755771 0.63774,-2.288362 z"
         id="left_digastric" />
      <path
         style="display:inline;fill:none;stroke:#000000;stroke-width:0.2;stroke-linecap:round;stroke-linejoin:round;stroke-dasharray:none;stroke-dashoffset:0;stroke-opacity:1;paint-order:stroke fill markers"
         d="m 36.013553,20.145085 c 0.994583,-0.141328 1.396102,1.866773 0.63774,2.288362 -0.115549,-0.823037 -0.663802,-1.755771 -0.63774,-2.288362 z"
         id="right_digastric" />
    </g>
    <g
       id="sternocleidomastoid">
      <g
         id="left_sternocleidomastoid"
         style="display:inline">
        <path
           style="fill:none;stroke:#000000;stroke-width:0.2;stroke-linecap:round;stroke-linejoin:round;stroke-dasharray:none;stroke-dashoffset:0;stroke-opacity:1;paint-order:stroke fill markers"
           d="m 40.64483,23.642494 c -0.08648,0.204287 -0.208805,0.477443 -0.345025,0.779167 m 0,0 c -0.190407,0.421746 -0.407969,0.899307 -0.59277,1.322619 -0.157446,0.360652 -0.15123,0.681926 -0.361165,0.895755 -0.141771,0.1444 -0.398213,0.01305 -0.557326,0.06784 0.327004,-1.993172 1.607312,-4.733172 1.87676,-6.862912 l 0.468934,-0.431403 c 0.02557,1.143368 0.140596,2.307746 -0.148365,3.373359 m 0,0 c -0.07959,0.293519 -0.189837,0.579545 -0.341043,0.855575"
           id="left_sternocleidomastoid2" />
        <path
           style="fill:none;stroke:#000000;stroke-width:0.2;stroke-linecap:round;stroke-linejoin:round;stroke-dasharray:none;stroke-dashoffset:0;stroke-opacity:1;paint-order:stroke fill markers"
           d="m 39.9713,26.897628 c 0.483414,-0.223464 1.085503,0.04003 1.307644,-0.342448 0.331691,-0.571104 0.142432,-1.864907 0.06897,-2.600313 -0.0013,-0.649624 -0.08549,-0.730705 -0.20704,-0.551085 -0.205582,0.303802 -0.358765,1.061597 -0.557018,1.367486 -0.01089,0.305001 -0.356694,0.919091 -0.664999,1.319945 -0.339656,0.441616 0.12595,0.758876 0.781269,0.661113 z"
           id="left_sternocleidomastoid1" />
      </g>
      <g
         id="right_sternocleidomastoid"
         transform="matrix(-1,0,0,1,75.290842,0)"
         style="display:inline">
        <path
           style="fill:none;stroke:#000000;stroke-width:0.2;stroke-linecap:round;stroke-linejoin:round;stroke-dasharray:none;stroke-dashoffset:0;stroke-opacity:1;paint-order:stroke fill markers"
           d="m 40.64483,23.642494 c -0.08648,0.204287 -0.208805,0.477443 -0.345025,0.779167 m 0,0 c -0.190407,0.421746 -0.407969,0.899307 -0.59277,1.322619 -0.157446,0.360652 -0.15123,0.681926 -0.361165,0.895755 -0.141771,0.1444 -0.398213,0.01305 -0.557326,0.06784 0.327004,-1.993172 1.607312,-4.733172 1.87676,-6.862912 l 0.468934,-0.431403 c 0.02557,1.143368 0.140596,2.307746 -0.148365,3.373359 m 0,0 c -0.07959,0.293519 -0.189837,0.579545 -0.341043,0.855575"
           id="right_sternocleidomastoid2" />
        <path
           style="fill:none;stroke:#000000;stroke-width:0.2;stroke-linecap:round;stroke-linejoin:round;stroke-dasharray:none;stroke-dashoffset:0;stroke-opacity:1;paint-order:stroke fill markers"
           d="m 39.9713,26.897628 c 0.483414,-0.223464 1.085503,0.04003 1.307644,-0.342448 0.331691,-0.571104 0.142432,-1.864907 0.06897,-2.600313 -0.0013,-0.649624 -0.08549,-0.730705 -0.20704,-0.551085 -0.205582,0.303802 -0.358765,1.061597 -0.557018,1.367486 -0.01089,0.305001 -0.356694,0.919091 -0.664999,1.319945 -0.339656,0.441616 0.12595,0.758876 0.781269,0.661113 z"
           id="right_sternocleidomastoid1" />
      </g>
    </g>
    <g
       id="scalene">
      <path
         style="display:inline;fill:none;stroke:#000000;stroke-width:0.2;stroke-linecap:round;stroke-linejoin:round;stroke-dasharray:none;stroke-dashoffset:0;stroke-opacity:1;paint-order:stroke fill markers"
         d="m 41.490622,22.452204 c 0.381591,1.326054 0.06923,2.673537 0.09379,4.032768 1.251733,0.787735 1.756689,-0.235508 0.806732,-1.283461 -0.207937,-0.876707 -0.07397,-2.193896 -0.900522,-2.749307 z"
         id="left_scalene" />
      <path
         style="display:inline;fill:none;stroke:#000000;stroke-width:0.2;stroke-linecap:round;stroke-linejoin:round;stroke-dasharray:none;stroke-dashoffset:0;stroke-opacity:1;paint-order:stroke fill markers"
         d="m 33.80022,22.452204 c -0.381591,1.326054 -0.06923,2.673537 -0.09379,4.032768 -1.251733,0.787735 -1.756689,-0.235508 -0.806732,-1.283461 0.207937,-0.876707 0.07397,-2.193896 0.900522,-2.749307 z"
         id="right_scalene" />
    </g>
    <g
       id="trapezius">
      <path
         style="display:inline;fill:none;stroke:#000000;stroke-width:0.2;stroke-linecap:round;stroke-linejoin:round;stroke-dasharray:none;stroke-dashoffset:0;stroke-opacity:1;paint-order:stroke fill markers"
         d="m 46.348702,25.490848 c -1.508777,-0.401227 -2.811822,-1.257939 -4.032769,-2.194576 0.379967,0.963165 0.163578,2.136153 0.93786,2.944859 0.324532,0.867194 2.026328,-0.306297 2.832321,-0.450169 l 0.131732,-0.150557 z"
         id="left_trapezius" />
      <path
         style="display:inline;fill:none;stroke:#000000;stroke-width:0.2;stroke-linecap:round;stroke-linejoin:round;stroke-dasharray:none;stroke-dashoffset:0;stroke-opacity:1;paint-order:stroke fill markers"
         d="m 28.94214,25.490848 c 1.508777,-0.401227 2.811822,-1.257939 4.032769,-2.194576 -0.379967,0.963165 -0.163578,2.136153 -0.93786,2.944859 -0.324532,0.867194 -2.026328,-0.306297 -2.832321,-0.450169 l -0.131732,-0.150557 z"
         id="right_trapezius" />
    </g>
    <g
       id="deltoid">
      <g
         id="left_deltoid"
         style="display:inline">
        <path
           style="fill:none;stroke:#000000;stroke-width:0.2;stroke-linecap:round;stroke-linejoin:round;stroke-dasharray:none;stroke-dashoffset:0;stroke-opacity:1;paint-order:stroke fill markers"
           d="m 46.911414,25.547119 c 2.87113,-0.344178 5.577158,1.858988 6.727642,4.343442 0.03547,1.724634 -0.895063,3.330068 -1.418103,4.8896 -0.418162,0.838477 -1.599872,-0.85131 -1.933267,-1.392585 -0.720389,-0.845246 -1.338738,-1.684463 -1.205924,-2.858881 -0.298779,-1.876867 -2.207534,-2.83479 -3.914757,-3.105866 -1.854151,-0.341575 -0.831244,-0.550986 0.356385,-0.975363 0.479886,-0.257839 1.064336,-0.433871 1.388024,-0.900347 z"
           id="left_deltoid1" />
        <path
           style="fill:none;stroke:#000000;stroke-width:0.2;stroke-linecap:round;stroke-linejoin:round;stroke-dasharray:none;stroke-dashoffset:0;stroke-opacity:1;paint-order:stroke fill markers"
           d="m 54.039097,37.045199 c 0.189011,-2.142319 0.545994,-4.38393 -0.1313,-6.471187 -0.214195,1.617674 -0.995428,3.270461 -1.496237,4.653081 -0.219541,0.295306 1.28087,1.426836 1.627537,1.818106 z"
           id="left_deltoid2" />
      </g>
      <g
         id="right_deltoid"
         transform="matrix(-1,0,0,1,75.290842,0)"
         style="display:inline">
        <path
           style="fill:none;stroke:#000000;stroke-width:0.2;stroke-linecap:round;stroke-linejoin:round;stroke-dasharray:none;stroke-dashoffset:0;stroke-opacity:1;paint-order:stroke fill markers"
           d="m 46.911414,25.547119 c 2.87113,-0.344178 5.577158,1.858988 6.727642,4.343442 0.03547,1.724634 -0.895063,3.330068 -1.418103,4.8896 -0.418162,0.838477 -1.599872,-0.85131 -1.933267,-1.392585 -0.720389,-0.845246 -1.338738,-1.684463 -1.205924,-2.858881 -0.298779,-1.876867 -2.207534,-2.83479 -3.914757,-3.105866 -1.854151,-0.341575 -0.831244,-0.550986 0.356385,-0.975363 0.479886,-0.257839 1.064336,-0.433871 1.388024,-0.900347 z"
           id="right_deltoid1" />
        <path
           style="fill:none;stroke:#000000;stroke-width:0.2;stroke-linecap:round;stroke-linejoin:round;stroke-dasharray:none;stroke-dashoffset:0;stroke-opacity:1;paint-order:stroke fill markers"
           d="m 54.039097,37.045199 c 0.189011,-2.142319 0.545994,-4.38393 -0.1313,-6.471187 -0.214195,1.617674 -0.995428,3.270461 -1.496237,4.653081 -0.219541,0.295306 1.28087,1.426836 1.627537,1.818106 z"
           id="right_deltoid2" />
      </g>
    </g>
    <g
       id="biceps">
      <g
         id="left_biceps"
         style="display:inline">
        <path
           style="fill:none;stroke:#000000;stroke-width:0.2;stroke-linecap:round;stroke-linejoin:round;stroke-dasharray:none;stroke-dashoffset:0;stroke-opacity:1;paint-order:stroke fill markers"
           d="m 51.169267,34.944408 c 1.295683,0.753761 2.151959,2.09255 3.236257,3.0023 0.990666,2.588327 1.38151,5.541858 0.352625,8.151486 -0.149245,1.954482 -0.883036,1.058517 -0.638319,-0.455558 -0.06436,-1.422208 -0.286108,-2.833809 -0.598608,-4.199205 -0.167172,-1.199423 -0.382685,-2.361378 -0.939105,-3.466458 -0.347098,-1.016342 -0.953993,-1.878502 -1.431602,-2.826238 l 0.01811,-0.199231 z"
           id="left_biceps2" />
        <path
           style="fill:none;stroke:#000000;stroke-width:0.2;stroke-linecap:round;stroke-linejoin:round;stroke-dasharray:none;stroke-dashoffset:0;stroke-opacity:1;paint-order:stroke fill markers"
           d="m 49.312318,33.068701 c 1.367659,1.61468 2.37689,3.559702 3.132429,5.49582 0.882461,2.048776 0.971399,4.289254 1.361775,6.458476 0.0084,0.824345 0.338385,3.476305 -0.720886,1.724328 -1.362866,-2.252242 -2.877632,-4.529664 -3.656664,-7.025387 -0.401893,-1.232166 -0.552388,-2.778873 -0.378468,-4.115898 0.212644,-0.824718 0.05737,-1.711904 0.261814,-2.537339 z"
           id="left_biceps1" />
      </g>
      <g
         id="right_biceps"
         transform="matrix(-1,0,0,1,75.290842,0)"
         style="display:inline">
        <path
           style="fill:none;stroke:#000000;stroke-width:0.2;stroke-linecap:round;stroke-linejoin:round;stroke-dasharray:none;stroke-dashoffset:0;stroke-opacity:1;paint-order:stroke fill markers"
           d="m 51.169267,34.944408 c 1.295683,0.753761 2.151959,2.09255 3.236257,3.0023 0.990666,2.588327 1.38151,5.541858 0.352625,8.151486 -0.149245,1.954482 -0.883036,1.058517 -0.638319,-0.455558 -0.06436,-1.422208 -0.286108,-2.833809 -0.598608,-4.199205 -0.167172,-1.199423 -0.382685,-2.361378 -0.939105,-3.466458 -0.347098,-1.016342 -0.953993,-1.878502 -1.431602,-2.826238 l 0.01811,-0.199231 z"
           id="right_biceps2" />
        <path
           style="fill:none;stroke:#000000;stroke-width:0.2;stroke-linecap:round;stroke-linejoin:round;stroke-dasharray:none;stroke-dashoffset:0;stroke-opacity:1;paint-order:stroke fill markers"
           d="m 49.312318,33.068701 c 1.367659,1.61468 2.37689,3.559702 3.132429,5.49582 0.882461,2.048776 0.971399,4.289254 1.361775,6.458476 0.0084,0.824345 0.338385,3.476305 -0.720886,1.724328 -1.362866,-2.252242 -2.877632,-4.529664 -3.656664,-7.025387 -0.401893,-1.232166 -0.552388,-2.778873 -0.378468,-4.115898 0.212644,-0.824718 0.05737,-1.711904 0.261814,-2.537339 z"
           id="right_biceps1" />
      </g>
    </g>
    <g
       id="latissimus_dorsi">
      <path
         style="display:inline;fill:none;stroke:#000000;stroke-width:0.2;stroke-linecap:round;stroke-linejoin:round;stroke-dasharray:none;stroke-dashoffset:0;stroke-opacity:1;paint-order:stroke fill markers"
         d="m 48.430736,34.156611 c -0.614641,1.460629 -0.793238,3.016229 -0.862825,4.59548 -0.715622,1.493497 -0.27812,3.312319 -0.63774,4.933108 0.505113,1.525783 0.739113,1.721076 0.862819,-0.112543 0.570932,-0.83456 0.386344,-2.09273 0.78021,-3.043728 0.599019,-1.547825 -0.13173,-3.224019 0.120137,-4.871752 -0.05797,-0.512821 0.13911,-1.088809 -0.262601,-1.500565 z"
         id="left_latissimus_dorsi" />
      <path
         style="display:inline;fill:none;stroke:#000000;stroke-width:0.2;stroke-linecap:round;stroke-linejoin:round;stroke-dasharray:none;stroke-dashoffset:0;stroke-opacity:1;paint-order:stroke fill markers"
         d="m 26.860106,34.156611 c 0.614641,1.460629 0.793238,3.016229 0.862825,4.59548 0.715622,1.493497 0.27812,3.312319 0.63774,4.933108 -0.505113,1.525783 -0.739113,1.721076 -0.862819,-0.112543 -0.570932,-0.83456 -0.386344,-2.09273 -0.78021,-3.043728 -0.599019,-1.547825 0.13173,-3.224019 -0.120137,-4.871752 0.05797,-0.512821 -0.13911,-1.088809 0.262601,-1.500565 z"
         id="right_latissimus_dorsi" />
    </g>
    <g
       id="pectolaris_major">
      <path
         style="display:inline;fill:none;stroke:#000000;stroke-width:0.2;stroke-linecap:round;stroke-linejoin:round;stroke-dasharray:none;stroke-dashoffset:0;stroke-opacity:1;paint-order:stroke fill markers"
         d="m 39.727459,27.385311 c 2.681048,-0.469779 5.537367,0.03536 7.934237,1.313004 1.092779,1.056391 1.464357,2.789437 1.144183,4.201582 -1.255807,1.769959 -1.315332,4.461619 -3.59456,5.366807 -1.539151,0.913034 -3.253983,0.483804 -4.920152,0.339566 -1.400701,-0.09482 -2.238695,-1.290956 -2.141342,-2.642682 -0.08247,-2.018594 -0.01272,-4.030615 0.346658,-6.010762 0.287534,-0.907091 0.44973,-1.926207 1.230976,-2.567515 z"
         id="left_pectolaris_major" />
      <path
         style="display:inline;fill:none;stroke:#000000;stroke-width:0.2;stroke-linecap:round;stroke-linejoin:round;stroke-dasharray:none;stroke-dashoffset:0;stroke-opacity:1;paint-order:stroke fill markers"
         d="m 35.563383,27.385311 c -2.681048,-0.469779 -5.537367,0.03536 -7.934237,1.313004 -1.092779,1.056391 -1.464357,2.789437 -1.144183,4.201582 1.255807,1.769959 1.315332,4.461619 3.59456,5.366807 1.539151,0.913034 3.253983,0.483804 4.920152,0.339566 1.400701,-0.09482 2.238695,-1.290956 2.141342,-2.642682 0.08247,-2.018594 0.01272,-4.030615 -0.346658,-6.010762 -0.287534,-0.907091 -0.44973,-1.926207 -1.230976,-2.567515 z"
         id="right_pectolaris_major" />
    </g>
    <g
       id="rectus_abdominis">
      <g
         id="left_rectus_abdominis"
         style="display:inline">
        <path
           style="fill:none;stroke:#000000;stroke-width:0.2;stroke-linecap:round;stroke-linejoin:round;stroke-dasharray:none;stroke-dashoffset:0;stroke-opacity:1;paint-order:stroke fill markers"
           d="m 38.808363,38.639549 c 1.381616,0.684056 3.361201,0.05712 4.397477,1.307284 0.466816,1.462446 0.148671,3.065981 0.141727,4.582434 -0.775279,1.107991 -1.739659,-0.712352 -2.672956,-0.962633 -0.690742,-0.869446 -2.377412,-0.710323 -2.678285,-1.788304 0.0101,-1.010949 -0.239151,-2.607077 0.812037,-3.138781 z"
           id="left_rectus_abdominis4" />
        <path
           style="fill:none;stroke:#000000;stroke-width:0.2;stroke-linecap:round;stroke-linejoin:round;stroke-dasharray:none;stroke-dashoffset:0;stroke-opacity:1;paint-order:stroke fill markers"
           d="m 37.983052,43.047459 c 1.093826,-0.67499 2.237083,0.761678 3.207231,1.24566 0.794956,0.839423 2.290112,1.32382 1.975921,2.736263 0.463039,1.528601 -0.924091,1.56189 -2.018742,1.165651 -0.930336,-0.50997 -2.579137,0.225241 -3.129302,-0.9386 -0.129764,-1.391852 0.01501,-2.808413 -0.03511,-4.208974 z"
           id="left_rectus_abdominis3" />
        <path
           style="fill:none;stroke:#000000;stroke-width:0.2;stroke-linecap:round;stroke-linejoin:round;stroke-dasharray:none;stroke-dashoffset:0;stroke-opacity:1;paint-order:stroke fill markers"
           d="m 38.05808,52.032092 c 0.550367,1.493704 2.302708,0.659936 3.476261,0.806554 1.474885,0.191665 1.864816,-1.559302 1.762199,-2.718178 -0.107701,-1.383806 -1.87142,-1.682989 -3.043885,-1.670974 -0.789336,-0.386585 -2.76381,-0.724356 -2.283397,0.765839 0.01007,0.940803 -0.02648,1.878141 0.08882,2.816759 z"
           id="left_rectus_abdominis2" />
        <path
           style="fill:none;stroke:#000000;stroke-width:0.2;stroke-linecap:round;stroke-linejoin:round;stroke-dasharray:none;stroke-dashoffset:0;stroke-opacity:1;paint-order:stroke fill markers"
           d="m 38.658306,53.307572 c 1.371454,-0.127542 2.749779,0.03513 4.126554,-0.05628 1.119868,1.110844 4e-4,2.830744 -0.173936,4.152579 -0.185034,1.112644 -0.608399,2.248758 -0.883284,3.073917 -0.241382,1.050448 -0.65309,2.126615 -1.175765,3.08528 -0.522104,0.987913 -1.344131,1.722734 -2.062376,2.555569 -0.96583,-0.430891 -0.261172,-2.211153 -0.462474,-3.207355 0.06127,-2.776196 -0.01008,-5.552191 -0.04397,-8.328242 0.427299,-0.388346 0.963236,-0.564319 0.675253,-1.275468 z"
           id="left_rectus_abdominis1" />
      </g>
      <g
         id="right_rectus_abdominis"
         transform="matrix(-1,0,0,1,75.290842,0)"
         style="display:inline">
        <path
           style="fill:none;stroke:#000000;stroke-width:0.2;stroke-linecap:round;stroke-linejoin:round;stroke-dasharray:none;stroke-dashoffset:0;stroke-opacity:1;paint-order:stroke fill markers"
           d="m 38.808363,38.639549 c 1.381616,0.684056 3.361201,0.05712 4.397477,1.307284 0.466816,1.462446 0.148671,3.065981 0.141727,4.582434 -0.775279,1.107991 -1.739659,-0.712352 -2.672956,-0.962633 -0.690742,-0.869446 -2.377412,-0.710323 -2.678285,-1.788304 0.0101,-1.010949 -0.239151,-2.607077 0.812037,-3.138781 z"
           id="right_rectus_abdominis4" />
        <path
           style="fill:none;stroke:#000000;stroke-width:0.2;stroke-linecap:round;stroke-linejoin:round;stroke-dasharray:none;stroke-dashoffset:0;stroke-opacity:1;paint-order:stroke fill markers"
           d="m 37.983052,43.047459 c 1.093826,-0.67499 2.237083,0.761678 3.207231,1.24566 0.794956,0.839423 2.290112,1.32382 1.975921,2.736263 0.463039,1.528601 -0.924091,1.56189 -2.018742,1.165651 -0.930336,-0.50997 -2.579137,0.225241 -3.129302,-0.9386 -0.129764,-1.391852 0.01501,-2.808413 -0.03511,-4.208974 z"
           id="right_rectus_abdominis3" />
        <path
           style="fill:none;stroke:#000000;stroke-width:0.2;stroke-linecap:round;stroke-linejoin:round;stroke-dasharray:none;stroke-dashoffset:0;stroke-opacity:1;paint-order:stroke fill markers"
           d="m 38.05808,52.032092 c 0.550367,1.493704 2.302708,0.659936 3.476261,0.806554 1.474885,0.191665 1.864816,-1.559302 1.762199,-2.718178 -0.107701,-1.383806 -1.87142,-1.682989 -3.043885,-1.670974 -0.789336,-0.386585 -2.76381,-0.724356 -2.283397,0.765839 0.01007,0.940803 -0.02648,1.878141 0.08882,2.816759 z"
           id="right_rectus_abdominis2" />
        <path
           style="fill:none;stroke:#000000;stroke-width:0.2;stroke-linecap:round;stroke-linejoin:round;stroke-dasharray:none;stroke-dashoffset:0;stroke-opacity:1;paint-order:stroke fill markers"
           d="m 38.658306,53.307572 c 1.371454,-0.127542 2.749779,0.03513 4.126554,-0.05628 1.119868,1.110844 4e-4,2.830744 -0.173936,4.152579 -0.185034,1.112644 -0.608399,2.248758 -0.883284,3.073917 -0.241382,1.050448 -0.65309,2.126615 -1.175765,3.08528 -0.522104,0.987913 -1.344131,1.722734 -2.062376,2.555569 -0.96583,-0.430891 -0.261172,-2.211153 -0.462474,-3.207355 0.06127,-2.776196 -0.01008,-5.552191 -0.04397,-8.328242 0.427299,-0.388346 0.963236,-0.564319 0.675253,-1.275468 z"
           id="right_rectus_abdominis1" />
      </g>
    </g>
    <g
       id="external_abdominal_oblique">
      <g
         id="left_external_abdominal_oblique"
         style="display:inline">
        <path
           style="fill:none;stroke:#000000;stroke-width:0.2;stroke-linecap:round;stroke-linejoin:round;stroke-dasharray:none;stroke-dashoffset:0;stroke-opacity:1;paint-order:stroke fill markers"
           d="m 44.604295,39.614916 c 1.128055,0.229716 2.786304,0.04114 2.68226,-1.481801 0.0465,-1.707738 -1.25527,0.46693 -2.00884,0.486574 -0.372341,0.364718 -2.185055,0.555743 -0.67342,0.995227 z"
           id="left_external_abdominal_oblique7" />
        <path
           style="fill:none;stroke:#000000;stroke-width:0.2;stroke-linecap:round;stroke-linejoin:round;stroke-dasharray:none;stroke-dashoffset:0;stroke-opacity:1;paint-order:stroke fill markers"
           d="m 44.37921,40.252656 c 0.607054,0.428067 2.039885,1.823031 2.475419,0.797593 0.486287,-1.475025 -0.438265,-1.238547 -1.537566,-1.022673 -0.22518,-0.06673 -1.482952,-0.335055 -0.937853,0.22508 z"
           id="left_external_abdominal_oblique6" />
        <path
           style="fill:none;stroke:#000000;stroke-width:0.2;stroke-linecap:round;stroke-linejoin:round;stroke-dasharray:none;stroke-dashoffset:0;stroke-opacity:1;paint-order:stroke fill markers"
           d="m 43.891527,40.515255 c -0.212839,0.963298 -0.555992,2.802028 1.012877,2.494688 0.876582,-0.209085 2.501981,-1.255157 0.765405,-1.521884 -0.701945,-0.07789 -1.109945,-1.141231 -1.778282,-0.972804 z"
           id="left_external_abdominal_oblique5" />
        <path
           style="fill:none;stroke:#000000;stroke-width:0.2;stroke-linecap:round;stroke-linejoin:round;stroke-dasharray:none;stroke-dashoffset:0;stroke-opacity:1;paint-order:stroke fill markers"
           d="m 43.910284,43.460114 c 0.957855,0.266472 2.238919,-1.248481 2.782101,-0.27042 0.460334,1.26705 -0.670931,1.886569 -1.610523,2.404406 -1.820603,1.005508 -1.389063,-1.082825 -1.171578,-2.133986 z"
           id="left_external_abdominal_oblique4" />
        <path
           style="fill:none;stroke:#000000;stroke-width:0.2;stroke-linecap:round;stroke-linejoin:round;stroke-dasharray:none;stroke-dashoffset:0;stroke-opacity:1;paint-order:stroke fill markers"
           d="m 43.628928,46.536272 c 0.127671,0.842352 -0.62926,3.066046 0.802894,2.683722 0.8813,-0.701411 1.710498,-1.561616 2.704672,-2.12101 0.332318,-0.954297 0.01141,-2.944576 -1.204441,-1.699878 -0.660131,0.582375 -1.584333,0.667227 -2.303125,1.137166 z"
           id="left_external_abdominal_oblique3" />
        <path
           style="fill:none;stroke:#000000;stroke-width:0.2;stroke-linecap:round;stroke-linejoin:round;stroke-dasharray:none;stroke-dashoffset:0;stroke-opacity:1;paint-order:stroke fill markers"
           d="m 47.005199,47.530397 c 0.24193,1.032196 0.441957,2.407888 -0.681315,2.977756 -0.547421,0.566141 -1.671375,2.026298 -2.399117,1.071203 -0.344142,-1.162947 -0.04267,-2.108983 1.119339,-2.397372 0.705518,-0.467639 1.21505,-1.252243 1.961093,-1.651587 z"
           id="left_external_abdominal_oblique2" />
        <path
           style="fill:none;stroke:#000000;stroke-width:0.2;stroke-linecap:round;stroke-linejoin:round;stroke-dasharray:none;stroke-dashoffset:0;stroke-opacity:1;paint-order:stroke fill markers"
           d="m 47.230284,50.231414 c 0.520504,1.479193 0.67802,3.024195 0.327954,4.551483 0.253658,1.058918 0.357038,2.114095 -0.744251,2.764662 -0.898959,0.60457 -1.539656,1.95732 -2.40333,2.246588 -1.215522,-0.612325 -0.695387,-2.203227 -1.068289,-3.247579 0.008,-1.168546 0.419283,-2.21305 0.6617,-3.332781 0.663337,-1.134101 2.041576,-1.689836 2.802658,-2.757358 0.141186,-0.075 0.282372,-0.15001 0.423558,-0.225015 z"
           id="left_external_abdominal_oblique1" />
      </g>
      <g
         id="right_external_abdominal_oblique"
         transform="matrix(-1,0,0,1,75.290842,0)"
         style="display:inline">
        <path
           style="fill:none;stroke:#000000;stroke-width:0.2;stroke-linecap:round;stroke-linejoin:round;stroke-dasharray:none;stroke-dashoffset:0;stroke-opacity:1;paint-order:stroke fill markers"
           d="m 44.604295,39.614916 c 1.128055,0.229716 2.786304,0.04114 2.68226,-1.481801 0.0465,-1.707738 -1.25527,0.46693 -2.00884,0.486574 -0.372341,0.364718 -2.185055,0.555743 -0.67342,0.995227 z"
           id="right_external_abdominal_oblique7" />
        <path
           style="fill:none;stroke:#000000;stroke-width:0.2;stroke-linecap:round;stroke-linejoin:round;stroke-dasharray:none;stroke-dashoffset:0;stroke-opacity:1;paint-order:stroke fill markers"
           d="m 44.37921,40.252656 c 0.607054,0.428067 2.039885,1.823031 2.475419,0.797593 0.486287,-1.475025 -0.438265,-1.238547 -1.537566,-1.022673 -0.22518,-0.06673 -1.482952,-0.335055 -0.937853,0.22508 z"
           id="right_external_abdominal_oblique6" />
        <path
           style="fill:none;stroke:#000000;stroke-width:0.2;stroke-linecap:round;stroke-linejoin:round;stroke-dasharray:none;stroke-dashoffset:0;stroke-opacity:1;paint-order:stroke fill markers"
           d="m 43.891527,40.515255 c -0.212839,0.963298 -0.555992,2.802028 1.012877,2.494688 0.876582,-0.209085 2.501981,-1.255157 0.765405,-1.521884 -0.701945,-0.07789 -1.109945,-1.141231 -1.778282,-0.972804 z"
           id="right_external_abdominal_oblique5" />
        <path
           style="fill:none;stroke:#000000;stroke-width:0.2;stroke-linecap:round;stroke-linejoin:round;stroke-dasharray:none;stroke-dashoffset:0;stroke-opacity:1;paint-order:stroke fill markers"
           d="m 43.910284,43.460114 c 0.957855,0.266472 2.238919,-1.248481 2.782101,-0.27042 0.460334,1.26705 -0.670931,1.886569 -1.610523,2.404406 -1.820603,1.005508 -1.389063,-1.082825 -1.171578,-2.133986 z"
           id="right_external_abdominal_oblique4" />
        <path
           style="fill:none;stroke:#000000;stroke-width:0.2;stroke-linecap:round;stroke-linejoin:round;stroke-dasharray:none;stroke-dashoffset:0;stroke-opacity:1;paint-order:stroke fill markers"
           d="m 43.628928,46.536272 c 0.127671,0.842352 -0.62926,3.066046 0.802894,2.683722 0.8813,-0.701411 1.710498,-1.561616 2.704672,-2.12101 0.332318,-0.954297 0.01141,-2.944576 -1.204441,-1.699878 -0.660131,0.582375 -1.584333,0.667227 -2.303125,1.137166 z"
           id="right_external_abdominal_oblique3" />
        <path
           style="fill:none;stroke:#000000;stroke-width:0.2;stroke-linecap:round;stroke-linejoin:round;stroke-dasharray:none;stroke-dashoffset:0;stroke-opacity:1;paint-order:stroke fill markers"
           d="m 47.005199,47.530397 c 0.24193,1.032196 0.441957,2.407888 -0.681315,2.977756 -0.547421,0.566141 -1.671375,2.026298 -2.399117,1.071203 -0.344142,-1.162947 -0.04267,-2.108983 1.119339,-2.397372 0.705518,-0.467639 1.21505,-1.252243 1.961093,-1.651587 z"
           id="right_external_abdominal_oblique2" />
        <path
           style="fill:none;stroke:#000000;stroke-width:0.2;stroke-linecap:round;stroke-linejoin:round;stroke-dasharray:none;stroke-dashoffset:0;stroke-opacity:1;paint-order:stroke fill markers"
           d="m 47.230284,50.231414 c 0.520504,1.479193 0.67802,3.024195 0.327954,4.551483 0.253658,1.058918 0.357038,2.114095 -0.744251,2.764662 -0.898959,0.60457 -1.539656,1.95732 -2.40333,2.246588 -1.215522,-0.612325 -0.695387,-2.203227 -1.068289,-3.247579 0.008,-1.168546 0.419283,-2.21305 0.6617,-3.332781 0.663337,-1.134101 2.041576,-1.689836 2.802658,-2.757358 0.141186,-0.075 0.282372,-0.15001 0.423558,-0.225015 z"
           id="right_external_abdominal_oblique1" />
      </g>
    </g>
    <g
       id="adductor_longus">
      <path
         style="display:inline;fill:none;stroke:#000000;stroke-width:0.2;stroke-linecap:round;stroke-linejoin:round;stroke-dasharray:none;stroke-dashoffset:0;stroke-opacity:1;paint-order:stroke fill markers"
         d="m 41.396837,64.449267 c 0.584471,-1.54667 1.676933,-1.287533 1.463042,0.356384 0.310111,1.059668 1.088005,1.881066 0.56271,3.019887 -0.433818,1.574659 -0.993376,-0.132001 -1.350516,-0.844063 -0.171618,-0.71886 -0.807712,-1.630415 -0.675236,-2.532208 z"
         id="left_adductor_longus" />
      <path
         style="display:inline;fill:none;stroke:#000000;stroke-width:0.2;stroke-linecap:round;stroke-linejoin:round;stroke-dasharray:none;stroke-dashoffset:0;stroke-opacity:1;paint-order:stroke fill markers"
         d="m 33.894005,64.449267 c -0.584471,-1.54667 -1.676933,-1.287533 -1.463042,0.356384 -0.310111,1.059668 -1.088005,1.881066 -0.56271,3.019887 0.433818,1.574659 0.993376,-0.132001 1.350516,-0.844063 0.171618,-0.71886 0.807712,-1.630415 0.675236,-2.532208 z"
         id="right_adductor_longus" />
    </g>
    <g
       id="tensor_fasciae_latae">
      <path
         style="display:inline;fill:none;stroke:#000000;stroke-width:0.2;stroke-linecap:round;stroke-linejoin:round;stroke-dasharray:none;stroke-dashoffset:0;stroke-opacity:1;paint-order:stroke fill markers"
         d="m 47.792996,57.190284 c 0.947307,1.704715 0.992781,3.770445 1.332266,5.663356 0.192274,2.562794 1.202518,5.081705 0.899835,7.672915 -1.145448,-0.142866 -0.353354,-2.037447 -1.128639,-2.662426 -0.68822,-1.331387 -0.737373,-2.915031 -1.335209,-4.262683 C 47.30491,62.175074 46.533095,60.700499 47.250195,59.279591 47.46,58.602123 46.906327,57.513868 47.792996,57.190284 Z"
         id="left_tensor_fasciae_latae" />
      <path
         style="display:inline;fill:none;stroke:#000000;stroke-width:0.2;stroke-linecap:round;stroke-linejoin:round;stroke-dasharray:none;stroke-dashoffset:0;stroke-opacity:1;paint-order:stroke fill markers"
         d="m 27.497846,57.190284 c -0.947307,1.704715 -0.992781,3.770445 -1.332266,5.663356 -0.192274,2.562794 -1.202518,5.081705 -0.899835,7.672915 1.145448,-0.142866 0.353354,-2.037447 1.128639,-2.662426 0.68822,-1.331387 0.737373,-2.915031 1.335209,-4.262683 0.256339,-1.426372 1.028154,-2.900947 0.311054,-4.321855 -0.209805,-0.677468 0.343868,-1.765723 -0.542801,-2.089307 z"
         id="right_tensor_fasciae_latae" />
    </g>
    <g
       id="pectineus">
      <path
         style="display:inline;fill:none;stroke:#000000;stroke-width:0.2;stroke-linecap:round;stroke-linejoin:round;stroke-dasharray:none;stroke-dashoffset:0;stroke-opacity:1;paint-order:stroke fill markers"
         d="m 42.691074,62.892431 c 0.494904,-1.726077 2.144504,-1.966676 1.631864,0.06868 0.154946,0.891355 0.420905,2.397167 -0.46166,2.839812 -0.907675,-0.174537 -0.66039,-1.884893 -1.060286,-2.708641 l -0.09641,-0.175289 z"
         id="left_pectineus" />
      <path
         style="display:inline;fill:none;stroke:#000000;stroke-width:0.2;stroke-linecap:round;stroke-linejoin:round;stroke-dasharray:none;stroke-dashoffset:0;stroke-opacity:1;paint-order:stroke fill markers"
         d="m 32.599768,62.892431 c -0.494904,-1.726077 -2.144504,-1.966676 -1.631864,0.06868 -0.154946,0.891355 -0.420905,2.397167 0.46166,2.839812 0.907675,-0.174537 0.66039,-1.884893 1.060286,-2.708641 l 0.09641,-0.175289 z"
         id="right_pectineus" />
    </g>
    <g
       id="iliopsoas">
      <path
         style="display:inline;fill:none;stroke:#000000;stroke-width:0.2;stroke-linecap:round;stroke-linejoin:round;stroke-dasharray:none;stroke-dashoffset:0;stroke-opacity:1;paint-order:stroke fill markers"
         d="m 45.579662,59.534917 c 0.720008,0.924393 -0.533748,1.776081 -0.450169,2.701017 -0.568667,1.840784 -0.621282,-0.05378 -0.63775,-0.956605 -0.340084,-0.711798 0.570083,-1.407213 1.087919,-1.744412 z"
         id="left_iliopsoas" />
      <path
         style="display:inline;fill:none;stroke:#000000;stroke-width:0.2;stroke-linecap:round;stroke-linejoin:round;stroke-dasharray:none;stroke-dashoffset:0;stroke-opacity:1;paint-order:stroke fill markers"
         d="m 29.71118,59.534917 c -0.720008,0.924393 0.533748,1.776081 0.450169,2.701017 0.568667,1.840784 0.621282,-0.05378 0.63775,-0.956605 0.340084,-0.711798 -0.570083,-1.407213 -1.087919,-1.744412 z"
         id="right_iliopsoas" />
    </g>
    <g
       id="gracilis">
      <path
         style="display:inline;fill:none;stroke:#000000;stroke-width:0.2;stroke-linecap:round;stroke-linejoin:round;stroke-dasharray:none;stroke-dashoffset:0;stroke-opacity:1;paint-order:stroke fill markers"
         d="m 38.649099,69.764675 c 0.752116,-0.772514 1.80971,-1.931843 1.512007,-0.02432 -0.07085,1.174574 -0.491333,2.248636 -0.35308,3.449895 -0.09453,1.229048 -0.0041,2.444223 0.3796,3.538733 0.525954,1.423381 -0.393122,2.813787 -0.132626,4.282926 0.02218,1.396319 -0.565435,-1.474295 -0.59698,-1.991136 -0.66304,-3.02724 -1.028813,-6.147435 -0.808921,-9.256098 z"
         id="left_gracilis" />
      <path
         style="display:inline;fill:none;stroke:#000000;stroke-width:0.2;stroke-linecap:round;stroke-linejoin:round;stroke-dasharray:none;stroke-dashoffset:0;stroke-opacity:1;paint-order:stroke fill markers"
         d="m 36.641743,69.764675 c -0.752116,-0.772514 -1.80971,-1.931843 -1.512007,-0.02432 0.07085,1.174574 0.491333,2.248636 0.35308,3.449895 0.09453,1.229048 0.0041,2.444223 -0.3796,3.538733 -0.525954,1.423381 0.393122,2.813787 0.132626,4.282926 -0.02218,1.396319 0.565435,-1.474295 0.59698,-1.991136 0.66304,-3.02724 1.028813,-6.147435 0.808921,-9.256098 z"
         id="right_gracilis" />
    </g>
    <g
       id="rectus_femoris">
      <path
         style="display:inline;fill:none;stroke:#000000;stroke-width:0.2;stroke-linecap:round;stroke-linejoin:round;stroke-dasharray:none;stroke-dashoffset:0;stroke-opacity:1;paint-order:stroke fill markers"
         d="m 45.652093,85.707097 c 1.185394,-1.360292 1.299215,-3.347287 2.180952,-4.912921 0.958316,-2.109881 0.837977,-4.475433 1.200184,-6.71954 -0.426926,-1.570877 -0.155793,-3.229958 -0.753768,-4.782863 -0.0031,-1.166695 -0.126101,-2.313197 -0.399146,-3.453019 -0.251116,-1.180877 -0.567999,-2.362053 -1.008007,-3.501497 -0.669291,2.756921 -1.265477,5.517433 -2.143058,8.23648 -0.358223,1.532526 -0.859261,3.018588 -1.491067,4.46971 -0.619983,1.881601 0.504318,3.786414 0.159166,5.703196 0.811031,1.552679 0.480835,3.70842 1.779987,4.974685 0.152563,0.143417 0.315616,0.01364 0.474757,-0.01423 z"
         id="left_rectus_femoris" />
      <path
         style="display:inline;fill:none;stroke:#000000;stroke-width:0.2;stroke-linecap:round;stroke-linejoin:round;stroke-dasharray:none;stroke-dashoffset:0;stroke-opacity:1;paint-order:stroke fill markers"
         d="m 29.638749,85.707097 c -1.185394,-1.360292 -1.299215,-3.347287 -2.180952,-4.912921 -0.958316,-2.109881 -0.837977,-4.475433 -1.200184,-6.71954 0.426926,-1.570877 0.155793,-3.229958 0.753768,-4.782863 0.0031,-1.166695 0.126101,-2.313197 0.399146,-3.453019 0.251116,-1.180877 0.567999,-2.362053 1.008007,-3.501497 0.669291,2.756921 1.265477,5.517433 2.143058,8.23648 0.358223,1.532526 0.859261,3.018588 1.491067,4.46971 0.619983,1.881601 -0.504318,3.786414 -0.159166,5.703196 -0.811031,1.552679 -0.480835,3.70842 -1.779987,4.974685 -0.152563,0.143417 -0.315616,0.01364 -0.474757,-0.01423 z"
         id="right_rectus_femoris" />
    </g>
    <g
       id="vastus_medialis">
      <path
         style="display:inline;fill:none;stroke:#000000;stroke-width:0.2;stroke-linecap:round;stroke-linejoin:round;stroke-dasharray:none;stroke-dashoffset:0;stroke-opacity:1;paint-order:stroke fill markers"
         d="m 43.609553,88.996382 c 0.753576,-1.232353 0.783479,-2.96123 0.493825,-4.327449 -0.507208,-1.299301 -0.653618,-2.812943 -0.944782,-4.107976 0.113457,-1.324162 -0.237856,-2.610893 -0.318318,-3.925921 -0.577598,0.722989 -0.683941,1.964448 -0.822321,2.905755 -0.251993,1.574876 -0.627328,3.093369 -0.801217,4.700423 -0.293914,1.251641 -0.896233,2.796296 0.336136,3.778841 0.537204,0.45593 1.301658,1.201112 2.056677,0.976327 z"
         id="left_vastus_medialis" />
      <path
         style="display:inline;fill:none;stroke:#000000;stroke-width:0.2;stroke-linecap:round;stroke-linejoin:round;stroke-dasharray:none;stroke-dashoffset:0;stroke-opacity:1;paint-order:stroke fill markers"
         d="m 31.681289,88.996382 c -0.753576,-1.232353 -0.783479,-2.96123 -0.493825,-4.327449 0.507208,-1.299301 0.653618,-2.812943 0.944782,-4.107976 -0.113457,-1.324162 0.237856,-2.610893 0.318318,-3.925921 0.577598,0.722989 0.683941,1.964448 0.822321,2.905755 0.251993,1.574876 0.627328,3.093369 0.801217,4.700423 0.293914,1.251641 0.896233,2.796296 -0.336136,3.778841 -0.537204,0.45593 -1.301658,1.201112 -2.056677,0.976327 z"
         id="right_vastus_medialis" />
    </g>
    <g
       id="vastus_lateralis">
      <path
         style="display:inline;fill:none;stroke:#000000;stroke-width:0.2;stroke-linecap:round;stroke-linejoin:round;stroke-dasharray:none;stroke-dashoffset:0;stroke-opacity:1;paint-order:stroke fill markers"
         d="m 48.596534,68.093506 c 0.892691,0.767485 0.146154,2.553547 1.485487,3.02402 0.500141,1.425629 0.180897,3.078849 -0.01633,4.545569 -0.325551,1.183978 -0.344214,2.416971 -0.187814,3.607308 -0.156384,1.157633 0.02351,2.274387 -0.383417,3.382951 -0.902638,1.859267 -1.268561,4.039314 -2.489513,5.785971 -0.943345,-0.461645 -0.329818,-2.218313 -0.385053,-3.182235 0.397771,-2.655654 2.193372,-4.869707 2.335722,-7.563706 0.171463,-1.751874 0.655099,-3.499235 0.06535,-5.223007 0.474335,-1.509634 -0.734379,-2.910986 -0.424436,-4.376871 z"
         id="left_vastus_lateralis" />
      <path
         style="display:inline;fill:none;stroke:#000000;stroke-width:0.2;stroke-linecap:round;stroke-linejoin:round;stroke-dasharray:none;stroke-dashoffset:0;stroke-opacity:1;paint-order:stroke fill markers"
         d="m 26.694308,68.093506 c -0.892691,0.767485 -0.146154,2.553547 -1.485487,3.02402 -0.500141,1.425629 -0.180897,3.078849 0.01633,4.545569 0.325551,1.183978 0.344214,2.416971 0.187814,3.607308 0.156384,1.157633 -0.02351,2.274387 0.383417,3.382951 0.902638,1.859267 1.268561,4.039314 2.489513,5.785971 0.943345,-0.461645 0.329818,-2.218313 0.385053,-3.182235 -0.397771,-2.655654 -2.193372,-4.869707 -2.335722,-7.563706 -0.171463,-1.751874 -0.655099,-3.499235 -0.06535,-5.223007 -0.474335,-1.509634 0.734379,-2.910986 0.424436,-4.376871 z"
         id="right_vastus_lateralis" />
    </g>
    <g
       id="sartorius">
      <g
         id="left_sartorius"
         style="display:inline">
        <path
           style="fill:none;stroke:#000000;stroke-width:0.2;stroke-linecap:round;stroke-linejoin:round;stroke-dasharray:none;stroke-dashoffset:0;stroke-opacity:1;paint-order:stroke fill markers"
           d="m 46.930171,58.447007 c 0.156952,1.05125 -0.382681,2.035001 -0.274579,3.125794 -0.34232,2.402158 -1.210258,4.706031 -1.640128,7.104288 -0.303077,1.068039 -0.767723,2.086232 -0.928427,3.093645 -0.393276,1.172566 -0.871932,2.318738 -1.246748,3.511451 -0.306037,0.977896 -0.613391,1.883474 -0.87455,2.906022 -0.415058,1.54327 -0.537678,3.171824 -0.902823,4.734928 -9.21e-4,0.666447 -0.494635,3.264263 -0.570273,1.337608 0.134397,-1.735767 -0.376256,-3.46817 -0.119322,-5.185269 0.376466,-1.06566 0.300386,-2.254884 0.519534,-3.372171 0.42612,-2.122693 1.353832,-4.092754 2.008989,-6.142747 0.73504,-1.119865 1.026585,-2.381194 1.397396,-3.642223 0.862977,-1.016393 0.40681,-2.61647 1.095439,-3.796546 0.610014,-0.97519 0.810872,-2.08179 1.000157,-3.153395 0.114517,-0.268984 0.236078,-0.453337 0.535335,-0.521385 z"
           id="left_sartorius1" />
        <path
           style="fill:none;stroke:#000000;stroke-width:0.2;stroke-linecap:round;stroke-linejoin:round;stroke-dasharray:none;stroke-dashoffset:0;stroke-opacity:1;paint-order:stroke fill markers"
           d="m 41.275222,88.227113 c 0.357294,1.483347 1.943541,2.763481 1.326325,4.376872 0.840405,1.843048 -0.976507,1.284949 -0.795795,-0.149205 -1.099153,-1.0953 -0.124016,-2.709476 -0.663161,-4.015455 l 0.106026,-0.169644 z"
           id="left_sartorius2" />
      </g>
      <g
         id="right_sartorius"
         transform="matrix(-1,0,0,1,75.290842,0)"
         style="display:inline">
        <path
           style="fill:none;stroke:#000000;stroke-width:0.2;stroke-linecap:round;stroke-linejoin:round;stroke-dasharray:none;stroke-dashoffset:0;stroke-opacity:1;paint-order:stroke fill markers"
           d="m 46.930171,58.447007 c 0.156952,1.05125 -0.382681,2.035001 -0.274579,3.125794 -0.34232,2.402158 -1.210258,4.706031 -1.640128,7.104288 -0.303077,1.068039 -0.767723,2.086232 -0.928427,3.093645 -0.393276,1.172566 -0.871932,2.318738 -1.246748,3.511451 -0.306037,0.977896 -0.613391,1.883474 -0.87455,2.906022 -0.415058,1.54327 -0.537678,3.171824 -0.902823,4.734928 -9.21e-4,0.666447 -0.494635,3.264263 -0.570273,1.337608 0.134397,-1.735767 -0.376256,-3.46817 -0.119322,-5.185269 0.376466,-1.06566 0.300386,-2.254884 0.519534,-3.372171 0.42612,-2.122693 1.353832,-4.092754 2.008989,-6.142747 0.73504,-1.119865 1.026585,-2.381194 1.397396,-3.642223 0.862977,-1.016393 0.40681,-2.61647 1.095439,-3.796546 0.610014,-0.97519 0.810872,-2.08179 1.000157,-3.153395 0.114517,-0.268984 0.236078,-0.453337 0.535335,-0.521385 z"
           id="right_sartorius1" />
        <path
           style="fill:none;stroke:#000000;stroke-width:0.2;stroke-linecap:round;stroke-linejoin:round;stroke-dasharray:none;stroke-dashoffset:0;stroke-opacity:1;paint-order:stroke fill markers"
           d="m 41.275222,88.227113 c 0.357294,1.483347 1.943541,2.763481 1.326325,4.376872 0.840405,1.843048 -0.976507,1.284949 -0.795795,-0.149205 -1.099153,-1.0953 -0.124016,-2.709476 -0.663161,-4.015455 l 0.106026,-0.169644 z"
           id="right_sartorius2" />
      </g>
    </g>
    <g
       id="gastrocnemius">
      <path
         style="display:inline;fill:none;stroke:#000000;stroke-width:0.2;stroke-linecap:round;stroke-linejoin:round;stroke-dasharray:none;stroke-dashoffset:0;stroke-opacity:1;paint-order:stroke fill markers"
         d="m 42.601547,95.521899 c 0.195485,1.617616 1.341161,2.962355 1.565435,4.558111 0.431009,1.66653 0.445832,3.61048 -0.318689,5.17711 -0.551219,0.45961 -1.709136,2.23727 -2.04254,0.82234 -0.138709,-2.38626 -0.571076,-4.89426 0.220901,-7.202854 0.239945,-1.01967 0.697208,-2.075395 0.336157,-3.169002 l 0.157904,-0.122829 z"
         id="left_gastrocnemius" />
      <path
         style="display:inline;fill:none;stroke:#000000;stroke-width:0.2;stroke-linecap:round;stroke-linejoin:round;stroke-dasharray:none;stroke-dashoffset:0;stroke-opacity:1;paint-order:stroke fill markers"
         d="m 32.689295,95.521899 c -0.195485,1.617616 -1.341161,2.962355 -1.565435,4.558111 -0.431009,1.66653 -0.445832,3.61048 0.318689,5.17711 0.551219,0.45961 1.709136,2.23727 2.04254,0.82234 0.138709,-2.38626 0.571076,-4.89426 -0.220901,-7.202854 -0.239945,-1.01967 -0.697208,-2.075395 -0.336157,-3.169002 l -0.157904,-0.122829 z"
         id="right_gastrocnemius" />
    </g>
    <g
       id="soleus">
      <path
         style="display:inline;fill:none;stroke:#000000;stroke-width:0.2;stroke-linecap:round;stroke-linejoin:round;stroke-dasharray:none;stroke-dashoffset:0;stroke-opacity:1;paint-order:stroke fill markers"
         d="m 43.423868,113.45381 c 0.359516,-1.21706 0.245309,-2.54659 0.55706,-3.79329 -0.233971,-1.31788 0.29496,-2.83572 -0.159159,-4.03203 -0.394226,0.98391 -2.050446,0.9713 -1.540491,2.1602 0.389439,1.07598 0.630368,2.0521 0.665115,3.19817 0.407127,0.68054 -0.275713,2.25492 0.477475,2.46695 z"
         id="left_soleus" />
      <path
         style="display:inline;fill:none;stroke:#000000;stroke-width:0.2;stroke-linecap:round;stroke-linejoin:round;stroke-dasharray:none;stroke-dashoffset:0;stroke-opacity:1;paint-order:stroke fill markers"
         d="m 31.866974,113.45381 c -0.359516,-1.21706 -0.245309,-2.54659 -0.55706,-3.79329 0.233971,-1.31788 -0.29496,-2.83572 0.159159,-4.03203 0.394226,0.98391 2.050446,0.9713 1.540491,2.1602 -0.389439,1.07598 -0.630368,2.0521 -0.665115,3.19817 -0.407127,0.68054 0.275713,2.25492 -0.477475,2.46695 z"
         id="right_soleus" />
    </g>
    <g
       id="tibialis_anterior">
      <path
         style="display:inline;fill:none;stroke:#000000;stroke-width:0.2;stroke-linecap:round;stroke-linejoin:round;stroke-dasharray:none;stroke-dashoffset:0;stroke-opacity:1;paint-order:stroke fill markers"
         d="m 47.402842,92.073455 c 0.82722,0.691366 1.073192,2.036546 1.184553,3.08656 0.536898,1.378581 -0.975669,2.58484 -0.547914,4.036906 0.267435,1.382229 -0.671097,2.637649 -0.291788,4.017659 -0.487399,1.49219 -0.86156,3.01565 -1.087588,4.57692 -0.537398,1.66644 -0.866138,3.50395 -1.565066,5.1583 0.29068,0.93613 -1.030852,2.79368 -0.955416,1.26704 0.307354,-2.55151 0.621291,-5.12699 0.963327,-7.66473 0.552085,-2.28698 0.533134,-4.67092 1.174023,-6.932394 0.263261,-1.901845 0.564614,-3.706662 0.920341,-5.584094 0.149839,-0.650065 -0.159901,-1.378038 0.205528,-1.962167 z"
         id="left_tibialis_anterior" />
      <path
         style="display:inline;fill:none;stroke:#000000;stroke-width:0.2;stroke-linecap:round;stroke-linejoin:round;stroke-dasharray:none;stroke-dashoffset:0;stroke-opacity:1;paint-order:stroke fill markers"
         d="m 27.888,92.073455 c -0.82722,0.691366 -1.073192,2.036546 -1.184553,3.08656 -0.536898,1.378581 0.975669,2.58484 0.547914,4.036906 -0.267435,1.382229 0.671097,2.637649 0.291788,4.017659 0.487399,1.49219 0.86156,3.01565 1.087588,4.57692 0.537398,1.66644 0.866138,3.50395 1.565066,5.1583 -0.29068,0.93613 1.030852,2.79368 0.955416,1.26704 -0.307354,-2.55151 -0.621291,-5.12699 -0.963327,-7.66473 -0.552085,-2.28698 -0.533134,-4.67092 -1.174023,-6.932394 -0.263261,-1.901845 -0.564614,-3.706662 -0.920341,-5.584094 -0.149839,-0.650065 0.159901,-1.378038 -0.205528,-1.962167 z"
         id="right_tibialis_anterior" />
    </g>
    <g
       id="extensor_digitorum_longus">
      <path
         style="display:inline;fill:none;stroke:#000000;stroke-width:0.2;stroke-linecap:round;stroke-linejoin:round;stroke-dasharray:none;stroke-dashoffset:0;stroke-opacity:1;paint-order:stroke fill markers"
         d="m 48.649587,97.3257 c 0.824171,0.699719 -0.07653,2.048411 0.113207,3.06397 -0.09381,2.01223 -0.47696,3.94852 -0.986872,5.88828 -0.468491,2.47638 -1.251864,4.84451 -1.82676,7.30854 -0.498373,0.67453 -0.103615,2.60256 -1.252028,2.30775 -0.01091,-1.16069 0.718054,-2.23803 0.917217,-3.39771 0.73628,-2.26228 1.2738,-4.58065 1.735432,-6.92109 0.354254,-1.19485 0.736653,-2.40911 0.758241,-3.68348 0.318455,-1.28827 0.144156,-2.604967 0.200105,-3.909335 0.02921,-0.259168 0.210685,-0.445181 0.341458,-0.656925 z"
         id="left_extensor_digitorum_longus" />
      <path
         style="display:inline;fill:none;stroke:#000000;stroke-width:0.2;stroke-linecap:round;stroke-linejoin:round;stroke-dasharray:none;stroke-dashoffset:0;stroke-opacity:1;paint-order:stroke fill markers"
         d="m 26.641255,97.3257 c -0.824171,0.699719 0.07653,2.048411 -0.113207,3.06397 0.09381,2.01223 0.47696,3.94852 0.986872,5.88828 0.468491,2.47638 1.251864,4.84451 1.82676,7.30854 0.498373,0.67453 0.103615,2.60256 1.252028,2.30775 0.01091,-1.16069 -0.718054,-2.23803 -0.917217,-3.39771 -0.73628,-2.26228 -1.2738,-4.58065 -1.735432,-6.92109 -0.354254,-1.19485 -0.736653,-2.40911 -0.758241,-3.68348 -0.318455,-1.28827 -0.144156,-2.604967 -0.200105,-3.909335 -0.02921,-0.259168 -0.210685,-0.445181 -0.341458,-0.656925 z"
         id="right_extensor_digitorum_longus_" />
    </g>
    <g
       id="peroneus_longus">
      <path
         style="display:inline;fill:none;stroke:#000000;stroke-width:0.2;stroke-linecap:round;stroke-linejoin:round;stroke-dasharray:none;stroke-dashoffset:0;stroke-opacity:1;paint-order:stroke fill markers"
         d="m 49.339276,98.360234 c 0.129063,1.38902 0.158673,2.758626 -0.03706,4.140016 -0.381454,3.49822 -1.581055,6.91586 -1.78056,10.43351 -0.133841,1.30719 -0.645837,2.69562 -0.543236,4.0746 -0.66206,-1.25018 -0.394333,-2.89448 -0.294854,-4.30532 0.513186,-2.41422 1.063786,-4.81175 1.636165,-7.21719 0.621397,-2.27957 0.633051,-4.75919 0.914643,-7.009052 z"
         id="left_peroneus_longus" />
      <path
         style="display:inline;fill:none;stroke:#000000;stroke-width:0.2;stroke-linecap:round;stroke-linejoin:round;stroke-dasharray:none;stroke-dashoffset:0;stroke-opacity:1;paint-order:stroke fill markers"
         d="m 25.951566,98.360234 c -0.129063,1.38902 -0.158673,2.758626 0.03706,4.140016 0.381454,3.49822 1.581055,6.91586 1.78056,10.43351 0.133841,1.30719 0.645837,2.69562 0.543236,4.0746 0.66206,-1.25018 0.394333,-2.89448 0.294854,-4.30532 -0.513186,-2.41422 -1.063786,-4.81175 -1.636165,-7.21719 -0.621397,-2.27957 -0.633051,-4.75919 -0.914643,-7.009052 z"
         id="right_peroneus_longus" />
    </g>
    <g
       id="brachialis">
      <path
         style="display:inline;fill:none;stroke:#000000;stroke-width:0.2;stroke-linecap:round;stroke-linejoin:round;stroke-dasharray:none;stroke-dashoffset:0;stroke-opacity:1;paint-order:stroke fill markers"
         d="m 49.790226,41.474171 c 0.840444,1.948331 2.087308,3.678668 3.156653,5.504247 -0.613006,0.926437 -0.990439,1.968945 -1.366115,3.010757 -0.70107,-0.280916 -0.394072,-1.938362 -0.623378,-2.758755 -0.0805,-1.926561 -0.981468,-3.828246 -1.16716,-5.756249 z"
         id="left_brachialis" />
      <path
         style="display:inline;fill:none;stroke:#000000;stroke-width:0.2;stroke-linecap:round;stroke-linejoin:round;stroke-dasharray:none;stroke-dashoffset:0;stroke-opacity:1;paint-order:stroke fill markers"
         d="m 25.500616,41.474171 c -0.840444,1.948331 -2.087308,3.678668 -3.156653,5.504247 0.613006,0.926437 0.990439,1.968945 1.366115,3.010757 0.70107,-0.280916 0.394072,-1.938362 0.623378,-2.758755 0.0805,-1.926561 0.981468,-3.828246 1.16716,-5.756249 z"
         id="right_brachialis" />
    </g>
    <g
       id="brachioradialis">
      <path
         style="display:inline;fill:none;stroke:#000000;stroke-width:0.2;stroke-linecap:round;stroke-linejoin:round;stroke-dasharray:none;stroke-dashoffset:0;stroke-opacity:1;paint-order:stroke fill markers"
         d="m 55.533212,44.61756 c 1.148193,1.50714 2.172439,3.138049 2.511184,5.045963 0.491528,2.971202 0.347747,6.038476 0.658725,9.039605 -0.35196,1.085171 0.233501,2.253891 -0.207564,3.267488 -0.620814,-0.280204 -0.218542,-2.037643 -0.813707,-2.763485 -0.877223,-2.83213 -1.549219,-5.721214 -2.453704,-8.528267 -0.07494,-1.236998 -0.871786,-2.421694 -0.238732,-3.660656 0.146429,-1.074875 0.184829,-1.516594 0.543798,-2.400648 z"
         id="left_brachioradialis" />
      <path
         style="display:inline;fill:none;stroke:#000000;stroke-width:0.2;stroke-linecap:round;stroke-linejoin:round;stroke-dasharray:none;stroke-dashoffset:0;stroke-opacity:1;paint-order:stroke fill markers"
         d="m 19.75763,44.61756 c -1.148193,1.50714 -2.172439,3.138049 -2.511184,5.045963 -0.491528,2.971202 -0.347747,6.038476 -0.658725,9.039605 0.35196,1.085171 -0.233501,2.253891 0.207564,3.267488 0.620814,-0.280204 0.218542,-2.037643 0.813707,-2.763485 0.877223,-2.83213 1.549219,-5.721214 2.453704,-8.528267 0.07494,-1.236998 0.871786,-2.421694 0.238732,-3.660656 -0.146429,-1.074875 -0.184829,-1.516594 -0.543798,-2.400648 z"
         id="right_brachioradialis" />
    </g>
    <g
       id="pronator_teres">
      <path
         style="display:inline;fill:none;stroke:#000000;stroke-width:0.2;stroke-linecap:round;stroke-linejoin:round;stroke-dasharray:none;stroke-dashoffset:0;stroke-opacity:1;paint-order:stroke fill markers"
         d="m 53.039721,47.575264 c 1.527341,0.331317 1.733471,2.316854 2.08233,3.607603 0.605265,2.084692 1.183497,4.173489 1.77728,6.246989 0.415379,1.663963 1.297643,3.397178 1.034529,5.093086 -0.941971,0.03327 -0.788663,-1.733581 -1.223258,-2.510714 -0.736858,-1.721386 -1.268423,-3.590243 -1.943985,-5.266274 -0.69194,-1.495205 -1.118983,-3.118347 -1.899313,-4.597624 -0.643924,-0.821821 -0.499789,-1.964841 0.131022,-2.525301 z"
         id="left_pronator_teres" />
      <path
         style="display:inline;fill:none;stroke:#000000;stroke-width:0.2;stroke-linecap:round;stroke-linejoin:round;stroke-dasharray:none;stroke-dashoffset:0;stroke-opacity:1;paint-order:stroke fill markers"
         d="m 22.251121,47.575264 c -1.527341,0.331317 -1.733471,2.316854 -2.08233,3.607603 -0.605265,2.084692 -1.183497,4.173489 -1.77728,6.246989 -0.415379,1.663963 -1.297643,3.397178 -1.034529,5.093086 0.941971,0.03327 0.788663,-1.733581 1.223258,-2.510714 0.736858,-1.721386 1.268423,-3.590243 1.943985,-5.266274 0.69194,-1.495205 1.118983,-3.118347 1.899313,-4.597624 0.643924,-0.821821 0.499789,-1.964841 -0.131022,-2.525301 z"
         id="right_pronator_teres" />
    </g>
    <g
       id="flexor_fasciae_latae">
      <path
         style="display:inline;fill:none;stroke:#000000;stroke-width:0.2;stroke-linecap:round;stroke-linejoin:round;stroke-dasharray:none;stroke-dashoffset:0;stroke-opacity:1;paint-order:stroke fill markers"
         d="m 51.885819,49.975912 c 0.994698,-0.05563 0.952399,1.453909 1.47873,2.095348 0.824402,2.451725 1.991284,4.789566 2.733326,7.282346 0.450841,1.021985 0.979866,2.356359 0.590849,3.413356 -0.76795,0.08031 -0.963076,-1.679268 -1.380385,-2.363689 -1.311837,-2.560576 -2.11366,-5.319237 -3.276624,-7.947134 -0.189895,-0.910864 -0.733586,-1.665749 -0.145896,-2.480227 z"
         id="left_flexor_fasciae_latae" />
      <path
         style="display:inline;fill:none;stroke:#000000;stroke-width:0.2;stroke-linecap:round;stroke-linejoin:round;stroke-dasharray:none;stroke-dashoffset:0;stroke-opacity:1;paint-order:stroke fill markers"
         d="m 23.405023,49.975912 c -0.994698,-0.05563 -0.952399,1.453909 -1.47873,2.095348 -0.824402,2.451725 -1.991284,4.789566 -2.733326,7.282346 -0.450841,1.021985 -0.979866,2.356359 -0.590849,3.413356 0.76795,0.08031 0.963076,-1.679268 1.380385,-2.363689 1.311837,-2.560576 2.11366,-5.319237 3.276624,-7.947134 0.189895,-0.910864 0.733586,-1.665749 0.145896,-2.480227 z"
         id="right_flexor_fasciae_latae" />
    </g>
  </g>
</svg>
