<?xml version="1.0" encoding="UTF-8" standalone="no"?>
<!-- Created with Inkscape (http://www.inkscape.org/) -->

<svg
   width="30.301001"
   height="64.68"
   viewBox="0 0 30.300996 64.680007"
   version="1.1"
   id="svg1"
   inkscape:version="1.4.2 (f4327f4, 2025-05-13)"
   sodipodi:docname="source-male-front.svg"
   inkscape:export-filename="male_front.svg"
   inkscape:export-xdpi="96"
   inkscape:export-ydpi="96"
   xmlns:inkscape="http://www.inkscape.org/namespaces/inkscape"
   xmlns:sodipodi="http://sodipodi.sourceforge.net/DTD/sodipodi-0.dtd"
   xmlns="http://www.w3.org/2000/svg"
   xmlns:svg="http://www.w3.org/2000/svg"
   xmlns:rdf="http://www.w3.org/1999/02/22-rdf-syntax-ns#"
   xmlns:cc="http://creativecommons.org/ns#"
   xmlns:dc="http://purl.org/dc/elements/1.1/">
  <title
     id="title1">Male Front</title>
  <sodipodi:namedview
     id="namedview1"
     pagecolor="#ffffff"
     bordercolor="#111111"
     borderopacity="1"
     inkscape:showpageshadow="0"
     inkscape:pageopacity="0"
     inkscape:pagecheckerboard="1"
     inkscape:deskcolor="#d1d1d1"
     inkscape:document-units="px"
     inkscape:zoom="8.9197829"
     inkscape:cx="-26.345933"
     inkscape:cy="28.924471"
     inkscape:window-width="2194"
     inkscape:window-height="1300"
     inkscape:window-x="-8"
     inkscape:window-y="-8"
     inkscape:window-maximized="1"
     inkscape:current-layer="svg1" />
  <defs
     id="defs1" />
  <path
     style="display:inline;fill:none;stroke:#000000;stroke-width:0.105464;stroke-linecap:round;stroke-linejoin:round;stroke-dasharray:none;stroke-dashoffset:0;stroke-opacity:1;paint-order:stroke fill markers"
     d="m 15.396026,34.067262 c 0.002,2.323186 0.199865,4.700232 0.961434,6.896372 -0.02773,1.463685 0.584241,2.832227 0.396302,4.30027 -0.114884,1.332162 1.196591,2.504385 0.456061,3.809926 -0.392247,1.344559 -0.270122,2.796747 -0.0683,4.158654 0.585925,1.740988 0.752289,3.619751 0.642953,5.427406 -0.73923,1.018858 0.002,2.16428 -0.129263,3.276172 0.51565,0.705379 -0.303204,1.13305 0.18123,1.935726 0.569648,0.289325 1.179188,0.128707 1.728121,0.01878 0.512532,0.309283 0.940033,0.002 1.371649,0.0375 0.876858,0.468482 0.758494,-1.18751 0.205948,-1.496647 -0.571322,-0.523086 -1.087267,-1.341539 -0.57045,-2.079703 -0.18481,-0.928975 -0.561404,-1.825853 -0.220841,-2.77504 0.112232,-2.457392 0.909801,-4.817199 1.120349,-7.254746 0.03548,-1.331205 -0.611718,-2.547909 -0.433485,-3.890708 0.227762,-1.556717 -0.875648,-3.183242 0.04677,-4.641345 0.987338,-1.774626 0.330383,-3.85708 0.858073,-5.749696 -0.01941,-2.73399 -0.745605,-5.398785 -1.105043,-8.099187 -0.650701,-1.20621 -0.02158,-2.56644 -0.445426,-3.836844 -0.216978,-1.245489 -0.263961,-2.501315 0.16335,-3.703057 0.180087,-0.527374 0.382021,-2.367199 0.578547,-1.991126 0.385357,1.795098 0.864695,3.592996 0.960684,5.422241 0.887505,2.392284 2.048719,4.733635 2.49182,7.256146 -0.352639,1.133017 -0.583338,2.400397 0.153795,3.4411 0.298186,0.761436 0.501047,1.694419 0.89974,2.332244 0.737577,-0.898067 0.11526,0.74578 0.935522,0.804062 0.177387,-1.176161 0.567924,1.332673 0.893282,0.05517 -0.585142,-1.272428 0.67862,0.255269 0.710844,-1.051756 0.03143,-0.938495 -0.06473,-1.905589 -0.09781,-2.80381 0.351321,0.307983 1.187943,1.121585 1.666387,0.230517 -0.860979,-0.795398 -1.462314,-1.802038 -1.958372,-2.853592 -0.911422,-0.157266 -1.215941,-0.829012 -1.237645,-1.6916 -0.581514,-2.415849 -0.05965,-5.01644 -0.959055,-7.350226 -0.351093,-0.863206 -1.332541,-1.439423 -1.076691,-2.470873 0.07654,-1.06734 -0.415842,-2.016203 -0.689274,-2.993804 0.171984,-1.733877 0.360488,-3.893491 -1.199395,-5.077535 C 21.832646,10.880974 20.7744,10.39258 19.648306,10.525138 18.41367,10.078371 16.810778,9.2876122 16.967315,7.7420122 c 0.513531,-0.4052906 0.320532,-1.7678615 0.760578,-1.8353325 0.611712,-0.049112 0.669031,-1.7212265 0.330497,-1.9457594 -0.5833,0.1079249 0.0032,-1.4587274 -0.477608,-1.9553095 -0.86791,-2.15616643 -4.857555,-1.86127855 -5.166327,0.544777 -0.02859,1.0240092 -0.117725,1.3787326 -0.483975,1.7848169 -0.292056,0.9357818 0.413129,1.6200989 0.751845,1.804549 -0.213147,0.9093083 0.813936,1.366192 0.438429,2.2509225 -0.239926,1.1842167 -1.592243,1.7326628 -2.619789,2.1406518 -1.5992867,-0.187339 -3.0703086,0.910793 -3.8702031,2.20781 -0.64915,1.336061 -0.3188278,2.867864 -0.3495369,4.273574 -0.5957521,1.119204 -0.6799203,2.372811 -0.6620665,3.618106 -1.0216809,1.090277 -1.526323,2.501719 -1.5845451,3.981856 -0.06925,2.077555 -0.2010541,4.156562 -0.6815156,6.187585 -0.86957,0.190061 -1.2872548,0.834736 -1.605819,1.611426 -0.1461415,0.719939 -1.48124421,1.315583 -1.14031398,1.881437 0.52831328,0.978095 1.41774078,-0.984336 1.52918088,-0.149627 -0.2338241,0.891965 -0.1931369,1.901251 -0.099625,2.794522 0.573112,0.771733 0.9164216,-0.320674 0.6848918,1.049405 0.7498885,0.161778 0.4294077,-1.129453 1.064292,-0.336659 0.4969233,-1.114633 0.1203943,-0.882606 0.8884226,-0.971762 0.309835,-1.376323 1.1901863,-2.585906 1.2668253,-4.004283 -0.3785212,-1.0955 -0.4903987,-2.255056 0.041265,-3.325874 0.5907359,-2.012669 1.570762,-3.924579 2.1367489,-5.921273 0.044752,-1.802306 0.6306494,-3.525573 0.9553434,-5.286621 0.2798373,1.30841 0.6697575,2.625194 0.8634529,3.931243 0.00241,1.632537 -0.5608437,3.219818 -0.2759502,4.853367 -0.7714546,2.352896 -0.8907757,4.869994 -1.3770536,7.294232 -0.2669145,1.817777 0.3352595,3.592002 0.1982248,5.414719 -0.074212,1.45704 1.1888303,2.589127 0.9392682,4.053327 -0.2866762,1.13006 -0.3813837,2.280067 -0.3116668,3.451147 -0.004,1.352983 -0.6939453,2.651018 -0.3511175,4.025051 0.4007042,2.265053 0.9176525,4.51174 1.0996534,6.811077 0.4102021,0.970831 -0.5781478,1.927841 -0.1049631,2.844218 0.3145882,1.218547 -1.5750668,1.690407 -1.1200947,2.950139 0.3024136,0.503357 1.0673297,-0.03547 1.3767899,0.289157 0.558288,-0.06525 1.10181,-0.108154 1.63566,-0.05567 0.649465,0.588135 1.193105,-1.045446 0.603087,-1.352026 0.481599,-0.505081 0.04514,-1.444115 0.405626,-2.083689 0.291585,-0.896176 -0.301215,-1.61521 -0.335063,-2.449353 -0.01201,-1.766708 0.197635,-3.509919 0.770034,-5.186557 0.107801,-1.513971 0.247133,-3.081799 -0.36504,-4.519861 -0.08264,-1.189227 0.87427,-2.221832 0.667895,-3.456741 -0.136863,-1.402552 0.464276,-2.717225 0.409226,-4.124872 0.805709,-2.141224 0.925622,-4.484867 0.951214,-6.756312 0.21557,-0.03454 0.426224,-0.03457 0.642502,-0.0055 z"
     id="outline"
     inkscape:label="outline front"
     inkscape:export-filename="male_front.svg"
     inkscape:export-xdpi="96"
     inkscape:export-ydpi="96" />
  <path
     style="display:inline;fill:none;stroke:#000000;stroke-width:0.105464;stroke-linecap:round;stroke-linejoin:round;stroke-dasharray:none;stroke-dashoffset:0;stroke-opacity:1;paint-order:stroke fill markers"
     d="m 15.854581,7.8453926 c -0.524467,-0.074527 -0.736192,0.9844066 -0.336295,1.2067232 0.06093,-0.4340126 0.35004,-0.9258719 0.336295,-1.2067232 z"
     id="left_digastric"
     inkscape:label="digastric L" />
  <path
     style="display:inline;fill:none;stroke:#000000;stroke-width:0.105464;stroke-linecap:round;stroke-linejoin:round;stroke-dasharray:none;stroke-dashoffset:0;stroke-opacity:1;paint-order:stroke fill markers"
     d="m 14.13354,7.8453926 c 0.524464,-0.07453 0.736195,0.9844066 0.336291,1.2067232 C 14.408919,8.6181032 14.119798,8.1262439 14.13354,7.8453926 Z"
     id="right_digastric"
     inkscape:label="digastric R" />
  <path
     id="left_sternocleidomastoid"
     style="fill:none;stroke:#000000;stroke-width:0.105464;stroke-linecap:round;stroke-linejoin:round;stroke-dasharray:none;stroke-dashoffset:0;stroke-opacity:1;paint-order:stroke fill markers"
     inkscape:label="sternocleidomastoid L"
     d="m 16.833767,7.4592998 -0.247182,0.2276178 c -0.142074,1.1230754 -0.817335,2.5681564 -0.989767,3.6192154 0.08381,-0.02886 0.218773,0.04002 0.293532,-0.03611 0.110737,-0.112759 0.107552,-0.281532 0.190536,-0.471714 0.09746,-0.223223 0.212696,-0.475897 0.313101,-0.698298 l 0.361509,-0.862058 c 0.152373,-0.561931 0.09174,-1.1757783 0.07825,-1.7787112 z M 16.755527,9.23801 16.57529,9.6901532 C 16.65501,9.5445806 16.713529,9.392791 16.755524,9.23801 Z m 0.128735,0.2822031 c -0.01308,0.00277 -0.03038,0.018054 -0.04741,0.043276 -0.108409,0.1602167 -0.188987,0.5596639 -0.293524,0.7209619 -0.0059,0.160845 -0.187602,0.484862 -0.350182,0.696243 -0.179099,0.232876 0.06634,0.400703 0.41197,0.349151 l -0.109168,0.02172 c 0.174598,-0.0086 0.337366,0.0066 0.414027,-0.125662 0.174939,-0.301174 0.07486,-0.984089 0.03606,-1.371897 -4.92e-4,-0.2515811 -0.02369,-0.3412244 -0.06181,-0.3337097 z m -0.389313,1.8312389 c -0.09189,0.0042 -0.186222,0.01412 -0.27396,0.05448 z" />
  <path
     id="right_sternocleidomastoid"
     style="fill:none;stroke:#000000;stroke-width:0.105464;stroke-linecap:round;stroke-linejoin:round;stroke-dasharray:none;stroke-dashoffset:0;stroke-opacity:1;paint-order:stroke fill markers"
     inkscape:label="right_sternocleidomastoid"
     d="m 13.153811,7.4592998 c -0.01361,0.602932 -0.07417,1.2167797 0.07821,1.7787102 l 0.36254,0.862062 c 0.100432,0.222399 0.214622,0.475074 0.312067,0.698296 0.08309,0.190185 0.07988,0.358957 0.190541,0.471716 0.07475,0.07616 0.209624,0.0074 0.293526,0.03611 -0.172417,-1.051074 -0.84663,-2.4961559 -0.988719,-3.6192316 z m 0.0782,1.7787102 c 0.04203,0.1547696 0.100495,0.3065846 0.180229,0.4521432 z m -0.136966,0.2822031 c -0.03265,0.00871 -0.05309,0.1035175 -0.05363,0.3337038 -0.03878,0.3877981 -0.138867,1.0707191 0.0361,1.3718791 0.07684,0.132246 0.240064,0.117868 0.415061,0.125667 l -0.10916,-0.02172 c 0.345567,0.05148 0.591088,-0.116278 0.411981,-0.349157 C 13.632826,10.76921 13.449936,10.445185 13.44419,10.284344 13.339648,10.123045 13.259066,9.7235922 13.15066,9.563388 13.12958,9.53231 13.11104,9.515864 13.09503,9.520141 Z m 0.397546,1.8312389 0.274995,0.05449 c -0.08772,-0.04053 -0.183139,-0.05056 -0.274995,-0.05449 z" />
  <path
     style="display:inline;fill:none;stroke:#000000;stroke-width:0.105464;stroke-linecap:round;stroke-linejoin:round;stroke-dasharray:none;stroke-dashoffset:0;stroke-opacity:1;paint-order:stroke fill markers"
     d="m 17.021726,9.0620068 c 0.201221,0.6992688 0.03653,1.4098392 0.04948,2.1266022 0.660065,0.415398 0.926332,-0.124195 0.425404,-0.676812 -0.109555,-0.462313 -0.039,-1.1569051 -0.474876,-1.4497902 z"
     id="left_scalene"
     inkscape:label="scalene L" />
  <path
     style="display:inline;fill:none;stroke:#000000;stroke-width:0.105464;stroke-linecap:round;stroke-linejoin:round;stroke-dasharray:none;stroke-dashoffset:0;stroke-opacity:1;paint-order:stroke fill markers"
     d="m 12.966394,9.0620068 c -0.20122,0.6992688 -0.03653,1.4098392 -0.04943,2.1266022 -0.66007,0.415398 -0.926351,-0.124192 -0.42541,-0.676812 0.109637,-0.462313 0.03908,-1.1569051 0.474865,-1.4497902 z"
     id="right_scalene"
     inkscape:label="scalene R" />
  <path
     style="display:inline;fill:none;stroke:#000000;stroke-width:0.105464;stroke-linecap:round;stroke-linejoin:round;stroke-dasharray:none;stroke-dashoffset:0;stroke-opacity:1;paint-order:stroke fill markers"
     d="m 19.583505,10.664374 c -0.79561,-0.211574 -1.482736,-0.663346 -2.126577,-1.1572643 0.200369,0.5079103 0.08627,1.1264633 0.49456,1.5529123 0.171083,0.457297 1.068526,-0.161512 1.493547,-0.237388 l 0.06954,-0.07942 z"
     id="left_upper_trapezius"
     inkscape:label="trapezius L" />
  <path
     style="display:inline;fill:none;stroke:#000000;stroke-width:0.105464;stroke-linecap:round;stroke-linejoin:round;stroke-dasharray:none;stroke-dashoffset:0;stroke-opacity:1;paint-order:stroke fill markers"
     d="m 10.404612,10.664374 c 0.795618,-0.211574 1.482743,-0.663346 2.126575,-1.1572643 -0.200363,0.5079103 -0.08628,1.1264633 -0.494555,1.5529123 -0.171134,0.457297 -1.068531,-0.16152 -1.493548,-0.237388 l -0.0694,-0.07942 z"
     id="right_upper_trapezius"
     inkscape:label="upper_trapezius R" />
  <path
     id="left_deltoid"
     style="fill:none;stroke:#000000;stroke-width:0.105464;stroke-linecap:round;stroke-linejoin:round;stroke-dasharray:none;stroke-dashoffset:0;stroke-opacity:1;paint-order:stroke fill markers"
     inkscape:label="deltoid L"
     d="m 20.162513,10.675805 c -0.09377,0.0013 -0.187585,0.0075 -0.282205,0.01853 -0.17058,0.245998 -0.479224,0.338848 -0.732277,0.474814 -0.626268,0.223788 -1.165185,0.333819 -0.187457,0.513942 0.900262,0.142955 1.906435,0.647881 2.063987,1.637609 -0.07006,0.619303 0.256629,1.062109 0.636494,1.507837 0.175814,0.285433 0.798109,1.176504 1.018609,0.73435 0.275814,-0.822352 0.766442,-1.668455 0.747733,-2.577909 -0.568754,-1.228258 -1.858382,-2.326249 -3.264884,-2.309142 z m 3.407012,2.668586 c -0.112915,0.853049 -0.524837,1.725249 -0.788919,2.454352 -0.115897,0.155704 0.675127,0.752542 0.857942,0.958871 0.09965,-1.129703 0.288136,-2.312552 -0.06916,-3.413223 z" />
  <path
     id="right_deltoid"
     style="fill:none;stroke:#000000;stroke-width:0.105464;stroke-linecap:round;stroke-linejoin:round;stroke-dasharray:none;stroke-dashoffset:0;stroke-opacity:1;paint-order:stroke fill markers"
     inkscape:label="deltoid"
     d="m 9.8250713,10.675805 c -1.4065004,-0.01709 -2.6961289,1.080889 -3.2648888,2.309137 -0.018698,0.90945 0.4719223,1.755553 0.7477332,2.57794 0.2205059,0.442158 0.8438262,-0.448913 1.0196338,-0.734345 0.3798763,-0.445727 0.7055045,-0.888533 0.6354684,-1.507836 0.1575527,-0.989728 1.1647571,-1.494661 2.0650141,-1.637607 0.977741,-0.180126 0.437786,-0.290156 -0.188474,-0.513942 -0.253057,-0.135967 -0.560566,-0.228814 -0.731255,-0.474808 -0.09465,-0.01133 -0.1894638,-0.0174 -0.2832317,-0.01861 z M 6.4180535,13.344391 C 6.0608994,14.445062 6.2493766,15.627911 6.349046,16.757614 6.531852,16.551285 7.3237794,15.954465 7.2080101,15.798743 6.9439228,15.06964 6.5310032,14.19744 6.4180535,13.344391 Z" />
  <path
     id="left_biceps"
     style="fill:none;stroke:#000000;stroke-width:0.105464;stroke-linecap:round;stroke-linejoin:round;stroke-dasharray:none;stroke-dashoffset:0;stroke-opacity:1;paint-order:stroke fill markers"
     inkscape:label="left_biceps"
     d="m 21.146103,14.660657 c -0.107926,0.435275 -0.02597,0.902994 -0.137961,1.337893 -0.09161,0.705051 -0.01,1.52033 0.199814,2.170088 0.4108,1.316069 1.209358,2.517027 1.928032,3.704708 0.558581,0.923867 0.384475,-0.474744 0.38004,-0.909444 -0.205886,-1.143894 -0.252548,-2.324607 -0.717891,-3.404991 -0.398429,-1.020975 -0.930825,-2.046785 -1.652029,-2.898254 z m 0.979465,0.988738 v 0.004 l -0.0088,0.105043 c 0.251854,0.499765 0.571902,0.954375 0.754932,1.490321 0.293424,0.582744 0.407249,1.19566 0.495404,1.828157 0.164672,0.720015 0.282251,1.464397 0.316188,2.214372 -0.129011,0.798417 0.257063,1.270635 0.335758,0.239975 0.542335,-1.376114 0.336791,-2.93405 -0.185567,-4.298956 -0.572835,-0.47961 -1.024422,-1.185412 -1.70766,-1.582892 z" />
  <path
     id="right_biceps"
     style="fill:none;stroke:#000000;stroke-width:0.105464;stroke-linecap:round;stroke-linejoin:round;stroke-dasharray:none;stroke-dashoffset:0;stroke-opacity:1;paint-order:stroke fill markers"
     inkscape:label="right_biceps"
     d="M 8.8414851,14.660657 C 8.1202873,15.512126 7.5889163,16.537936 7.1905026,17.558911 6.72516,18.639295 6.6774632,19.820008 6.4716095,20.963902 6.4671695,21.398602 6.2930814,22.797213 6.851654,21.873346 7.5703248,20.685665 8.3699178,19.484707 8.7807199,18.168638 8.992647,17.51888 9.071209,16.703601 8.979497,15.99855 8.8673649,15.563651 8.9492913,15.095932 8.8414851,14.660657 Z m -0.978437,0.988738 C 7.1798051,16.046879 6.7282258,16.752679 6.15645,17.232418 5.6340474,18.597324 5.4274758,20.155261 5.9700303,21.5314 c 0.078702,1.030653 0.4658334,0.558435 0.3367888,-0.239977 0.033945,-0.749975 0.1503627,-1.49436 0.3151592,-2.214375 0.088159,-0.632492 0.2019852,-1.245405 0.4953995,-1.828144 0.183032,-0.535948 0.5030856,-0.990563 0.7549415,-1.490329 l -0.00915,-0.105034 z" />
  <path
     style="display:inline;fill:none;stroke:#000000;stroke-width:0.105464;stroke-linecap:round;stroke-linejoin:round;stroke-dasharray:none;stroke-dashoffset:0;stroke-opacity:1;paint-order:stroke fill markers"
     d="m 20.681406,15.2341 c -0.32411,0.770231 -0.418289,1.590542 -0.454985,2.423333 -0.377366,0.787569 -0.146614,1.746687 -0.336297,2.601374 0.266359,0.804595 0.389758,0.907577 0.454985,-0.05922 0.301071,-0.440095 0.203729,-1.103561 0.411419,-1.605049 0.315884,-0.816213 -0.06956,-1.700127 0.06355,-2.569022 -0.0304,-0.270429 0.07331,-0.574163 -0.138309,-0.791297 z"
     id="left_latissimus_dorsi"
     inkscape:label="left_latissimus_dorsi" />
  <path
     style="display:inline;fill:none;stroke:#000000;stroke-width:0.105464;stroke-linecap:round;stroke-linejoin:round;stroke-dasharray:none;stroke-dashoffset:0;stroke-opacity:1;paint-order:stroke fill markers"
     d="m 9.3067111,15.2341 c 0.3241129,0.770231 0.4182916,1.590542 0.4549884,2.423333 0.3773625,0.787569 0.1466554,1.746687 0.3362975,2.601374 C 9.8316365,21.063402 9.7082427,21.166384 9.6430092,20.19945 9.3419424,19.759372 9.4392803,19.095898 9.2315854,18.594406 8.915709,17.778191 9.3010503,16.894285 9.1682316,16.025383 9.1988043,15.754958 9.094869,15.451228 9.3067089,15.234094 Z"
     id="right_latissimus_dorsi"
     inkscape:label="right_latissimus_dorsi" />
  <path
     style="display:inline;fill:none;stroke:#000000;stroke-width:0.105464;stroke-linecap:round;stroke-linejoin:round;stroke-dasharray:none;stroke-dashoffset:0;stroke-opacity:1;paint-order:stroke fill markers"
     d="m 16.09197,11.663384 c 1.413776,-0.24773 2.919972,0.01865 4.183906,0.692386 0.576255,0.55707 0.772191,1.470958 0.60335,2.215622 -0.662213,0.933353 -0.6936,2.352746 -1.895489,2.830076 -0.811629,0.481477 -1.715904,0.25513 -2.594515,0.179074 -0.738624,-0.05005 -1.18052,-0.680766 -1.129179,-1.393572 -0.04345,-1.064468 -0.007,-2.125466 0.182798,-3.169661 0.151624,-0.478329 0.237157,-1.015741 0.649129,-1.353925 z"
     id="left_pectolaris_major"
     inkscape:label="pectolaris major L" />
  <path
     style="display:inline;fill:none;stroke:#000000;stroke-width:0.105464;stroke-linecap:round;stroke-linejoin:round;stroke-dasharray:none;stroke-dashoffset:0;stroke-opacity:1;paint-order:stroke fill markers"
     d="m 13.896151,11.663384 c -1.413777,-0.24773 -2.919984,0.01874 -4.1839081,0.692386 -0.576247,0.55707 -0.7721896,1.470958 -0.6033543,2.215622 0.6622147,0.933353 0.6936044,2.352746 1.8954954,2.830076 0.81163,0.481477 1.715901,0.25513 2.594509,0.179073 0.738629,-0.05001 1.180518,-0.680766 1.129185,-1.393571 0.04345,-1.064468 0.0075,-2.125467 -0.182801,-3.169662 -0.151629,-0.478328 -0.237158,-1.01574 -0.649126,-1.353924 z"
     id="right_pectolaris_major"
     inkscape:label="pectolaris major R" />
  <path
     id="left_rectus_abdominis"
     style="fill:none;stroke:#000000;stroke-width:0.105464;stroke-linecap:round;stroke-linejoin:round;stroke-dasharray:none;stroke-dashoffset:0;stroke-opacity:1;paint-order:stroke fill markers"
     inkscape:label="left_rectus_abdominis"
     d="m 15.607121,17.59805 c -0.554326,0.280384 -0.423128,1.122016 -0.428457,1.655116 0.158641,0.568451 1.048823,0.484942 1.41307,0.943426 0.492148,0.131947 1.000127,1.092034 1.408953,0.507762 0.0032,-0.799667 0.172034,-1.64608 -0.07412,-2.417269 -0.546484,-0.659255 -1.59088,-0.328317 -2.319432,-0.689035 z m -0.108145,2.230852 c -0.109222,-8.95e-4 -0.218341,0.02692 -0.32649,0.09375 0.0264,0.738552 -0.04985,1.485552 0.01851,2.219524 0.290115,0.613729 1.159364,0.22544 1.649958,0.494366 0.57724,0.208953 1.308095,0.192232 1.063926,-0.613844 0.165716,-0.744834 -0.622035,-1.000305 -1.04123,-1.44296 -0.415654,-0.207362 -0.891418,-0.746905 -1.364661,-0.750828 z m 0.125669,2.768486 c -0.335067,-0.0011 -0.601848,0.13559 -0.459343,0.577807 0.0059,0.496114 -0.01447,0.990202 0.04629,1.485163 0.290224,0.787673 1.214441,0.348051 1.83328,0.425371 0.777739,0.101027 0.983108,-0.822565 0.929003,-1.433684 -0.05682,-0.729716 -0.986374,-0.886933 -1.604644,-0.880593 -0.182102,-0.0891 -0.48403,-0.173246 -0.744636,-0.173959 z m 2.079431,2.705658 c -0.726002,0.04809 -1.453044,-0.0375 -2.176244,0.0298 0.151846,0.375011 -0.130023,0.467772 -0.355328,0.672558 0.01787,1.463897 0.05491,2.927693 0.02257,4.39166 0.106102,0.525334 -0.265213,1.463955 0.244094,1.691172 0.378748,-0.439179 0.812297,-0.826201 1.08761,-1.347164 0.275619,-0.505538 0.492732,-1.073384 0.620022,-1.627306 0.144938,-0.435131 0.367953,-1.034393 0.465527,-1.621132 0.09191,-0.697046 0.682201,-1.603869 0.09165,-2.189656 z" />
  <path
     id="right_rectus_abdominis"
     style="fill:none;stroke:#000000;stroke-width:0.105464;stroke-linecap:round;stroke-linejoin:round;stroke-dasharray:none;stroke-dashoffset:0;stroke-opacity:1;paint-order:stroke fill markers"
     inkscape:label="right_rectus_abdominis"
     d="m 14.380465,17.59805 c -0.728554,0.360718 -1.77193,0.02979 -2.318381,0.689035 -0.246164,0.771189 -0.07882,1.617602 -0.07512,2.417269 0.408825,0.584272 0.917829,-0.375782 1.409984,-0.507762 0.364246,-0.458484 1.253375,-0.374975 1.412037,-0.943426 -0.0058,-0.5331 0.125873,-1.374732 -0.428445,-1.655116 z m 0.109196,2.230852 c -0.473241,0.0032 -0.948997,0.543468 -1.364659,0.750826 -0.419203,0.442657 -1.207975,0.698129 -1.042289,1.442952 -0.244175,0.806074 0.487709,0.822797 1.064945,0.613842 0.49059,-0.26892 1.359842,0.119547 1.649953,-0.494368 0.06851,-0.733969 -0.0088,-1.48097 0.01851,-2.219527 -0.108146,-0.06683 -0.217271,-0.09452 -0.32648,-0.09375 z m -0.125666,2.768486 c -0.260603,7.9e-4 -0.562541,0.08492 -0.74464,0.173917 -0.61827,-0.0056 -1.548874,0.150763 -1.605669,0.880606 -0.05416,0.611101 0.152307,1.534744 0.930024,1.433667 0.618847,-0.07711 1.542038,0.36231 1.832258,-0.425363 0.06073,-0.494955 0.04218,-0.989061 0.04745,-1.485173 0.142484,-0.442027 -0.124273,-0.578788 -0.459349,-0.577797 z m -2.080463,2.705658 c -0.590535,0.58579 -2.7e-4,1.492616 0.09174,2.189648 0.09758,0.586747 0.321606,1.186009 0.466557,1.621135 0.127267,0.553942 0.344404,1.12177 0.620019,1.62731 0.27532,0.520954 0.708863,0.907993 1.087608,1.347161 0.509309,-0.227215 0.136897,-1.165838 0.243067,-1.69116 -0.03228,-1.463975 0.0062,-2.927774 0.02372,-4.391664 -0.225334,-0.204791 -0.508229,-0.297564 -0.356366,-0.672565 -0.723202,-0.06725 -1.45024,0.01844 -2.176251,-0.02979 z" />
  <path
     id="left_external_abdominal_oblique"
     style="fill:none;stroke:#000000;stroke-width:0.105464;stroke-linecap:round;stroke-linejoin:round;stroke-dasharray:none;stroke-dashoffset:0;stroke-opacity:1;paint-order:stroke fill markers"
     inkscape:label="left_external_abdominal_oblique"
     d="m 19.952406,16.986262 c -0.212964,-5.19e-4 -0.648536,0.594042 -0.934151,0.60149 -0.196352,0.192328 -1.15142,0.292485 -0.354296,0.524241 0.594849,0.120986 1.468968,0.0225 1.414099,-0.780699 0.0059,-0.253273 -0.04219,-0.344817 -0.125723,-0.345032 z m -0.333695,1.259626 c -0.157305,-0.0025 -0.36144,0.04167 -0.578821,0.08448 -0.11886,-0.03518 -0.782846,-0.176913 -0.495399,0.118278 0.320119,0.225731 1.076286,0.960966 1.305955,0.420222 0.160392,-0.486148 0.02995,-0.619082 -0.231735,-0.623115 z m -1.266816,0.331631 c -0.021,7.48e-4 -0.04179,0.0032 -0.06389,0.0085 -0.112114,0.507986 -0.293795,1.478349 0.533502,1.316273 0.46225,-0.110481 1.319482,-0.662698 0.403734,-0.803351 -0.34701,-0.03843 -0.557987,-0.53358 -0.873374,-0.522157 z m 1.133952,1.244175 c -0.334505,5.12e-4 -0.809721,0.42364 -1.18855,0.318252 -0.114599,0.554305 -0.342083,1.655958 0.617957,1.12572 0.495473,-0.273065 1.09245,-0.599697 0.849706,-1.267857 -0.07146,-0.12893 -0.167525,-0.176232 -0.279113,-0.176093 z m 0.232766,1.1319 c -0.09645,0.0032 -0.215077,0.06534 -0.355328,0.209091 -0.348114,0.307096 -0.835258,0.351609 -1.214289,0.599425 0.06736,0.444192 -0.331909,1.616751 0.423295,1.415145 0.464732,-0.369886 0.902208,-0.823543 1.426461,-1.118526 0.137089,-0.393145 0.06426,-1.119034 -0.280139,-1.105135 z m 0.211139,1.33275 c -0.393409,0.210587 -0.662023,0.62473 -1.034052,0.871335 -0.612766,0.152133 -0.771628,0.650488 -0.590154,1.263742 0.383753,0.503653 0.976092,-0.265875 1.264752,-0.564414 0.592334,-0.30051 0.487027,-1.026352 0.359454,-1.570663 z m 0.118205,1.42441 c -0.07431,0.03974 -0.149126,0.07891 -0.223499,0.118247 -0.401332,0.562939 -1.128164,0.856233 -1.477952,1.454279 -0.127986,0.590465 -0.343897,1.140868 -0.348121,1.757069 0.196644,0.550738 -0.07755,1.389916 0.563375,1.712819 0.455435,-0.152521 0.792771,-0.86565 1.266813,-1.18446 0.580741,-0.343042 0.526172,-0.899989 0.392413,-1.458388 0.184602,-0.805383 0.101707,-1.619741 -0.173022,-2.399771 z" />
  <path
     id="right_external_abdominal_oblique"
     style="fill:none;stroke:#000000;stroke-width:0.105464;stroke-linecap:round;stroke-linejoin:round;stroke-dasharray:none;stroke-dashoffset:0;stroke-opacity:1;paint-order:stroke fill markers"
     inkscape:label="right_external_abdominal_oblique"
     d="m 10.036207,16.986262 c -0.083354,2.15e-4 -0.1325372,0.09174 -0.125657,0.345032 -0.054823,0.803097 0.819248,0.901831 1.414096,0.780699 0.797129,-0.231756 -0.158974,-0.331919 -0.355318,-0.524241 -0.28561,-0.0079 -0.720153,-0.602039 -0.933121,-0.60149 z m 0.333703,1.259626 c -0.261827,0.0035 -0.3920067,0.137057 -0.23174,0.623108 0.229674,0.540742 0.98481,-0.194482 1.304927,-0.420213 C 11.730542,18.153405 11.067473,18.295281 10.948729,18.33048 10.731344,18.28782 10.526996,18.24353 10.36991,18.246 Z m 1.265788,0.331631 c -0.315391,-0.01 -0.526371,0.483681 -0.873388,0.522185 -0.9157362,0.140653 -0.05851,0.693096 0.403732,0.803356 0.827307,0.161944 0.646773,-0.80829 0.534537,-1.316268 -0.02201,-0.0051 -0.04386,-0.0079 -0.0649,-0.0086 z m -1.132934,1.244175 c -0.111517,-1.7e-4 -0.207498,0.04715 -0.279104,0.176096 -0.2427524,0.668156 0.353194,0.994784 0.84866,1.26786 0.960048,0.530236 0.732647,-0.571425 0.617959,-1.125729 -0.378822,0.105427 -0.853003,-0.317738 -1.187515,-0.318252 z m -0.25336,1.1319 c -0.3268694,0.01702 -0.3947406,0.719847 -0.2605756,1.105135 0.5242536,0.294983 0.9617296,0.74864 1.4264626,1.118526 0.755204,0.201606 0.355975,-0.970953 0.4233,-1.415145 -0.379034,-0.247816 -0.866189,-0.292329 -1.214291,-0.599425 -0.150268,-0.153838 -0.274833,-0.213673 -0.374896,-0.209091 z m -0.190536,1.33275 c -0.1275568,0.544311 -0.2339072,1.270153 0.358418,1.570663 0.288671,0.298539 0.882036,1.068067 1.265789,0.564414 0.181474,-0.613254 0.02253,-1.111665 -0.590156,-1.263742 -0.372034,-0.246605 -0.64065,-0.660748 -1.034051,-0.871335 z m -0.1194907,1.42441 c -0.2744704,0.780023 -0.357624,1.594392 -0.1730278,2.399759 -0.1337536,0.558412 -0.188337,1.115348 0.3923995,1.458411 0.474044,0.318807 0.812417,1.031884 1.267851,1.184429 0.640987,-0.322894 0.366746,-1.162072 0.563382,-1.712804 -0.0045,-0.616203 -0.221311,-1.166599 -0.349143,-1.757067 -0.349794,-0.598047 -1.076619,-0.89134 -1.477957,-1.454274 -0.07449,-0.03966 -0.149056,-0.07893 -0.2234939,-0.118292 z" />
  <path
     style="display:inline;fill:none;stroke:#000000;stroke-width:0.105464;stroke-linecap:round;stroke-linejoin:round;stroke-dasharray:none;stroke-dashoffset:0;stroke-opacity:1;paint-order:stroke fill markers"
     d="m 16.972268,31.208333 c 0.308206,-0.81561 0.88429,-0.678949 0.771493,0.187914 0.163572,0.558793 0.573734,0.991934 0.296728,1.592474 -0.228758,0.830382 -0.523827,-0.0696 -0.712147,-0.445086 -0.09052,-0.37908 -0.425931,-0.859771 -0.356074,-1.335311 z"
     id="left_adductor_longus"
     inkscape:label="adductor longus L" />
  <path
     style="display:inline;fill:none;stroke:#000000;stroke-width:0.105464;stroke-linecap:round;stroke-linejoin:round;stroke-dasharray:none;stroke-dashoffset:0;stroke-opacity:1;paint-order:stroke fill markers"
     d="m 13.015846,31.208333 c -0.308203,-0.81561 -0.884285,-0.678949 -0.771495,0.187914 -0.163527,0.558793 -0.57373,0.991934 -0.296725,1.592474 0.228758,0.830363 0.523826,-0.06971 0.712157,-0.4451 0.0905,-0.379075 0.425927,-0.85977 0.356063,-1.335313 z"
     id="right_adductor_longus"
     inkscape:label="adductor longus R" />
  <path
     style="display:inline;fill:none;stroke:#000000;stroke-width:0.105464;stroke-linecap:round;stroke-linejoin:round;stroke-dasharray:none;stroke-dashoffset:0;stroke-opacity:1;paint-order:stroke fill markers"
     d="m 20.345115,27.380446 c 0.499534,0.898952 0.523517,1.988278 0.702536,2.986457 0.101673,1.351444 0.634121,2.679746 0.474501,4.046175 -0.604017,-0.07551 -0.186409,-1.074415 -0.595157,-1.403987 -0.362913,-0.702087 -0.388835,-1.53719 -0.704086,-2.247844 -0.135086,-0.752175 -0.542172,-1.52975 -0.164043,-2.27905 0.110795,-0.357242 -0.18136,-0.931099 0.286234,-1.101751 z"
     id="left_tensor_fasciae_latae"
     inkscape:label="tensor fasciae latae L" />
  <path
     style="display:inline;fill:none;stroke:#000000;stroke-width:0.105464;stroke-linecap:round;stroke-linejoin:round;stroke-dasharray:none;stroke-dashoffset:0;stroke-opacity:1;paint-order:stroke fill markers"
     d="m 9.6430062,27.380446 c -0.4995376,0.898952 -0.5235174,1.988278 -0.702536,2.986457 -0.1013918,1.351444 -0.6341164,2.679746 -0.474503,4.046175 0.6040209,-0.07545 0.1863338,-1.074415 0.5951564,-1.403987 0.3629151,-0.702087 0.3888351,-1.53719 0.704091,-2.247844 0.1351588,-0.752175 0.5421654,-1.52975 0.1640349,-2.27905 -0.110652,-0.357242 0.1813355,-0.931099 -0.2862433,-1.101751 z"
     id="right_tensor_fasciae_latae"
     inkscape:label="tensor fasciae latae R" />
  <path
     style="display:inline;fill:none;stroke:#000000;stroke-width:0.105464;stroke-linecap:round;stroke-linejoin:round;stroke-dasharray:none;stroke-dashoffset:0;stroke-opacity:1;paint-order:stroke fill markers"
     d="m 17.654747,30.387358 c 0.260982,-0.910206 1.130848,-1.03708 0.860524,0.03605 0.08175,0.470035 0.221953,1.264099 -0.243447,1.497509 -0.478638,-0.09193 -0.348235,-0.993911 -0.559115,-1.428294 l -0.05075,-0.09261 z"
     id="left_pectineus"
     inkscape:label="pectineus L" />
  <path
     style="display:inline;fill:none;stroke:#000000;stroke-width:0.105464;stroke-linecap:round;stroke-linejoin:round;stroke-dasharray:none;stroke-dashoffset:0;stroke-opacity:1;paint-order:stroke fill markers"
     d="m 12.333368,30.387358 c -0.260974,-0.910206 -1.13085,-1.03708 -0.860522,0.03607 -0.0817,0.470037 -0.221951,1.264104 0.243445,1.497514 0.478641,-0.0919 0.348243,-0.993964 0.559114,-1.428343 l 0.0509,-0.09254 z"
     id="right_pectineus"
     inkscape:label="pectineus R" />
  <path
     style="display:inline;fill:none;stroke:#000000;stroke-width:0.105464;stroke-linecap:round;stroke-linejoin:round;stroke-dasharray:none;stroke-dashoffset:0;stroke-opacity:1;paint-order:stroke fill markers"
     d="m 19.177966,28.616845 c 0.379682,0.487462 -0.28146,0.93657 -0.237379,1.424339 -0.299869,0.970684 -0.327616,-0.02845 -0.336299,-0.50447 -0.179317,-0.375343 0.300614,-0.742051 0.573678,-0.919869 z"
     id="left_iliopsoas"
     inkscape:label="iliopsoas L" />
  <path
     style="display:inline;fill:none;stroke:#000000;stroke-width:0.105464;stroke-linecap:round;stroke-linejoin:round;stroke-dasharray:none;stroke-dashoffset:0;stroke-opacity:1;paint-order:stroke fill markers"
     d="m 10.810145,28.616845 c -0.379674,0.487462 0.281457,0.93657 0.237387,1.424339 0.299869,0.970684 0.327619,-0.02849 0.336301,-0.50447 0.179335,-0.375343 -0.300616,-0.742051 -0.573688,-0.919869 z"
     id="right_iliopsoas"
     inkscape:label="iliopsoas R" />
  <path
     style="display:inline;fill:none;stroke:#000000;stroke-width:0.105464;stroke-linecap:round;stroke-linejoin:round;stroke-dasharray:none;stroke-dashoffset:0;stroke-opacity:1;paint-order:stroke fill markers"
     d="m 15.523326,34.011312 c 0.396607,-0.407375 0.954299,-1.018723 0.797313,-0.01025 -0.0373,0.619382 -0.259094,1.185771 -0.186184,1.819234 -0.04983,0.648119 -0.0026,1.288915 0.200173,1.866077 0.277346,0.750595 -0.207305,1.483802 -0.06997,2.258514 0.01108,0.73593 -0.298167,-0.777839 -0.314797,-1.05038 -0.349636,-1.597756 -0.542516,-3.243136 -0.426559,-4.882424 z"
     id="left_gracilis"
     inkscape:label="gracilis L" />
  <path
     style="display:inline;fill:none;stroke:#000000;stroke-width:0.105464;stroke-linecap:round;stroke-linejoin:round;stroke-dasharray:none;stroke-dashoffset:0;stroke-opacity:1;paint-order:stroke fill markers"
     d="m 14.464796,34.011312 c -0.396605,-0.407375 -0.954304,-1.018723 -0.797316,-0.0105 0.03729,0.619391 0.259089,1.185766 0.186181,1.819231 0.04983,0.648119 0.0026,1.288911 -0.200172,1.86608 -0.277345,0.750591 0.207305,1.483791 0.06995,2.258521 -0.01161,0.736315 0.298174,-0.777437 0.314803,-1.049979 0.34964,-1.596485 0.542515,-3.241862 0.426565,-4.881148 z"
     id="right_gracilis"
     inkscape:label="gracilis R" />
  <path
     style="display:inline;fill:none;stroke:#000000;stroke-width:0.105464;stroke-linecap:round;stroke-linejoin:round;stroke-dasharray:none;stroke-dashoffset:0;stroke-opacity:1;paint-order:stroke fill markers"
     d="m 19.216164,42.41823 c 0.625091,-0.717329 0.685108,-1.765123 1.150069,-2.590732 0.505341,-1.11261 0.441884,-2.360023 0.632884,-3.543419 -0.225127,-0.828359 -0.0821,-1.703256 -0.397476,-2.522144 -0.0019,-0.615232 -0.06661,-1.219816 -0.210479,-1.820883 -0.132308,-0.622715 -0.299523,-1.245579 -0.531547,-1.84645 -0.352933,1.453815 -0.667321,2.909515 -1.130081,4.343351 -0.188912,0.808145 -0.453111,1.591796 -0.786277,2.357019 -0.326937,0.992223 0.265939,1.996682 0.08403,3.007459 0.427681,0.818777 0.253553,1.95556 0.938627,2.623316 0.08043,0.0757 0.166525,0.006 0.250354,-0.0062 z"
     id="left_rectus_femoris"
     inkscape:label="rectus femoris L" />
  <path
     style="display:inline;fill:none;stroke:#000000;stroke-width:0.105464;stroke-linecap:round;stroke-linejoin:round;stroke-dasharray:none;stroke-dashoffset:0;stroke-opacity:1;paint-order:stroke fill markers"
     d="M 10.77195,42.41823 C 10.146869,41.700901 10.086851,40.653107 9.6218856,39.827498 9.116545,38.714888 9.1800029,37.467475 8.9890014,36.284079 c 0.2251268,-0.828359 0.082134,-1.703256 0.3974789,-2.522144 0.00157,-0.615232 0.066503,-1.219816 0.21048,-1.820883 0.1324238,-0.622715 0.2995219,-1.245579 0.5315447,-1.84645 0.352934,1.453815 0.667316,2.909515 1.130089,4.343351 0.188901,0.808145 0.453105,1.591796 0.78627,2.357019 0.326929,0.992223 -0.265938,1.996682 -0.08381,3.007459 -0.427676,0.818777 -0.253551,1.95556 -0.938624,2.623316 -0.08053,0.0757 -0.166433,0.006 -0.250353,-0.0062 z"
     id="right_rectus_femoris"
     inkscape:label="rectus femoris R" />
  <path
     style="display:inline;fill:none;stroke:#000000;stroke-width:0.105464;stroke-linecap:round;stroke-linejoin:round;stroke-dasharray:none;stroke-dashoffset:0;stroke-opacity:1;paint-order:stroke fill markers"
     d="m 18.139081,44.152765 c 0.397385,-0.649852 0.413153,-1.561545 0.260411,-2.281985 -0.267465,-0.685164 -0.344671,-1.483358 -0.498209,-2.16626 0.05978,-0.698271 -0.125481,-1.376806 -0.167809,-2.070262 -0.304584,0.381255 -0.360664,1.035918 -0.433633,1.532295 -0.132809,0.830475 -0.330806,1.631225 -0.422502,2.478668 -0.155006,0.660033 -0.472602,1.474577 0.177252,1.9927 0.283285,0.240429 0.686397,0.633378 1.084536,0.514844 z"
     id="left_vastus_medialis"
     inkscape:label="vastus medialis L" />
  <path
     style="display:inline;fill:none;stroke:#000000;stroke-width:0.105464;stroke-linecap:round;stroke-linejoin:round;stroke-dasharray:none;stroke-dashoffset:0;stroke-opacity:1;paint-order:stroke fill markers"
     d="m 11.849029,44.152765 c -0.397373,-0.649852 -0.413146,-1.561545 -0.260401,-2.281985 0.26746,-0.685164 0.344667,-1.483358 0.498205,-2.16626 -0.0599,-0.698271 0.125428,-1.376806 0.167866,-2.070262 0.30458,0.381255 0.360655,1.035918 0.433627,1.532295 0.132868,0.830475 0.330805,1.631225 0.422499,2.478668 0.154994,0.660033 0.472604,1.474577 -0.177254,1.9927 -0.283275,0.240429 -0.686391,0.633378 -1.084542,0.514844 z"
     id="right_vastus_medialis"
     inkscape:label="vastus medialis R" />
  <path
     style="display:inline;fill:none;stroke:#000000;stroke-width:0.105464;stroke-linecap:round;stroke-linejoin:round;stroke-dasharray:none;stroke-dashoffset:0;stroke-opacity:1;paint-order:stroke fill markers"
     d="m 20.768832,33.130046 c 0.470747,0.404716 0.07696,1.346564 0.78334,1.594655 0.263733,0.75179 0.09558,1.623583 -0.0076,2.397029 -0.171816,0.624335 -0.181541,1.274537 -0.09915,1.902239 -0.08238,0.610451 0.01002,1.199347 -0.202185,1.78393 -0.475972,0.980449 -0.668942,2.130059 -1.312775,3.051124 -0.497444,-0.243443 -0.17379,-1.169791 -0.203046,-1.6781 0.209751,-1.400403 1.156617,-2.567938 1.231687,-3.988566 0.09051,-0.923816 0.345449,-1.845246 0.03457,-2.754244 0.250127,-0.796084 -0.387248,-1.53506 -0.223809,-2.308067 z"
     id="left_vastus_lateralis"
     inkscape:label="vastus lateralis L" />
  <path
     style="display:inline;fill:none;stroke:#000000;stroke-width:0.105464;stroke-linecap:round;stroke-linejoin:round;stroke-dasharray:none;stroke-dashoffset:0;stroke-opacity:1;paint-order:stroke fill markers"
     d="m 9.2192804,33.130046 c -0.4707359,0.404716 -0.077067,1.346564 -0.783332,1.594655 -0.2637356,0.75179 -0.095387,1.623583 0.00861,2.397029 0.1716758,0.624335 0.1815086,1.274537 0.099039,1.902239 0.08245,0.610451 -0.012248,1.199347 0.2021846,1.78393 0.4759822,0.980449 0.6689403,2.130059 1.312769,3.051124 0.497462,-0.243443 0.173937,-1.169791 0.203058,-1.6781 C 10.051856,40.78052 9.1049955,39.612985 9.0299308,38.192357 8.9395135,37.268541 8.6844813,36.347111 8.9954679,35.438113 8.7453395,34.642029 9.3827228,33.903053 9.219282,33.130046 Z"
     id="right_vastus_lateralis"
     inkscape:label="vastus lateralis R" />
  <path
     id="left_sartorius"
     style="fill:none;stroke:#000000;stroke-width:0.105464;stroke-linecap:round;stroke-linejoin:round;stroke-dasharray:none;stroke-dashoffset:0;stroke-opacity:1;paint-order:stroke fill markers"
     inkscape:label="sartorius"
     d="m 19.890612,28.042683 c -0.157882,0.03576 -0.222843,0.132888 -0.283234,0.27501 -0.0998,0.565087 -0.205649,1.149109 -0.527324,1.663355 -0.363124,0.622286 -0.122805,1.466226 -0.577795,2.002199 -0.195533,0.664985 -0.348796,1.330304 -0.736399,1.920846 -0.345479,1.08103 -0.835101,2.119813 -1.059801,3.239168 -0.115476,0.589174 -0.0754,1.215727 -0.273963,1.777678 -0.135466,0.90548 0.134731,1.819172 0.06385,2.734496 0.0094,0.246067 0.03203,0.352136 0.06073,0.366655 l 0.0012,0.0012 c 4.58e-4,1.39e-4 0.0028,9.28e-4 0.0031,0.0012 4.83e-4,5.4e-5 0.0028,0 0.0031,0 h 0.0012 c 0.0905,-0.01792 0.231381,-0.817508 0.231735,-1.074224 0.192548,-0.824271 0.25696,-1.68277 0.475831,-2.496575 0.13772,-0.539233 0.300033,-1.016891 0.461413,-1.532567 0.197648,-0.628941 0.449719,-1.233497 0.657102,-1.851835 0.08473,-0.531236 0.329403,-1.068214 0.489223,-1.631423 0.226685,-1.264673 0.68463,-2.479168 0.865142,-3.745908 -0.05687,-0.575209 0.227991,-1.09457 0.145477,-1.648919 z m -2.98269,15.704561 -0.01288,0.02281 -0.0566,0.08977 c 0.284308,0.688686 -0.229434,1.538951 0.35018,2.116542 -0.09532,0.756268 0.862343,1.051197 0.419183,0.07929 0.325499,-0.850818 -0.510885,-1.525922 -0.699291,-2.308134 z" />
  <path
     id="right_sartorius"
     style="fill:none;stroke:#000000;stroke-width:0.105464;stroke-linecap:round;stroke-linejoin:round;stroke-dasharray:none;stroke-dashoffset:0;stroke-opacity:1;paint-order:stroke fill markers"
     inkscape:label="sartorius R"
     d="m 10.098001,28.042683 c -0.08278,0.554362 0.202229,1.073739 0.145246,1.64895 0.180514,1.266727 0.637431,2.481227 0.864113,3.745897 0.159795,0.56321 0.405507,1.100187 0.490251,1.631428 0.207381,0.618323 0.459446,1.222887 0.657096,1.851831 0.161394,0.515677 0.323692,0.993338 0.461408,1.53256 0.21887,0.813813 0.283277,1.672305 0.475827,2.496575 3.55e-4,0.255351 0.139191,1.049338 0.229677,1.074224 4.9e-4,1.03e-4 0.0029,-4.1e-5 0.0032,0 h 0.0012 c 4.71e-4,-4.2e-5 0.0029,-9.26e-4 0.0032,-0.0012 h 0.0012 c 0.02934,-0.0095 0.05304,-0.11755 0.06284,-0.367691 -0.07093,-0.915318 0.198298,-1.829018 0.06288,-2.734507 -0.198427,-0.561939 -0.158309,-1.18848 -0.273875,-1.777663 -0.224634,-1.11936 -0.714252,-2.158133 -1.059732,-3.239167 -0.387628,-0.590531 -0.540888,-1.255859 -0.736429,-1.920833 -0.455142,-0.535963 -0.21473,-1.37992 -0.577865,-2.002195 -0.321673,-0.514245 -0.427511,-1.098275 -0.527324,-1.663356 -0.06034,-0.141842 -0.1244,-0.23911 -0.282201,-0.275002 z m 2.981663,15.704561 c -0.18841,0.782216 -1.024797,1.457318 -0.69933,2.308106 -0.443161,0.971889 0.515511,0.676966 0.420214,-0.07929 0.579609,-0.577586 0.06486,-1.427852 0.349149,-2.116529 l -0.05564,-0.08976 z" />
  <path
     style="display:inline;fill:none;stroke:#000000;stroke-width:0.105464;stroke-linecap:round;stroke-linejoin:round;stroke-dasharray:none;stroke-dashoffset:0;stroke-opacity:1;paint-order:stroke fill markers"
     d="m 17.607539,47.593879 c 0.10305,0.853012 0.707228,1.562143 0.825495,2.403621 0.227273,0.878818 0.235091,1.903924 -0.167985,2.73005 -0.290673,0.242372 -0.901275,1.179783 -1.077085,0.433647 -0.0732,-1.258343 -0.301138,-2.580894 0.116589,-3.798276 0.126495,-0.53771 0.367651,-1.094428 0.177265,-1.671119 l 0.08323,-0.06474 z"
     id="left_gastrocnemius"
     inkscape:label="left_gastrocnemius" />
  <path
     style="display:inline;fill:none;stroke:#000000;stroke-width:0.105464;stroke-linecap:round;stroke-linejoin:round;stroke-dasharray:none;stroke-dashoffset:0;stroke-opacity:1;paint-order:stroke fill markers"
     d="m 12.380576,47.593879 c -0.103094,0.853012 -0.707222,1.562143 -0.825486,2.403621 -0.227286,0.878818 -0.2351,1.903924 0.168052,2.73005 0.290673,0.242372 0.901267,1.179783 1.077079,0.433647 0.07315,-1.258343 0.301139,-2.580894 -0.116495,-3.798276 -0.126527,-0.53771 -0.367647,-1.094428 -0.177258,-1.671119 l -0.08335,-0.06474 z"
     id="right_gastrocnemius"
     inkscape:label="right_gastrocnemius" />
  <path
     style="display:inline;fill:none;stroke:#000000;stroke-width:0.105464;stroke-linecap:round;stroke-linejoin:round;stroke-dasharray:none;stroke-dashoffset:0;stroke-opacity:1;paint-order:stroke fill markers"
     d="m 18.041168,57.049914 c 0.189586,-0.641787 0.129274,-1.342883 0.293756,-2.000327 -0.123339,-0.694945 0.155505,-1.495348 -0.08404,-2.126195 -0.207889,0.518847 -1.08125,0.512188 -0.812337,1.139141 0.205359,0.567387 0.332406,1.082134 0.350732,1.686485 0.214686,0.358869 -0.145504,1.189083 0.251773,1.300896 z"
     id="left_soleus"
     inkscape:label="left_soleus" />
  <path
     style="display:inline;fill:none;stroke:#000000;stroke-width:0.105464;stroke-linecap:round;stroke-linejoin:round;stroke-dasharray:none;stroke-dashoffset:0;stroke-opacity:1;paint-order:stroke fill markers"
     d="m 11.946947,57.049914 c -0.189583,-0.641787 -0.129338,-1.342883 -0.293751,-2.000327 0.123381,-0.694945 -0.155548,-1.495348 0.08381,-2.126195 0.207886,0.518847 1.081252,0.512188 0.812341,1.139141 -0.205366,0.567387 -0.332407,1.082134 -0.350733,1.686485 -0.214689,0.358869 0.14538,1.189083 -0.251758,1.300896 z"
     id="right_soleus"
     inkscape:label="right_soleus" />
  <path
     style="display:inline;fill:none;stroke:#000000;stroke-width:0.105464;stroke-linecap:round;stroke-linejoin:round;stroke-dasharray:none;stroke-dashoffset:0;stroke-opacity:1;paint-order:stroke fill markers"
     d="m 20.139377,45.775408 c 0.436217,0.36457 0.565918,1.073931 0.624644,1.627632 0.283113,0.726966 -0.514497,1.363067 -0.288929,2.128784 0.140949,0.728886 -0.353884,1.390913 -0.153812,2.118633 -0.257021,0.786879 -0.454331,1.590243 -0.573513,2.413557 -0.283385,0.878759 -0.456733,1.84773 -0.825299,2.720116 0.153125,0.493663 -0.543591,1.473196 -0.50381,0.668149 0.161958,-1.345486 0.327625,-2.70362 0.507987,-4.041842 0.291127,-1.205996 0.281136,-2.463116 0.619085,-3.655659 0.13859,-1.002906 0.297738,-1.954638 0.485317,-2.944668 0.07906,-0.342797 -0.08441,-0.72668 0.108397,-1.034702 z"
     id="left_tibialis_anterior"
     inkscape:label="tibialis anterior L" />
  <path
     style="display:inline;fill:none;stroke:#000000;stroke-width:0.105464;stroke-linecap:round;stroke-linejoin:round;stroke-dasharray:none;stroke-dashoffset:0;stroke-opacity:1;paint-order:stroke fill markers"
     d="m 9.8487391,45.775408 c -0.4362094,0.36457 -0.5659147,1.073931 -0.6246375,1.627632 -0.2831197,0.726966 0.5144905,1.363067 0.2889266,2.128784 -0.1410088,0.728886 0.3538824,1.390913 0.15386,2.118633 0.2570193,0.786879 0.4543218,1.590243 0.5735128,2.413557 0.283378,0.878759 0.456735,1.84773 0.825293,2.720116 -0.153278,0.493663 0.543596,1.473196 0.503812,0.668149 -0.162063,-1.345486 -0.327609,-2.70362 -0.507975,-4.041842 -0.291127,-1.205996 -0.281133,-2.463116 -0.619093,-3.655659 -0.138822,-1.002906 -0.297736,-1.954638 -0.4853139,-2.944668 -0.079002,-0.342797 0.084299,-0.72668 -0.108385,-1.034702 z"
     id="right_tibialis_anterior"
     inkscape:label="tibialis anterior R" />
  <path
     style="display:inline;fill:none;stroke:#000000;stroke-width:0.105464;stroke-linecap:round;stroke-linejoin:round;stroke-dasharray:none;stroke-dashoffset:0;stroke-opacity:1;paint-order:stroke fill markers"
     d="m 20.796817,48.545075 c 0.434607,0.368983 -0.04045,1.080191 0.05951,1.615718 -0.04952,1.061113 -0.25151,2.08218 -0.520399,3.105079 -0.247043,1.305861 -0.660137,2.554648 -0.963292,3.854014 -0.26281,0.355707 -0.05477,1.372407 -0.660227,1.216938 -0.0055,-0.612063 0.378646,-1.180185 0.483677,-1.791713 0.388256,-1.192955 0.6717,-2.415519 0.915128,-3.649704 0.186856,-0.630075 0.388452,-1.270392 0.399836,-1.94241 0.16779,-0.679336 0.07603,-1.373678 0.105513,-2.061503 0.01726,-0.136897 0.111136,-0.234758 0.179974,-0.346419 z"
     id="left_extensor_digitorum_longus"
     inkscape:label="extensor digitorum longus L" />
  <path
     style="display:inline;fill:none;stroke:#000000;stroke-width:0.105464;stroke-linecap:round;stroke-linejoin:round;stroke-dasharray:none;stroke-dashoffset:0;stroke-opacity:1;paint-order:stroke fill markers"
     d="m 9.1913045,48.545075 c -0.4346038,0.368983 0.040373,1.080191 -0.05971,1.615718 0.049477,1.061113 0.2515117,2.08218 0.5204004,3.105079 0.247046,1.305861 0.6601351,2.554648 0.9632851,3.854014 0.26281,0.355707 0.05453,1.372407 0.660228,1.216938 0.0062,-0.612063 -0.378636,-1.180185 -0.48366,-1.791713 C 10.403602,55.352156 10.120152,54.129592 9.8767216,52.895407 9.6899156,52.265332 9.4882668,51.625015 9.4768834,50.952997 9.3089576,50.273661 9.400875,49.579319 9.3713662,48.891494 9.3560708,48.754762 9.2602727,48.656736 9.1913045,48.545075 Z"
     id="right_extensor_digitorum_longus_"
     inkscape:label="extensor digitorum longus R" />
  <path
     style="display:inline;fill:none;stroke:#000000;stroke-width:0.105464;stroke-linecap:round;stroke-linejoin:round;stroke-dasharray:none;stroke-dashoffset:0;stroke-opacity:1;paint-order:stroke fill markers"
     d="m 21.160508,49.090608 c 0.06797,0.732477 0.08382,1.454716 -0.01978,2.183165 -0.201142,1.844715 -0.833728,3.64693 -0.93893,5.501898 -0.07057,0.689325 -0.340567,1.421485 -0.286466,2.148665 -0.349107,-0.659255 -0.207933,-1.526341 -0.155439,-2.270322 0.270614,-1.27309 0.560957,-2.537385 0.86279,-3.805848 0.327677,-1.202079 0.333826,-2.509663 0.48231,-3.696083 z"
     id="left_peroneus_longus"
     inkscape:label="peroneus longus L" />
  <path
     style="display:inline;fill:none;stroke:#000000;stroke-width:0.105464;stroke-linecap:round;stroke-linejoin:round;stroke-dasharray:none;stroke-dashoffset:0;stroke-opacity:1;paint-order:stroke fill markers"
     d="m 8.827616,49.090608 c -0.068043,0.732477 -0.08369,1.454716 0.019574,2.183165 0.2011493,1.844715 0.8337275,3.64693 0.9389314,5.501898 0.070596,0.689325 0.3405716,1.421485 0.2864656,2.148665 0.349099,-0.659255 0.207925,-1.526341 0.155478,-2.270322 C 9.957421,55.380924 9.667074,54.116629 9.3652457,52.848166 9.0375688,51.646087 9.0314233,50.338503 8.8829334,49.152083 Z"
     id="right_peroneus_longus"
     inkscape:label="peroneus longus R" />
  <path
     style="display:inline;fill:none;stroke:#000000;stroke-width:0.105464;stroke-linecap:round;stroke-linejoin:round;stroke-dasharray:none;stroke-dashoffset:0;stroke-opacity:1;paint-order:stroke fill markers"
     d="m 21.398299,19.092868 c 0.443193,1.027414 1.100691,1.939871 1.664574,2.902552 -0.323254,0.488542 -0.522275,1.038288 -0.720382,1.58767 -0.369689,-0.148378 -0.207799,-1.022162 -0.328714,-1.454779 -0.04234,-1.015931 -0.517555,-2.018748 -0.615478,-3.035443 z"
     id="left_brachialis"
     inkscape:label="brachialis L" />
  <path
     style="display:inline;fill:none;stroke:#000000;stroke-width:0.105464;stroke-linecap:round;stroke-linejoin:round;stroke-dasharray:none;stroke-dashoffset:0;stroke-opacity:1;paint-order:stroke fill markers"
     d="m 8.5898193,19.092868 c -0.4431861,1.027414 -1.1006859,1.939871 -1.6645766,2.902552 0.3232525,0.488542 0.5222809,1.038288 0.7203841,1.58767 0.3696904,-0.148362 0.2078029,-1.022162 0.3287219,-1.454779 0.042456,-1.015931 0.5175514,-2.018748 0.6154706,-3.035443 z"
     id="right_brachialis"
     inkscape:label="brachialis R" />
  <path
     style="display:inline;fill:none;stroke:#000000;stroke-width:0.105464;stroke-linecap:round;stroke-linejoin:round;stroke-dasharray:none;stroke-dashoffset:0;stroke-opacity:1;paint-order:stroke fill markers"
     d="m 24.426719,20.750472 c 0.605462,0.794757 1.14557,1.654791 1.324203,2.660895 0.25918,1.566805 0.183459,3.184272 0.347351,4.766857 -0.185549,0.572236 0.123109,1.18853 -0.109231,1.723024 -0.327371,-0.147507 -0.115048,-1.074499 -0.429089,-1.457248 -0.462578,-1.493474 -0.816938,-3.016962 -1.293895,-4.497215 -0.03951,-0.652306 -0.459715,-1.277033 -0.125923,-1.930377 0.07706,-0.566814 0.09729,-0.799746 0.286772,-1.265936 z"
     id="left_brachioradialis"
     inkscape:label="brachioradialis L" />
  <path
     style="display:inline;fill:none;stroke:#000000;stroke-width:0.105464;stroke-linecap:round;stroke-linejoin:round;stroke-dasharray:none;stroke-dashoffset:0;stroke-opacity:1;paint-order:stroke fill markers"
     d="m 5.5614082,20.750472 c -0.6054693,0.794757 -1.1455774,1.654791 -1.324206,2.660895 -0.2591943,1.566805 -0.1833809,3.184272 -0.3473605,4.766857 0.1855912,0.572236 -0.1231184,1.18853 0.1094747,1.723024 C 4.3266853,29.753741 4.1145428,28.826749 4.4284027,28.444 4.8909835,26.950526 5.245343,25.427038 5.7222998,23.946785 5.7618248,23.294479 6.1820127,22.669752 5.8482122,22.016408 5.7709872,21.449594 5.7507232,21.216662 5.5614082,20.750472 Z"
     id="right_brachioradialis"
     inkscape:label="brachioradialis R" />
  <path
     style="display:inline;fill:none;stroke:#000000;stroke-width:0.105464;stroke-linecap:round;stroke-linejoin:round;stroke-dasharray:none;stroke-dashoffset:0;stroke-opacity:1;paint-order:stroke fill markers"
     d="m 23.11183,22.310159 c 0.80541,0.174829 0.91411,1.221744 1.098074,1.902399 0.319164,1.099329 0.624082,2.200813 0.93719,3.294218 0.219049,0.877466 0.68427,1.791439 0.545543,2.685736 -0.496725,0.01837 -0.415888,-0.914157 -0.645066,-1.323966 -0.388564,-0.907734 -0.66886,-1.893235 -1.025105,-2.777072 -0.364864,-0.788466 -0.590071,-1.644399 -1.001548,-2.424464 -0.339556,-0.433371 -0.263551,-1.036116 0.06923,-1.331661 z"
     id="left_pronator_teres"
     inkscape:label="pronator teres L" />
  <path
     style="display:inline;fill:none;stroke:#000000;stroke-width:0.105464;stroke-linecap:round;stroke-linejoin:round;stroke-dasharray:none;stroke-dashoffset:0;stroke-opacity:1;paint-order:stroke fill markers"
     d="m 6.876285,22.310159 c -0.8054028,0.174799 -0.9140994,1.221744 -1.0980619,1.902399 -0.3191697,1.099329 -0.624086,2.200813 -0.9372018,3.294218 -0.2190383,0.877466 -0.6842761,1.791439 -0.5455304,2.685736 0.4967226,0.01846 0.4158798,-0.914157 0.6450517,-1.323966 0.3885625,-0.907734 0.6688697,-1.893235 1.0251089,-2.777072 0.3648767,-0.788466 0.5900656,-1.644399 1.0015533,-2.424464 0.3395554,-0.433371 0.2635488,-1.036116 -0.069098,-1.331661 z"
     id="right_pronator_teres"
     inkscape:label="right_pronator_teres" />
  <path
     style="display:inline;fill:none;stroke:#000000;stroke-width:0.105464;stroke-linecap:round;stroke-linejoin:round;stroke-dasharray:none;stroke-dashoffset:0;stroke-opacity:1;paint-order:stroke fill markers"
     d="m 22.503351,23.576098 c 0.524541,-0.02932 0.502228,0.766682 0.77978,1.104939 0.434719,1.292867 1.050041,2.525673 1.441338,3.840202 0.23774,0.538924 0.516704,1.242568 0.311566,1.799955 -0.404953,0.04234 -0.507846,-0.885523 -0.727899,-1.246432 -0.691771,-1.350287 -1.114592,-2.804991 -1.727847,-4.190772 -0.100043,-0.480331 -0.386837,-0.878392 -0.0768,-1.307892 z"
     id="left_flexor_fasciae_latae"
     inkscape:label="left_flexor_fasciae_latae" />
  <path
     style="display:inline;fill:none;stroke:#000000;stroke-width:0.105464;stroke-linecap:round;stroke-linejoin:round;stroke-dasharray:none;stroke-dashoffset:0;stroke-opacity:1;paint-order:stroke fill markers"
     d="M 7.484764,23.576098 C 6.9602368,23.546778 6.9825423,24.34278 6.7049951,24.681037 6.2702681,25.973904 5.6549435,27.20671 5.2636486,28.521239 5.0259096,29.060163 4.746942,29.763807 4.9520795,30.321194 5.3570373,30.363509 5.4599326,29.435671 5.679989,29.074762 6.3717529,27.724475 6.7945713,26.269771 7.4078297,24.88399 7.507983,24.403659 7.7946667,24.005598 7.484764,23.576098 Z"
     id="right_flexor_fasciae_latae"
     inkscape:label="right_flexor_fasciae_latae"
     inkscape:export-filename="male_front.svg"
     inkscape:export-xdpi="96"
     inkscape:export-ydpi="96" />
  <metadata
     id="metadata1">
    <rdf:RDF>
      <cc:Work
         rdf:about="">
        <dc:title>Male Front</dc:title>
      </cc:Work>
    </rdf:RDF>
  </metadata>
</svg>
