<?xml version="1.0" encoding="UTF-8" standalone="no"?>
<!-- Created with Inkscape (http://www.inkscape.org/) -->

<svg
   width="57.563999"
   height="122.76"
   viewBox="0 0 15.230474 32.48025"
   version="1.1"
   id="svg1"
   inkscape:version="1.4.2 (f4327f4, 2025-05-13)"
   sodipodi:docname="source-male-front.svg"
   inkscape:export-filename="male_front.svg"
   inkscape:export-xdpi="96"
   inkscape:export-ydpi="96"
   xmlns:inkscape="http://www.inkscape.org/namespaces/inkscape"
   xmlns:sodipodi="http://sodipodi.sourceforge.net/DTD/sodipodi-0.dtd"
   xmlns="http://www.w3.org/2000/svg"
   xmlns:svg="http://www.w3.org/2000/svg"
   xmlns:rdf="http://www.w3.org/1999/02/22-rdf-syntax-ns#"
   xmlns:cc="http://creativecommons.org/ns#"
   xmlns:dc="http://purl.org/dc/elements/1.1/">
  <title
     id="title1">Male Front</title>
  <sodipodi:namedview
     id="namedview1"
     pagecolor="#ffffff"
     bordercolor="#111111"
     borderopacity="1"
     inkscape:showpageshadow="0"
     inkscape:pageopacity="0"
     inkscape:pagecheckerboard="1"
     inkscape:deskcolor="#d1d1d1"
     inkscape:document-units="px"
     inkscape:zoom="3.1536195"
     inkscape:cx="111.30068"
     inkscape:cy="117.6426"
     inkscape:window-width="2194"
     inkscape:window-height="1300"
     inkscape:window-x="-8"
     inkscape:window-y="-8"
     inkscape:window-maximized="1"
     inkscape:current-layer="svg1" />
  <defs
     id="defs1" />
  <path
     style="display:inline;fill:none;stroke:#000000;stroke-width:0.0529167;stroke-linecap:round;stroke-linejoin:round;stroke-dasharray:none;stroke-dashoffset:0;stroke-opacity:1;paint-order:stroke fill markers"
     d="m 7.7385668,17.106669 c 8.731e-4,1.165638 0.1002821,2.358301 0.4823947,3.460195 -0.01392,0.734391 0.2931424,1.421045 0.1988417,2.157622 -0.057678,0.6684 0.6003883,1.256552 0.2288281,1.911596 -0.1968053,0.674619 -0.1355315,1.403239 -0.034293,2.086566 0.2939859,0.87353 0.3774582,1.816182 0.3225995,2.72315 -0.370905,0.511204 9.79e-4,1.085913 -0.064888,1.643792 0.2587263,0.353923 -0.1521282,0.568497 0.090934,0.971238 0.2858153,0.145167 0.5916498,0.06455 0.8670752,0.0092 0.25716,0.155178 0.471653,0.0011 0.688219,0.01876 0.439961,0.235048 0.380572,-0.595826 0.103332,-0.750933 -0.286658,-0.262453 -0.545528,-0.673108 -0.286222,-1.043474 -0.09273,-0.466106 -0.281679,-0.916101 -0.110801,-1.392354 0.05644,-1.232971 0.456485,-2.416984 0.562127,-3.639997 0.01784,-0.667926 -0.306927,-1.278397 -0.217498,-1.952132 0.114279,-0.781068 -0.439352,-1.597166 0.02344,-2.328755 0.495399,-0.8904 0.165773,-1.935253 0.43054,-2.884859 -0.0095,-1.371757 -0.374107,-2.708791 -0.554456,-4.063693 -0.326483,-0.605206 -0.01091,-1.28769 -0.223492,-1.925104 -0.108862,-0.624913 -0.132437,-1.255014 0.08188,-1.857979 0.09036,-0.264603 0.191673,-1.1877207 0.290284,-0.9990254 0.193347,0.9006714 0.433856,1.8027524 0.482022,2.7205574 0.445298,1.200312 1.027935,2.375061 1.250254,3.640707 -0.176934,0.568482 -0.292689,1.204378 0.0772,1.726543 0.149607,0.382047 0.251397,0.85016 0.451437,1.17018 0.370076,-0.450592 0.05795,0.37419 0.469396,0.403432 0.08898,-0.590127 0.284953,0.668658 0.448197,0.02764 -0.29359,-0.638428 0.340497,0.128081 0.356665,-0.527706 0.0157,-0.470882 -0.03249,-0.956116 -0.0492,-1.406788 0.176273,0.154525 0.596047,0.562749 0.836107,0.115664 -0.431976,-0.399089 -0.733687,-0.904159 -0.982581,-1.431767 -0.457303,-0.07879 -0.610098,-0.415954 -0.620984,-0.848745 -0.291774,-1.212132 -0.03,-2.516958 -0.4812,-3.687912 C 12.678648,10.719389 12.186213,10.430276 12.314585,9.9127572 12.353037,9.3773028 12.105976,8.9012192 11.968783,8.4107124 12.055155,7.5407516 12.149757,6.4571853 11.367096,5.8631015 10.968154,5.473146 10.437182,5.2280997 9.8721696,5.2946064 9.2526954,5.0704467 8.4484499,4.67369 8.5269952,3.8981992 8.7846591,3.6948484 8.6878182,3.0111905 8.9086122,2.9773373 9.2155347,2.9526914 9.2442949,2.1137272 9.0744382,2.0010703 8.7817657,2.0552204 9.0760786,1.2691664 8.8348011,1.0200105 8.3993335,-0.06182669 6.3975458,0.08613071 6.2426199,1.2933475 6.2282398,1.8071352 6.183553,1.9851146 5.9997895,2.1888641 5.8532508,2.658384 6.2070757,3.0017337 6.377024,3.0942802 6.2700786,3.5505179 6.7854099,3.7797553 6.5970041,4.2236607 6.4766142,4.8178339 5.7980955,5.0930127 5.2825301,5.2977156 4.480092,5.2037223 3.7420138,5.7546996 3.34067,6.405464 3.0149621,7.0758221 3.1806995,7.8443917 3.1652915,8.5496909 2.8663761,9.1112425 2.8241449,9.7402325 2.8331032,10.365048 2.3204789,10.912083 2.0672773,11.620264 2.0380648,12.36291 2.0033159,13.405298 1.937187,14.448425 1.696117,15.467474 c -0.4363022,0.09536 -0.6458737,0.418823 -0.80571145,0.808518 -0.0733313,0.361223 -0.74321313,0.660087 -0.57215296,0.943998 0.26507873,0.490753 0.71134481,-0.493884 0.76725921,-0.0751 -0.11732044,0.447534 -0.096905,0.953936 -0.049986,1.402124 0.2875566,0.387215 0.4598101,-0.160892 0.3436414,0.526531 0.3762519,0.08124 0.2154516,-0.566691 0.534002,-0.168915 0.2493284,-0.559255 0.0604,-0.442836 0.4457611,-0.487572 C 2.5143885,17.726503 2.9561008,17.119605 2.9945538,16.40795 2.8046327,15.858291 2.7484987,15.276496 3.0152548,14.739219 3.3116537,13.729384 3.8033773,12.7701 4.0873583,11.768271 4.1098108,10.863984 4.4037838,9.9993487 4.5666978,9.1157619 4.707105,9.7722426 4.9027437,10.432925 4.99993,11.088227 c 0.00106,0.819105 -0.2813995,1.615511 -0.138456,2.435132 -0.3870735,1.180543 -0.4469423,2.443479 -0.6909297,3.659817 -0.1339233,0.912055 0.1682147,1.802254 0.099458,2.716786 -0.037241,0.731055 0.5964896,1.299075 0.4712734,2.033722 -0.1438386,0.566997 -0.1913575,1.144005 -0.1563772,1.731582 -0.00209,0.678848 -0.348184,1.330128 -0.176172,2.019535 0.2010516,1.136468 0.4604276,2.263725 0.5517446,3.417396 0.2058151,0.487106 -0.290081,0.967277 -0.052673,1.427062 0.1578444,0.611401 -0.7902818,0.848145 -0.5620017,1.480203 0.1517346,0.252555 0.5355278,-0.01783 0.6907959,0.145082 0.2801194,-0.0328 0.5528272,-0.05423 0.8206832,-0.02793 0.325869,0.295084 0.5986375,-0.524547 0.3026005,-0.678366 0.2416381,-0.253425 0.022598,-0.724572 0.2035193,-1.045471 0.146304,-0.449649 -0.151131,-0.810422 -0.1681117,-1.228942 -0.00603,-0.886431 0.09916,-1.76107 0.3863604,-2.602312 0.054076,-0.759617 0.1239981,-1.546259 -0.1831572,-2.267796 -0.041438,-0.596685 0.4386574,-1.114786 0.3351106,-1.734391 -0.068671,-0.703716 0.2329497,-1.36334 0.2053302,-2.069618 0.4042605,-1.074341 0.4644257,-2.250242 0.4772662,-3.38992 0.1081609,-0.01726 0.2138558,-0.01729 0.3223723,-0.0031 z"
     id="outline"
     inkscape:label="outline front"
     inkscape:export-filename="male_front.svg"
     inkscape:export-xdpi="96"
     inkscape:export-ydpi="96" />
  <g
     id="digastric"
     inkscape:label="digastric">
    <path
       style="display:inline;fill:none;stroke:#000000;stroke-width:0.0529167;stroke-linecap:round;stroke-linejoin:round;stroke-dasharray:none;stroke-dashoffset:0;stroke-opacity:1;paint-order:stroke fill markers"
       d="M 7.9686461,3.9500789 C 7.7054971,3.9126859 7.5992624,4.4439959 7.7999115,4.5555414 7.8304836,4.3377795 7.9755417,4.0909936 7.9686461,3.9500789 Z"
       id="left_digastric"
       inkscape:label="digastric L" />
    <path
       style="display:inline;fill:none;stroke:#000000;stroke-width:0.0529167;stroke-linecap:round;stroke-linejoin:round;stroke-dasharray:none;stroke-dashoffset:0;stroke-opacity:1;paint-order:stroke fill markers"
       d="M 7.1051199,3.9500789 C 7.3682687,3.9126859 7.4745034,4.4439959 7.2738545,4.5555414 7.2432822,4.3377795 7.0982244,4.0909936 7.1051199,3.9500789 Z"
       id="right_digastric"
       inkscape:label="digastric R" />
  </g>
  <g
     id="sternocleidomastoid"
     inkscape:label="sternocleidomastoid">
    <path
       id="left_sternocleidomastoid"
       style="fill:none;stroke:#000000;stroke-width:0.0529167;stroke-linecap:round;stroke-linejoin:round;stroke-dasharray:none;stroke-dashoffset:0;stroke-opacity:1;paint-order:stroke fill markers"
       inkscape:label="sternocleidomastoid L"
       d="M 8.4599482,3.7563598 8.3359248,3.8705648 C 8.2646336,4.4340585 7.9258336,5.1591144 7.8393143,5.6864745 7.8814127,5.6719779 7.9490823,5.7065934 7.9865922,5.6683875 8.0421373,5.611812 8.040536,5.5271321 8.0821936,5.4317096 8.1310886,5.3197083 8.1889117,5.1929303 8.2392899,5.0813433 L 8.4206743,4.6488117 C 8.497128,4.3668683 8.4667136,4.0588759 8.4599482,3.7563598 Z m -0.039274,0.8924519 -0.090434,0.2268596 c 0.040007,-0.073033 0.069376,-0.1491993 0.090434,-0.2268596 z m 0.064596,0.1415934 c -0.00692,0.00138 -0.015229,0.00908 -0.02377,0.021704 -0.054393,0.080381 -0.094823,0.280802 -0.1472776,0.3617351 -0.00288,0.080698 -0.094128,0.2432733 -0.1757,0.3493325 -0.089867,0.1168443 0.03332,0.2010498 0.2067057,0.1751833 L 8.2904513,5.709211 C 8.3780533,5.705361 8.459724,5.712401 8.4981905,5.646166 8.5859505,5.4950614 8.5357145,5.1524122 8.5162775,4.9578361 8.516024,4.831611 8.5044075,4.7866335 8.4852709,4.7904035 Z M 8.2899328,5.709212 c -0.046084,0.00204 -0.093435,0.00704 -0.1374593,0.027389 z" />
    <path
       id="right_sternocleidomastoid"
       style="fill:none;stroke:#000000;stroke-width:0.0529167;stroke-linecap:round;stroke-linejoin:round;stroke-dasharray:none;stroke-dashoffset:0;stroke-opacity:1;paint-order:stroke fill markers"
       inkscape:label="right_sternocleidomastoid"
       d="m 6.6135493,3.7563598 c -0.00677,0.3025161 -0.037179,0.6105085 0.039275,0.8924519 L 6.834725,5.0813433 c 0.050378,0.111587 0.1076846,0.238365 0.1565796,0.3503663 0.041657,0.095423 0.040056,0.1801024 0.095601,0.2366779 0.03751,0.038206 0.1051793,0.00359 0.1472777,0.018087 C 7.1476639,5.1591144 6.8093809,4.4340585 6.7380897,3.8705648 Z m 0.039275,0.8924519 c 0.021058,0.07766 0.050427,0.1538267 0.090433,0.2268596 z m -0.06873,0.1415934 c -0.016378,0.00437 -0.026641,0.05195 -0.026872,0.1674318 -0.019436,0.1945761 -0.069673,0.5372253 0.018087,0.6883299 0.038544,0.066365 0.1204527,0.059147 0.208256,0.063045 L 6.728788,5.6983614 C 6.9021737,5.7242271 7.0253608,5.6400224 6.935494,5.5231781 6.8539219,5.4171188 6.7621586,5.2545438 6.7592773,5.1738456 6.7068231,5.0929125 6.6663926,4.8924914 6.6119993,4.8121105 6.6014478,4.7965159 6.5920921,4.7882689 6.5840943,4.7904067 Z M 6.7835647,5.709212 6.9215409,5.7366006 C 6.8775166,5.7162488 6.8296496,5.7112588 6.7835647,5.709212 Z" />
  </g>
  <g
     id="scalene"
     inkscape:label="scalene">
    <path
       style="display:inline;fill:none;stroke:#000000;stroke-width:0.0529167;stroke-linecap:round;stroke-linejoin:round;stroke-dasharray:none;stroke-dashoffset:0;stroke-opacity:1;paint-order:stroke fill markers"
       d="M 8.5542542,4.5605042 C 8.6552165,4.9113559 8.5725713,5.2678774 8.5790694,5.6275073 8.9102555,5.8359288 9.0438579,5.5651958 8.7925162,5.2879249 8.7374998,5.0559629 8.772945,4.7074566 8.5542542,4.5605042 Z"
       id="left_scalene"
       inkscape:label="scalene L" />
    <path
       style="display:inline;fill:none;stroke:#000000;stroke-width:0.0529167;stroke-linecap:round;stroke-linejoin:round;stroke-dasharray:none;stroke-dashoffset:0;stroke-opacity:1;paint-order:stroke fill markers"
       d="M 6.5195116,4.5605042 C 6.4185495,4.9113559 6.5011945,5.2678774 6.4946963,5.6275073 6.1635102,5.8359288 6.0299081,5.5651958 6.2812496,5.2879249 6.336266,5.0559629 6.3008208,4.7074566 6.5195116,4.5605042 Z"
       id="right_scalene"
       inkscape:label="scalene R" />
  </g>
  <g
     id="upper_trapezius"
     inkscape:label="upper_trapezius">
    <path
       style="display:inline;fill:none;stroke:#000000;stroke-width:0.0529167;stroke-linecap:round;stroke-linejoin:round;stroke-dasharray:none;stroke-dashoffset:0;stroke-opacity:1;paint-order:stroke fill markers"
       d="M 9.8396153,5.3644787 C 9.4404199,5.2583207 9.0956575,5.031649 8.7726169,4.7838305 8.8731493,5.0386679 8.8158966,5.3490209 9.0207577,5.562991 9.1066232,5.7924361 9.5568879,5.48195 9.7701391,5.4438838 l 0.034854,-0.039835 z"
       id="left_upper_trapezius"
       inkscape:label="trapezius L" />
    <path
       style="display:inline;fill:none;stroke:#000000;stroke-width:0.0529167;stroke-linecap:round;stroke-linejoin:round;stroke-dasharray:none;stroke-dashoffset:0;stroke-opacity:1;paint-order:stroke fill markers"
       d="M 5.2341505,5.3644787 C 5.6333461,5.2583207 5.9781082,5.031649 6.3011491,4.7838305 6.2006167,5.0386679 6.2578694,5.3490209 6.0530081,5.562991 5.9671429,5.7924361 5.5168781,5.48195 5.3036266,5.4438838 L 5.2687728,5.404049 Z"
       id="right_upper_trapezius"
       inkscape:label="upper_trapezius R" />
  </g>
  <g
     id="anterior_deltoid"
     inkscape:label="anterior_deltoid">
    <path
       id="left_deltoid"
       style="fill:none;stroke:#000000;stroke-width:0.0529167;stroke-linecap:round;stroke-linejoin:round;stroke-dasharray:none;stroke-dashoffset:0;stroke-opacity:1;paint-order:stroke fill markers"
       inkscape:label="deltoid L"
       d="m 10.130131,5.3702146 c -0.04705,5.821e-4 -0.09412,0.00361 -0.1415939,0.0093 C 9.9028951,5.5029391 9.7480872,5.5495256 9.6211179,5.6177455 9.3068924,5.7300286 9.0364914,5.785236 9.5270664,5.875611 c 0.4517007,0.071722 0.9565446,0.3250674 1.0355956,0.8216551 -0.03514,0.3107314 0.128759,0.5329049 0.319361,0.7565429 0.08821,0.1432123 0.400441,0.5903 0.511079,0.3684529 C 11.531489,7.4096358 11.777658,6.9851105 11.768273,6.5288011 11.482901,5.91254 10.835836,5.3616302 10.130131,5.3702146 Z m 1.709456,1.3389363 c -0.05667,0.4280096 -0.263337,0.8656312 -0.395842,1.2314494 -0.05809,0.078133 0.338743,0.3775839 0.430465,0.4811074 0.05001,-0.5668219 0.144577,-1.1603034 -0.03462,-1.7125568 z" />
    <path
       id="right_deltoid"
       style="fill:none;stroke:#000000;stroke-width:0.0529167;stroke-linecap:round;stroke-linejoin:round;stroke-dasharray:none;stroke-dashoffset:0;stroke-opacity:1;paint-order:stroke fill markers"
       inkscape:label="deltoid"
       d="M 4.9433673,5.3702146 C 4.2376622,5.3616288 3.590597,5.9125392 3.3052243,6.5288003 3.2958395,6.9851097 3.5420084,7.409635 3.6803955,7.8222611 3.7910337,8.0441082 4.1037815,7.5970206 4.191992,7.4538082 4.3825938,7.2301702 4.5459759,7.0079967 4.5108355,6.6972653 4.5898872,6.2006776 5.0952474,5.9473324 5.546948,5.8756103 6.0375231,5.7852352 5.7666054,5.7300278 5.4523801,5.6177447 5.3254108,5.5495248 5.1711196,5.5029383 5.0854774,5.3795165 c -0.047478,-0.00569 -0.095063,-0.00873 -0.1421101,-0.0093 z M 3.2339112,6.7091509 C 3.0547113,7.2614043 3.1492789,7.8548858 3.1992878,8.4217077 3.2910098,8.3181842 3.688356,8.0187333 3.6302694,7.9406003 3.4977642,7.5747821 3.2905833,7.1371605 3.2339112,6.7091509 Z" />
  </g>
  <g
     id="biceps"
     inkscape:label="biceps">
    <path
       id="left_biceps"
       style="fill:none;stroke:#000000;stroke-width:0.0529167;stroke-linecap:round;stroke-linejoin:round;stroke-dasharray:none;stroke-dashoffset:0;stroke-opacity:1;paint-order:stroke fill markers"
       inkscape:label="left_biceps"
       d="m 10.62364,7.3695757 c -0.05409,0.2183964 -0.01299,0.4530701 -0.06925,0.6712768 -0.04602,0.3537545 -0.0061,0.7628119 0.100252,1.0888225 0.206118,0.6603267 0.606793,1.262895 0.967383,1.858801 0.280264,0.463544 0.192908,-0.238195 0.190686,-0.456303 C 11.709429,9.9582333 11.686014,9.3658225 11.452531,8.8237505 11.252628,8.311486 10.985499,7.7967931 10.62364,7.3695757 Z m 0.491443,0.4960938 v 0.00206 l -0.0052,0.05271 c 0.126367,0.2507552 0.286952,0.4788509 0.378788,0.747758 0.147219,0.2923857 0.204333,0.5999093 0.248564,0.9172567 0.08268,0.361261 0.141618,0.7347508 0.158647,1.1110428 -0.06475,0.400599 0.128977,0.63753 0.168464,0.120406 0.272225,-0.690464 0.169095,-1.4721456 -0.09302,-2.1569737 -0.28685,-0.240701 -0.513428,-0.5948304 -0.856242,-0.794263 z" />
    <path
       id="right_biceps"
       style="fill:none;stroke:#000000;stroke-width:0.0529167;stroke-linecap:round;stroke-linejoin:round;stroke-dasharray:none;stroke-dashoffset:0;stroke-opacity:1;paint-order:stroke fill markers"
       inkscape:label="right_biceps"
       d="M 4.4498573,7.3695757 C 4.0879994,7.7967931 3.8213862,8.311486 3.6214842,8.8237505 3.3880008,9.3658225 3.3640692,9.9582333 3.2607828,10.532173 3.2585603,10.750281 3.1712047,11.45202 3.4514688,10.988476 3.8120585,10.39257 4.2132502,9.7900017 4.4193683,9.129675 4.5257019,8.8036644 4.5651198,8.394607 4.5191037,8.0408525 4.462842,7.8226458 4.5039484,7.5879721 4.4498573,7.3695757 Z M 3.9589314,7.8656695 C 3.6161169,8.065102 3.3895388,8.4192315 3.102653,8.6599362 2.8405403,9.3447643 2.7368938,10.126446 3.0091183,10.81691 3.048606,11.334034 3.242848,11.097103 3.1781002,10.696504 3.1951288,10.320212 3.2535483,9.946722 3.3362303,9.585461 3.380461,9.2681137 3.4375752,8.9605901 3.5847939,8.6682044 3.67663,8.3992972 3.8372154,8.1712015 3.9635822,7.9204464 l -0.00465,-0.05271 z" />
  </g>
  <g
     id="latissimus_dorsi_f"
     inkscape:label="latissimus_dorsi_f">
    <path
       style="display:inline;fill:none;stroke:#000000;stroke-width:0.0529167;stroke-linecap:round;stroke-linejoin:round;stroke-dasharray:none;stroke-dashoffset:0;stroke-opacity:1;paint-order:stroke fill markers"
       d="M 10.390484,7.657295 C 10.227861,8.0437531 10.180608,8.4553389 10.162196,8.8731824 9.9728555,9.2683368 10.088611,9.7495667 9.9934615,10.1784 c 0.1336435,0.403697 0.1955565,0.455368 0.2282865,-0.02978 0.151058,-0.2208102 0.10222,-0.553701 0.20643,-0.8053192 0.158489,-0.4095287 -0.03485,-0.8530216 0.03179,-1.2889843 -0.01534,-0.1356839 0.03681,-0.2880807 -0.06948,-0.3970245 z"
       id="left_latissimus_dorsi_f"
       inkscape:label="latissimus dorsi L" />
    <path
       style="display:inline;fill:none;stroke:#000000;stroke-width:0.0529167;stroke-linecap:round;stroke-linejoin:round;stroke-dasharray:none;stroke-dashoffset:0;stroke-opacity:1;paint-order:stroke fill markers"
       d="M 4.6832817,7.657295 C 4.8459046,8.0437531 4.8931581,8.4553389 4.9115697,8.8731824 5.1009106,9.2683368 4.9851554,9.7495667 5.0803043,10.1784 4.9466606,10.582097 4.8847484,10.633768 4.8520178,10.148623 4.7009595,9.9278128 4.7497982,9.594922 4.6455883,9.3433038 4.4870987,8.9337751 4.6804416,8.4902822 4.6138021,8.0543195 4.62914,7.9186356 4.5769962,7.7662388 4.6832817,7.657295 Z"
       id="right_latissimus_dorsi_f"
       inkscape:label="latissimus dorsi R" />
  </g>
  <g
     id="pectolaris_major"
     inkscape:label="pectolaris_major">
    <path
       style="display:inline;fill:none;stroke:#000000;stroke-width:0.0529167;stroke-linecap:round;stroke-linejoin:round;stroke-dasharray:none;stroke-dashoffset:0;stroke-opacity:1;paint-order:stroke fill markers"
       d="m 8.087753,5.865722 c 0.7093572,-0.1242957 1.4650881,0.00936 2.099257,0.3473989 0.28913,0.2795035 0.387443,0.7380385 0.30273,1.1116686 C 10.157476,7.7930911 10.141727,8.5052594 9.538684,8.7447571 9.1314522,8.9863306 8.6777384,8.8727635 8.2369,8.8346006 7.8662994,8.8095128 7.6445813,8.4930351 7.6703392,8.135391 7.6485191,7.6013047 7.6669737,7.0689575 7.7620586,6.5450436 7.8381351,6.3050425 7.8810492,6.0354014 8.087753,5.865722 Z"
       id="left_pectolaris_major"
       inkscape:label="pectolaris major L" />
    <path
       style="display:inline;fill:none;stroke:#000000;stroke-width:0.0529167;stroke-linecap:round;stroke-linejoin:round;stroke-dasharray:none;stroke-dashoffset:0;stroke-opacity:1;paint-order:stroke fill markers"
       d="M 6.986013,5.865722 C 6.2766556,5.7414263 5.5209247,5.8750776 4.886756,6.2131209 4.5976263,6.4926244 4.4993132,6.9511594 4.5840256,7.3247895 4.9162896,7.7930911 4.9320389,8.5052594 5.5350817,8.7447571 5.9423136,8.9863306 6.3960274,8.8727635 6.8368658,8.8346006 7.2074663,8.8095128 7.4291845,8.4930351 7.4034268,8.135391 7.425247,7.6013047 7.4067923,7.0689575 7.3117071,6.5450436 7.2356307,6.3050425 7.1927166,6.0354014 6.986013,5.865722 Z"
       id="right_pectolaris_major"
       inkscape:label="pectolaris major R" />
  </g>
  <g
     id="rectus_abdominis"
     inkscape:label="rectus_abdominis">
    <path
       id="left_rectus_abdominis"
       style="fill:none;stroke:#000000;stroke-width:0.0529167;stroke-linecap:round;stroke-linejoin:round;stroke-dasharray:none;stroke-dashoffset:0;stroke-opacity:1;paint-order:stroke fill markers"
       inkscape:label="left_rectus_abdominis"
       d="m 7.8444822,8.8433874 c -0.2781255,0.14068 -0.2123017,0.56296 -0.214974,0.8304402 0.079605,0.2852158 0.5262425,0.2433154 0.7090005,0.4733564 0.2469338,0.06622 0.5018085,0.54792 0.7069336,0.254764 C 9.0472679,10.00072 9.1317464,9.5760416 9.0082352,9.1891028 8.7340552,8.8583303 8.2100329,9.0243772 7.8444822,8.8433874 Z m -0.05426,1.1193115 c -0.054795,-4.498e-4 -0.1095507,0.013539 -0.1638143,0.047026 0.013261,0.370565 -0.025032,0.745366 0.0093,1.113627 0.145564,0.307933 0.581706,0.113117 0.8278563,0.248046 0.2896251,0.104839 0.6563297,0.09645 0.5338178,-0.307991 C 9.0805136,10.689698 8.6852666,10.561517 8.4749355,10.33942 8.2663798,10.235377 8.0276691,9.9646661 7.7902222,9.9626989 Z m 0.063045,1.3890621 c -0.1681168,-5.02e-4 -0.3019755,0.06812 -0.2304769,0.289905 0.00266,0.248921 -0.00725,0.496832 0.023254,0.745174 0.1456174,0.39521 0.6093396,0.174631 0.9198406,0.213424 0.3902281,0.05071 0.4932722,-0.412717 0.4661214,-0.719336 -0.028496,-0.366132 -0.4949054,-0.445012 -0.8051188,-0.441834 -0.091369,-0.04475 -0.2428631,-0.08695 -0.3736202,-0.08733 z m 1.043347,1.35754 c -0.3642698,0.02419 -0.7290609,-0.01876 -1.0919229,0.01499 0.076195,0.188158 -0.065228,0.234698 -0.1782836,0.337448 0.00897,0.734496 0.02758,1.468947 0.011369,2.203482 0.053261,0.263579 -0.1330679,0.734521 0.1224732,0.848527 0.1900349,-0.220354 0.4075637,-0.414542 0.5457031,-0.675927 0.1382903,-0.253647 0.2472267,-0.538557 0.3110921,-0.816488 0.07273,-0.218323 0.1846209,-0.519 0.2335776,-0.813387 0.046126,-0.349735 0.342289,-0.80473 0.045991,-1.098641 z" />
    <path
       id="right_rectus_abdominis"
       style="fill:none;stroke:#000000;stroke-width:0.0529167;stroke-linecap:round;stroke-linejoin:round;stroke-dasharray:none;stroke-dashoffset:0;stroke-opacity:1;paint-order:stroke fill markers"
       inkscape:label="right_rectus_abdominis"
       d="M 7.2290158,8.8433874 C 6.8634649,9.0243772 6.3399593,8.858331 6.0657793,9.1891028 5.9422681,9.5760416 6.0262185,10.00072 6.0280558,10.401948 6.2331806,10.695104 6.4885723,10.213404 6.7355058,10.147184 6.9182638,9.917143 7.3643841,9.9590434 7.4439898,9.6738276 7.4413175,9.4063474 7.5071413,8.9840674 7.2290158,8.8433874 Z m 0.054777,1.1193115 C 7.0463467,9.9646568 6.8076357,10.235377 6.5990803,10.33942 6.388749,10.561517 5.9929852,10.689698 6.0761147,11.063407 c -0.1225119,0.404442 0.2447091,0.41283 0.5343342,0.307991 0.2461503,-0.134929 0.6822924,0.05989 0.8278563,-0.248046 0.034333,-0.368261 -0.00396,-0.743062 0.0093,-1.113627 C 7.3933412,9.976239 7.338586,9.962245 7.2837908,9.962699 Z m -0.063045,1.3890621 c -0.1307576,3.97e-4 -0.2822514,0.04258 -0.3736207,0.08733 -0.3102131,-0.0032 -0.7771397,0.0757 -0.8056356,0.441834 -0.02715,0.306619 0.07641,0.770047 0.4666382,0.719336 0.3105012,-0.03879 0.7737067,0.181786 0.9193238,-0.213424 0.030507,-0.248342 0.021106,-0.496253 0.02377,-0.745174 0.071498,-0.221783 -0.06236,-0.2904 -0.2304769,-0.289905 z m -1.043864,1.35754 c -0.2962971,0.293911 -1.341e-4,0.748906 0.045992,1.098641 0.048957,0.294387 0.1613646,0.595064 0.2340943,0.813387 0.063865,0.277931 0.1728015,0.562841 0.3110921,0.816488 0.1381392,0.261385 0.3556682,0.455573 0.5457031,0.675927 0.2555414,-0.114006 0.068696,-0.584948 0.1219565,-0.848527 -0.016211,-0.734535 0.00292,-1.468986 0.011885,-2.203482 -0.1130556,-0.10275 -0.2549958,-0.14929 -0.1788006,-0.337448 -0.3628623,-0.03374 -0.7276528,0.0092 -1.0919229,-0.01499 z" />
  </g>
  <g
     id="external_abdominal_oblique"
     inkscape:label="external_abdominal_oblique">
    <path
       id="left_external_abdominal_oblique"
       style="fill:none;stroke:#000000;stroke-width:0.0529167;stroke-linecap:round;stroke-linejoin:round;stroke-dasharray:none;stroke-dashoffset:0;stroke-opacity:1;paint-order:stroke fill markers"
       inkscape:label="left_external_abdominal_oblique"
       d="M 10.024711,8.5364295 C 9.9178573,8.5361649 9.6993105,8.8344842 9.5560055,8.8382198 9.4574908,8.9347181 8.978287,8.9849728 9.3782386,9.1012529 c 0.2984632,0.060779 0.7370454,0.011237 0.7095174,-0.3917074 0.0035,-0.1270796 -0.02123,-0.1730078 -0.06305,-0.173116 z M 9.8572791,9.1684322 C 9.7784584,9.1672151 9.6759282,9.1893872 9.5668574,9.2108068 9.5072788,9.1931512 9.1740705,9.1220325 9.3182938,9.2702349 9.4789094,9.3834943 9.8583166,9.7523885 9.9735511,9.4810747 10.053965,9.2371577 9.9886455,9.1704581 9.8572791,9.1684322 Z M 9.221659,9.3348303 C 9.21111,9.3352007 9.200672,9.3367103 9.189619,9.3394803 9.1333061,9.5943542 9.0422088,10.081224 9.4573035,9.9999065 9.6892314,9.9445861 10.119342,9.667402 9.6598751,9.5968305 9.4857605,9.5775106 9.379902,9.3290967 9.221659,9.3348308 Z M 9.7906163,9.9590815 C 9.6227779,9.9593382 9.3843439,10.17164 9.1942704,10.118762 9.1367277,10.396881 9.0226299,10.949626 9.5043289,10.683585 9.752928,10.546574 10.052456,10.382689 9.9306595,10.047448 9.8947304,9.9827535 9.8465627,9.9589961 9.7906163,9.9590815 Z m 0.1167889,0.5679245 c -0.048379,0.002 -0.1079135,0.03286 -0.1782836,0.104903 -0.1746589,0.154086 -0.419086,0.176419 -0.6092653,0.300757 0.033779,0.222872 -0.1665322,0.81119 0.2123903,0.710034 0.2331762,-0.185582 0.4526777,-0.4132 0.7157184,-0.561206 0.06869,-0.197259 0.03222,-0.561468 -0.1405598,-0.554488 z m 0.1059368,0.668692 c -0.19739,0.10566 -0.332164,0.313454 -0.5188315,0.437183 -0.3074469,0.0763 -0.3871597,0.326374 -0.296106,0.63407 0.1925476,0.252702 0.4897487,-0.133395 0.6345864,-0.283187 0.2971981,-0.150777 0.2443611,-0.514964 0.1803511,-0.788066 z m 0.05943,0.714686 c -0.03736,0.01985 -0.074783,0.03958 -0.112138,0.05943 -0.2013688,0.282448 -0.5660498,0.429606 -0.7415569,0.729671 -0.064139,0.296262 -0.1725496,0.572422 -0.1746663,0.881599 0.098663,0.276319 -0.038935,0.697369 0.28267,0.85938 0.2285126,-0.07654 0.3977716,-0.43432 0.6356201,-0.594279 0.2913811,-0.172129 0.2640001,-0.451566 0.1968871,-0.731738 0.09262,-0.404095 0.0509,-0.812692 -0.08682,-1.204061 z" />
    <path
       id="right_external_abdominal_oblique"
       style="fill:none;stroke:#000000;stroke-width:0.0529167;stroke-linecap:round;stroke-linejoin:round;stroke-dasharray:none;stroke-dashoffset:0;stroke-opacity:1;paint-order:stroke fill markers"
       inkscape:label="right_external_abdominal_oblique"
       d="m 5.0493041,8.5364295 c -0.041812,1.082e-4 -0.066506,0.046036 -0.063045,0.173116 C 4.9587304,9.1124903 5.3973129,9.162032 5.6957759,9.1012529 6.0957274,8.9849728 5.6160072,8.9347181 5.5174925,8.8382198 5.3741873,8.8344839 5.1561574,8.536153 5.0493041,8.5364295 Z M 5.2167356,9.1684322 C 5.0853681,9.1704695 5.0200494,9.2371577 5.1004637,9.4810747 5.2156982,9.7523885 5.5945884,9.3834943 5.7552039,9.2702349 5.8994275,9.1220325 5.5667357,9.1931512 5.5071571,9.2108068 5.3980866,9.1893888 5.2955558,9.1672167 5.2167356,9.1684322 Z M 5.851839,9.3348303 C 5.6935955,9.3290967 5.5877373,9.5775095 5.4136226,9.5968299 4.9541557,9.6674014 5.3842666,9.9445855 5.6161945,9.9999059 6.0312892,10.081223 5.9407083,9.5943537 5.8843949,9.3394811 5.8733433,9.336695 5.8623869,9.3352134 5.851839,9.3348297 Z M 5.2833982,9.9590815 C 5.227452,9.9589961 5.1792841,9.9827538 5.143355,10.047448 5.0215588,10.382689 5.3205695,10.546574 5.5691688,10.683585 6.0508676,10.949626 5.93677,10.396881 5.8792274,10.118762 5.6891542,10.17164 5.4512369,9.9593382 5.2833982,9.9590815 Z M 5.1562741,10.527006 c -0.164006,0.0075 -0.1980591,0.361174 -0.1307415,0.554488 0.2630408,0.148006 0.4825426,0.375624 0.7157188,0.561206 0.3789222,0.101156 0.1786104,-0.487162 0.21239,-0.710034 C 5.7634619,10.808328 5.5190353,10.785995 5.3443764,10.631909 5.2689797,10.554723 5.2064801,10.524706 5.1562741,10.527006 Z M 5.060673,11.195698 C 4.9966626,11.4688 4.9433091,11.832987 5.2405066,11.983764 5.3853445,12.133556 5.6830627,12.519653 5.87561,12.266951 5.966664,11.959255 5.88695,11.709184 5.5795039,11.632881 5.3928367,11.509152 5.2580625,11.301358 5.060673,11.195698 Z m -0.059945,0.714686 c -0.1377161,0.391369 -0.1794375,0.799966 -0.086816,1.204061 -0.067113,0.280172 -0.094494,0.559609 0.1968873,0.731738 0.2378482,0.159959 0.4076242,0.517743 0.6361369,0.594279 0.3216052,-0.162011 0.1840066,-0.583061 0.2826699,-0.85938 C 6.0274893,13.271905 5.9185619,12.995745 5.8544227,12.699483 5.6789156,12.399418 5.3142346,12.25226 5.112866,11.969812 5.075511,11.949972 5.038083,11.930232 5.0007282,11.910382 Z" />
  </g>
  <g
     id="adductor_longus"
     inkscape:label="adductor_longus">
    <path
       style="display:inline;fill:none;stroke:#000000;stroke-width:0.0529167;stroke-linecap:round;stroke-linejoin:round;stroke-dasharray:none;stroke-dashoffset:0;stroke-opacity:1;paint-order:stroke fill markers"
       d="m 8.5294405,15.672227 c 0.1546405,-0.409224 0.4436864,-0.34066 0.3870946,0.09429 0.08205,0.28037 0.2878667,0.497698 0.1488829,0.799012 C 8.9506376,16.98216 8.8025886,16.530606 8.7080959,16.342207 8.6626889,16.152008 8.4943895,15.910826 8.5294405,15.672227 Z"
       id="left_adductor_longus"
       inkscape:label="adductor longus L" />
    <path
       style="display:inline;fill:none;stroke:#000000;stroke-width:0.0529167;stroke-linecap:round;stroke-linejoin:round;stroke-dasharray:none;stroke-dashoffset:0;stroke-opacity:1;paint-order:stroke fill markers"
       d="m 6.5443255,15.672227 c -0.1546407,-0.409224 -0.4436866,-0.34066 -0.3870949,0.09429 -0.08205,0.28037 -0.2878666,0.497698 -0.1488829,0.799012 0.1147805,0.416628 0.2628294,-0.03493 0.3573225,-0.223325 0.045407,-0.190199 0.213706,-0.431381 0.1786553,-0.66998 z"
       id="right_adductor_longus"
       inkscape:label="adductor longus R" />
  </g>
  <g
     id="tensor_fasciae_latae"
     inkscape:label="tensor_fasciae_latae">
    <path
       style="display:inline;fill:none;stroke:#000000;stroke-width:0.0529167;stroke-linecap:round;stroke-linejoin:round;stroke-dasharray:none;stroke-dashoffset:0;stroke-opacity:1;paint-order:stroke fill markers"
       d="m 10.22175,13.751621 c 0.25064,0.451039 0.262672,0.997597 0.352493,1.498429 0.05087,0.678073 0.318165,1.344535 0.238081,2.030126 -0.303066,-0.0378 -0.09349,-0.539075 -0.298618,-0.704434 -0.182091,-0.352263 -0.195096,-0.771269 -0.353273,-1.127835 -0.06782,-0.377394 -0.2720307,-0.767542 -0.0823,-1.143491 0.05551,-0.179246 -0.090981,-0.46718 0.143617,-0.552795 z"
       id="left_tensor_fasciae_latae"
       inkscape:label="tensor fasciae latae L" />
    <path
       style="display:inline;fill:none;stroke:#000000;stroke-width:0.0529167;stroke-linecap:round;stroke-linejoin:round;stroke-dasharray:none;stroke-dashoffset:0;stroke-opacity:1;paint-order:stroke fill markers"
       d="m 4.8520162,13.751621 c -0.2506403,0.451039 -0.2626719,0.997597 -0.3524937,1.498429 -0.050872,0.678073 -0.3181647,1.344535 -0.23808,2.030126 0.3030648,-0.0378 0.093491,-0.539075 0.2986174,-0.704434 0.1820908,-0.352263 0.1950958,-0.771269 0.3532725,-1.127835 0.067823,-0.377394 0.272031,-0.767542 0.082299,-1.143491 -0.055511,-0.179246 0.090981,-0.46718 -0.1436152,-0.552795 z"
       id="right_tensor_fasciae_latae"
       inkscape:label="tensor fasciae latae R" />
  </g>
  <g
     id="pectineus"
     inkscape:label="pectineus">
    <path
       style="display:inline;fill:none;stroke:#000000;stroke-width:0.0529167;stroke-linecap:round;stroke-linejoin:round;stroke-dasharray:none;stroke-dashoffset:0;stroke-opacity:1;paint-order:stroke fill markers"
       d="m 8.8718724,15.260314 c 0.1309428,-0.456692 0.5673974,-0.52035 0.4317619,0.01817 0.040996,0.235838 0.1113639,0.634251 -0.122147,0.751367 C 8.9413329,15.983671 9.0067599,15.53114 8.9009546,15.31319 l -0.025509,-0.04638 z"
       id="left_pectineus"
       inkscape:label="pectineus L" />
    <path
       style="display:inline;fill:none;stroke:#000000;stroke-width:0.0529167;stroke-linecap:round;stroke-linejoin:round;stroke-dasharray:none;stroke-dashoffset:0;stroke-opacity:1;paint-order:stroke fill markers"
       d="m 6.2018936,15.260314 c -0.1309428,-0.456692 -0.5673976,-0.52035 -0.4317621,0.01817 -0.040996,0.235838 -0.1113639,0.634251 0.122147,0.751367 0.2401546,-0.04618 0.1747274,-0.498711 0.2805326,-0.716661 l 0.025508,-0.04638 z"
       id="right_pectineus"
       inkscape:label="pectineus R" />
  </g>
  <g
     id="iliopsoas"
     inkscape:label="iliopsoas">
    <path
       style="display:inline;fill:none;stroke:#000000;stroke-width:0.0529167;stroke-linecap:round;stroke-linejoin:round;stroke-dasharray:none;stroke-dashoffset:0;stroke-opacity:1;paint-order:stroke fill markers"
       d="m 9.6361409,14.371971 c 0.1905013,0.244579 -0.14122,0.469922 -0.1191064,0.714645 -0.1504593,0.48704 -0.1643803,-0.01423 -0.1687372,-0.253102 -0.08998,-0.18833 0.1508336,-0.372325 0.2878436,-0.461543 z"
       id="left_iliopsoas"
       inkscape:label="iliopsoas L" />
    <path
       style="display:inline;fill:none;stroke:#000000;stroke-width:0.0529167;stroke-linecap:round;stroke-linejoin:round;stroke-dasharray:none;stroke-dashoffset:0;stroke-opacity:1;paint-order:stroke fill markers"
       d="m 5.4376248,14.371971 c -0.1905013,0.244579 0.1412201,0.469922 0.1191067,0.714645 0.150459,0.48704 0.1643801,-0.01423 0.1687372,-0.253102 0.08998,-0.18833 -0.1508336,-0.372325 -0.2878439,-0.461543 z"
       id="right_iliopsoas"
       inkscape:label="iliopsoas R" />
  </g>
  <g
     id="gracilis"
     inkscape:label="gracilis">
    <path
       style="display:inline;fill:none;stroke:#000000;stroke-width:0.0529167;stroke-linecap:round;stroke-linejoin:round;stroke-dasharray:none;stroke-dashoffset:0;stroke-opacity:1;paint-order:stroke fill markers"
       d="m 7.8024383,17.078595 c 0.1989963,-0.204395 0.4788167,-0.511134 0.40005,-0.0064 -0.018746,0.310773 -0.129998,0.594952 -0.093419,0.912785 -0.025011,0.325185 -0.00108,0.6467 0.1004353,0.93629 0.1391582,0.376602 -0.1040129,0.744481 -0.03509,1.13319 0.00587,0.369443 -0.1496039,-0.390074 -0.1579502,-0.526821 C 7.8410357,18.726647 7.7442588,17.901095 7.8024383,17.078595 Z"
       id="left_gracilis"
       inkscape:label="gracilis L" />
    <path
       style="display:inline;fill:none;stroke:#000000;stroke-width:0.0529167;stroke-linecap:round;stroke-linejoin:round;stroke-dasharray:none;stroke-dashoffset:0;stroke-opacity:1;paint-order:stroke fill markers"
       d="M 7.2713277,17.078595 C 7.0723312,16.8742 6.7925108,16.567461 6.8712778,17.07216 c 0.018746,0.310773 0.129998,0.594952 0.093419,0.912785 0.025011,0.325185 0.00108,0.6467 -0.1004353,0.93629 -0.1391581,0.376602 0.104013,0.744481 0.03509,1.13319 -0.00587,0.369443 0.1496041,-0.390074 0.1579504,-0.526821 0.1754285,-0.800957 0.2722054,-1.626509 0.2140258,-2.449009 z"
       id="right_gracilis"
       inkscape:label="gracilis R" />
  </g>
  <g
     id="rectus_femoris"
     inkscape:label="rectus_femoris">
    <path
       style="display:inline;fill:none;stroke:#000000;stroke-width:0.0529167;stroke-linecap:round;stroke-linejoin:round;stroke-dasharray:none;stroke-dashoffset:0;stroke-opacity:1;paint-order:stroke fill markers"
       d="m 9.655305,21.296694 c 0.3136341,-0.359911 0.343749,-0.885637 0.577041,-1.299877 0.253553,-0.55824 0.221714,-1.184125 0.317547,-1.777878 -0.112957,-0.415628 -0.04122,-0.854593 -0.199433,-1.265466 -8.21e-4,-0.308688 -0.03336,-0.612034 -0.105607,-0.913611 -0.06644,-0.312441 -0.150283,-0.62496 -0.2667011,-0.926438 -0.1770822,0.729435 -0.3348225,1.459821 -0.5670148,2.179235 -0.094779,0.405481 -0.227345,0.798668 -0.3945096,1.182611 -0.1640363,0.49784 0.1334336,1.001822 0.042113,1.50897 0.2145842,0.410813 0.1272201,0.981186 0.4709525,1.316219 0.040366,0.03795 0.083507,0.0036 0.1256123,-0.0038 z"
       id="left_rectus_femoris"
       inkscape:label="rectus femoris L" />
    <path
       style="display:inline;fill:none;stroke:#000000;stroke-width:0.0529167;stroke-linecap:round;stroke-linejoin:round;stroke-dasharray:none;stroke-dashoffset:0;stroke-opacity:1;paint-order:stroke fill markers"
       d="M 5.4184608,21.296694 C 5.1048269,20.936783 5.0747118,20.411057 4.8414199,19.996817 4.5878668,19.438577 4.6197063,18.812692 4.5238729,18.218939 c 0.1129569,-0.415628 0.04122,-0.854593 0.1994333,-1.265466 8.202e-4,-0.308688 0.033364,-0.612034 0.1056071,-0.913611 0.066441,-0.312441 0.1502823,-0.62496 0.2667006,-0.926438 0.1770824,0.729435 0.3348225,1.459821 0.5670147,2.179235 0.094779,0.405481 0.2273451,0.798668 0.3945096,1.182611 0.1640364,0.49784 -0.1334336,1.001822 -0.042112,1.50897 -0.2145842,0.410813 -0.1272204,0.981186 -0.4709527,1.316219 -0.040365,0.03795 -0.083506,0.0036 -0.1256123,-0.0038 z"
       id="right_rectus_femoris"
       inkscape:label="rectus femoris R" />
  </g>
  <g
     id="vastus_medialis"
     inkscape:label="vastus_medialis">
    <path
       style="display:inline;fill:none;stroke:#000000;stroke-width:0.0529167;stroke-linecap:round;stroke-linejoin:round;stroke-dasharray:none;stroke-dashoffset:0;stroke-opacity:1;paint-order:stroke fill markers"
       d="M 9.1148856,22.166984 C 9.3142682,21.840924 9.32218,21.383492 9.2455426,21.022013 9.1113447,20.678239 9.072607,20.277755 8.9955704,19.935111 9.025589,19.58476 8.9326379,19.244312 8.911349,18.896378 c -0.152822,0.191291 -0.1809585,0.51976 -0.2175713,0.768814 -0.066673,0.416686 -0.1659797,0.818454 -0.2119876,1.243654 -0.077764,0.331163 -0.2371273,0.739853 0.088935,0.999818 0.1421347,0.120631 0.3443954,0.317794 0.5441605,0.25832 z"
       id="left_vastus_medialis"
       inkscape:label="vastus medialis L" />
    <path
       style="display:inline;fill:none;stroke:#000000;stroke-width:0.0529167;stroke-linecap:round;stroke-linejoin:round;stroke-dasharray:none;stroke-dashoffset:0;stroke-opacity:1;paint-order:stroke fill markers"
       d="m 5.9588804,22.166984 c -0.1993828,-0.32606 -0.2072946,-0.783492 -0.1306573,-1.144971 0.1341983,-0.343774 0.1729356,-0.744258 0.2499725,-1.086902 -0.030019,-0.350351 0.062933,-0.690799 0.084221,-1.038733 0.1528223,0.191291 0.1809586,0.51976 0.2175714,0.768814 0.066673,0.416686 0.16598,0.818454 0.2119878,1.243654 0.077764,0.331163 0.2371273,0.739853 -0.088936,0.999818 -0.1421344,0.120631 -0.3443954,0.317794 -0.5441594,0.25832 z"
       id="right_vastus_medialis"
       inkscape:label="vastus medialis R" />
  </g>
  <g
     id="vastus_lateralis"
     inkscape:label="vastus_lateralis">
    <path
       style="display:inline;fill:none;stroke:#000000;stroke-width:0.0529167;stroke-linecap:round;stroke-linejoin:round;stroke-dasharray:none;stroke-dashoffset:0;stroke-opacity:1;paint-order:stroke fill markers"
       d="m 10.434351,16.636431 c 0.23619,0.203064 0.03867,0.675626 0.393034,0.800106 0.132328,0.377197 0.04786,0.814612 -0.0043,1.202681 -0.08614,0.313261 -0.09107,0.639491 -0.04969,0.954434 -0.04138,0.30629 0.0062,0.601765 -0.101446,0.895072 -0.238821,0.491931 -0.335638,1.068735 -0.65868,1.530872 -0.2495923,-0.122144 -0.087264,-0.586929 -0.1018781,-0.841967 0.1052431,-0.702641 0.5803271,-1.288443 0.6179901,-2.00123 0.04537,-0.463517 0.173328,-0.925839 0.01729,-1.381921 0.1255,-0.399424 -0.194304,-0.770198 -0.112299,-1.158047 z"
       id="left_vastus_lateralis"
       inkscape:label="vastus lateralis L" />
    <path
       style="display:inline;fill:none;stroke:#000000;stroke-width:0.0529167;stroke-linecap:round;stroke-linejoin:round;stroke-dasharray:none;stroke-dashoffset:0;stroke-opacity:1;paint-order:stroke fill markers"
       d="m 4.6394145,16.636431 c -0.23619,0.203064 -0.03867,0.675626 -0.3930332,0.800106 -0.1323284,0.377197 -0.047862,0.814612 0.00432,1.202681 0.086135,0.313261 0.091073,0.639491 0.049692,0.954434 0.041376,0.30629 -0.00622,0.601765 0.1014453,0.895072 0.2388219,0.491931 0.3356385,1.068735 0.6586807,1.530872 0.249592,-0.122144 0.087264,-0.586929 0.101878,-0.841967 C 5.0571551,20.474988 4.5820711,19.889186 4.544408,19.176399 4.4990417,18.712882 4.3710805,18.25056 4.5271174,17.794478 4.4016168,17.395054 4.7214208,17.02428 4.6394156,16.636431 Z"
       id="right_vastus_lateralis"
       inkscape:label="vastus lateralis R" />
  </g>
  <g
     id="sartorius"
     inkscape:label="sartorius">
    <path
       id="left_sartorius"
       style="fill:none;stroke:#000000;stroke-width:0.0529167;stroke-linecap:round;stroke-linejoin:round;stroke-dasharray:none;stroke-dashoffset:0;stroke-opacity:1;paint-order:stroke fill markers"
       inkscape:label="sartorius"
       d="m 9.9937046,14.083894 c -0.079178,0.018 -0.111811,0.06681 -0.14211,0.137976 -0.050081,0.283529 -0.1031844,0.576556 -0.2645834,0.834575 -0.1821987,0.312228 -0.061577,0.735669 -0.289905,1.004589 -0.09811,0.333648 -0.1750078,0.667468 -0.3694861,0.963766 -0.1733428,0.542394 -0.4190068,1.063595 -0.5317505,1.625224 -0.057983,0.295615 -0.037853,0.609979 -0.1374593,0.891935 -0.06798,0.454315 0.067598,0.912754 0.032039,1.372009 0.00485,0.123458 0.016089,0.176677 0.030489,0.183968 l 5.292e-4,5.29e-4 c 2.355e-4,7e-5 0.00132,4.77e-4 0.00156,5.29e-4 2.384e-4,2.4e-5 0.00132,0 0.00156,0 h 5.291e-4 c 0.045387,-0.0084 0.1160942,-0.410181 0.1162722,-0.538985 0.096611,-0.413571 0.128928,-0.844313 0.2387449,-1.252636 0.069098,-0.270549 0.1505387,-0.510211 0.2315104,-0.768946 0.09917,-0.315572 0.225642,-0.6189 0.3296957,-0.929142 0.04252,-0.266544 0.1652744,-0.535969 0.2454632,-0.818554 0.1137359,-0.634539 0.3435101,-1.243901 0.4340818,-1.879472 -0.028602,-0.288606 0.1143912,-0.549197 0.072864,-0.82734 z m -1.4965494,7.879622 -0.00672,0.01137 -0.028422,0.04496 c 0.1426482,0.34554 -0.1151165,0.772152 0.1756997,1.061951 -0.047813,0.379453 0.4326792,0.52743 0.2103231,0.03979 0.1633043,-0.426876 -0.2563492,-0.7656 -0.350883,-1.158069 z" />
    <path
       id="right_sartorius"
       style="fill:none;stroke:#000000;stroke-width:0.0529167;stroke-linecap:round;stroke-linejoin:round;stroke-dasharray:none;stroke-dashoffset:0;stroke-opacity:1;paint-order:stroke fill markers"
       inkscape:label="sartorius R"
       d="m 5.0803098,14.083894 c -0.041527,0.278143 0.1014656,0.538734 0.072864,0.82734 0.090572,0.635571 0.3198291,1.244933 0.433565,1.879472 0.080189,0.282585 0.2034606,0.55201 0.24598,0.818554 0.1040537,0.310242 0.2305258,0.613571 0.3296954,0.929143 0.080972,0.258735 0.1624123,0.498396 0.2315104,0.768945 0.1098169,0.408323 0.1421344,0.839065 0.2387452,1.252637 1.772e-4,0.128115 0.069838,0.526494 0.1152384,0.538985 2.429e-4,4.4e-5 0.0013,-2.3e-5 0.00156,0 h 5.291e-4 c 2.384e-4,-2.4e-5 0.00132,-4.77e-4 0.00156,-5.3e-4 h 5.291e-4 c 0.014732,-0.0059 0.026598,-0.05904 0.031522,-0.184485 C 6.7480521,20.4547 6.8831142,19.996262 6.815134,19.541946 6.7155279,19.25999 6.7356571,18.945627 6.6776745,18.650011 6.5649308,18.088382 6.319267,17.567181 6.1459242,17.024787 5.9514457,16.72849 5.8745474,16.394669 5.7764375,16.061022 5.5481093,15.792101 5.6687318,15.368661 5.4865328,15.056432 5.3251341,14.798413 5.2720309,14.505387 5.2219495,14.221858 5.1916502,14.150689 5.1595343,14.101886 5.0803561,14.083882 Z m 1.4960327,7.879622 c -0.094533,0.392469 -0.5141872,0.731193 -0.350883,1.158069 -0.2223561,0.48764 0.258653,0.339663 0.2108396,-0.03979 0.2908162,-0.289798 0.032535,-0.71641 0.1751832,-1.06195 l -0.027905,-0.04496 z" />
  </g>
  <g
     id="gastrocnemius_f"
     inkscape:label="gastrocnemius_f">
    <path
       style="display:inline;fill:none;stroke:#000000;stroke-width:0.0529167;stroke-linecap:round;stroke-linejoin:round;stroke-dasharray:none;stroke-dashoffset:0;stroke-opacity:1;paint-order:stroke fill markers"
       d="m 8.8481851,23.893527 c 0.051722,0.427994 0.3548472,0.783789 0.4141861,1.206 0.1140373,0.440936 0.1179592,0.955273 -0.08432,1.369777 -0.1458426,0.121605 -0.4522068,0.591945 -0.5404194,0.217578 -0.0367,-0.631365 -0.1510964,-1.29494 0.058447,-1.905756 0.063485,-0.269788 0.1844688,-0.549115 0.088941,-0.838465 l 0.041779,-0.0325 z"
       id="left_gastrocnemius_f"
       inkscape:label="gastrocnemius L" />
    <path
       style="display:inline;fill:none;stroke:#000000;stroke-width:0.0529167;stroke-linecap:round;stroke-linejoin:round;stroke-dasharray:none;stroke-dashoffset:0;stroke-opacity:1;paint-order:stroke fill markers"
       d="m 6.2255807,23.893527 c -0.051722,0.427994 -0.3548472,0.783789 -0.4141861,1.206 -0.1140373,0.440936 -0.1179592,0.955273 0.08432,1.369777 0.1458425,0.121605 0.4522067,0.591945 0.5404194,0.217578 0.0367,-0.631365 0.1510966,-1.29494 -0.058447,-1.905756 C 6.314202,24.511338 6.1932185,24.232011 6.288746,23.942661 l -0.041778,-0.0325 z"
       id="right_gastrocnemius_f"
       inkscape:label="gastrocnemius R" />
  </g>
  <g
     id="soleus_f"
     inkscape:label="soleus_f">
    <path
       style="display:inline;fill:none;stroke:#000000;stroke-width:0.0529167;stroke-linecap:round;stroke-linejoin:round;stroke-dasharray:none;stroke-dashoffset:0;stroke-opacity:1;paint-order:stroke fill markers"
       d="m 9.0657564,28.638012 c 0.095122,-0.322014 0.064904,-0.673786 0.1473883,-1.003642 -0.061905,-0.348689 0.078041,-0.750284 -0.042111,-1.066807 -0.1043053,0.260326 -0.5425114,0.256989 -0.4075863,0.571552 0.1030385,0.284687 0.166784,0.542952 0.1759775,0.846183 0.1077185,0.180059 -0.072949,0.596614 0.1263315,0.652714 z"
       id="left_soleus_f"
       inkscape:label="soleus L" />
    <path
       style="display:inline;fill:none;stroke:#000000;stroke-width:0.0529167;stroke-linecap:round;stroke-linejoin:round;stroke-dasharray:none;stroke-dashoffset:0;stroke-opacity:1;paint-order:stroke fill markers"
       d="m 6.0080093,28.638012 c -0.095121,-0.322014 -0.064904,-0.673786 -0.147388,-1.003642 0.061904,-0.348689 -0.078041,-0.750284 0.042111,-1.066807 0.1043051,0.260326 0.5425112,0.256989 0.4075864,0.571552 -0.1030388,0.284687 -0.1667841,0.542952 -0.1759776,0.846183 -0.1077185,0.180059 0.072949,0.596614 -0.1263318,0.652714 z"
       id="right_soleus_f"
       inkscape:label="soleus R" />
  </g>
  <g
     id="tibialis_anterior"
     inkscape:label="tibialis_anterior">
    <path
       style="display:inline;fill:none;stroke:#000000;stroke-width:0.0529167;stroke-linecap:round;stroke-linejoin:round;stroke-dasharray:none;stroke-dashoffset:0;stroke-opacity:1;paint-order:stroke fill markers"
       d="m 10.118522,22.981126 c 0.218867,0.182924 0.283947,0.538836 0.313411,0.816652 0.142054,0.36475 -0.258144,0.683906 -0.144968,1.068098 0.07076,0.365715 -0.17756,0.697878 -0.0772,1.063006 -0.128957,0.394808 -0.2279532,0.797891 -0.2877562,1.210977 -0.1421858,0.440912 -0.2291646,0.927087 -0.4140882,1.3648 0.076909,0.247684 -0.2727452,0.739161 -0.2527861,0.335238 0.08132,-0.675087 0.1643824,-1.356516 0.2548792,-2.02796 0.1460717,-0.605097 0.1410575,-1.235848 0.3106253,-1.834196 0.069654,-0.503197 0.1493869,-0.980721 0.243506,-1.477458 0.03964,-0.171997 -0.04231,-0.364606 0.05438,-0.519157 z"
       id="left_tibialis_anterior"
       inkscape:label="tibialis anterior L" />
    <path
       style="display:inline;fill:none;stroke:#000000;stroke-width:0.0529167;stroke-linecap:round;stroke-linejoin:round;stroke-dasharray:none;stroke-dashoffset:0;stroke-opacity:1;paint-order:stroke fill markers"
       d="m 4.9552439,22.981126 c -0.2188675,0.182924 -0.2839473,0.538836 -0.3134113,0.816652 -0.1420538,0.36475 0.2581444,0.683906 0.1449681,1.068098 -0.070758,0.365715 0.1775603,0.697878 0.077202,1.063006 0.1289571,0.394808 0.2279533,0.797891 0.2877563,1.210977 0.1421857,0.440912 0.2291646,0.927087 0.4140885,1.3648 -0.076909,0.247684 0.2727449,0.739161 0.2527858,0.335238 C 5.7373131,28.16481 5.6542509,27.483381 5.5637544,26.811937 5.4176824,26.20684 5.4226965,25.576089 5.2531288,24.977741 5.1834746,24.474544 5.1037421,23.99702 5.009623,23.500283 4.9699783,23.328286 5.0519301,23.135677 4.9552439,22.981126 Z"
       id="right_tibialis_anterior"
       inkscape:label="tibialis anterior R" />
  </g>
  <g
     id="extensor_digitorum_longus"
     inkscape:label="extensor_digitorum_longus">
    <path
       style="display:inline;fill:none;stroke:#000000;stroke-width:0.0529167;stroke-linecap:round;stroke-linejoin:round;stroke-dasharray:none;stroke-dashoffset:0;stroke-opacity:1;paint-order:stroke fill markers"
       d="m 10.448388,24.370782 c 0.218061,0.185134 -0.02025,0.541976 0.02995,0.810676 -0.02482,0.532402 -0.126195,1.044712 -0.261109,1.557941 -0.123954,0.655209 -0.3312207,1.281776 -0.4833278,1.933718 -0.1318607,0.178469 -0.027415,0.688594 -0.3312641,0.610592 -0.00289,-0.307099 0.189984,-0.592146 0.2426789,-0.898978 0.1948067,-0.598561 0.3370247,-1.211963 0.459164,-1.831205 0.09373,-0.316137 0.194906,-0.63741 0.200617,-0.974587 0.08426,-0.340855 0.03814,-0.689231 0.05295,-1.034345 0.0077,-0.06857 0.05574,-0.117788 0.09034,-0.173812 z"
       id="left_extensor_digitorum_longus"
       inkscape:label="extensor digitorum longus L" />
    <path
       style="display:inline;fill:none;stroke:#000000;stroke-width:0.0529167;stroke-linecap:round;stroke-linejoin:round;stroke-dasharray:none;stroke-dashoffset:0;stroke-opacity:1;paint-order:stroke fill markers"
       d="m 4.6253776,24.370782 c -0.2180608,0.185134 0.020249,0.541976 -0.029952,0.810676 0.02482,0.532402 0.1261948,1.044712 0.2611085,1.557941 0.1239544,0.655209 0.3312208,1.281776 0.4833281,1.933718 0.1318604,0.178469 0.027415,0.688594 0.3312642,0.610592 C 5.6740126,28.97661 5.4811417,28.691563 5.4284467,28.384731 5.2336404,27.78617 5.0914221,27.172768 4.9692825,26.553526 4.8755533,26.237389 4.7743774,25.916116 4.7686656,25.578939 4.684408,25.238084 4.7305243,24.889708 4.7157214,24.544594 4.707993,24.476022 4.659978,24.426806 4.6253776,24.370782 Z"
       id="right_extensor_digitorum_longus_"
       inkscape:label="extensor digitorum longus R" />
  </g>
  <g
     id="peroneus_longus"
     inkscape:label="peroneus_longus">
    <path
       style="display:inline;fill:none;stroke:#000000;stroke-width:0.0529167;stroke-linecap:round;stroke-linejoin:round;stroke-dasharray:none;stroke-dashoffset:0;stroke-opacity:1;paint-order:stroke fill markers"
       d="m 10.630868,24.644503 c 0.03415,0.367511 0.04198,0.729886 -0.0098,1.095379 -0.100926,0.925571 -0.418319,1.829822 -0.471104,2.760533 -0.03541,0.345861 -0.1708771,0.713216 -0.143731,1.078071 C 9.8310641,29.24771 9.9019,28.812655 9.92822,28.439371 c 0.13578,-0.638763 0.281459,-1.273109 0.4329,-1.909549 0.164411,-0.603136 0.167494,-1.259202 0.241999,-1.854478 z"
       id="left_peroneus_longus"
       inkscape:label="peroneus longus L" />
    <path
       style="display:inline;fill:none;stroke:#000000;stroke-width:0.0529167;stroke-linecap:round;stroke-linejoin:round;stroke-dasharray:none;stroke-dashoffset:0;stroke-opacity:1;paint-order:stroke fill markers"
       d="m 4.4428982,24.644503 c -0.034148,0.367511 -0.041982,0.729886 0.00981,1.095379 0.1009259,0.925571 0.418319,1.829822 0.4711044,2.760533 0.035412,0.345861 0.1708769,0.713216 0.1437304,1.078071 C 5.2427076,29.24771 5.1718721,28.812655 5.1455516,28.439371 5.0097717,27.800608 4.8640929,27.166262 4.7126517,26.529822 4.5482412,25.926686 4.5451578,25.27062 4.4706535,24.675344 Z"
       id="right_peroneus_longus"
       inkscape:label="peroneus longus R" />
  </g>
  <g
     id="brachialis"
     inkscape:label="brachialis">
    <path
       style="display:inline;fill:none;stroke:#000000;stroke-width:0.0529167;stroke-linecap:round;stroke-linejoin:round;stroke-dasharray:none;stroke-dashoffset:0;stroke-opacity:1;paint-order:stroke fill markers"
       d="m 10.750181,9.5933993 c 0.222366,0.5154957 0.552264,0.9733147 0.835194,1.4563317 -0.162191,0.24512 -0.262053,0.52095 -0.36145,0.796596 -0.18549,-0.07432 -0.104264,-0.512858 -0.164934,-0.72992 -0.0213,-0.509736 -0.259679,-1.01289 -0.30881,-1.5230077 z"
       id="left_brachialis"
       inkscape:label="brachialis L" />
    <path
       style="display:inline;fill:none;stroke:#000000;stroke-width:0.0529167;stroke-linecap:round;stroke-linejoin:round;stroke-dasharray:none;stroke-dashoffset:0;stroke-opacity:1;paint-order:stroke fill markers"
       d="M 4.3235849,9.5933993 C 4.1012185,10.108895 3.7713206,10.566714 3.4883911,11.049731 c 0.1621904,0.24512 0.2620523,0.52095 0.3614497,0.796596 0.1854903,-0.07432 0.1042643,-0.512858 0.1649346,-0.72992 0.021299,-0.509736 0.2596787,-1.01289 0.3088095,-1.5230077 z"
       id="right_brachialis"
       inkscape:label="brachialis R" />
  </g>
  <g
     id="brachioradialis"
     inkscape:label="brachioradialis">
    <path
       style="display:inline;fill:none;stroke:#000000;stroke-width:0.0529167;stroke-linecap:round;stroke-linejoin:round;stroke-dasharray:none;stroke-dashoffset:0;stroke-opacity:1;paint-order:stroke fill markers"
       d="m 12.269672,10.425088 c 0.303791,0.398764 0.574789,0.830275 0.664415,1.335077 0.130049,0.786131 0.09201,1.59768 0.174286,2.391729 -0.09312,0.287118 0.06178,0.596342 -0.05492,0.864523 -0.164257,-0.07414 -0.05782,-0.539127 -0.215293,-0.731172 -0.232097,-0.749335 -0.409895,-1.513738 -0.649206,-2.256437 -0.01983,-0.327289 -0.230659,-0.64074 -0.06316,-0.968549 0.03874,-0.284394 0.0489,-0.401265 0.143879,-0.635171 z"
       id="left_brachioradialis"
       inkscape:label="brachioradialis L" />
    <path
       style="display:inline;fill:none;stroke:#000000;stroke-width:0.0529167;stroke-linecap:round;stroke-linejoin:round;stroke-dasharray:none;stroke-dashoffset:0;stroke-opacity:1;paint-order:stroke fill markers"
       d="m 2.8040937,10.425088 c -0.3037913,0.398764 -0.5747884,0.830275 -0.6644143,1.335077 -0.1300495,0.786131 -0.092008,1.59768 -0.1742868,2.391729 0.093122,0.287118 -0.06178,0.596342 0.054918,0.864523 0.1642563,-0.07414 0.057822,-0.539127 0.2152923,-0.731172 0.2320975,-0.749335 0.4098956,-1.513738 0.6492062,-2.256437 0.019828,-0.327289 0.230659,-0.64074 0.063164,-0.968549 -0.038743,-0.284394 -0.048903,-0.401265 -0.1438794,-0.635171 z"
       id="right_brachioradialis"
       inkscape:label="brachioradialis R" />
  </g>
  <g
     id="pronator_teres"
     inkscape:label="pronator_teres">
    <path
       style="display:inline;fill:none;stroke:#000000;stroke-width:0.0529167;stroke-linecap:round;stroke-linejoin:round;stroke-dasharray:none;stroke-dashoffset:0;stroke-opacity:1;paint-order:stroke fill markers"
       d="m 11.609939,11.207647 c 0.404107,0.08766 0.458645,0.613001 0.550947,0.954511 0.160142,0.551575 0.313132,1.104236 0.470237,1.652849 0.109902,0.440257 0.343333,0.898837 0.273718,1.347546 -0.249229,0.0088 -0.208666,-0.458677 -0.323653,-0.664293 -0.194959,-0.45545 -0.335601,-0.949918 -0.514343,-1.393368 -0.183075,-0.395607 -0.296063,-0.825063 -0.502524,-1.216455 -0.170371,-0.21744 -0.132236,-0.519864 0.03467,-0.668152 z"
       id="left_pronator_teres"
       inkscape:label="pronator teres L" />
    <path
       style="display:inline;fill:none;stroke:#000000;stroke-width:0.0529167;stroke-linecap:round;stroke-linejoin:round;stroke-dasharray:none;stroke-dashoffset:0;stroke-opacity:1;paint-order:stroke fill markers"
       d="m 3.4638267,11.207647 c -0.4041069,0.08766 -0.4586452,0.613001 -0.5509472,0.954511 -0.1601422,0.551575 -0.3131321,1.104236 -0.4702364,1.652849 -0.1099018,0.440257 -0.3433331,0.898837 -0.2737179,1.347546 0.2492287,0.0088 0.2086662,-0.458677 0.3236522,-0.664293 0.1949594,-0.45545 0.3356021,-0.949918 0.5143435,-1.393368 0.183075,-0.395607 0.2960629,-0.825063 0.5025244,-1.216455 0.1703708,-0.21744 0.1322351,-0.519864 -0.034666,-0.668152 z"
       id="right_pronator_teres"
       inkscape:label="pronator teres R" />
  </g>
  <g
     id="flexor_fasciae_latae"
     inkscape:label="flexor_fasciae_latae">
    <path
       style="display:inline;fill:none;stroke:#000000;stroke-width:0.0529167;stroke-linecap:round;stroke-linejoin:round;stroke-dasharray:none;stroke-dashoffset:0;stroke-opacity:1;paint-order:stroke fill markers"
       d="m 11.304637,11.842818 c 0.26318,-0.01472 0.251988,0.38468 0.391246,0.554394 0.218122,0.648686 0.526858,1.26724 0.723189,1.926788 0.119284,0.2704 0.259255,0.623453 0.156328,0.903117 -0.203186,0.02125 -0.254813,-0.444307 -0.365225,-0.625393 -0.347089,-0.677486 -0.559237,-1.407381 -0.866936,-2.102679 -0.05024,-0.241 -0.194094,-0.44073 -0.0386,-0.656227 z"
       id="left_flexor_fasciae_latae"
       inkscape:label="flexor fasciae latae L" />
    <path
       style="display:inline;fill:none;stroke:#000000;stroke-width:0.0529167;stroke-linecap:round;stroke-linejoin:round;stroke-dasharray:none;stroke-dashoffset:0;stroke-opacity:1;paint-order:stroke fill markers"
       d="M 3.7691286,11.842818 C 3.5059494,11.828099 3.517141,12.227498 3.3778831,12.397212 3.1597612,13.045898 2.851025,13.664452 2.6546941,14.324 2.5354095,14.5944 2.395439,14.947453 2.4983659,15.227117 c 0.2031859,0.02125 0.2548127,-0.444307 0.3652252,-0.625393 0.3470886,-0.677486 0.5592365,-1.407381 0.8669361,-2.102679 0.050243,-0.241 0.1940935,-0.44073 0.038601,-0.656227 z"
       id="right_flexor_fasciae_latae"
       inkscape:label="flexor fasciae latae R"
       inkscape:export-filename="male_front.svg"
       inkscape:export-xdpi="96"
       inkscape:export-ydpi="96" />
  </g>
  <metadata
     id="metadata1">
    <rdf:RDF>
      <cc:Work
         rdf:about="">
        <dc:title>Male Front</dc:title>
      </cc:Work>
    </rdf:RDF>
  </metadata>
</svg>
